%TF.GenerationSoftware,KiCad,Pcbnew,5.0.2-bee76a0~70~ubuntu18.04.1*%
%TF.CreationDate,2019-02-16T11:31:49+01:00*%
%TF.ProjectId,GP-Pcb-Nano,47502d50-6362-42d4-9e61-6e6f2e6b6963,2.0*%
%TF.SameCoordinates,Original*%
%TF.FileFunction,Copper,L1,Top*%
%TF.FilePolarity,Positive*%
%FSLAX46Y46*%
G04 Gerber Fmt 4.6, Leading zero omitted, Abs format (unit mm)*
G04 Created by KiCad (PCBNEW 5.0.2-bee76a0~70~ubuntu18.04.1) date sab 16 feb 2019 11:31:49 CET*
%MOMM*%
%LPD*%
G01*
G04 APERTURE LIST*
%ADD10C,0.010000*%
%ADD11R,1.700000X1.700000*%
%ADD12C,1.600000*%
%ADD13R,1.600000X1.600000*%
%ADD14O,1.600000X1.600000*%
%ADD15R,2.000000X2.000000*%
%ADD16C,2.000000*%
%ADD17O,1.800000X4.000000*%
%ADD18O,4.000000X1.800000*%
%ADD19R,4.400000X1.800000*%
%ADD20O,1.700000X1.700000*%
%ADD21R,1.800000X1.800000*%
%ADD22C,1.800000*%
%ADD23C,1.524000*%
%ADD24R,3.800000X2.000000*%
%ADD25R,1.500000X2.000000*%
%ADD26R,1.524000X1.524000*%
%ADD27O,1.727200X1.727200*%
%ADD28R,1.727200X1.727200*%
%ADD29C,0.650000*%
%ADD30C,0.160000*%
%ADD31C,0.800000*%
%ADD32C,0.300000*%
%ADD33C,2.100000*%
%ADD34C,0.254000*%
G04 APERTURE END LIST*
D10*
X86360000Y-62484000D02*
X86360000Y-117484000D01*
X141360000Y-117484000D02*
X86360000Y-117484000D01*
X141360000Y-62484000D02*
X141360000Y-117484000D01*
X86360000Y-62484000D02*
X141360000Y-62484000D01*
D11*
X109474000Y-72136000D03*
D12*
X129540000Y-115570000D03*
X124540000Y-115570000D03*
D13*
X118618000Y-111506000D03*
D12*
X121118000Y-111506000D03*
X92710000Y-88138000D03*
X97710000Y-88138000D03*
X99060000Y-100838000D03*
D14*
X91440000Y-100838000D03*
D15*
X95504000Y-106934000D03*
D16*
X95504000Y-114534000D03*
D13*
X138430000Y-82042000D03*
D12*
X138430000Y-80042000D03*
X107990000Y-97282000D03*
D13*
X110490000Y-97282000D03*
D12*
X111680000Y-91694000D03*
X106680000Y-91694000D03*
X132000000Y-81280000D03*
X127000000Y-81280000D03*
X119634000Y-68580000D03*
X119634000Y-63580000D03*
D17*
X114782000Y-111712000D03*
D18*
X109982000Y-114512000D03*
D19*
X109982000Y-108712000D03*
D20*
X127762000Y-87884000D03*
D11*
X127762000Y-85344000D03*
X88392000Y-74676000D03*
D20*
X88392000Y-72136000D03*
D11*
X121920000Y-84074000D03*
D20*
X119380000Y-84074000D03*
X116840000Y-84074000D03*
X112776000Y-84074000D03*
X110236000Y-84074000D03*
D11*
X107696000Y-84074000D03*
X107696000Y-80518000D03*
D20*
X110236000Y-80518000D03*
X112776000Y-80518000D03*
X116840000Y-80518000D03*
X119380000Y-80518000D03*
D11*
X121920000Y-80518000D03*
X112014000Y-87884000D03*
D20*
X114554000Y-87884000D03*
X117094000Y-87884000D03*
X122174000Y-91694000D03*
X119634000Y-91694000D03*
D11*
X117094000Y-91694000D03*
X117094000Y-105156000D03*
D20*
X119634000Y-105156000D03*
X122174000Y-105156000D03*
X139446000Y-107950000D03*
X139446000Y-110490000D03*
X139446000Y-113030000D03*
D11*
X139446000Y-115570000D03*
X132842000Y-111760000D03*
D20*
X130302000Y-111760000D03*
X127762000Y-111760000D03*
X125222000Y-111760000D03*
D11*
X139446000Y-91948000D03*
D20*
X139446000Y-94488000D03*
X139446000Y-97028000D03*
X139446000Y-99568000D03*
X139446000Y-102108000D03*
D11*
X106934000Y-105156000D03*
D20*
X106934000Y-102616000D03*
X109474000Y-105156000D03*
X109474000Y-102616000D03*
X112014000Y-105156000D03*
X112014000Y-102616000D03*
D21*
X123444000Y-65786000D03*
D22*
X125984000Y-65786000D03*
X132588000Y-65786000D03*
D21*
X130048000Y-65786000D03*
X136652000Y-65786000D03*
D22*
X139192000Y-65786000D03*
D23*
X107188000Y-77724000D03*
X107188000Y-87884000D03*
X122428000Y-87884000D03*
X122428000Y-77724000D03*
D12*
X138938000Y-73406000D03*
X138938000Y-70406000D03*
D24*
X119634000Y-95402000D03*
D25*
X119634000Y-101702000D03*
X121934000Y-101702000D03*
X117334000Y-101702000D03*
D26*
X138938000Y-85598000D03*
D23*
X138938000Y-88138000D03*
X136398000Y-85598000D03*
X136398000Y-88138000D03*
X133858000Y-85598000D03*
X133858000Y-88138000D03*
X131318000Y-85598000D03*
X131318000Y-88138000D03*
D12*
X136144000Y-116332000D03*
D14*
X136144000Y-108712000D03*
X130810000Y-91186000D03*
D12*
X130810000Y-98806000D03*
X131572000Y-70104000D03*
D14*
X131572000Y-77724000D03*
X128524000Y-77724000D03*
D12*
X128524000Y-70104000D03*
X125476000Y-70104000D03*
D14*
X125476000Y-77724000D03*
X127508000Y-108712000D03*
D12*
X127508000Y-101092000D03*
X127508000Y-91186000D03*
D14*
X127508000Y-98806000D03*
X130810000Y-101092000D03*
D12*
X130810000Y-108712000D03*
X135128000Y-70104000D03*
D14*
X135128000Y-77724000D03*
D27*
X111760000Y-67564000D03*
X111760000Y-65024000D03*
X109220000Y-67564000D03*
X109220000Y-65024000D03*
X106680000Y-67564000D03*
X106680000Y-65024000D03*
X104140000Y-67564000D03*
X104140000Y-65024000D03*
X101600000Y-67564000D03*
X101600000Y-65024000D03*
X99060000Y-67564000D03*
X99060000Y-65024000D03*
D28*
X88900000Y-65024000D03*
D27*
X88900000Y-67564000D03*
X91440000Y-65024000D03*
X91440000Y-67564000D03*
X93980000Y-65024000D03*
X93980000Y-67564000D03*
X96520000Y-65024000D03*
X96520000Y-67564000D03*
X114300000Y-65024000D03*
X114300000Y-67564000D03*
D13*
X87884000Y-80518000D03*
D14*
X103124000Y-113538000D03*
X87884000Y-83058000D03*
X103124000Y-110998000D03*
X87884000Y-85598000D03*
X103124000Y-108458000D03*
X87884000Y-88138000D03*
X103124000Y-105918000D03*
X87884000Y-90678000D03*
X103124000Y-103378000D03*
X87884000Y-93218000D03*
X103124000Y-100838000D03*
X87884000Y-95758000D03*
X103124000Y-98298000D03*
X87884000Y-98298000D03*
X103124000Y-95758000D03*
X87884000Y-100838000D03*
X103124000Y-93218000D03*
X87884000Y-103378000D03*
X103124000Y-90678000D03*
X87884000Y-105918000D03*
X103124000Y-88138000D03*
X87884000Y-108458000D03*
X103124000Y-85598000D03*
X87884000Y-110998000D03*
X103124000Y-83058000D03*
X87884000Y-113538000D03*
X103124000Y-80518000D03*
X87884000Y-116078000D03*
X103124000Y-116078000D03*
D29*
X111760000Y-78486000D03*
X88964001Y-79248000D03*
X136906000Y-78232000D03*
X112776000Y-70866000D03*
X101092000Y-70866000D03*
X134874000Y-72390000D03*
X109220000Y-70104000D03*
X98806000Y-70104000D03*
X97790000Y-116078000D03*
X130491999Y-71692001D03*
X107823601Y-69088000D03*
X91694000Y-69088000D03*
X136208001Y-68644001D03*
X93726000Y-113538000D03*
X102043999Y-72708001D03*
X106615999Y-72708001D03*
X118364000Y-65024000D03*
X116775999Y-72708001D03*
X101092000Y-71882000D03*
X105664000Y-71882000D03*
X87122000Y-78232000D03*
X102870000Y-78232000D03*
X99822000Y-98298000D03*
X130745999Y-96201999D03*
X96774000Y-91694000D03*
X95758000Y-89408000D03*
X95758000Y-81534000D03*
X127762000Y-82550000D03*
X90170000Y-73406000D03*
X116840000Y-73914000D03*
X120580001Y-82804000D03*
X90932000Y-87122000D03*
X98298000Y-95504000D03*
X91440000Y-95758000D03*
X131572000Y-73406000D03*
X123698000Y-98552000D03*
X113538000Y-98552000D03*
X132080000Y-102870000D03*
X123698000Y-102870000D03*
X132080000Y-94996000D03*
X91440000Y-94488000D03*
X99568000Y-109474000D03*
X99568000Y-111506000D03*
X99568000Y-113792000D03*
X99568000Y-108204000D03*
X99568000Y-110490000D03*
X99568000Y-112776000D03*
X135636000Y-97790000D03*
X136652000Y-97536000D03*
X125222000Y-97282000D03*
X125222000Y-98552000D03*
X123444000Y-92964000D03*
X125222000Y-102108000D03*
X125222000Y-101346000D03*
X88392000Y-76708000D03*
X89916000Y-85090000D03*
X100330000Y-99568000D03*
X89916000Y-81788000D03*
X113284000Y-114554000D03*
X121158000Y-114554000D03*
X92456000Y-80518000D03*
X93218000Y-83058000D03*
X94996000Y-90678000D03*
X105918000Y-76962000D03*
X115753001Y-76637001D03*
X105664000Y-75946000D03*
X114300000Y-75946000D03*
X90424000Y-93538000D03*
X90099001Y-102291001D03*
X132080000Y-93472000D03*
X90170000Y-116840000D03*
X131572000Y-116840000D03*
X127508000Y-104902000D03*
X136144000Y-113030000D03*
X137668000Y-94234000D03*
X129225990Y-103825990D03*
X129225990Y-89722010D03*
X137440001Y-89635999D03*
X115824000Y-116078000D03*
X125730000Y-80518000D03*
X124460000Y-105664000D03*
X104902000Y-106426000D03*
X115639999Y-79248000D03*
X114808000Y-89916000D03*
X114808000Y-99822000D03*
X106964051Y-100330000D03*
X125222000Y-87884000D03*
X125222000Y-94234000D03*
X111680000Y-94154000D03*
X110490000Y-86106000D03*
X114554000Y-86106000D03*
X110236000Y-74676000D03*
X105964041Y-93472000D03*
X108550001Y-92456000D03*
X93980000Y-85598000D03*
D30*
X111760000Y-67564000D02*
X111760000Y-78486000D01*
X88964001Y-104837999D02*
X88964001Y-79248000D01*
X87884000Y-105918000D02*
X88964001Y-104837999D01*
X88964001Y-79248000D02*
X88964001Y-79058001D01*
X135260011Y-87000011D02*
X135260011Y-79877989D01*
X136398000Y-88138000D02*
X135260011Y-87000011D01*
X135260011Y-79877989D02*
X136906000Y-78232000D01*
X103124000Y-116078000D02*
X101092000Y-114046000D01*
X101092000Y-114046000D02*
X101092000Y-74676000D01*
X101092000Y-74676000D02*
X100330000Y-73914000D01*
X113100999Y-66364999D02*
X112623599Y-65887599D01*
X113100999Y-70541001D02*
X113100999Y-66364999D01*
X112623599Y-65887599D02*
X111760000Y-65024000D01*
X112776000Y-70866000D02*
X113100999Y-70541001D01*
X100330000Y-73914000D02*
X100330000Y-71374000D01*
X100330000Y-71374000D02*
X101092000Y-70866000D01*
X100838000Y-70866000D02*
X101092000Y-70866000D01*
X134047999Y-79741132D02*
X134047999Y-73216001D01*
X133858000Y-85598000D02*
X133858000Y-79931131D01*
X133858000Y-79931131D02*
X134047999Y-79741132D01*
X134047999Y-73216001D02*
X134874000Y-72390000D01*
X109220000Y-67564000D02*
X109220000Y-70104000D01*
X97979999Y-115888001D02*
X97790000Y-116078000D01*
X97790000Y-98552000D02*
X97790000Y-116078000D01*
X99314000Y-97028000D02*
X97790000Y-98552000D01*
X99314000Y-93218000D02*
X99314000Y-97028000D01*
X98806000Y-70104000D02*
X98806000Y-92710000D01*
X98806000Y-92710000D02*
X99314000Y-93218000D01*
X130491999Y-83694369D02*
X130491999Y-71692001D01*
X131318000Y-85598000D02*
X131318000Y-84520370D01*
X131318000Y-84520370D02*
X130491999Y-83694369D01*
X107823601Y-66420399D02*
X107823601Y-69088000D01*
X109220000Y-65024000D02*
X107823601Y-66420399D01*
X107823601Y-69088000D02*
X107823601Y-69214399D01*
X94223999Y-87111999D02*
X91694000Y-84582000D01*
X94223999Y-113040001D02*
X94223999Y-87111999D01*
X91694000Y-84582000D02*
X91694000Y-69088000D01*
X136208001Y-78242401D02*
X136208001Y-68644001D01*
X134900001Y-79550401D02*
X136208001Y-78242401D01*
X133858000Y-88138000D02*
X134900001Y-87095999D01*
X134900001Y-87095999D02*
X134900001Y-79550401D01*
X94223999Y-113040001D02*
X93726000Y-113538000D01*
X102043999Y-104837999D02*
X102043999Y-72708001D01*
X103124000Y-105918000D02*
X102043999Y-104837999D01*
X106680000Y-72644000D02*
X106615999Y-72708001D01*
X106680000Y-67564000D02*
X106680000Y-72644000D01*
X116775999Y-66612001D02*
X118364000Y-65024000D01*
X116775999Y-72708001D02*
X116775999Y-66612001D01*
X103124000Y-108458000D02*
X101600000Y-106934000D01*
X101600000Y-106934000D02*
X101600000Y-74168000D01*
X101600000Y-74168000D02*
X101092000Y-73660000D01*
X101092000Y-73660000D02*
X101092000Y-71882000D01*
X105816401Y-65887599D02*
X106680000Y-65024000D01*
X105339001Y-71557001D02*
X105339001Y-66364999D01*
X105339001Y-66364999D02*
X105816401Y-65887599D01*
X105664000Y-71882000D02*
X105339001Y-71557001D01*
X103923999Y-97498001D02*
X103124000Y-98298000D01*
X104564011Y-96857989D02*
X103923999Y-97498001D01*
X104564011Y-69209325D02*
X104564011Y-96857989D01*
X104140000Y-68785314D02*
X104564011Y-69209325D01*
X104140000Y-67564000D02*
X104140000Y-68785314D01*
X104204001Y-94677999D02*
X103124000Y-95758000D01*
X102870000Y-66294000D02*
X102870000Y-68324870D01*
X104204001Y-69658871D02*
X104204001Y-94677999D01*
X102870000Y-68324870D02*
X104204001Y-69658871D01*
X104140000Y-65024000D02*
X102870000Y-66294000D01*
X86645010Y-99599010D02*
X86645010Y-78708990D01*
X87884000Y-100838000D02*
X86645010Y-99599010D01*
X86645010Y-78708990D02*
X87122000Y-78232000D01*
X102870000Y-68834000D02*
X101600000Y-67564000D01*
X102870000Y-78232000D02*
X102870000Y-68834000D01*
X100203601Y-66420399D02*
X100203601Y-68960399D01*
X101600000Y-65024000D02*
X100203601Y-66420399D01*
X100203601Y-68960399D02*
X99822000Y-69342000D01*
X99822000Y-69342000D02*
X99822000Y-98298000D01*
X130810000Y-96137998D02*
X130745999Y-96201999D01*
X130810000Y-91186000D02*
X130810000Y-96137998D01*
X96629999Y-91090380D02*
X96774000Y-91234381D01*
X96774000Y-91234381D02*
X96774000Y-91694000D01*
X96629999Y-71215315D02*
X96629999Y-91090380D01*
X99060000Y-68785314D02*
X96629999Y-71215315D01*
X99060000Y-67564000D02*
X99060000Y-68785314D01*
X95504000Y-92964000D02*
X96774000Y-91694000D01*
X95504000Y-106934000D02*
X95504000Y-92964000D01*
X95504000Y-89408000D02*
X95758000Y-89408000D01*
X95758000Y-89408000D02*
X95758000Y-81534000D01*
X97663601Y-66420399D02*
X97663601Y-69214399D01*
X99060000Y-65024000D02*
X97663601Y-66420399D01*
X97663601Y-69214399D02*
X95758000Y-71120000D01*
X95758000Y-81534000D02*
X95758000Y-71120000D01*
X127762000Y-85344000D02*
X127762000Y-82550000D01*
D31*
X87542001Y-71286001D02*
X88392000Y-72136000D01*
X87376000Y-71120000D02*
X87542001Y-71286001D01*
X87376000Y-66548000D02*
X87376000Y-71120000D01*
X88900000Y-65024000D02*
X87376000Y-66548000D01*
D32*
X120229999Y-81367999D02*
X119380000Y-80518000D01*
X120580001Y-81718001D02*
X120229999Y-81367999D01*
X120580001Y-90747999D02*
X120580001Y-82804000D01*
X119634000Y-91694000D02*
X120580001Y-90747999D01*
X88900000Y-68785314D02*
X90170000Y-70055314D01*
X88900000Y-67564000D02*
X88900000Y-68785314D01*
X90170000Y-70055314D02*
X90170000Y-73406000D01*
X116840000Y-73914000D02*
X116840000Y-80518000D01*
X137825999Y-87025999D02*
X138938000Y-88138000D01*
X138430000Y-83142000D02*
X137825999Y-83746001D01*
X137825999Y-83746001D02*
X137825999Y-87025999D01*
X138430000Y-82042000D02*
X138430000Y-83142000D01*
X120580001Y-82804000D02*
X120580001Y-81718001D01*
X91440000Y-65024000D02*
X90226399Y-66237601D01*
X90226399Y-69404593D02*
X90932000Y-70110194D01*
X90226399Y-66237601D02*
X90226399Y-69404593D01*
X90932000Y-70110194D02*
X90932000Y-87122000D01*
D30*
X97710000Y-88138000D02*
X97710000Y-94916000D01*
X97710000Y-94916000D02*
X98298000Y-95504000D01*
X91440000Y-100838000D02*
X91440000Y-95758000D01*
D32*
X131572000Y-77724000D02*
X131572000Y-73406000D01*
D31*
X112014000Y-84836000D02*
X112776000Y-84074000D01*
X112014000Y-87884000D02*
X112014000Y-84836000D01*
X109474000Y-102616000D02*
X113538000Y-98552000D01*
X122174000Y-105156000D02*
X123698000Y-103632000D01*
X123698000Y-103632000D02*
X123698000Y-102870000D01*
X112014000Y-89534000D02*
X113538000Y-91058000D01*
X113538000Y-91058000D02*
X113538000Y-98552000D01*
X112014000Y-87884000D02*
X112014000Y-89534000D01*
D32*
X124344630Y-77724000D02*
X125476000Y-77724000D01*
X124119001Y-77949629D02*
X124344630Y-77724000D01*
X124119001Y-98130999D02*
X124119001Y-77949629D01*
X123698000Y-98552000D02*
X124119001Y-98130999D01*
X136144000Y-116332000D02*
X134620000Y-114808000D01*
X134620000Y-114808000D02*
X134620000Y-105410000D01*
X134620000Y-105410000D02*
X132080000Y-102870000D01*
D31*
X123698000Y-102870000D02*
X123698000Y-98552000D01*
D30*
X91440000Y-89408000D02*
X92710000Y-88138000D01*
X91440000Y-94488000D02*
X91440000Y-89408000D01*
D32*
X138938000Y-84536000D02*
X138938000Y-85598000D01*
X139580001Y-83893999D02*
X138938000Y-84536000D01*
X139580001Y-80961999D02*
X139580001Y-83893999D01*
X139460001Y-80841999D02*
X139580001Y-80961999D01*
X139229999Y-80841999D02*
X139460001Y-80841999D01*
X138430000Y-80042000D02*
X139229999Y-80841999D01*
X123540001Y-78836001D02*
X123540001Y-89408000D01*
X122428000Y-77724000D02*
X123540001Y-78836001D01*
X123540001Y-89408000D02*
X123540001Y-89565999D01*
X107990000Y-93004000D02*
X106680000Y-91694000D01*
X107990000Y-97282000D02*
X107990000Y-93004000D01*
X123444000Y-89504001D02*
X123540001Y-89408000D01*
X123444000Y-92964000D02*
X123444000Y-89504001D01*
D31*
X91440000Y-66548000D02*
X91500399Y-66487601D01*
X91440000Y-67564000D02*
X91440000Y-66548000D01*
X91500399Y-66487601D02*
X92100989Y-66487601D01*
D32*
X91578630Y-88138000D02*
X91070630Y-88646000D01*
X92710000Y-88138000D02*
X91578630Y-88138000D01*
X91070630Y-88646000D02*
X90170000Y-88646000D01*
X116284000Y-101702000D02*
X113284000Y-104702000D01*
X117334000Y-101702000D02*
X116284000Y-101702000D01*
X113284000Y-104702000D02*
X113284000Y-114554000D01*
X121118000Y-114514000D02*
X121158000Y-114554000D01*
X121118000Y-111506000D02*
X121118000Y-114514000D01*
X129540000Y-113538000D02*
X127762000Y-111760000D01*
X129540000Y-115570000D02*
X129540000Y-113538000D01*
D30*
X93116401Y-65887599D02*
X93980000Y-65024000D01*
X92780999Y-66223001D02*
X93116401Y-65887599D01*
X92780999Y-80193001D02*
X92780999Y-66223001D01*
X92456000Y-80518000D02*
X92780999Y-80193001D01*
X93980000Y-68785314D02*
X93218000Y-69547314D01*
X93980000Y-67564000D02*
X93980000Y-68785314D01*
X93218000Y-69547314D02*
X93218000Y-83058000D01*
X95656401Y-69189599D02*
X93980000Y-70866000D01*
X96520000Y-67564000D02*
X95656401Y-68427599D01*
X95656401Y-68427599D02*
X95656401Y-69189599D01*
X93980000Y-82040869D02*
X94996000Y-83056869D01*
X93980000Y-70866000D02*
X93980000Y-82040869D01*
X94996000Y-83056869D02*
X94996000Y-90678000D01*
X105284031Y-101217969D02*
X105284031Y-77595969D01*
X103124000Y-103378000D02*
X105284031Y-101217969D01*
X105284031Y-77595969D02*
X105918000Y-76962000D01*
X115753001Y-66477001D02*
X114300000Y-65024000D01*
X115753001Y-76637001D02*
X115753001Y-66477001D01*
X103124000Y-100838000D02*
X104924021Y-99037979D01*
X104924021Y-99037979D02*
X104924021Y-76685979D01*
X104924021Y-76685979D02*
X105664000Y-75946000D01*
X114300000Y-75946000D02*
X114300000Y-67564000D01*
X90099001Y-93862999D02*
X90099001Y-102291001D01*
X90424000Y-93538000D02*
X90099001Y-93862999D01*
X133604000Y-71628000D02*
X135128000Y-70104000D01*
X133604000Y-79676000D02*
X133604000Y-71628000D01*
X132000000Y-81280000D02*
X133604000Y-79676000D01*
X132000000Y-82411370D02*
X132000000Y-81280000D01*
X132360001Y-82771371D02*
X132000000Y-82411370D01*
X132360001Y-92683999D02*
X132360001Y-82771371D01*
X132360001Y-92683999D02*
X132080000Y-93472000D01*
X87884000Y-108458000D02*
X90170000Y-110744000D01*
X90170000Y-110744000D02*
X90170000Y-116840000D01*
X131890001Y-110507997D02*
X131572000Y-110825998D01*
X131890001Y-108193599D02*
X131890001Y-110507997D01*
X130810000Y-101092000D02*
X130810000Y-107113598D01*
X130810000Y-107113598D02*
X131890001Y-108193599D01*
X131572000Y-110825998D02*
X131572000Y-116840000D01*
X127508000Y-108712000D02*
X127508000Y-104902000D01*
X125476000Y-66294000D02*
X125984000Y-65786000D01*
X125476000Y-70104000D02*
X125476000Y-66294000D01*
X132588000Y-66040000D02*
X132588000Y-65786000D01*
X128524000Y-70104000D02*
X132588000Y-66040000D01*
X138011999Y-66966001D02*
X139192000Y-65786000D01*
X134709999Y-66966001D02*
X138011999Y-66966001D01*
X131572000Y-70104000D02*
X134709999Y-66966001D01*
X136144000Y-108712000D02*
X136144000Y-113030000D01*
X136144000Y-107580630D02*
X137668000Y-106056630D01*
X136144000Y-108712000D02*
X136144000Y-107580630D01*
X137668000Y-106056630D02*
X137668000Y-94234000D01*
X129225990Y-103825990D02*
X129225990Y-89722010D01*
X137440001Y-87637839D02*
X137440001Y-89635999D01*
X137159999Y-87357837D02*
X137440001Y-87637839D01*
X136398000Y-85598000D02*
X137159999Y-86359999D01*
X137159999Y-86359999D02*
X137159999Y-87357837D01*
D32*
X115824000Y-115824000D02*
X115824000Y-116078000D01*
X118433999Y-109091997D02*
X119768001Y-110425999D01*
X118433999Y-104578001D02*
X118433999Y-109091997D01*
X122174000Y-98982000D02*
X120734001Y-100421999D01*
X120734001Y-100421999D02*
X120734001Y-102982001D01*
X119768001Y-110425999D02*
X119768001Y-115181999D01*
X120734001Y-102982001D02*
X119760003Y-103955999D01*
X119760003Y-103955999D02*
X119056001Y-103955999D01*
X119056001Y-103955999D02*
X118433999Y-104578001D01*
X122174000Y-91694000D02*
X122174000Y-98982000D01*
X119768001Y-115181999D02*
X118872000Y-116078000D01*
X118872000Y-116078000D02*
X115824000Y-116078000D01*
D30*
X125902010Y-81149629D02*
X125902010Y-104983990D01*
X125730000Y-80518000D02*
X125730000Y-80977619D01*
X125730000Y-80977619D02*
X125902010Y-81149629D01*
X125902010Y-104983990D02*
X125222000Y-105664000D01*
X125222000Y-105664000D02*
X124460000Y-105664000D01*
X103124000Y-110998000D02*
X104902000Y-109220000D01*
X104902000Y-109220000D02*
X104902000Y-106426000D01*
D32*
X115639999Y-86429999D02*
X115639999Y-79248000D01*
X117094000Y-87884000D02*
X115639999Y-86429999D01*
X115639999Y-79248000D02*
X115639999Y-79178001D01*
X115558010Y-100274071D02*
X113216081Y-102616000D01*
X113216081Y-102616000D02*
X112014000Y-102616000D01*
X115558010Y-89419990D02*
X115558010Y-100274071D01*
X117094000Y-87884000D02*
X115558010Y-89419990D01*
D31*
X106934000Y-101943906D02*
X106964051Y-101913855D01*
X106934000Y-102616000D02*
X106934000Y-101943906D01*
X106964051Y-101913855D02*
X106964051Y-100330000D01*
X114808000Y-89916000D02*
X114808000Y-99822000D01*
X125222000Y-94234000D02*
X125222000Y-87884000D01*
X111680000Y-91694000D02*
X111680000Y-94154000D01*
X114554000Y-87884000D02*
X114554000Y-86106000D01*
X114554000Y-86681919D02*
X114554000Y-86106000D01*
X110490000Y-97282000D02*
X110490000Y-93218000D01*
X110490000Y-93218000D02*
X109728000Y-92456000D01*
X109728000Y-90932000D02*
X110490000Y-90170000D01*
X109728000Y-92456000D02*
X109728000Y-90932000D01*
X110490000Y-90170000D02*
X110490000Y-86106000D01*
X111680000Y-94154000D02*
X111680000Y-97108000D01*
X111506000Y-97282000D02*
X110490000Y-97282000D01*
X111680000Y-97108000D02*
X111506000Y-97282000D01*
X110236000Y-80518000D02*
X110236000Y-74676000D01*
X105156000Y-102307678D02*
X105964041Y-101499638D01*
X105156000Y-105028000D02*
X105156000Y-102307678D01*
X106934000Y-105156000D02*
X105284000Y-105156000D01*
X105284000Y-105156000D02*
X105156000Y-105028000D01*
X105964041Y-101499638D02*
X105964041Y-93472000D01*
X106365999Y-85524001D02*
X106843763Y-85524001D01*
X106172000Y-85330002D02*
X106365999Y-85524001D01*
X107696000Y-80518000D02*
X106172000Y-82042000D01*
X106172000Y-82042000D02*
X106172000Y-85330002D01*
X106843763Y-85524001D02*
X108550001Y-87230239D01*
X108550001Y-87230239D02*
X108550001Y-92456000D01*
X108550001Y-92456000D02*
X108550001Y-92503327D01*
D33*
X109982000Y-105664000D02*
X109474000Y-105156000D01*
X109982000Y-108712000D02*
X109982000Y-105664000D01*
D32*
X118734000Y-95402000D02*
X119634000Y-95402000D01*
X119634000Y-101952000D02*
X119634000Y-101702000D01*
X118533999Y-103052001D02*
X119634000Y-101952000D01*
X116867997Y-103052001D02*
X118533999Y-103052001D01*
X115893999Y-104025999D02*
X116867997Y-103052001D01*
X115893999Y-109881999D02*
X115893999Y-104025999D01*
X117518000Y-111506000D02*
X115893999Y-109881999D01*
X118618000Y-111506000D02*
X117518000Y-111506000D01*
X119634000Y-101702000D02*
X119634000Y-95402000D01*
X117226000Y-91694000D02*
X117094000Y-91694000D01*
X119634000Y-94102000D02*
X117226000Y-91694000D01*
X119634000Y-95402000D02*
X119634000Y-94102000D01*
X122268001Y-113298001D02*
X122268001Y-107790001D01*
X124540000Y-115570000D02*
X122268001Y-113298001D01*
D31*
X121934000Y-102856000D02*
X121934000Y-101702000D01*
D32*
X120973999Y-103816001D02*
X121158000Y-103632000D01*
X120973999Y-106495999D02*
X120973999Y-103816001D01*
X122268001Y-107790001D02*
X120973999Y-106495999D01*
D31*
X119634000Y-105156000D02*
X121158000Y-103632000D01*
X121158000Y-103632000D02*
X121934000Y-102856000D01*
D30*
X93980000Y-85598000D02*
X93980000Y-82550000D01*
X93980000Y-82550000D02*
X93578010Y-82148010D01*
X95123601Y-68960399D02*
X95123601Y-64727869D01*
X93578010Y-70505990D02*
X95123601Y-68960399D01*
X93578010Y-82148010D02*
X93578010Y-70505990D01*
X95123601Y-64727869D02*
X96271470Y-63580000D01*
X110490000Y-70110000D02*
X110490000Y-63580000D01*
X109474000Y-71126000D02*
X110490000Y-70110000D01*
X109474000Y-72136000D02*
X109474000Y-71126000D01*
X96271470Y-63580000D02*
X110490000Y-63580000D01*
X110490000Y-63580000D02*
X119634000Y-63580000D01*
D34*
G36*
X100635001Y-74865297D02*
X100635000Y-114000992D01*
X100626047Y-114046000D01*
X100635000Y-114091008D01*
X100661516Y-114224311D01*
X100762521Y-114375479D01*
X100800685Y-114400979D01*
X102016562Y-115616856D01*
X102015291Y-115618758D01*
X101923942Y-116078000D01*
X102015291Y-116537242D01*
X102275431Y-116926569D01*
X102537982Y-117102000D01*
X90821315Y-117102000D01*
X90872000Y-116979636D01*
X90872000Y-116700364D01*
X90765127Y-116442349D01*
X90627000Y-116304222D01*
X90627000Y-110789007D01*
X90635953Y-110743999D01*
X90627000Y-110698991D01*
X90600484Y-110565688D01*
X90499479Y-110414521D01*
X90461319Y-110389024D01*
X88991438Y-108919144D01*
X88992709Y-108917242D01*
X89084058Y-108458000D01*
X88992709Y-107998758D01*
X88732569Y-107609431D01*
X88343242Y-107349291D01*
X87999920Y-107281000D01*
X87768080Y-107281000D01*
X87424758Y-107349291D01*
X87035431Y-107609431D01*
X86775291Y-107998758D01*
X86742000Y-108166123D01*
X86742000Y-106209877D01*
X86775291Y-106377242D01*
X87035431Y-106766569D01*
X87424758Y-107026709D01*
X87768080Y-107095000D01*
X87999920Y-107095000D01*
X88343242Y-107026709D01*
X88732569Y-106766569D01*
X88992709Y-106377242D01*
X89084058Y-105918000D01*
X88992709Y-105458758D01*
X88991438Y-105456856D01*
X89255319Y-105192976D01*
X89293480Y-105167478D01*
X89394485Y-105016311D01*
X89421001Y-104883008D01*
X89421001Y-104883007D01*
X89429954Y-104838000D01*
X89421001Y-104792992D01*
X89421001Y-102488578D01*
X89503874Y-102688652D01*
X89701350Y-102886128D01*
X89959365Y-102993001D01*
X90238637Y-102993001D01*
X90496652Y-102886128D01*
X90694128Y-102688652D01*
X90801001Y-102430637D01*
X90801001Y-102151365D01*
X90694128Y-101893350D01*
X90556001Y-101755223D01*
X90556001Y-101633544D01*
X90591431Y-101686569D01*
X90980758Y-101946709D01*
X91324080Y-102015000D01*
X91555920Y-102015000D01*
X91899242Y-101946709D01*
X92288569Y-101686569D01*
X92548709Y-101297242D01*
X92640058Y-100838000D01*
X92548709Y-100378758D01*
X92288569Y-99989431D01*
X91899242Y-99729291D01*
X91897000Y-99728845D01*
X91897000Y-96293778D01*
X92035127Y-96155651D01*
X92142000Y-95897636D01*
X92142000Y-95631000D01*
X93767000Y-95631000D01*
X93766999Y-112836000D01*
X93586364Y-112836000D01*
X93328349Y-112942873D01*
X93130873Y-113140349D01*
X93024000Y-113398364D01*
X93024000Y-113677636D01*
X93130873Y-113935651D01*
X93328349Y-114133127D01*
X93586364Y-114240000D01*
X93865636Y-114240000D01*
X94020019Y-114176053D01*
X93996000Y-114234040D01*
X93996000Y-114833960D01*
X94225580Y-115388213D01*
X94649787Y-115812420D01*
X95204040Y-116042000D01*
X95803960Y-116042000D01*
X96358213Y-115812420D01*
X96782420Y-115388213D01*
X97012000Y-114833960D01*
X97012000Y-114234040D01*
X96782420Y-113679787D01*
X96358213Y-113255580D01*
X95803960Y-113026000D01*
X95204040Y-113026000D01*
X94649787Y-113255580D01*
X94588899Y-113316468D01*
X94654483Y-113218313D01*
X94680999Y-113085010D01*
X94680999Y-113085009D01*
X94689952Y-113040001D01*
X94680999Y-112994993D01*
X94680999Y-108318385D01*
X96504000Y-108318385D01*
X96651098Y-108289125D01*
X96775801Y-108205801D01*
X96859125Y-108081098D01*
X96888385Y-107934000D01*
X96888385Y-105934000D01*
X96859125Y-105786902D01*
X96775801Y-105662199D01*
X96651098Y-105578875D01*
X96504000Y-105549615D01*
X95961000Y-105549615D01*
X95961000Y-93153294D01*
X96718295Y-92396000D01*
X96913636Y-92396000D01*
X97171651Y-92289127D01*
X97253001Y-92207777D01*
X97253001Y-94870987D01*
X97244047Y-94916000D01*
X97271896Y-95056000D01*
X97279517Y-95094312D01*
X97380522Y-95245479D01*
X97418682Y-95270977D01*
X97596000Y-95448295D01*
X97596000Y-95643636D01*
X97702873Y-95901651D01*
X97900349Y-96099127D01*
X98158364Y-96206000D01*
X98437636Y-96206000D01*
X98695651Y-96099127D01*
X98857001Y-95937777D01*
X98857001Y-96838704D01*
X97498685Y-98197021D01*
X97460521Y-98222521D01*
X97359516Y-98373689D01*
X97339103Y-98476312D01*
X97324047Y-98552000D01*
X97333000Y-98597008D01*
X97333001Y-115542221D01*
X97194873Y-115680349D01*
X97088000Y-115938364D01*
X97088000Y-116217636D01*
X97194873Y-116475651D01*
X97392349Y-116673127D01*
X97650364Y-116780000D01*
X97929636Y-116780000D01*
X98187651Y-116673127D01*
X98385127Y-116475651D01*
X98492000Y-116217636D01*
X98492000Y-115938364D01*
X98422680Y-115771010D01*
X98410482Y-115709689D01*
X98309477Y-115558523D01*
X98247000Y-115516778D01*
X98247000Y-101689530D01*
X98393283Y-101835813D01*
X98825880Y-102015000D01*
X99294120Y-102015000D01*
X99726717Y-101835813D01*
X100057813Y-101504717D01*
X100237000Y-101072120D01*
X100237000Y-100603880D01*
X100057813Y-100171283D01*
X99726717Y-99840187D01*
X99294120Y-99661000D01*
X98825880Y-99661000D01*
X98393283Y-99840187D01*
X98247000Y-99986470D01*
X98247000Y-98741294D01*
X99365001Y-97623294D01*
X99365001Y-97762221D01*
X99226873Y-97900349D01*
X99120000Y-98158364D01*
X99120000Y-98437636D01*
X99226873Y-98695651D01*
X99424349Y-98893127D01*
X99682364Y-99000000D01*
X99961636Y-99000000D01*
X100219651Y-98893127D01*
X100417127Y-98695651D01*
X100524000Y-98437636D01*
X100524000Y-98158364D01*
X100417127Y-97900349D01*
X100279000Y-97762222D01*
X100279000Y-74509295D01*
X100635001Y-74865297D01*
X100635001Y-74865297D01*
G37*
X100635001Y-74865297D02*
X100635000Y-114000992D01*
X100626047Y-114046000D01*
X100635000Y-114091008D01*
X100661516Y-114224311D01*
X100762521Y-114375479D01*
X100800685Y-114400979D01*
X102016562Y-115616856D01*
X102015291Y-115618758D01*
X101923942Y-116078000D01*
X102015291Y-116537242D01*
X102275431Y-116926569D01*
X102537982Y-117102000D01*
X90821315Y-117102000D01*
X90872000Y-116979636D01*
X90872000Y-116700364D01*
X90765127Y-116442349D01*
X90627000Y-116304222D01*
X90627000Y-110789007D01*
X90635953Y-110743999D01*
X90627000Y-110698991D01*
X90600484Y-110565688D01*
X90499479Y-110414521D01*
X90461319Y-110389024D01*
X88991438Y-108919144D01*
X88992709Y-108917242D01*
X89084058Y-108458000D01*
X88992709Y-107998758D01*
X88732569Y-107609431D01*
X88343242Y-107349291D01*
X87999920Y-107281000D01*
X87768080Y-107281000D01*
X87424758Y-107349291D01*
X87035431Y-107609431D01*
X86775291Y-107998758D01*
X86742000Y-108166123D01*
X86742000Y-106209877D01*
X86775291Y-106377242D01*
X87035431Y-106766569D01*
X87424758Y-107026709D01*
X87768080Y-107095000D01*
X87999920Y-107095000D01*
X88343242Y-107026709D01*
X88732569Y-106766569D01*
X88992709Y-106377242D01*
X89084058Y-105918000D01*
X88992709Y-105458758D01*
X88991438Y-105456856D01*
X89255319Y-105192976D01*
X89293480Y-105167478D01*
X89394485Y-105016311D01*
X89421001Y-104883008D01*
X89421001Y-104883007D01*
X89429954Y-104838000D01*
X89421001Y-104792992D01*
X89421001Y-102488578D01*
X89503874Y-102688652D01*
X89701350Y-102886128D01*
X89959365Y-102993001D01*
X90238637Y-102993001D01*
X90496652Y-102886128D01*
X90694128Y-102688652D01*
X90801001Y-102430637D01*
X90801001Y-102151365D01*
X90694128Y-101893350D01*
X90556001Y-101755223D01*
X90556001Y-101633544D01*
X90591431Y-101686569D01*
X90980758Y-101946709D01*
X91324080Y-102015000D01*
X91555920Y-102015000D01*
X91899242Y-101946709D01*
X92288569Y-101686569D01*
X92548709Y-101297242D01*
X92640058Y-100838000D01*
X92548709Y-100378758D01*
X92288569Y-99989431D01*
X91899242Y-99729291D01*
X91897000Y-99728845D01*
X91897000Y-96293778D01*
X92035127Y-96155651D01*
X92142000Y-95897636D01*
X92142000Y-95631000D01*
X93767000Y-95631000D01*
X93766999Y-112836000D01*
X93586364Y-112836000D01*
X93328349Y-112942873D01*
X93130873Y-113140349D01*
X93024000Y-113398364D01*
X93024000Y-113677636D01*
X93130873Y-113935651D01*
X93328349Y-114133127D01*
X93586364Y-114240000D01*
X93865636Y-114240000D01*
X94020019Y-114176053D01*
X93996000Y-114234040D01*
X93996000Y-114833960D01*
X94225580Y-115388213D01*
X94649787Y-115812420D01*
X95204040Y-116042000D01*
X95803960Y-116042000D01*
X96358213Y-115812420D01*
X96782420Y-115388213D01*
X97012000Y-114833960D01*
X97012000Y-114234040D01*
X96782420Y-113679787D01*
X96358213Y-113255580D01*
X95803960Y-113026000D01*
X95204040Y-113026000D01*
X94649787Y-113255580D01*
X94588899Y-113316468D01*
X94654483Y-113218313D01*
X94680999Y-113085010D01*
X94680999Y-113085009D01*
X94689952Y-113040001D01*
X94680999Y-112994993D01*
X94680999Y-108318385D01*
X96504000Y-108318385D01*
X96651098Y-108289125D01*
X96775801Y-108205801D01*
X96859125Y-108081098D01*
X96888385Y-107934000D01*
X96888385Y-105934000D01*
X96859125Y-105786902D01*
X96775801Y-105662199D01*
X96651098Y-105578875D01*
X96504000Y-105549615D01*
X95961000Y-105549615D01*
X95961000Y-93153294D01*
X96718295Y-92396000D01*
X96913636Y-92396000D01*
X97171651Y-92289127D01*
X97253001Y-92207777D01*
X97253001Y-94870987D01*
X97244047Y-94916000D01*
X97271896Y-95056000D01*
X97279517Y-95094312D01*
X97380522Y-95245479D01*
X97418682Y-95270977D01*
X97596000Y-95448295D01*
X97596000Y-95643636D01*
X97702873Y-95901651D01*
X97900349Y-96099127D01*
X98158364Y-96206000D01*
X98437636Y-96206000D01*
X98695651Y-96099127D01*
X98857001Y-95937777D01*
X98857001Y-96838704D01*
X97498685Y-98197021D01*
X97460521Y-98222521D01*
X97359516Y-98373689D01*
X97339103Y-98476312D01*
X97324047Y-98552000D01*
X97333000Y-98597008D01*
X97333001Y-115542221D01*
X97194873Y-115680349D01*
X97088000Y-115938364D01*
X97088000Y-116217636D01*
X97194873Y-116475651D01*
X97392349Y-116673127D01*
X97650364Y-116780000D01*
X97929636Y-116780000D01*
X98187651Y-116673127D01*
X98385127Y-116475651D01*
X98492000Y-116217636D01*
X98492000Y-115938364D01*
X98422680Y-115771010D01*
X98410482Y-115709689D01*
X98309477Y-115558523D01*
X98247000Y-115516778D01*
X98247000Y-101689530D01*
X98393283Y-101835813D01*
X98825880Y-102015000D01*
X99294120Y-102015000D01*
X99726717Y-101835813D01*
X100057813Y-101504717D01*
X100237000Y-101072120D01*
X100237000Y-100603880D01*
X100057813Y-100171283D01*
X99726717Y-99840187D01*
X99294120Y-99661000D01*
X98825880Y-99661000D01*
X98393283Y-99840187D01*
X98247000Y-99986470D01*
X98247000Y-98741294D01*
X99365001Y-97623294D01*
X99365001Y-97762221D01*
X99226873Y-97900349D01*
X99120000Y-98158364D01*
X99120000Y-98437636D01*
X99226873Y-98695651D01*
X99424349Y-98893127D01*
X99682364Y-99000000D01*
X99961636Y-99000000D01*
X100219651Y-98893127D01*
X100417127Y-98695651D01*
X100524000Y-98437636D01*
X100524000Y-98158364D01*
X100417127Y-97900349D01*
X100279000Y-97762222D01*
X100279000Y-74509295D01*
X100635001Y-74865297D01*
G36*
X140978001Y-117102000D02*
X137038530Y-117102000D01*
X137141813Y-116998717D01*
X137321000Y-116566120D01*
X137321000Y-116097880D01*
X137141813Y-115665283D01*
X136810717Y-115334187D01*
X136378120Y-115155000D01*
X135909880Y-115155000D01*
X135770163Y-115212873D01*
X135277290Y-114720000D01*
X138211615Y-114720000D01*
X138211615Y-116420000D01*
X138240875Y-116567098D01*
X138324199Y-116691801D01*
X138448902Y-116775125D01*
X138596000Y-116804385D01*
X140296000Y-116804385D01*
X140443098Y-116775125D01*
X140567801Y-116691801D01*
X140651125Y-116567098D01*
X140680385Y-116420000D01*
X140680385Y-114720000D01*
X140651125Y-114572902D01*
X140567801Y-114448199D01*
X140443098Y-114364875D01*
X140296000Y-114335615D01*
X138596000Y-114335615D01*
X138448902Y-114364875D01*
X138324199Y-114448199D01*
X138240875Y-114572902D01*
X138211615Y-114720000D01*
X135277290Y-114720000D01*
X135147000Y-114589710D01*
X135147000Y-109338426D01*
X135295431Y-109560569D01*
X135684758Y-109820709D01*
X135687000Y-109821155D01*
X135687001Y-112494221D01*
X135548873Y-112632349D01*
X135442000Y-112890364D01*
X135442000Y-113169636D01*
X135548873Y-113427651D01*
X135746349Y-113625127D01*
X136004364Y-113732000D01*
X136283636Y-113732000D01*
X136541651Y-113625127D01*
X136739127Y-113427651D01*
X136846000Y-113169636D01*
X136846000Y-113030000D01*
X138194962Y-113030000D01*
X138290192Y-113508752D01*
X138561383Y-113914617D01*
X138967248Y-114185808D01*
X139325153Y-114257000D01*
X139566847Y-114257000D01*
X139924752Y-114185808D01*
X140330617Y-113914617D01*
X140601808Y-113508752D01*
X140697038Y-113030000D01*
X140601808Y-112551248D01*
X140330617Y-112145383D01*
X139924752Y-111874192D01*
X139566847Y-111803000D01*
X139325153Y-111803000D01*
X138967248Y-111874192D01*
X138561383Y-112145383D01*
X138290192Y-112551248D01*
X138194962Y-113030000D01*
X136846000Y-113030000D01*
X136846000Y-112890364D01*
X136739127Y-112632349D01*
X136601000Y-112494222D01*
X136601000Y-109821155D01*
X136603242Y-109820709D01*
X136992569Y-109560569D01*
X137252709Y-109171242D01*
X137344058Y-108712000D01*
X137252709Y-108252758D01*
X137050413Y-107950000D01*
X138061396Y-107950000D01*
X138166793Y-108479865D01*
X138466937Y-108929063D01*
X138916135Y-109229207D01*
X139205588Y-109286783D01*
X138967248Y-109334192D01*
X138561383Y-109605383D01*
X138290192Y-110011248D01*
X138194962Y-110490000D01*
X138290192Y-110968752D01*
X138561383Y-111374617D01*
X138967248Y-111645808D01*
X139325153Y-111717000D01*
X139566847Y-111717000D01*
X139924752Y-111645808D01*
X140330617Y-111374617D01*
X140601808Y-110968752D01*
X140697038Y-110490000D01*
X140601808Y-110011248D01*
X140330617Y-109605383D01*
X139924752Y-109334192D01*
X139686412Y-109286783D01*
X139975865Y-109229207D01*
X140425063Y-108929063D01*
X140725207Y-108479865D01*
X140830604Y-107950000D01*
X140725207Y-107420135D01*
X140425063Y-106970937D01*
X139975865Y-106670793D01*
X139579747Y-106592000D01*
X139312253Y-106592000D01*
X138916135Y-106670793D01*
X138466937Y-106970937D01*
X138166793Y-107420135D01*
X138061396Y-107950000D01*
X137050413Y-107950000D01*
X136992569Y-107863431D01*
X136701787Y-107669137D01*
X137959318Y-106411606D01*
X137997479Y-106386109D01*
X138098484Y-106234942D01*
X138125000Y-106101639D01*
X138125000Y-106101638D01*
X138133953Y-106056631D01*
X138125000Y-106011623D01*
X138125000Y-102108000D01*
X138194962Y-102108000D01*
X138290192Y-102586752D01*
X138561383Y-102992617D01*
X138967248Y-103263808D01*
X139325153Y-103335000D01*
X139566847Y-103335000D01*
X139924752Y-103263808D01*
X140330617Y-102992617D01*
X140601808Y-102586752D01*
X140697038Y-102108000D01*
X140601808Y-101629248D01*
X140330617Y-101223383D01*
X139924752Y-100952192D01*
X139566847Y-100881000D01*
X139325153Y-100881000D01*
X138967248Y-100952192D01*
X138561383Y-101223383D01*
X138290192Y-101629248D01*
X138194962Y-102108000D01*
X138125000Y-102108000D01*
X138125000Y-99568000D01*
X138194962Y-99568000D01*
X138290192Y-100046752D01*
X138561383Y-100452617D01*
X138967248Y-100723808D01*
X139325153Y-100795000D01*
X139566847Y-100795000D01*
X139924752Y-100723808D01*
X140330617Y-100452617D01*
X140601808Y-100046752D01*
X140697038Y-99568000D01*
X140601808Y-99089248D01*
X140330617Y-98683383D01*
X139924752Y-98412192D01*
X139566847Y-98341000D01*
X139325153Y-98341000D01*
X138967248Y-98412192D01*
X138561383Y-98683383D01*
X138290192Y-99089248D01*
X138194962Y-99568000D01*
X138125000Y-99568000D01*
X138125000Y-97028000D01*
X138194962Y-97028000D01*
X138290192Y-97506752D01*
X138561383Y-97912617D01*
X138967248Y-98183808D01*
X139325153Y-98255000D01*
X139566847Y-98255000D01*
X139924752Y-98183808D01*
X140330617Y-97912617D01*
X140601808Y-97506752D01*
X140697038Y-97028000D01*
X140601808Y-96549248D01*
X140330617Y-96143383D01*
X139924752Y-95872192D01*
X139566847Y-95801000D01*
X139325153Y-95801000D01*
X138967248Y-95872192D01*
X138561383Y-96143383D01*
X138290192Y-96549248D01*
X138194962Y-97028000D01*
X138125000Y-97028000D01*
X138125000Y-94769778D01*
X138230105Y-94664673D01*
X138290192Y-94966752D01*
X138561383Y-95372617D01*
X138967248Y-95643808D01*
X139325153Y-95715000D01*
X139566847Y-95715000D01*
X139924752Y-95643808D01*
X140330617Y-95372617D01*
X140601808Y-94966752D01*
X140697038Y-94488000D01*
X140601808Y-94009248D01*
X140330617Y-93603383D01*
X139924752Y-93332192D01*
X139566847Y-93261000D01*
X139325153Y-93261000D01*
X138967248Y-93332192D01*
X138561383Y-93603383D01*
X138317695Y-93968087D01*
X138263127Y-93836349D01*
X138065651Y-93638873D01*
X137807636Y-93532000D01*
X137528364Y-93532000D01*
X137270349Y-93638873D01*
X137072873Y-93836349D01*
X136966000Y-94094364D01*
X136966000Y-94373636D01*
X137072873Y-94631651D01*
X137211001Y-94769779D01*
X137211000Y-105867335D01*
X135852683Y-107225653D01*
X135814522Y-107251151D01*
X135715097Y-107399953D01*
X135713517Y-107402318D01*
X135678047Y-107580630D01*
X135682813Y-107604590D01*
X135295431Y-107863431D01*
X135147000Y-108085574D01*
X135147000Y-105461897D01*
X135157323Y-105409999D01*
X135147000Y-105358101D01*
X135147000Y-105358097D01*
X135116423Y-105204375D01*
X134999945Y-105030055D01*
X134955945Y-105000655D01*
X132782000Y-102826710D01*
X132782000Y-102730364D01*
X132675127Y-102472349D01*
X132477651Y-102274873D01*
X132219636Y-102168000D01*
X131940364Y-102168000D01*
X131682349Y-102274873D01*
X131484873Y-102472349D01*
X131378000Y-102730364D01*
X131378000Y-103009636D01*
X131484873Y-103267651D01*
X131682349Y-103465127D01*
X131940364Y-103572000D01*
X132036710Y-103572000D01*
X134093001Y-105628291D01*
X134093000Y-114756102D01*
X134082677Y-114808000D01*
X134093000Y-114859898D01*
X134093000Y-114859902D01*
X134123577Y-115013624D01*
X134240055Y-115187945D01*
X134284055Y-115217345D01*
X135024873Y-115958163D01*
X134967000Y-116097880D01*
X134967000Y-116566120D01*
X135146187Y-116998717D01*
X135249470Y-117102000D01*
X132223315Y-117102000D01*
X132274000Y-116979636D01*
X132274000Y-116700364D01*
X132167127Y-116442349D01*
X132029000Y-116304222D01*
X132029000Y-112994385D01*
X133692000Y-112994385D01*
X133839098Y-112965125D01*
X133963801Y-112881801D01*
X134047125Y-112757098D01*
X134076385Y-112610000D01*
X134076385Y-110910000D01*
X134047125Y-110762902D01*
X133963801Y-110638199D01*
X133839098Y-110554875D01*
X133692000Y-110525615D01*
X132352450Y-110525615D01*
X132355954Y-110507998D01*
X132347001Y-110462990D01*
X132347001Y-108238606D01*
X132355954Y-108193598D01*
X132337938Y-108103027D01*
X132320485Y-108015287D01*
X132219480Y-107864120D01*
X132181319Y-107838622D01*
X131267000Y-106924304D01*
X131267000Y-102201155D01*
X131269242Y-102200709D01*
X131658569Y-101940569D01*
X131918709Y-101551242D01*
X132010058Y-101092000D01*
X131918709Y-100632758D01*
X131658569Y-100243431D01*
X131313823Y-100013079D01*
X131550922Y-99914869D01*
X131918869Y-99546922D01*
X132118000Y-99066177D01*
X132118000Y-98545823D01*
X131918869Y-98065078D01*
X131550922Y-97697131D01*
X131070177Y-97498000D01*
X130549823Y-97498000D01*
X130069078Y-97697131D01*
X129701131Y-98065078D01*
X129682990Y-98108874D01*
X129682990Y-91553237D01*
X129701291Y-91645242D01*
X129961431Y-92034569D01*
X130350758Y-92294709D01*
X130353000Y-92295155D01*
X130353001Y-95604945D01*
X130348348Y-95606872D01*
X130150872Y-95804348D01*
X130043999Y-96062363D01*
X130043999Y-96341635D01*
X130150872Y-96599650D01*
X130348348Y-96797126D01*
X130606363Y-96903999D01*
X130885635Y-96903999D01*
X131143650Y-96797126D01*
X131341126Y-96599650D01*
X131447999Y-96341635D01*
X131447999Y-96062363D01*
X131341126Y-95804348D01*
X131267000Y-95730222D01*
X131267000Y-92295155D01*
X131269242Y-92294709D01*
X131658569Y-92034569D01*
X131903001Y-91668751D01*
X131903001Y-92605221D01*
X131827897Y-92816585D01*
X131682349Y-92876873D01*
X131484873Y-93074349D01*
X131378000Y-93332364D01*
X131378000Y-93611636D01*
X131484873Y-93869651D01*
X131682349Y-94067127D01*
X131940364Y-94174000D01*
X132219636Y-94174000D01*
X132477651Y-94067127D01*
X132675127Y-93869651D01*
X132782000Y-93611636D01*
X132782000Y-93332364D01*
X132691901Y-93114845D01*
X132771580Y-92890604D01*
X132790485Y-92862311D01*
X132801741Y-92805724D01*
X132805693Y-92794602D01*
X132810504Y-92761671D01*
X132817001Y-92729008D01*
X132817001Y-92717197D01*
X132825340Y-92660115D01*
X132817001Y-92627130D01*
X132817001Y-91098000D01*
X138211615Y-91098000D01*
X138211615Y-92798000D01*
X138240875Y-92945098D01*
X138324199Y-93069801D01*
X138448902Y-93153125D01*
X138596000Y-93182385D01*
X140296000Y-93182385D01*
X140443098Y-93153125D01*
X140567801Y-93069801D01*
X140651125Y-92945098D01*
X140680385Y-92798000D01*
X140680385Y-91098000D01*
X140651125Y-90950902D01*
X140567801Y-90826199D01*
X140443098Y-90742875D01*
X140296000Y-90713615D01*
X138596000Y-90713615D01*
X138448902Y-90742875D01*
X138324199Y-90826199D01*
X138240875Y-90950902D01*
X138211615Y-91098000D01*
X132817001Y-91098000D01*
X132817001Y-88601155D01*
X132892403Y-88783191D01*
X133212809Y-89103597D01*
X133631439Y-89277000D01*
X134084561Y-89277000D01*
X134503191Y-89103597D01*
X134823597Y-88783191D01*
X134997000Y-88364561D01*
X134997000Y-87911439D01*
X134919048Y-87723247D01*
X135128001Y-87514295D01*
X135336952Y-87723247D01*
X135259000Y-87911439D01*
X135259000Y-88364561D01*
X135432403Y-88783191D01*
X135752809Y-89103597D01*
X136171439Y-89277000D01*
X136624561Y-89277000D01*
X136934677Y-89148545D01*
X136844874Y-89238348D01*
X136738001Y-89496363D01*
X136738001Y-89775635D01*
X136844874Y-90033650D01*
X137042350Y-90231126D01*
X137300365Y-90337999D01*
X137579637Y-90337999D01*
X137837652Y-90231126D01*
X138035128Y-90033650D01*
X138142001Y-89775635D01*
X138142001Y-89496363D01*
X138035128Y-89238348D01*
X137897001Y-89100221D01*
X137897001Y-88601155D01*
X137972403Y-88783191D01*
X138292809Y-89103597D01*
X138711439Y-89277000D01*
X139164561Y-89277000D01*
X139583191Y-89103597D01*
X139903597Y-88783191D01*
X140077000Y-88364561D01*
X140077000Y-87911439D01*
X139903597Y-87492809D01*
X139583191Y-87172403D01*
X139164561Y-86999000D01*
X138711439Y-86999000D01*
X138593247Y-87047957D01*
X138423242Y-86877952D01*
X139700000Y-86877952D01*
X139898212Y-86838525D01*
X140066247Y-86726247D01*
X140178525Y-86558212D01*
X140217952Y-86360000D01*
X140217952Y-84836000D01*
X140178525Y-84637788D01*
X140066247Y-84469753D01*
X139898212Y-84357475D01*
X139700000Y-84318048D01*
X138352999Y-84318048D01*
X138352999Y-83964291D01*
X138765945Y-83551345D01*
X138809945Y-83521945D01*
X138926423Y-83347625D01*
X138950539Y-83226385D01*
X139230000Y-83226385D01*
X139377098Y-83197125D01*
X139501801Y-83113801D01*
X139585125Y-82989098D01*
X139614385Y-82842000D01*
X139614385Y-81242000D01*
X139585125Y-81094902D01*
X139501801Y-80970199D01*
X139411757Y-80910034D01*
X139538869Y-80782922D01*
X139738000Y-80302177D01*
X139738000Y-79781823D01*
X139538869Y-79301078D01*
X139170922Y-78933131D01*
X138690177Y-78734000D01*
X138169823Y-78734000D01*
X137689078Y-78933131D01*
X137321131Y-79301078D01*
X137122000Y-79781823D01*
X137122000Y-80302177D01*
X137321131Y-80782922D01*
X137448243Y-80910034D01*
X137358199Y-80970199D01*
X137274875Y-81094902D01*
X137245615Y-81242000D01*
X137245615Y-82842000D01*
X137274875Y-82989098D01*
X137358199Y-83113801D01*
X137482902Y-83197125D01*
X137605248Y-83221462D01*
X137490054Y-83336656D01*
X137446054Y-83366056D01*
X137416654Y-83410056D01*
X137416653Y-83410057D01*
X137386188Y-83455651D01*
X137329576Y-83540377D01*
X137298999Y-83694099D01*
X137298999Y-83694103D01*
X137288676Y-83746001D01*
X137298999Y-83797899D01*
X137298999Y-84888211D01*
X137043191Y-84632403D01*
X136624561Y-84459000D01*
X136171439Y-84459000D01*
X135752809Y-84632403D01*
X135717011Y-84668201D01*
X135717011Y-80067283D01*
X136850295Y-78934000D01*
X137045636Y-78934000D01*
X137303651Y-78827127D01*
X137501127Y-78629651D01*
X137608000Y-78371636D01*
X137608000Y-78092364D01*
X137501127Y-77834349D01*
X137303651Y-77636873D01*
X137045636Y-77530000D01*
X136766364Y-77530000D01*
X136665001Y-77571986D01*
X136665001Y-73171880D01*
X137761000Y-73171880D01*
X137761000Y-73640120D01*
X137940187Y-74072717D01*
X138271283Y-74403813D01*
X138703880Y-74583000D01*
X139172120Y-74583000D01*
X139604717Y-74403813D01*
X139935813Y-74072717D01*
X140115000Y-73640120D01*
X140115000Y-73171880D01*
X139935813Y-72739283D01*
X139604717Y-72408187D01*
X139172120Y-72229000D01*
X138703880Y-72229000D01*
X138271283Y-72408187D01*
X137940187Y-72739283D01*
X137761000Y-73171880D01*
X136665001Y-73171880D01*
X136665001Y-70171880D01*
X137761000Y-70171880D01*
X137761000Y-70640120D01*
X137940187Y-71072717D01*
X138271283Y-71403813D01*
X138703880Y-71583000D01*
X139172120Y-71583000D01*
X139604717Y-71403813D01*
X139935813Y-71072717D01*
X140115000Y-70640120D01*
X140115000Y-70171880D01*
X139935813Y-69739283D01*
X139604717Y-69408187D01*
X139172120Y-69229000D01*
X138703880Y-69229000D01*
X138271283Y-69408187D01*
X137940187Y-69739283D01*
X137761000Y-70171880D01*
X136665001Y-70171880D01*
X136665001Y-69179779D01*
X136803128Y-69041652D01*
X136910001Y-68783637D01*
X136910001Y-68504365D01*
X136803128Y-68246350D01*
X136605652Y-68048874D01*
X136347637Y-67942001D01*
X136068365Y-67942001D01*
X135810350Y-68048874D01*
X135612874Y-68246350D01*
X135506001Y-68504365D01*
X135506001Y-68783637D01*
X135607481Y-69028631D01*
X135362120Y-68927000D01*
X134893880Y-68927000D01*
X134461283Y-69106187D01*
X134130187Y-69437283D01*
X133951000Y-69869880D01*
X133951000Y-70338120D01*
X134037868Y-70547838D01*
X133312683Y-71273023D01*
X133274522Y-71298521D01*
X133190013Y-71425000D01*
X133173517Y-71449688D01*
X133138047Y-71628000D01*
X133147001Y-71673013D01*
X133147000Y-79486704D01*
X132443837Y-80189868D01*
X132234120Y-80103000D01*
X131765880Y-80103000D01*
X131333283Y-80282187D01*
X131002187Y-80613283D01*
X130948999Y-80741691D01*
X130948999Y-78723289D01*
X131112758Y-78832709D01*
X131456080Y-78901000D01*
X131687920Y-78901000D01*
X132031242Y-78832709D01*
X132420569Y-78572569D01*
X132680709Y-78183242D01*
X132772058Y-77724000D01*
X132680709Y-77264758D01*
X132420569Y-76875431D01*
X132099000Y-76660565D01*
X132099000Y-73871778D01*
X132167127Y-73803651D01*
X132274000Y-73545636D01*
X132274000Y-73266364D01*
X132167127Y-73008349D01*
X131969651Y-72810873D01*
X131711636Y-72704000D01*
X131432364Y-72704000D01*
X131174349Y-72810873D01*
X130976873Y-73008349D01*
X130948999Y-73075643D01*
X130948999Y-72227779D01*
X131087126Y-72089652D01*
X131193999Y-71831637D01*
X131193999Y-71552365D01*
X131087126Y-71294350D01*
X130889650Y-71096874D01*
X130631635Y-70990001D01*
X130352363Y-70990001D01*
X130094348Y-71096874D01*
X129896872Y-71294350D01*
X129789999Y-71552365D01*
X129789999Y-71831637D01*
X129896872Y-72089652D01*
X130035000Y-72227780D01*
X130034999Y-83649361D01*
X130026046Y-83694369D01*
X130034999Y-83739377D01*
X130061515Y-83872680D01*
X130162520Y-84023848D01*
X130200683Y-84049348D01*
X130751247Y-84599913D01*
X130672809Y-84632403D01*
X130352403Y-84952809D01*
X130179000Y-85371439D01*
X130179000Y-85824561D01*
X130352403Y-86243191D01*
X130672809Y-86563597D01*
X131091439Y-86737000D01*
X131544561Y-86737000D01*
X131903002Y-86588528D01*
X131903002Y-87147472D01*
X131544561Y-86999000D01*
X131091439Y-86999000D01*
X130672809Y-87172403D01*
X130352403Y-87492809D01*
X130179000Y-87911439D01*
X130179000Y-88364561D01*
X130352403Y-88783191D01*
X130672809Y-89103597D01*
X131091439Y-89277000D01*
X131544561Y-89277000D01*
X131903001Y-89128528D01*
X131903001Y-90703250D01*
X131658569Y-90337431D01*
X131269242Y-90077291D01*
X130925920Y-90009000D01*
X130694080Y-90009000D01*
X130350758Y-90077291D01*
X129961431Y-90337431D01*
X129701291Y-90726758D01*
X129682990Y-90818763D01*
X129682990Y-90257788D01*
X129821117Y-90119661D01*
X129927990Y-89861646D01*
X129927990Y-89582374D01*
X129821117Y-89324359D01*
X129623641Y-89126883D01*
X129365626Y-89020010D01*
X129086354Y-89020010D01*
X128828339Y-89126883D01*
X128630863Y-89324359D01*
X128523990Y-89582374D01*
X128523990Y-89861646D01*
X128630863Y-90119661D01*
X128768991Y-90257789D01*
X128768991Y-90812333D01*
X128616869Y-90445078D01*
X128248922Y-90077131D01*
X127768177Y-89878000D01*
X127247823Y-89878000D01*
X126767078Y-90077131D01*
X126399131Y-90445078D01*
X126359010Y-90541939D01*
X126359010Y-87884000D01*
X126510962Y-87884000D01*
X126606192Y-88362752D01*
X126877383Y-88768617D01*
X127283248Y-89039808D01*
X127641153Y-89111000D01*
X127882847Y-89111000D01*
X128240752Y-89039808D01*
X128646617Y-88768617D01*
X128917808Y-88362752D01*
X129013038Y-87884000D01*
X128917808Y-87405248D01*
X128646617Y-86999383D01*
X128240752Y-86728192D01*
X127882847Y-86657000D01*
X127641153Y-86657000D01*
X127283248Y-86728192D01*
X126877383Y-86999383D01*
X126606192Y-87405248D01*
X126510962Y-87884000D01*
X126359010Y-87884000D01*
X126359010Y-82430262D01*
X126739823Y-82588000D01*
X127060000Y-82588000D01*
X127060000Y-82689636D01*
X127166873Y-82947651D01*
X127305001Y-83085779D01*
X127305000Y-84109615D01*
X126912000Y-84109615D01*
X126764902Y-84138875D01*
X126640199Y-84222199D01*
X126556875Y-84346902D01*
X126527615Y-84494000D01*
X126527615Y-86194000D01*
X126556875Y-86341098D01*
X126640199Y-86465801D01*
X126764902Y-86549125D01*
X126912000Y-86578385D01*
X128612000Y-86578385D01*
X128759098Y-86549125D01*
X128883801Y-86465801D01*
X128967125Y-86341098D01*
X128996385Y-86194000D01*
X128996385Y-84494000D01*
X128967125Y-84346902D01*
X128883801Y-84222199D01*
X128759098Y-84138875D01*
X128612000Y-84109615D01*
X128219000Y-84109615D01*
X128219000Y-83085778D01*
X128357127Y-82947651D01*
X128464000Y-82689636D01*
X128464000Y-82410364D01*
X128357127Y-82152349D01*
X128159651Y-81954873D01*
X128139658Y-81946592D01*
X128308000Y-81540177D01*
X128308000Y-81019823D01*
X128108869Y-80539078D01*
X127740922Y-80171131D01*
X127260177Y-79972000D01*
X126739823Y-79972000D01*
X126333408Y-80140342D01*
X126325127Y-80120349D01*
X126127651Y-79922873D01*
X125869636Y-79816000D01*
X125590364Y-79816000D01*
X125332349Y-79922873D01*
X125134873Y-80120349D01*
X125028000Y-80378364D01*
X125028000Y-80657636D01*
X125134873Y-80915651D01*
X125280735Y-81061513D01*
X125295622Y-81136349D01*
X125299517Y-81155931D01*
X125400522Y-81307098D01*
X125438682Y-81332595D01*
X125445010Y-81338923D01*
X125445010Y-87136137D01*
X125222000Y-87091778D01*
X124918831Y-87152082D01*
X124661815Y-87323814D01*
X124646001Y-87347481D01*
X124646001Y-78584977D01*
X125016758Y-78832709D01*
X125360080Y-78901000D01*
X125591920Y-78901000D01*
X125935242Y-78832709D01*
X126324569Y-78572569D01*
X126584709Y-78183242D01*
X126676058Y-77724000D01*
X127323942Y-77724000D01*
X127415291Y-78183242D01*
X127675431Y-78572569D01*
X128064758Y-78832709D01*
X128408080Y-78901000D01*
X128639920Y-78901000D01*
X128983242Y-78832709D01*
X129372569Y-78572569D01*
X129632709Y-78183242D01*
X129724058Y-77724000D01*
X129632709Y-77264758D01*
X129372569Y-76875431D01*
X128983242Y-76615291D01*
X128639920Y-76547000D01*
X128408080Y-76547000D01*
X128064758Y-76615291D01*
X127675431Y-76875431D01*
X127415291Y-77264758D01*
X127323942Y-77724000D01*
X126676058Y-77724000D01*
X126584709Y-77264758D01*
X126324569Y-76875431D01*
X125935242Y-76615291D01*
X125591920Y-76547000D01*
X125360080Y-76547000D01*
X125016758Y-76615291D01*
X124627431Y-76875431D01*
X124412565Y-77197000D01*
X124396529Y-77197000D01*
X124344630Y-77186677D01*
X124292731Y-77197000D01*
X124292727Y-77197000D01*
X124139005Y-77227577D01*
X123964685Y-77344055D01*
X123935285Y-77388055D01*
X123825000Y-77498340D01*
X123825000Y-76454000D01*
X123815333Y-76405399D01*
X123787803Y-76364197D01*
X123746601Y-76336667D01*
X123698000Y-76327000D01*
X121412000Y-76327000D01*
X121363399Y-76336667D01*
X121322197Y-76364197D01*
X121294667Y-76405399D01*
X121285000Y-76454000D01*
X121285000Y-77164776D01*
X121158000Y-77471381D01*
X121158000Y-77976619D01*
X121285000Y-78283224D01*
X121285000Y-78994000D01*
X121294667Y-79042601D01*
X121322197Y-79083803D01*
X121363399Y-79111333D01*
X121412000Y-79121000D01*
X123063000Y-79121000D01*
X123063000Y-79427926D01*
X123041801Y-79396199D01*
X122917098Y-79312875D01*
X122770000Y-79283615D01*
X121070000Y-79283615D01*
X120922902Y-79312875D01*
X120798199Y-79396199D01*
X120714875Y-79520902D01*
X120685615Y-79668000D01*
X120685615Y-81078325D01*
X120639347Y-81032056D01*
X120547129Y-80939838D01*
X120631038Y-80518000D01*
X120535808Y-80039248D01*
X120264617Y-79633383D01*
X119858752Y-79362192D01*
X119500847Y-79291000D01*
X119259153Y-79291000D01*
X118901248Y-79362192D01*
X118495383Y-79633383D01*
X118224192Y-80039248D01*
X118128962Y-80518000D01*
X118224192Y-80996752D01*
X118495383Y-81402617D01*
X118901248Y-81673808D01*
X119259153Y-81745000D01*
X119500847Y-81745000D01*
X119801838Y-81685129D01*
X119894056Y-81777347D01*
X120053002Y-81936292D01*
X120053001Y-82338222D01*
X119984874Y-82406349D01*
X119878001Y-82664364D01*
X119878001Y-82788455D01*
X119513747Y-82716000D01*
X119246253Y-82716000D01*
X118850135Y-82794793D01*
X118400937Y-83094937D01*
X118110000Y-83530356D01*
X117819063Y-83094937D01*
X117369865Y-82794793D01*
X116973747Y-82716000D01*
X116706253Y-82716000D01*
X116310135Y-82794793D01*
X116166999Y-82890433D01*
X116166999Y-81544015D01*
X116361248Y-81673808D01*
X116719153Y-81745000D01*
X116960847Y-81745000D01*
X117318752Y-81673808D01*
X117724617Y-81402617D01*
X117995808Y-80996752D01*
X118091038Y-80518000D01*
X117995808Y-80039248D01*
X117724617Y-79633383D01*
X117367000Y-79394430D01*
X117367000Y-74379778D01*
X117435127Y-74311651D01*
X117542000Y-74053636D01*
X117542000Y-73774364D01*
X117435127Y-73516349D01*
X117237651Y-73318873D01*
X117181262Y-73295516D01*
X117371126Y-73105652D01*
X117477999Y-72847637D01*
X117477999Y-72808478D01*
X118923000Y-72808478D01*
X118923000Y-73495522D01*
X119185920Y-74130267D01*
X119671733Y-74616080D01*
X120306478Y-74879000D01*
X120993522Y-74879000D01*
X121628267Y-74616080D01*
X122114080Y-74130267D01*
X122377000Y-73495522D01*
X122377000Y-72808478D01*
X122114080Y-72173733D01*
X121628267Y-71687920D01*
X120993522Y-71425000D01*
X120306478Y-71425000D01*
X119671733Y-71687920D01*
X119185920Y-72173733D01*
X118923000Y-72808478D01*
X117477999Y-72808478D01*
X117477999Y-72568365D01*
X117371126Y-72310350D01*
X117232999Y-72172223D01*
X117232999Y-68345880D01*
X118457000Y-68345880D01*
X118457000Y-68814120D01*
X118636187Y-69246717D01*
X118967283Y-69577813D01*
X119399880Y-69757000D01*
X119868120Y-69757000D01*
X120300717Y-69577813D01*
X120631813Y-69246717D01*
X120811000Y-68814120D01*
X120811000Y-68345880D01*
X120631813Y-67913283D01*
X120300717Y-67582187D01*
X119868120Y-67403000D01*
X119399880Y-67403000D01*
X118967283Y-67582187D01*
X118636187Y-67913283D01*
X118457000Y-68345880D01*
X117232999Y-68345880D01*
X117232999Y-66801295D01*
X118308296Y-65726000D01*
X118503636Y-65726000D01*
X118761651Y-65619127D01*
X118959127Y-65421651D01*
X119066000Y-65163636D01*
X119066000Y-64886000D01*
X122159615Y-64886000D01*
X122159615Y-66686000D01*
X122188875Y-66833098D01*
X122272199Y-66957801D01*
X122396902Y-67041125D01*
X122544000Y-67070385D01*
X124344000Y-67070385D01*
X124491098Y-67041125D01*
X124615801Y-66957801D01*
X124699125Y-66833098D01*
X124728385Y-66686000D01*
X124728385Y-66091639D01*
X124901412Y-66509362D01*
X125019001Y-66626951D01*
X125019000Y-69019320D01*
X124809283Y-69106187D01*
X124478187Y-69437283D01*
X124299000Y-69869880D01*
X124299000Y-70338120D01*
X124478187Y-70770717D01*
X124809283Y-71101813D01*
X125241880Y-71281000D01*
X125710120Y-71281000D01*
X126142717Y-71101813D01*
X126473813Y-70770717D01*
X126653000Y-70338120D01*
X126653000Y-69869880D01*
X127347000Y-69869880D01*
X127347000Y-70338120D01*
X127526187Y-70770717D01*
X127857283Y-71101813D01*
X128289880Y-71281000D01*
X128758120Y-71281000D01*
X129190717Y-71101813D01*
X129521813Y-70770717D01*
X129701000Y-70338120D01*
X129701000Y-69869880D01*
X130395000Y-69869880D01*
X130395000Y-70338120D01*
X130574187Y-70770717D01*
X130905283Y-71101813D01*
X131337880Y-71281000D01*
X131806120Y-71281000D01*
X132238717Y-71101813D01*
X132569813Y-70770717D01*
X132749000Y-70338120D01*
X132749000Y-69869880D01*
X132662132Y-69660162D01*
X134899295Y-67423001D01*
X137966991Y-67423001D01*
X138011999Y-67431954D01*
X138057007Y-67423001D01*
X138057008Y-67423001D01*
X138190311Y-67396485D01*
X138341478Y-67295480D01*
X138366978Y-67257316D01*
X138671626Y-66952668D01*
X138937989Y-67063000D01*
X139446011Y-67063000D01*
X139915362Y-66868588D01*
X140274588Y-66509362D01*
X140469000Y-66040011D01*
X140469000Y-65531989D01*
X140274588Y-65062638D01*
X139915362Y-64703412D01*
X139446011Y-64509000D01*
X138937989Y-64509000D01*
X138468638Y-64703412D01*
X138109412Y-65062638D01*
X137936385Y-65480361D01*
X137936385Y-64886000D01*
X137907125Y-64738902D01*
X137823801Y-64614199D01*
X137699098Y-64530875D01*
X137552000Y-64501615D01*
X135752000Y-64501615D01*
X135604902Y-64530875D01*
X135480199Y-64614199D01*
X135396875Y-64738902D01*
X135367615Y-64886000D01*
X135367615Y-66509001D01*
X134755007Y-66509001D01*
X134709999Y-66500048D01*
X134664991Y-66509001D01*
X134664990Y-66509001D01*
X134531687Y-66535517D01*
X134380520Y-66636522D01*
X134355024Y-66674680D01*
X132015838Y-69013868D01*
X131806120Y-68927000D01*
X131337880Y-68927000D01*
X130905283Y-69106187D01*
X130574187Y-69437283D01*
X130395000Y-69869880D01*
X129701000Y-69869880D01*
X129614132Y-69660162D01*
X132247232Y-67027064D01*
X132333989Y-67063000D01*
X132842011Y-67063000D01*
X133311362Y-66868588D01*
X133670588Y-66509362D01*
X133865000Y-66040011D01*
X133865000Y-65531989D01*
X133670588Y-65062638D01*
X133311362Y-64703412D01*
X132842011Y-64509000D01*
X132333989Y-64509000D01*
X131864638Y-64703412D01*
X131505412Y-65062638D01*
X131332385Y-65480361D01*
X131332385Y-64886000D01*
X131303125Y-64738902D01*
X131219801Y-64614199D01*
X131095098Y-64530875D01*
X130948000Y-64501615D01*
X129148000Y-64501615D01*
X129000902Y-64530875D01*
X128876199Y-64614199D01*
X128792875Y-64738902D01*
X128763615Y-64886000D01*
X128763615Y-66686000D01*
X128792875Y-66833098D01*
X128876199Y-66957801D01*
X129000902Y-67041125D01*
X129148000Y-67070385D01*
X130911320Y-67070385D01*
X128967838Y-69013868D01*
X128758120Y-68927000D01*
X128289880Y-68927000D01*
X127857283Y-69106187D01*
X127526187Y-69437283D01*
X127347000Y-69869880D01*
X126653000Y-69869880D01*
X126473813Y-69437283D01*
X126142717Y-69106187D01*
X125933000Y-69019320D01*
X125933000Y-67063000D01*
X126238011Y-67063000D01*
X126707362Y-66868588D01*
X127066588Y-66509362D01*
X127261000Y-66040011D01*
X127261000Y-65531989D01*
X127066588Y-65062638D01*
X126707362Y-64703412D01*
X126238011Y-64509000D01*
X125729989Y-64509000D01*
X125260638Y-64703412D01*
X124901412Y-65062638D01*
X124728385Y-65480361D01*
X124728385Y-64886000D01*
X124699125Y-64738902D01*
X124615801Y-64614199D01*
X124491098Y-64530875D01*
X124344000Y-64501615D01*
X122544000Y-64501615D01*
X122396902Y-64530875D01*
X122272199Y-64614199D01*
X122188875Y-64738902D01*
X122159615Y-64886000D01*
X119066000Y-64886000D01*
X119066000Y-64884364D01*
X118959127Y-64626349D01*
X118761651Y-64428873D01*
X118503636Y-64322000D01*
X118224364Y-64322000D01*
X117966349Y-64428873D01*
X117768873Y-64626349D01*
X117662000Y-64884364D01*
X117662000Y-65079704D01*
X116484682Y-66257024D01*
X116446521Y-66282522D01*
X116367149Y-66401313D01*
X116345516Y-66433689D01*
X116310046Y-66612001D01*
X116319000Y-66657014D01*
X116318999Y-72172223D01*
X116210001Y-72281221D01*
X116210001Y-66522009D01*
X116218954Y-66477001D01*
X116203898Y-66401313D01*
X116183485Y-66298689D01*
X116082480Y-66147522D01*
X116044322Y-66122026D01*
X115453292Y-65530997D01*
X115468619Y-65508058D01*
X115564904Y-65024000D01*
X115468619Y-64539942D01*
X115194422Y-64129578D01*
X115055870Y-64037000D01*
X118549320Y-64037000D01*
X118636187Y-64246717D01*
X118967283Y-64577813D01*
X119399880Y-64757000D01*
X119868120Y-64757000D01*
X120300717Y-64577813D01*
X120631813Y-64246717D01*
X120811000Y-63814120D01*
X120811000Y-63345880D01*
X120631813Y-62913283D01*
X120584530Y-62866000D01*
X140978000Y-62866000D01*
X140978001Y-117102000D01*
X140978001Y-117102000D01*
G37*
X140978001Y-117102000D02*
X137038530Y-117102000D01*
X137141813Y-116998717D01*
X137321000Y-116566120D01*
X137321000Y-116097880D01*
X137141813Y-115665283D01*
X136810717Y-115334187D01*
X136378120Y-115155000D01*
X135909880Y-115155000D01*
X135770163Y-115212873D01*
X135277290Y-114720000D01*
X138211615Y-114720000D01*
X138211615Y-116420000D01*
X138240875Y-116567098D01*
X138324199Y-116691801D01*
X138448902Y-116775125D01*
X138596000Y-116804385D01*
X140296000Y-116804385D01*
X140443098Y-116775125D01*
X140567801Y-116691801D01*
X140651125Y-116567098D01*
X140680385Y-116420000D01*
X140680385Y-114720000D01*
X140651125Y-114572902D01*
X140567801Y-114448199D01*
X140443098Y-114364875D01*
X140296000Y-114335615D01*
X138596000Y-114335615D01*
X138448902Y-114364875D01*
X138324199Y-114448199D01*
X138240875Y-114572902D01*
X138211615Y-114720000D01*
X135277290Y-114720000D01*
X135147000Y-114589710D01*
X135147000Y-109338426D01*
X135295431Y-109560569D01*
X135684758Y-109820709D01*
X135687000Y-109821155D01*
X135687001Y-112494221D01*
X135548873Y-112632349D01*
X135442000Y-112890364D01*
X135442000Y-113169636D01*
X135548873Y-113427651D01*
X135746349Y-113625127D01*
X136004364Y-113732000D01*
X136283636Y-113732000D01*
X136541651Y-113625127D01*
X136739127Y-113427651D01*
X136846000Y-113169636D01*
X136846000Y-113030000D01*
X138194962Y-113030000D01*
X138290192Y-113508752D01*
X138561383Y-113914617D01*
X138967248Y-114185808D01*
X139325153Y-114257000D01*
X139566847Y-114257000D01*
X139924752Y-114185808D01*
X140330617Y-113914617D01*
X140601808Y-113508752D01*
X140697038Y-113030000D01*
X140601808Y-112551248D01*
X140330617Y-112145383D01*
X139924752Y-111874192D01*
X139566847Y-111803000D01*
X139325153Y-111803000D01*
X138967248Y-111874192D01*
X138561383Y-112145383D01*
X138290192Y-112551248D01*
X138194962Y-113030000D01*
X136846000Y-113030000D01*
X136846000Y-112890364D01*
X136739127Y-112632349D01*
X136601000Y-112494222D01*
X136601000Y-109821155D01*
X136603242Y-109820709D01*
X136992569Y-109560569D01*
X137252709Y-109171242D01*
X137344058Y-108712000D01*
X137252709Y-108252758D01*
X137050413Y-107950000D01*
X138061396Y-107950000D01*
X138166793Y-108479865D01*
X138466937Y-108929063D01*
X138916135Y-109229207D01*
X139205588Y-109286783D01*
X138967248Y-109334192D01*
X138561383Y-109605383D01*
X138290192Y-110011248D01*
X138194962Y-110490000D01*
X138290192Y-110968752D01*
X138561383Y-111374617D01*
X138967248Y-111645808D01*
X139325153Y-111717000D01*
X139566847Y-111717000D01*
X139924752Y-111645808D01*
X140330617Y-111374617D01*
X140601808Y-110968752D01*
X140697038Y-110490000D01*
X140601808Y-110011248D01*
X140330617Y-109605383D01*
X139924752Y-109334192D01*
X139686412Y-109286783D01*
X139975865Y-109229207D01*
X140425063Y-108929063D01*
X140725207Y-108479865D01*
X140830604Y-107950000D01*
X140725207Y-107420135D01*
X140425063Y-106970937D01*
X139975865Y-106670793D01*
X139579747Y-106592000D01*
X139312253Y-106592000D01*
X138916135Y-106670793D01*
X138466937Y-106970937D01*
X138166793Y-107420135D01*
X138061396Y-107950000D01*
X137050413Y-107950000D01*
X136992569Y-107863431D01*
X136701787Y-107669137D01*
X137959318Y-106411606D01*
X137997479Y-106386109D01*
X138098484Y-106234942D01*
X138125000Y-106101639D01*
X138125000Y-106101638D01*
X138133953Y-106056631D01*
X138125000Y-106011623D01*
X138125000Y-102108000D01*
X138194962Y-102108000D01*
X138290192Y-102586752D01*
X138561383Y-102992617D01*
X138967248Y-103263808D01*
X139325153Y-103335000D01*
X139566847Y-103335000D01*
X139924752Y-103263808D01*
X140330617Y-102992617D01*
X140601808Y-102586752D01*
X140697038Y-102108000D01*
X140601808Y-101629248D01*
X140330617Y-101223383D01*
X139924752Y-100952192D01*
X139566847Y-100881000D01*
X139325153Y-100881000D01*
X138967248Y-100952192D01*
X138561383Y-101223383D01*
X138290192Y-101629248D01*
X138194962Y-102108000D01*
X138125000Y-102108000D01*
X138125000Y-99568000D01*
X138194962Y-99568000D01*
X138290192Y-100046752D01*
X138561383Y-100452617D01*
X138967248Y-100723808D01*
X139325153Y-100795000D01*
X139566847Y-100795000D01*
X139924752Y-100723808D01*
X140330617Y-100452617D01*
X140601808Y-100046752D01*
X140697038Y-99568000D01*
X140601808Y-99089248D01*
X140330617Y-98683383D01*
X139924752Y-98412192D01*
X139566847Y-98341000D01*
X139325153Y-98341000D01*
X138967248Y-98412192D01*
X138561383Y-98683383D01*
X138290192Y-99089248D01*
X138194962Y-99568000D01*
X138125000Y-99568000D01*
X138125000Y-97028000D01*
X138194962Y-97028000D01*
X138290192Y-97506752D01*
X138561383Y-97912617D01*
X138967248Y-98183808D01*
X139325153Y-98255000D01*
X139566847Y-98255000D01*
X139924752Y-98183808D01*
X140330617Y-97912617D01*
X140601808Y-97506752D01*
X140697038Y-97028000D01*
X140601808Y-96549248D01*
X140330617Y-96143383D01*
X139924752Y-95872192D01*
X139566847Y-95801000D01*
X139325153Y-95801000D01*
X138967248Y-95872192D01*
X138561383Y-96143383D01*
X138290192Y-96549248D01*
X138194962Y-97028000D01*
X138125000Y-97028000D01*
X138125000Y-94769778D01*
X138230105Y-94664673D01*
X138290192Y-94966752D01*
X138561383Y-95372617D01*
X138967248Y-95643808D01*
X139325153Y-95715000D01*
X139566847Y-95715000D01*
X139924752Y-95643808D01*
X140330617Y-95372617D01*
X140601808Y-94966752D01*
X140697038Y-94488000D01*
X140601808Y-94009248D01*
X140330617Y-93603383D01*
X139924752Y-93332192D01*
X139566847Y-93261000D01*
X139325153Y-93261000D01*
X138967248Y-93332192D01*
X138561383Y-93603383D01*
X138317695Y-93968087D01*
X138263127Y-93836349D01*
X138065651Y-93638873D01*
X137807636Y-93532000D01*
X137528364Y-93532000D01*
X137270349Y-93638873D01*
X137072873Y-93836349D01*
X136966000Y-94094364D01*
X136966000Y-94373636D01*
X137072873Y-94631651D01*
X137211001Y-94769779D01*
X137211000Y-105867335D01*
X135852683Y-107225653D01*
X135814522Y-107251151D01*
X135715097Y-107399953D01*
X135713517Y-107402318D01*
X135678047Y-107580630D01*
X135682813Y-107604590D01*
X135295431Y-107863431D01*
X135147000Y-108085574D01*
X135147000Y-105461897D01*
X135157323Y-105409999D01*
X135147000Y-105358101D01*
X135147000Y-105358097D01*
X135116423Y-105204375D01*
X134999945Y-105030055D01*
X134955945Y-105000655D01*
X132782000Y-102826710D01*
X132782000Y-102730364D01*
X132675127Y-102472349D01*
X132477651Y-102274873D01*
X132219636Y-102168000D01*
X131940364Y-102168000D01*
X131682349Y-102274873D01*
X131484873Y-102472349D01*
X131378000Y-102730364D01*
X131378000Y-103009636D01*
X131484873Y-103267651D01*
X131682349Y-103465127D01*
X131940364Y-103572000D01*
X132036710Y-103572000D01*
X134093001Y-105628291D01*
X134093000Y-114756102D01*
X134082677Y-114808000D01*
X134093000Y-114859898D01*
X134093000Y-114859902D01*
X134123577Y-115013624D01*
X134240055Y-115187945D01*
X134284055Y-115217345D01*
X135024873Y-115958163D01*
X134967000Y-116097880D01*
X134967000Y-116566120D01*
X135146187Y-116998717D01*
X135249470Y-117102000D01*
X132223315Y-117102000D01*
X132274000Y-116979636D01*
X132274000Y-116700364D01*
X132167127Y-116442349D01*
X132029000Y-116304222D01*
X132029000Y-112994385D01*
X133692000Y-112994385D01*
X133839098Y-112965125D01*
X133963801Y-112881801D01*
X134047125Y-112757098D01*
X134076385Y-112610000D01*
X134076385Y-110910000D01*
X134047125Y-110762902D01*
X133963801Y-110638199D01*
X133839098Y-110554875D01*
X133692000Y-110525615D01*
X132352450Y-110525615D01*
X132355954Y-110507998D01*
X132347001Y-110462990D01*
X132347001Y-108238606D01*
X132355954Y-108193598D01*
X132337938Y-108103027D01*
X132320485Y-108015287D01*
X132219480Y-107864120D01*
X132181319Y-107838622D01*
X131267000Y-106924304D01*
X131267000Y-102201155D01*
X131269242Y-102200709D01*
X131658569Y-101940569D01*
X131918709Y-101551242D01*
X132010058Y-101092000D01*
X131918709Y-100632758D01*
X131658569Y-100243431D01*
X131313823Y-100013079D01*
X131550922Y-99914869D01*
X131918869Y-99546922D01*
X132118000Y-99066177D01*
X132118000Y-98545823D01*
X131918869Y-98065078D01*
X131550922Y-97697131D01*
X131070177Y-97498000D01*
X130549823Y-97498000D01*
X130069078Y-97697131D01*
X129701131Y-98065078D01*
X129682990Y-98108874D01*
X129682990Y-91553237D01*
X129701291Y-91645242D01*
X129961431Y-92034569D01*
X130350758Y-92294709D01*
X130353000Y-92295155D01*
X130353001Y-95604945D01*
X130348348Y-95606872D01*
X130150872Y-95804348D01*
X130043999Y-96062363D01*
X130043999Y-96341635D01*
X130150872Y-96599650D01*
X130348348Y-96797126D01*
X130606363Y-96903999D01*
X130885635Y-96903999D01*
X131143650Y-96797126D01*
X131341126Y-96599650D01*
X131447999Y-96341635D01*
X131447999Y-96062363D01*
X131341126Y-95804348D01*
X131267000Y-95730222D01*
X131267000Y-92295155D01*
X131269242Y-92294709D01*
X131658569Y-92034569D01*
X131903001Y-91668751D01*
X131903001Y-92605221D01*
X131827897Y-92816585D01*
X131682349Y-92876873D01*
X131484873Y-93074349D01*
X131378000Y-93332364D01*
X131378000Y-93611636D01*
X131484873Y-93869651D01*
X131682349Y-94067127D01*
X131940364Y-94174000D01*
X132219636Y-94174000D01*
X132477651Y-94067127D01*
X132675127Y-93869651D01*
X132782000Y-93611636D01*
X132782000Y-93332364D01*
X132691901Y-93114845D01*
X132771580Y-92890604D01*
X132790485Y-92862311D01*
X132801741Y-92805724D01*
X132805693Y-92794602D01*
X132810504Y-92761671D01*
X132817001Y-92729008D01*
X132817001Y-92717197D01*
X132825340Y-92660115D01*
X132817001Y-92627130D01*
X132817001Y-91098000D01*
X138211615Y-91098000D01*
X138211615Y-92798000D01*
X138240875Y-92945098D01*
X138324199Y-93069801D01*
X138448902Y-93153125D01*
X138596000Y-93182385D01*
X140296000Y-93182385D01*
X140443098Y-93153125D01*
X140567801Y-93069801D01*
X140651125Y-92945098D01*
X140680385Y-92798000D01*
X140680385Y-91098000D01*
X140651125Y-90950902D01*
X140567801Y-90826199D01*
X140443098Y-90742875D01*
X140296000Y-90713615D01*
X138596000Y-90713615D01*
X138448902Y-90742875D01*
X138324199Y-90826199D01*
X138240875Y-90950902D01*
X138211615Y-91098000D01*
X132817001Y-91098000D01*
X132817001Y-88601155D01*
X132892403Y-88783191D01*
X133212809Y-89103597D01*
X133631439Y-89277000D01*
X134084561Y-89277000D01*
X134503191Y-89103597D01*
X134823597Y-88783191D01*
X134997000Y-88364561D01*
X134997000Y-87911439D01*
X134919048Y-87723247D01*
X135128001Y-87514295D01*
X135336952Y-87723247D01*
X135259000Y-87911439D01*
X135259000Y-88364561D01*
X135432403Y-88783191D01*
X135752809Y-89103597D01*
X136171439Y-89277000D01*
X136624561Y-89277000D01*
X136934677Y-89148545D01*
X136844874Y-89238348D01*
X136738001Y-89496363D01*
X136738001Y-89775635D01*
X136844874Y-90033650D01*
X137042350Y-90231126D01*
X137300365Y-90337999D01*
X137579637Y-90337999D01*
X137837652Y-90231126D01*
X138035128Y-90033650D01*
X138142001Y-89775635D01*
X138142001Y-89496363D01*
X138035128Y-89238348D01*
X137897001Y-89100221D01*
X137897001Y-88601155D01*
X137972403Y-88783191D01*
X138292809Y-89103597D01*
X138711439Y-89277000D01*
X139164561Y-89277000D01*
X139583191Y-89103597D01*
X139903597Y-88783191D01*
X140077000Y-88364561D01*
X140077000Y-87911439D01*
X139903597Y-87492809D01*
X139583191Y-87172403D01*
X139164561Y-86999000D01*
X138711439Y-86999000D01*
X138593247Y-87047957D01*
X138423242Y-86877952D01*
X139700000Y-86877952D01*
X139898212Y-86838525D01*
X140066247Y-86726247D01*
X140178525Y-86558212D01*
X140217952Y-86360000D01*
X140217952Y-84836000D01*
X140178525Y-84637788D01*
X140066247Y-84469753D01*
X139898212Y-84357475D01*
X139700000Y-84318048D01*
X138352999Y-84318048D01*
X138352999Y-83964291D01*
X138765945Y-83551345D01*
X138809945Y-83521945D01*
X138926423Y-83347625D01*
X138950539Y-83226385D01*
X139230000Y-83226385D01*
X139377098Y-83197125D01*
X139501801Y-83113801D01*
X139585125Y-82989098D01*
X139614385Y-82842000D01*
X139614385Y-81242000D01*
X139585125Y-81094902D01*
X139501801Y-80970199D01*
X139411757Y-80910034D01*
X139538869Y-80782922D01*
X139738000Y-80302177D01*
X139738000Y-79781823D01*
X139538869Y-79301078D01*
X139170922Y-78933131D01*
X138690177Y-78734000D01*
X138169823Y-78734000D01*
X137689078Y-78933131D01*
X137321131Y-79301078D01*
X137122000Y-79781823D01*
X137122000Y-80302177D01*
X137321131Y-80782922D01*
X137448243Y-80910034D01*
X137358199Y-80970199D01*
X137274875Y-81094902D01*
X137245615Y-81242000D01*
X137245615Y-82842000D01*
X137274875Y-82989098D01*
X137358199Y-83113801D01*
X137482902Y-83197125D01*
X137605248Y-83221462D01*
X137490054Y-83336656D01*
X137446054Y-83366056D01*
X137416654Y-83410056D01*
X137416653Y-83410057D01*
X137386188Y-83455651D01*
X137329576Y-83540377D01*
X137298999Y-83694099D01*
X137298999Y-83694103D01*
X137288676Y-83746001D01*
X137298999Y-83797899D01*
X137298999Y-84888211D01*
X137043191Y-84632403D01*
X136624561Y-84459000D01*
X136171439Y-84459000D01*
X135752809Y-84632403D01*
X135717011Y-84668201D01*
X135717011Y-80067283D01*
X136850295Y-78934000D01*
X137045636Y-78934000D01*
X137303651Y-78827127D01*
X137501127Y-78629651D01*
X137608000Y-78371636D01*
X137608000Y-78092364D01*
X137501127Y-77834349D01*
X137303651Y-77636873D01*
X137045636Y-77530000D01*
X136766364Y-77530000D01*
X136665001Y-77571986D01*
X136665001Y-73171880D01*
X137761000Y-73171880D01*
X137761000Y-73640120D01*
X137940187Y-74072717D01*
X138271283Y-74403813D01*
X138703880Y-74583000D01*
X139172120Y-74583000D01*
X139604717Y-74403813D01*
X139935813Y-74072717D01*
X140115000Y-73640120D01*
X140115000Y-73171880D01*
X139935813Y-72739283D01*
X139604717Y-72408187D01*
X139172120Y-72229000D01*
X138703880Y-72229000D01*
X138271283Y-72408187D01*
X137940187Y-72739283D01*
X137761000Y-73171880D01*
X136665001Y-73171880D01*
X136665001Y-70171880D01*
X137761000Y-70171880D01*
X137761000Y-70640120D01*
X137940187Y-71072717D01*
X138271283Y-71403813D01*
X138703880Y-71583000D01*
X139172120Y-71583000D01*
X139604717Y-71403813D01*
X139935813Y-71072717D01*
X140115000Y-70640120D01*
X140115000Y-70171880D01*
X139935813Y-69739283D01*
X139604717Y-69408187D01*
X139172120Y-69229000D01*
X138703880Y-69229000D01*
X138271283Y-69408187D01*
X137940187Y-69739283D01*
X137761000Y-70171880D01*
X136665001Y-70171880D01*
X136665001Y-69179779D01*
X136803128Y-69041652D01*
X136910001Y-68783637D01*
X136910001Y-68504365D01*
X136803128Y-68246350D01*
X136605652Y-68048874D01*
X136347637Y-67942001D01*
X136068365Y-67942001D01*
X135810350Y-68048874D01*
X135612874Y-68246350D01*
X135506001Y-68504365D01*
X135506001Y-68783637D01*
X135607481Y-69028631D01*
X135362120Y-68927000D01*
X134893880Y-68927000D01*
X134461283Y-69106187D01*
X134130187Y-69437283D01*
X133951000Y-69869880D01*
X133951000Y-70338120D01*
X134037868Y-70547838D01*
X133312683Y-71273023D01*
X133274522Y-71298521D01*
X133190013Y-71425000D01*
X133173517Y-71449688D01*
X133138047Y-71628000D01*
X133147001Y-71673013D01*
X133147000Y-79486704D01*
X132443837Y-80189868D01*
X132234120Y-80103000D01*
X131765880Y-80103000D01*
X131333283Y-80282187D01*
X131002187Y-80613283D01*
X130948999Y-80741691D01*
X130948999Y-78723289D01*
X131112758Y-78832709D01*
X131456080Y-78901000D01*
X131687920Y-78901000D01*
X132031242Y-78832709D01*
X132420569Y-78572569D01*
X132680709Y-78183242D01*
X132772058Y-77724000D01*
X132680709Y-77264758D01*
X132420569Y-76875431D01*
X132099000Y-76660565D01*
X132099000Y-73871778D01*
X132167127Y-73803651D01*
X132274000Y-73545636D01*
X132274000Y-73266364D01*
X132167127Y-73008349D01*
X131969651Y-72810873D01*
X131711636Y-72704000D01*
X131432364Y-72704000D01*
X131174349Y-72810873D01*
X130976873Y-73008349D01*
X130948999Y-73075643D01*
X130948999Y-72227779D01*
X131087126Y-72089652D01*
X131193999Y-71831637D01*
X131193999Y-71552365D01*
X131087126Y-71294350D01*
X130889650Y-71096874D01*
X130631635Y-70990001D01*
X130352363Y-70990001D01*
X130094348Y-71096874D01*
X129896872Y-71294350D01*
X129789999Y-71552365D01*
X129789999Y-71831637D01*
X129896872Y-72089652D01*
X130035000Y-72227780D01*
X130034999Y-83649361D01*
X130026046Y-83694369D01*
X130034999Y-83739377D01*
X130061515Y-83872680D01*
X130162520Y-84023848D01*
X130200683Y-84049348D01*
X130751247Y-84599913D01*
X130672809Y-84632403D01*
X130352403Y-84952809D01*
X130179000Y-85371439D01*
X130179000Y-85824561D01*
X130352403Y-86243191D01*
X130672809Y-86563597D01*
X131091439Y-86737000D01*
X131544561Y-86737000D01*
X131903002Y-86588528D01*
X131903002Y-87147472D01*
X131544561Y-86999000D01*
X131091439Y-86999000D01*
X130672809Y-87172403D01*
X130352403Y-87492809D01*
X130179000Y-87911439D01*
X130179000Y-88364561D01*
X130352403Y-88783191D01*
X130672809Y-89103597D01*
X131091439Y-89277000D01*
X131544561Y-89277000D01*
X131903001Y-89128528D01*
X131903001Y-90703250D01*
X131658569Y-90337431D01*
X131269242Y-90077291D01*
X130925920Y-90009000D01*
X130694080Y-90009000D01*
X130350758Y-90077291D01*
X129961431Y-90337431D01*
X129701291Y-90726758D01*
X129682990Y-90818763D01*
X129682990Y-90257788D01*
X129821117Y-90119661D01*
X129927990Y-89861646D01*
X129927990Y-89582374D01*
X129821117Y-89324359D01*
X129623641Y-89126883D01*
X129365626Y-89020010D01*
X129086354Y-89020010D01*
X128828339Y-89126883D01*
X128630863Y-89324359D01*
X128523990Y-89582374D01*
X128523990Y-89861646D01*
X128630863Y-90119661D01*
X128768991Y-90257789D01*
X128768991Y-90812333D01*
X128616869Y-90445078D01*
X128248922Y-90077131D01*
X127768177Y-89878000D01*
X127247823Y-89878000D01*
X126767078Y-90077131D01*
X126399131Y-90445078D01*
X126359010Y-90541939D01*
X126359010Y-87884000D01*
X126510962Y-87884000D01*
X126606192Y-88362752D01*
X126877383Y-88768617D01*
X127283248Y-89039808D01*
X127641153Y-89111000D01*
X127882847Y-89111000D01*
X128240752Y-89039808D01*
X128646617Y-88768617D01*
X128917808Y-88362752D01*
X129013038Y-87884000D01*
X128917808Y-87405248D01*
X128646617Y-86999383D01*
X128240752Y-86728192D01*
X127882847Y-86657000D01*
X127641153Y-86657000D01*
X127283248Y-86728192D01*
X126877383Y-86999383D01*
X126606192Y-87405248D01*
X126510962Y-87884000D01*
X126359010Y-87884000D01*
X126359010Y-82430262D01*
X126739823Y-82588000D01*
X127060000Y-82588000D01*
X127060000Y-82689636D01*
X127166873Y-82947651D01*
X127305001Y-83085779D01*
X127305000Y-84109615D01*
X126912000Y-84109615D01*
X126764902Y-84138875D01*
X126640199Y-84222199D01*
X126556875Y-84346902D01*
X126527615Y-84494000D01*
X126527615Y-86194000D01*
X126556875Y-86341098D01*
X126640199Y-86465801D01*
X126764902Y-86549125D01*
X126912000Y-86578385D01*
X128612000Y-86578385D01*
X128759098Y-86549125D01*
X128883801Y-86465801D01*
X128967125Y-86341098D01*
X128996385Y-86194000D01*
X128996385Y-84494000D01*
X128967125Y-84346902D01*
X128883801Y-84222199D01*
X128759098Y-84138875D01*
X128612000Y-84109615D01*
X128219000Y-84109615D01*
X128219000Y-83085778D01*
X128357127Y-82947651D01*
X128464000Y-82689636D01*
X128464000Y-82410364D01*
X128357127Y-82152349D01*
X128159651Y-81954873D01*
X128139658Y-81946592D01*
X128308000Y-81540177D01*
X128308000Y-81019823D01*
X128108869Y-80539078D01*
X127740922Y-80171131D01*
X127260177Y-79972000D01*
X126739823Y-79972000D01*
X126333408Y-80140342D01*
X126325127Y-80120349D01*
X126127651Y-79922873D01*
X125869636Y-79816000D01*
X125590364Y-79816000D01*
X125332349Y-79922873D01*
X125134873Y-80120349D01*
X125028000Y-80378364D01*
X125028000Y-80657636D01*
X125134873Y-80915651D01*
X125280735Y-81061513D01*
X125295622Y-81136349D01*
X125299517Y-81155931D01*
X125400522Y-81307098D01*
X125438682Y-81332595D01*
X125445010Y-81338923D01*
X125445010Y-87136137D01*
X125222000Y-87091778D01*
X124918831Y-87152082D01*
X124661815Y-87323814D01*
X124646001Y-87347481D01*
X124646001Y-78584977D01*
X125016758Y-78832709D01*
X125360080Y-78901000D01*
X125591920Y-78901000D01*
X125935242Y-78832709D01*
X126324569Y-78572569D01*
X126584709Y-78183242D01*
X126676058Y-77724000D01*
X127323942Y-77724000D01*
X127415291Y-78183242D01*
X127675431Y-78572569D01*
X128064758Y-78832709D01*
X128408080Y-78901000D01*
X128639920Y-78901000D01*
X128983242Y-78832709D01*
X129372569Y-78572569D01*
X129632709Y-78183242D01*
X129724058Y-77724000D01*
X129632709Y-77264758D01*
X129372569Y-76875431D01*
X128983242Y-76615291D01*
X128639920Y-76547000D01*
X128408080Y-76547000D01*
X128064758Y-76615291D01*
X127675431Y-76875431D01*
X127415291Y-77264758D01*
X127323942Y-77724000D01*
X126676058Y-77724000D01*
X126584709Y-77264758D01*
X126324569Y-76875431D01*
X125935242Y-76615291D01*
X125591920Y-76547000D01*
X125360080Y-76547000D01*
X125016758Y-76615291D01*
X124627431Y-76875431D01*
X124412565Y-77197000D01*
X124396529Y-77197000D01*
X124344630Y-77186677D01*
X124292731Y-77197000D01*
X124292727Y-77197000D01*
X124139005Y-77227577D01*
X123964685Y-77344055D01*
X123935285Y-77388055D01*
X123825000Y-77498340D01*
X123825000Y-76454000D01*
X123815333Y-76405399D01*
X123787803Y-76364197D01*
X123746601Y-76336667D01*
X123698000Y-76327000D01*
X121412000Y-76327000D01*
X121363399Y-76336667D01*
X121322197Y-76364197D01*
X121294667Y-76405399D01*
X121285000Y-76454000D01*
X121285000Y-77164776D01*
X121158000Y-77471381D01*
X121158000Y-77976619D01*
X121285000Y-78283224D01*
X121285000Y-78994000D01*
X121294667Y-79042601D01*
X121322197Y-79083803D01*
X121363399Y-79111333D01*
X121412000Y-79121000D01*
X123063000Y-79121000D01*
X123063000Y-79427926D01*
X123041801Y-79396199D01*
X122917098Y-79312875D01*
X122770000Y-79283615D01*
X121070000Y-79283615D01*
X120922902Y-79312875D01*
X120798199Y-79396199D01*
X120714875Y-79520902D01*
X120685615Y-79668000D01*
X120685615Y-81078325D01*
X120639347Y-81032056D01*
X120547129Y-80939838D01*
X120631038Y-80518000D01*
X120535808Y-80039248D01*
X120264617Y-79633383D01*
X119858752Y-79362192D01*
X119500847Y-79291000D01*
X119259153Y-79291000D01*
X118901248Y-79362192D01*
X118495383Y-79633383D01*
X118224192Y-80039248D01*
X118128962Y-80518000D01*
X118224192Y-80996752D01*
X118495383Y-81402617D01*
X118901248Y-81673808D01*
X119259153Y-81745000D01*
X119500847Y-81745000D01*
X119801838Y-81685129D01*
X119894056Y-81777347D01*
X120053002Y-81936292D01*
X120053001Y-82338222D01*
X119984874Y-82406349D01*
X119878001Y-82664364D01*
X119878001Y-82788455D01*
X119513747Y-82716000D01*
X119246253Y-82716000D01*
X118850135Y-82794793D01*
X118400937Y-83094937D01*
X118110000Y-83530356D01*
X117819063Y-83094937D01*
X117369865Y-82794793D01*
X116973747Y-82716000D01*
X116706253Y-82716000D01*
X116310135Y-82794793D01*
X116166999Y-82890433D01*
X116166999Y-81544015D01*
X116361248Y-81673808D01*
X116719153Y-81745000D01*
X116960847Y-81745000D01*
X117318752Y-81673808D01*
X117724617Y-81402617D01*
X117995808Y-80996752D01*
X118091038Y-80518000D01*
X117995808Y-80039248D01*
X117724617Y-79633383D01*
X117367000Y-79394430D01*
X117367000Y-74379778D01*
X117435127Y-74311651D01*
X117542000Y-74053636D01*
X117542000Y-73774364D01*
X117435127Y-73516349D01*
X117237651Y-73318873D01*
X117181262Y-73295516D01*
X117371126Y-73105652D01*
X117477999Y-72847637D01*
X117477999Y-72808478D01*
X118923000Y-72808478D01*
X118923000Y-73495522D01*
X119185920Y-74130267D01*
X119671733Y-74616080D01*
X120306478Y-74879000D01*
X120993522Y-74879000D01*
X121628267Y-74616080D01*
X122114080Y-74130267D01*
X122377000Y-73495522D01*
X122377000Y-72808478D01*
X122114080Y-72173733D01*
X121628267Y-71687920D01*
X120993522Y-71425000D01*
X120306478Y-71425000D01*
X119671733Y-71687920D01*
X119185920Y-72173733D01*
X118923000Y-72808478D01*
X117477999Y-72808478D01*
X117477999Y-72568365D01*
X117371126Y-72310350D01*
X117232999Y-72172223D01*
X117232999Y-68345880D01*
X118457000Y-68345880D01*
X118457000Y-68814120D01*
X118636187Y-69246717D01*
X118967283Y-69577813D01*
X119399880Y-69757000D01*
X119868120Y-69757000D01*
X120300717Y-69577813D01*
X120631813Y-69246717D01*
X120811000Y-68814120D01*
X120811000Y-68345880D01*
X120631813Y-67913283D01*
X120300717Y-67582187D01*
X119868120Y-67403000D01*
X119399880Y-67403000D01*
X118967283Y-67582187D01*
X118636187Y-67913283D01*
X118457000Y-68345880D01*
X117232999Y-68345880D01*
X117232999Y-66801295D01*
X118308296Y-65726000D01*
X118503636Y-65726000D01*
X118761651Y-65619127D01*
X118959127Y-65421651D01*
X119066000Y-65163636D01*
X119066000Y-64886000D01*
X122159615Y-64886000D01*
X122159615Y-66686000D01*
X122188875Y-66833098D01*
X122272199Y-66957801D01*
X122396902Y-67041125D01*
X122544000Y-67070385D01*
X124344000Y-67070385D01*
X124491098Y-67041125D01*
X124615801Y-66957801D01*
X124699125Y-66833098D01*
X124728385Y-66686000D01*
X124728385Y-66091639D01*
X124901412Y-66509362D01*
X125019001Y-66626951D01*
X125019000Y-69019320D01*
X124809283Y-69106187D01*
X124478187Y-69437283D01*
X124299000Y-69869880D01*
X124299000Y-70338120D01*
X124478187Y-70770717D01*
X124809283Y-71101813D01*
X125241880Y-71281000D01*
X125710120Y-71281000D01*
X126142717Y-71101813D01*
X126473813Y-70770717D01*
X126653000Y-70338120D01*
X126653000Y-69869880D01*
X127347000Y-69869880D01*
X127347000Y-70338120D01*
X127526187Y-70770717D01*
X127857283Y-71101813D01*
X128289880Y-71281000D01*
X128758120Y-71281000D01*
X129190717Y-71101813D01*
X129521813Y-70770717D01*
X129701000Y-70338120D01*
X129701000Y-69869880D01*
X130395000Y-69869880D01*
X130395000Y-70338120D01*
X130574187Y-70770717D01*
X130905283Y-71101813D01*
X131337880Y-71281000D01*
X131806120Y-71281000D01*
X132238717Y-71101813D01*
X132569813Y-70770717D01*
X132749000Y-70338120D01*
X132749000Y-69869880D01*
X132662132Y-69660162D01*
X134899295Y-67423001D01*
X137966991Y-67423001D01*
X138011999Y-67431954D01*
X138057007Y-67423001D01*
X138057008Y-67423001D01*
X138190311Y-67396485D01*
X138341478Y-67295480D01*
X138366978Y-67257316D01*
X138671626Y-66952668D01*
X138937989Y-67063000D01*
X139446011Y-67063000D01*
X139915362Y-66868588D01*
X140274588Y-66509362D01*
X140469000Y-66040011D01*
X140469000Y-65531989D01*
X140274588Y-65062638D01*
X139915362Y-64703412D01*
X139446011Y-64509000D01*
X138937989Y-64509000D01*
X138468638Y-64703412D01*
X138109412Y-65062638D01*
X137936385Y-65480361D01*
X137936385Y-64886000D01*
X137907125Y-64738902D01*
X137823801Y-64614199D01*
X137699098Y-64530875D01*
X137552000Y-64501615D01*
X135752000Y-64501615D01*
X135604902Y-64530875D01*
X135480199Y-64614199D01*
X135396875Y-64738902D01*
X135367615Y-64886000D01*
X135367615Y-66509001D01*
X134755007Y-66509001D01*
X134709999Y-66500048D01*
X134664991Y-66509001D01*
X134664990Y-66509001D01*
X134531687Y-66535517D01*
X134380520Y-66636522D01*
X134355024Y-66674680D01*
X132015838Y-69013868D01*
X131806120Y-68927000D01*
X131337880Y-68927000D01*
X130905283Y-69106187D01*
X130574187Y-69437283D01*
X130395000Y-69869880D01*
X129701000Y-69869880D01*
X129614132Y-69660162D01*
X132247232Y-67027064D01*
X132333989Y-67063000D01*
X132842011Y-67063000D01*
X133311362Y-66868588D01*
X133670588Y-66509362D01*
X133865000Y-66040011D01*
X133865000Y-65531989D01*
X133670588Y-65062638D01*
X133311362Y-64703412D01*
X132842011Y-64509000D01*
X132333989Y-64509000D01*
X131864638Y-64703412D01*
X131505412Y-65062638D01*
X131332385Y-65480361D01*
X131332385Y-64886000D01*
X131303125Y-64738902D01*
X131219801Y-64614199D01*
X131095098Y-64530875D01*
X130948000Y-64501615D01*
X129148000Y-64501615D01*
X129000902Y-64530875D01*
X128876199Y-64614199D01*
X128792875Y-64738902D01*
X128763615Y-64886000D01*
X128763615Y-66686000D01*
X128792875Y-66833098D01*
X128876199Y-66957801D01*
X129000902Y-67041125D01*
X129148000Y-67070385D01*
X130911320Y-67070385D01*
X128967838Y-69013868D01*
X128758120Y-68927000D01*
X128289880Y-68927000D01*
X127857283Y-69106187D01*
X127526187Y-69437283D01*
X127347000Y-69869880D01*
X126653000Y-69869880D01*
X126473813Y-69437283D01*
X126142717Y-69106187D01*
X125933000Y-69019320D01*
X125933000Y-67063000D01*
X126238011Y-67063000D01*
X126707362Y-66868588D01*
X127066588Y-66509362D01*
X127261000Y-66040011D01*
X127261000Y-65531989D01*
X127066588Y-65062638D01*
X126707362Y-64703412D01*
X126238011Y-64509000D01*
X125729989Y-64509000D01*
X125260638Y-64703412D01*
X124901412Y-65062638D01*
X124728385Y-65480361D01*
X124728385Y-64886000D01*
X124699125Y-64738902D01*
X124615801Y-64614199D01*
X124491098Y-64530875D01*
X124344000Y-64501615D01*
X122544000Y-64501615D01*
X122396902Y-64530875D01*
X122272199Y-64614199D01*
X122188875Y-64738902D01*
X122159615Y-64886000D01*
X119066000Y-64886000D01*
X119066000Y-64884364D01*
X118959127Y-64626349D01*
X118761651Y-64428873D01*
X118503636Y-64322000D01*
X118224364Y-64322000D01*
X117966349Y-64428873D01*
X117768873Y-64626349D01*
X117662000Y-64884364D01*
X117662000Y-65079704D01*
X116484682Y-66257024D01*
X116446521Y-66282522D01*
X116367149Y-66401313D01*
X116345516Y-66433689D01*
X116310046Y-66612001D01*
X116319000Y-66657014D01*
X116318999Y-72172223D01*
X116210001Y-72281221D01*
X116210001Y-66522009D01*
X116218954Y-66477001D01*
X116203898Y-66401313D01*
X116183485Y-66298689D01*
X116082480Y-66147522D01*
X116044322Y-66122026D01*
X115453292Y-65530997D01*
X115468619Y-65508058D01*
X115564904Y-65024000D01*
X115468619Y-64539942D01*
X115194422Y-64129578D01*
X115055870Y-64037000D01*
X118549320Y-64037000D01*
X118636187Y-64246717D01*
X118967283Y-64577813D01*
X119399880Y-64757000D01*
X119868120Y-64757000D01*
X120300717Y-64577813D01*
X120631813Y-64246717D01*
X120811000Y-63814120D01*
X120811000Y-63345880D01*
X120631813Y-62913283D01*
X120584530Y-62866000D01*
X140978000Y-62866000D01*
X140978001Y-117102000D01*
G36*
X124661814Y-94794186D02*
X124918830Y-94965918D01*
X125222000Y-95026222D01*
X125445011Y-94981862D01*
X125445011Y-104794694D01*
X125032706Y-105207000D01*
X124995778Y-105207000D01*
X124857651Y-105068873D01*
X124599636Y-104962000D01*
X124320364Y-104962000D01*
X124062349Y-105068873D01*
X123864873Y-105266349D01*
X123758000Y-105524364D01*
X123758000Y-105803636D01*
X123864873Y-106061651D01*
X124062349Y-106259127D01*
X124320364Y-106366000D01*
X124599636Y-106366000D01*
X124857651Y-106259127D01*
X124995778Y-106121000D01*
X125176992Y-106121000D01*
X125222000Y-106129953D01*
X125267008Y-106121000D01*
X125267009Y-106121000D01*
X125400312Y-106094484D01*
X125551479Y-105993479D01*
X125576979Y-105955315D01*
X126193328Y-105338967D01*
X126231489Y-105313469D01*
X126332494Y-105162302D01*
X126359010Y-105028999D01*
X126367963Y-104983991D01*
X126359010Y-104938983D01*
X126359010Y-101736061D01*
X126399131Y-101832922D01*
X126767078Y-102200869D01*
X127247823Y-102400000D01*
X127768177Y-102400000D01*
X128248922Y-102200869D01*
X128616869Y-101832922D01*
X128768990Y-101465669D01*
X128768990Y-103290212D01*
X128630863Y-103428339D01*
X128523990Y-103686354D01*
X128523990Y-103965626D01*
X128630863Y-104223641D01*
X128828339Y-104421117D01*
X129086354Y-104527990D01*
X129365626Y-104527990D01*
X129623641Y-104421117D01*
X129821117Y-104223641D01*
X129927990Y-103965626D01*
X129927990Y-103686354D01*
X129821117Y-103428339D01*
X129682990Y-103290212D01*
X129682990Y-101459237D01*
X129701291Y-101551242D01*
X129961431Y-101940569D01*
X130350758Y-102200709D01*
X130353000Y-102201155D01*
X130353001Y-107068585D01*
X130344047Y-107113598D01*
X130377347Y-107281000D01*
X130379517Y-107291910D01*
X130475094Y-107434954D01*
X130069078Y-107603131D01*
X129701131Y-107971078D01*
X129502000Y-108451823D01*
X129502000Y-108972177D01*
X129701131Y-109452922D01*
X130069078Y-109820869D01*
X130549823Y-110020000D01*
X131070177Y-110020000D01*
X131433002Y-109869713D01*
X131433002Y-110318702D01*
X131280684Y-110471019D01*
X131242521Y-110496519D01*
X131141516Y-110647687D01*
X131131311Y-110698991D01*
X131106828Y-110822070D01*
X130780752Y-110604192D01*
X130422847Y-110533000D01*
X130181153Y-110533000D01*
X129823248Y-110604192D01*
X129417383Y-110875383D01*
X129146192Y-111281248D01*
X129098783Y-111519588D01*
X129041207Y-111230135D01*
X128741063Y-110780937D01*
X128291865Y-110480793D01*
X127895747Y-110402000D01*
X127628253Y-110402000D01*
X127232135Y-110480793D01*
X126782937Y-110780937D01*
X126492000Y-111216356D01*
X126201063Y-110780937D01*
X125751865Y-110480793D01*
X125355747Y-110402000D01*
X125088253Y-110402000D01*
X124692135Y-110480793D01*
X124242937Y-110780937D01*
X123942793Y-111230135D01*
X123837396Y-111760000D01*
X123942793Y-112289865D01*
X124242937Y-112739063D01*
X124692135Y-113039207D01*
X125088253Y-113118000D01*
X125355747Y-113118000D01*
X125751865Y-113039207D01*
X126201063Y-112739063D01*
X126492000Y-112303644D01*
X126782937Y-112739063D01*
X127232135Y-113039207D01*
X127628253Y-113118000D01*
X127895747Y-113118000D01*
X128291865Y-113039207D01*
X128741063Y-112739063D01*
X129041207Y-112289865D01*
X129098783Y-112000412D01*
X129146192Y-112238752D01*
X129417383Y-112644617D01*
X129823248Y-112915808D01*
X130181153Y-112987000D01*
X130422847Y-112987000D01*
X130780752Y-112915808D01*
X131115000Y-112692470D01*
X131115001Y-116304221D01*
X130976873Y-116442349D01*
X130937000Y-116538611D01*
X130937000Y-113792000D01*
X130927333Y-113743399D01*
X130899803Y-113702197D01*
X130858601Y-113674667D01*
X130810000Y-113665000D01*
X123380290Y-113665000D01*
X122795001Y-113079711D01*
X122795001Y-108712000D01*
X126307942Y-108712000D01*
X126399291Y-109171242D01*
X126659431Y-109560569D01*
X127048758Y-109820709D01*
X127392080Y-109889000D01*
X127623920Y-109889000D01*
X127967242Y-109820709D01*
X128356569Y-109560569D01*
X128616709Y-109171242D01*
X128708058Y-108712000D01*
X128616709Y-108252758D01*
X128356569Y-107863431D01*
X127967242Y-107603291D01*
X127965000Y-107602845D01*
X127965000Y-105437778D01*
X128103127Y-105299651D01*
X128210000Y-105041636D01*
X128210000Y-104762364D01*
X128103127Y-104504349D01*
X127905651Y-104306873D01*
X127647636Y-104200000D01*
X127368364Y-104200000D01*
X127110349Y-104306873D01*
X126912873Y-104504349D01*
X126806000Y-104762364D01*
X126806000Y-105041636D01*
X126912873Y-105299651D01*
X127051001Y-105437779D01*
X127051000Y-107602845D01*
X127048758Y-107603291D01*
X126659431Y-107863431D01*
X126399291Y-108252758D01*
X126307942Y-108712000D01*
X122795001Y-108712000D01*
X122795001Y-107841898D01*
X122805324Y-107790000D01*
X122795001Y-107738102D01*
X122795001Y-107738098D01*
X122764424Y-107584376D01*
X122731432Y-107535000D01*
X122677347Y-107454056D01*
X122677344Y-107454053D01*
X122647946Y-107410056D01*
X122603948Y-107380657D01*
X121500999Y-106277709D01*
X121500999Y-106182015D01*
X121695248Y-106311808D01*
X122053153Y-106383000D01*
X122294847Y-106383000D01*
X122652752Y-106311808D01*
X123058617Y-106040617D01*
X123329808Y-105634752D01*
X123425038Y-105156000D01*
X123399787Y-105029056D01*
X124193308Y-104235535D01*
X124258186Y-104192186D01*
X124429918Y-103935170D01*
X124475000Y-103708526D01*
X124475000Y-103708525D01*
X124490222Y-103632001D01*
X124475000Y-103555476D01*
X124475000Y-98526944D01*
X124498946Y-98510944D01*
X124528344Y-98466947D01*
X124528347Y-98466944D01*
X124591227Y-98372837D01*
X124615424Y-98336624D01*
X124646001Y-98182902D01*
X124646001Y-98182898D01*
X124656324Y-98131000D01*
X124646001Y-98079102D01*
X124646001Y-94770520D01*
X124661814Y-94794186D01*
X124661814Y-94794186D01*
G37*
X124661814Y-94794186D02*
X124918830Y-94965918D01*
X125222000Y-95026222D01*
X125445011Y-94981862D01*
X125445011Y-104794694D01*
X125032706Y-105207000D01*
X124995778Y-105207000D01*
X124857651Y-105068873D01*
X124599636Y-104962000D01*
X124320364Y-104962000D01*
X124062349Y-105068873D01*
X123864873Y-105266349D01*
X123758000Y-105524364D01*
X123758000Y-105803636D01*
X123864873Y-106061651D01*
X124062349Y-106259127D01*
X124320364Y-106366000D01*
X124599636Y-106366000D01*
X124857651Y-106259127D01*
X124995778Y-106121000D01*
X125176992Y-106121000D01*
X125222000Y-106129953D01*
X125267008Y-106121000D01*
X125267009Y-106121000D01*
X125400312Y-106094484D01*
X125551479Y-105993479D01*
X125576979Y-105955315D01*
X126193328Y-105338967D01*
X126231489Y-105313469D01*
X126332494Y-105162302D01*
X126359010Y-105028999D01*
X126367963Y-104983991D01*
X126359010Y-104938983D01*
X126359010Y-101736061D01*
X126399131Y-101832922D01*
X126767078Y-102200869D01*
X127247823Y-102400000D01*
X127768177Y-102400000D01*
X128248922Y-102200869D01*
X128616869Y-101832922D01*
X128768990Y-101465669D01*
X128768990Y-103290212D01*
X128630863Y-103428339D01*
X128523990Y-103686354D01*
X128523990Y-103965626D01*
X128630863Y-104223641D01*
X128828339Y-104421117D01*
X129086354Y-104527990D01*
X129365626Y-104527990D01*
X129623641Y-104421117D01*
X129821117Y-104223641D01*
X129927990Y-103965626D01*
X129927990Y-103686354D01*
X129821117Y-103428339D01*
X129682990Y-103290212D01*
X129682990Y-101459237D01*
X129701291Y-101551242D01*
X129961431Y-101940569D01*
X130350758Y-102200709D01*
X130353000Y-102201155D01*
X130353001Y-107068585D01*
X130344047Y-107113598D01*
X130377347Y-107281000D01*
X130379517Y-107291910D01*
X130475094Y-107434954D01*
X130069078Y-107603131D01*
X129701131Y-107971078D01*
X129502000Y-108451823D01*
X129502000Y-108972177D01*
X129701131Y-109452922D01*
X130069078Y-109820869D01*
X130549823Y-110020000D01*
X131070177Y-110020000D01*
X131433002Y-109869713D01*
X131433002Y-110318702D01*
X131280684Y-110471019D01*
X131242521Y-110496519D01*
X131141516Y-110647687D01*
X131131311Y-110698991D01*
X131106828Y-110822070D01*
X130780752Y-110604192D01*
X130422847Y-110533000D01*
X130181153Y-110533000D01*
X129823248Y-110604192D01*
X129417383Y-110875383D01*
X129146192Y-111281248D01*
X129098783Y-111519588D01*
X129041207Y-111230135D01*
X128741063Y-110780937D01*
X128291865Y-110480793D01*
X127895747Y-110402000D01*
X127628253Y-110402000D01*
X127232135Y-110480793D01*
X126782937Y-110780937D01*
X126492000Y-111216356D01*
X126201063Y-110780937D01*
X125751865Y-110480793D01*
X125355747Y-110402000D01*
X125088253Y-110402000D01*
X124692135Y-110480793D01*
X124242937Y-110780937D01*
X123942793Y-111230135D01*
X123837396Y-111760000D01*
X123942793Y-112289865D01*
X124242937Y-112739063D01*
X124692135Y-113039207D01*
X125088253Y-113118000D01*
X125355747Y-113118000D01*
X125751865Y-113039207D01*
X126201063Y-112739063D01*
X126492000Y-112303644D01*
X126782937Y-112739063D01*
X127232135Y-113039207D01*
X127628253Y-113118000D01*
X127895747Y-113118000D01*
X128291865Y-113039207D01*
X128741063Y-112739063D01*
X129041207Y-112289865D01*
X129098783Y-112000412D01*
X129146192Y-112238752D01*
X129417383Y-112644617D01*
X129823248Y-112915808D01*
X130181153Y-112987000D01*
X130422847Y-112987000D01*
X130780752Y-112915808D01*
X131115000Y-112692470D01*
X131115001Y-116304221D01*
X130976873Y-116442349D01*
X130937000Y-116538611D01*
X130937000Y-113792000D01*
X130927333Y-113743399D01*
X130899803Y-113702197D01*
X130858601Y-113674667D01*
X130810000Y-113665000D01*
X123380290Y-113665000D01*
X122795001Y-113079711D01*
X122795001Y-108712000D01*
X126307942Y-108712000D01*
X126399291Y-109171242D01*
X126659431Y-109560569D01*
X127048758Y-109820709D01*
X127392080Y-109889000D01*
X127623920Y-109889000D01*
X127967242Y-109820709D01*
X128356569Y-109560569D01*
X128616709Y-109171242D01*
X128708058Y-108712000D01*
X128616709Y-108252758D01*
X128356569Y-107863431D01*
X127967242Y-107603291D01*
X127965000Y-107602845D01*
X127965000Y-105437778D01*
X128103127Y-105299651D01*
X128210000Y-105041636D01*
X128210000Y-104762364D01*
X128103127Y-104504349D01*
X127905651Y-104306873D01*
X127647636Y-104200000D01*
X127368364Y-104200000D01*
X127110349Y-104306873D01*
X126912873Y-104504349D01*
X126806000Y-104762364D01*
X126806000Y-105041636D01*
X126912873Y-105299651D01*
X127051001Y-105437779D01*
X127051000Y-107602845D01*
X127048758Y-107603291D01*
X126659431Y-107863431D01*
X126399291Y-108252758D01*
X126307942Y-108712000D01*
X122795001Y-108712000D01*
X122795001Y-107841898D01*
X122805324Y-107790000D01*
X122795001Y-107738102D01*
X122795001Y-107738098D01*
X122764424Y-107584376D01*
X122731432Y-107535000D01*
X122677347Y-107454056D01*
X122677344Y-107454053D01*
X122647946Y-107410056D01*
X122603948Y-107380657D01*
X121500999Y-106277709D01*
X121500999Y-106182015D01*
X121695248Y-106311808D01*
X122053153Y-106383000D01*
X122294847Y-106383000D01*
X122652752Y-106311808D01*
X123058617Y-106040617D01*
X123329808Y-105634752D01*
X123425038Y-105156000D01*
X123399787Y-105029056D01*
X124193308Y-104235535D01*
X124258186Y-104192186D01*
X124429918Y-103935170D01*
X124475000Y-103708526D01*
X124475000Y-103708525D01*
X124490222Y-103632001D01*
X124475000Y-103555476D01*
X124475000Y-98526944D01*
X124498946Y-98510944D01*
X124528344Y-98466947D01*
X124528347Y-98466944D01*
X124591227Y-98372837D01*
X124615424Y-98336624D01*
X124646001Y-98182902D01*
X124646001Y-98182898D01*
X124656324Y-98131000D01*
X124646001Y-98079102D01*
X124646001Y-94770520D01*
X124661814Y-94794186D01*
G36*
X86815815Y-71680186D02*
X86880693Y-71723536D01*
X87166213Y-72009056D01*
X87140962Y-72136000D01*
X87236192Y-72614752D01*
X87507383Y-73020617D01*
X87913248Y-73291808D01*
X88271153Y-73363000D01*
X88512847Y-73363000D01*
X88870752Y-73291808D01*
X89276617Y-73020617D01*
X89547808Y-72614752D01*
X89643001Y-72136188D01*
X89643001Y-72940221D01*
X89574873Y-73008349D01*
X89468000Y-73266364D01*
X89468000Y-73523596D01*
X89389098Y-73470875D01*
X89242000Y-73441615D01*
X87542000Y-73441615D01*
X87394902Y-73470875D01*
X87270199Y-73554199D01*
X87186875Y-73678902D01*
X87157615Y-73826000D01*
X87157615Y-75526000D01*
X87186875Y-75673098D01*
X87270199Y-75797801D01*
X87394902Y-75881125D01*
X87542000Y-75910385D01*
X89242000Y-75910385D01*
X89389098Y-75881125D01*
X89513801Y-75797801D01*
X89597125Y-75673098D01*
X89626385Y-75526000D01*
X89626385Y-73855163D01*
X89772349Y-74001127D01*
X90030364Y-74108000D01*
X90309636Y-74108000D01*
X90405000Y-74068499D01*
X90405001Y-86656221D01*
X90336873Y-86724349D01*
X90230000Y-86982364D01*
X90230000Y-87261636D01*
X90336873Y-87519651D01*
X90534349Y-87717127D01*
X90792364Y-87824000D01*
X91059000Y-87824000D01*
X91059000Y-93091000D01*
X90969778Y-93091000D01*
X90821651Y-92942873D01*
X90563636Y-92836000D01*
X90284364Y-92836000D01*
X90026349Y-92942873D01*
X89828873Y-93140349D01*
X89722000Y-93398364D01*
X89722000Y-93604643D01*
X89668517Y-93684688D01*
X89644880Y-93803516D01*
X89633048Y-93862999D01*
X89642001Y-93908007D01*
X89642002Y-101755222D01*
X89503874Y-101893350D01*
X89421001Y-102093424D01*
X89421001Y-79783778D01*
X89559128Y-79645651D01*
X89666001Y-79387636D01*
X89666001Y-79108364D01*
X89559128Y-78850349D01*
X89361652Y-78652873D01*
X89103637Y-78546000D01*
X88824365Y-78546000D01*
X88566350Y-78652873D01*
X88368874Y-78850349D01*
X88262001Y-79108364D01*
X88262001Y-79333615D01*
X87102010Y-79333615D01*
X87102010Y-78934000D01*
X87261636Y-78934000D01*
X87519651Y-78827127D01*
X87717127Y-78629651D01*
X87824000Y-78371636D01*
X87824000Y-78092364D01*
X87717127Y-77834349D01*
X87519651Y-77636873D01*
X87261636Y-77530000D01*
X86982364Y-77530000D01*
X86742000Y-77629562D01*
X86742000Y-71569714D01*
X86815815Y-71680186D01*
X86815815Y-71680186D01*
G37*
X86815815Y-71680186D02*
X86880693Y-71723536D01*
X87166213Y-72009056D01*
X87140962Y-72136000D01*
X87236192Y-72614752D01*
X87507383Y-73020617D01*
X87913248Y-73291808D01*
X88271153Y-73363000D01*
X88512847Y-73363000D01*
X88870752Y-73291808D01*
X89276617Y-73020617D01*
X89547808Y-72614752D01*
X89643001Y-72136188D01*
X89643001Y-72940221D01*
X89574873Y-73008349D01*
X89468000Y-73266364D01*
X89468000Y-73523596D01*
X89389098Y-73470875D01*
X89242000Y-73441615D01*
X87542000Y-73441615D01*
X87394902Y-73470875D01*
X87270199Y-73554199D01*
X87186875Y-73678902D01*
X87157615Y-73826000D01*
X87157615Y-75526000D01*
X87186875Y-75673098D01*
X87270199Y-75797801D01*
X87394902Y-75881125D01*
X87542000Y-75910385D01*
X89242000Y-75910385D01*
X89389098Y-75881125D01*
X89513801Y-75797801D01*
X89597125Y-75673098D01*
X89626385Y-75526000D01*
X89626385Y-73855163D01*
X89772349Y-74001127D01*
X90030364Y-74108000D01*
X90309636Y-74108000D01*
X90405000Y-74068499D01*
X90405001Y-86656221D01*
X90336873Y-86724349D01*
X90230000Y-86982364D01*
X90230000Y-87261636D01*
X90336873Y-87519651D01*
X90534349Y-87717127D01*
X90792364Y-87824000D01*
X91059000Y-87824000D01*
X91059000Y-93091000D01*
X90969778Y-93091000D01*
X90821651Y-92942873D01*
X90563636Y-92836000D01*
X90284364Y-92836000D01*
X90026349Y-92942873D01*
X89828873Y-93140349D01*
X89722000Y-93398364D01*
X89722000Y-93604643D01*
X89668517Y-93684688D01*
X89644880Y-93803516D01*
X89633048Y-93862999D01*
X89642001Y-93908007D01*
X89642002Y-101755222D01*
X89503874Y-101893350D01*
X89421001Y-102093424D01*
X89421001Y-79783778D01*
X89559128Y-79645651D01*
X89666001Y-79387636D01*
X89666001Y-79108364D01*
X89559128Y-78850349D01*
X89361652Y-78652873D01*
X89103637Y-78546000D01*
X88824365Y-78546000D01*
X88566350Y-78652873D01*
X88368874Y-78850349D01*
X88262001Y-79108364D01*
X88262001Y-79333615D01*
X87102010Y-79333615D01*
X87102010Y-78934000D01*
X87261636Y-78934000D01*
X87519651Y-78827127D01*
X87717127Y-78629651D01*
X87824000Y-78371636D01*
X87824000Y-78092364D01*
X87717127Y-77834349D01*
X87519651Y-77636873D01*
X87261636Y-77530000D01*
X86982364Y-77530000D01*
X86742000Y-77629562D01*
X86742000Y-71569714D01*
X86815815Y-71680186D01*
G36*
X118636187Y-62913283D02*
X118549320Y-63123000D01*
X110535009Y-63123000D01*
X110490000Y-63114047D01*
X110444991Y-63123000D01*
X96316478Y-63123000D01*
X96271470Y-63114047D01*
X96226462Y-63123000D01*
X96226461Y-63123000D01*
X96093158Y-63149516D01*
X95941991Y-63250521D01*
X95916495Y-63288679D01*
X94955002Y-64250174D01*
X94874422Y-64129578D01*
X94464058Y-63855381D01*
X94102185Y-63783400D01*
X93857815Y-63783400D01*
X93495942Y-63855381D01*
X93085578Y-64129578D01*
X92811381Y-64539942D01*
X92715096Y-65024000D01*
X92811381Y-65508058D01*
X92826709Y-65530997D01*
X92825082Y-65532624D01*
X92825079Y-65532626D01*
X92489681Y-65868024D01*
X92451521Y-65893522D01*
X92353649Y-66040000D01*
X92350516Y-66044689D01*
X92315046Y-66223001D01*
X92324000Y-66268014D01*
X92324000Y-66505061D01*
X91975172Y-66271981D01*
X91750125Y-66227216D01*
X91924058Y-66192619D01*
X92334422Y-65918422D01*
X92608619Y-65508058D01*
X92704904Y-65024000D01*
X92608619Y-64539942D01*
X92334422Y-64129578D01*
X91924058Y-63855381D01*
X91562185Y-63783400D01*
X91317815Y-63783400D01*
X90955942Y-63855381D01*
X90545578Y-64129578D01*
X90271381Y-64539942D01*
X90175096Y-65024000D01*
X90261305Y-65457404D01*
X90147985Y-65570725D01*
X90147985Y-64160400D01*
X90118725Y-64013302D01*
X90035401Y-63888599D01*
X89910698Y-63805275D01*
X89763600Y-63776015D01*
X88036400Y-63776015D01*
X87889302Y-63805275D01*
X87764599Y-63888599D01*
X87681275Y-64013302D01*
X87652015Y-64160400D01*
X87652015Y-65173141D01*
X86880695Y-65944462D01*
X86815814Y-65987814D01*
X86742000Y-66098285D01*
X86742000Y-62866000D01*
X118683470Y-62866000D01*
X118636187Y-62913283D01*
X118636187Y-62913283D01*
G37*
X118636187Y-62913283D02*
X118549320Y-63123000D01*
X110535009Y-63123000D01*
X110490000Y-63114047D01*
X110444991Y-63123000D01*
X96316478Y-63123000D01*
X96271470Y-63114047D01*
X96226462Y-63123000D01*
X96226461Y-63123000D01*
X96093158Y-63149516D01*
X95941991Y-63250521D01*
X95916495Y-63288679D01*
X94955002Y-64250174D01*
X94874422Y-64129578D01*
X94464058Y-63855381D01*
X94102185Y-63783400D01*
X93857815Y-63783400D01*
X93495942Y-63855381D01*
X93085578Y-64129578D01*
X92811381Y-64539942D01*
X92715096Y-65024000D01*
X92811381Y-65508058D01*
X92826709Y-65530997D01*
X92825082Y-65532624D01*
X92825079Y-65532626D01*
X92489681Y-65868024D01*
X92451521Y-65893522D01*
X92353649Y-66040000D01*
X92350516Y-66044689D01*
X92315046Y-66223001D01*
X92324000Y-66268014D01*
X92324000Y-66505061D01*
X91975172Y-66271981D01*
X91750125Y-66227216D01*
X91924058Y-66192619D01*
X92334422Y-65918422D01*
X92608619Y-65508058D01*
X92704904Y-65024000D01*
X92608619Y-64539942D01*
X92334422Y-64129578D01*
X91924058Y-63855381D01*
X91562185Y-63783400D01*
X91317815Y-63783400D01*
X90955942Y-63855381D01*
X90545578Y-64129578D01*
X90271381Y-64539942D01*
X90175096Y-65024000D01*
X90261305Y-65457404D01*
X90147985Y-65570725D01*
X90147985Y-64160400D01*
X90118725Y-64013302D01*
X90035401Y-63888599D01*
X89910698Y-63805275D01*
X89763600Y-63776015D01*
X88036400Y-63776015D01*
X87889302Y-63805275D01*
X87764599Y-63888599D01*
X87681275Y-64013302D01*
X87652015Y-64160400D01*
X87652015Y-65173141D01*
X86880695Y-65944462D01*
X86815814Y-65987814D01*
X86742000Y-66098285D01*
X86742000Y-62866000D01*
X118683470Y-62866000D01*
X118636187Y-62913283D01*
M02*
