%TF.GenerationSoftware,KiCad,Pcbnew,5.0.2-bee76a0~70~ubuntu18.04.1*%
%TF.CreationDate,2019-02-16T11:31:49+01:00*%
%TF.ProjectId,GP-Pcb-Nano,47502d50-6362-42d4-9e61-6e6f2e6b6963,2.0*%
%TF.SameCoordinates,Original*%
%TF.FileFunction,Legend,Top*%
%TF.FilePolarity,Positive*%
%FSLAX46Y46*%
G04 Gerber Fmt 4.6, Leading zero omitted, Abs format (unit mm)*
G04 Created by KiCad (PCBNEW 5.0.2-bee76a0~70~ubuntu18.04.1) date sab 16 feb 2019 11:31:50 CET*
%MOMM*%
%LPD*%
G01*
G04 APERTURE LIST*
%ADD10C,0.100000*%
%ADD11C,0.250000*%
%ADD12C,0.080000*%
%ADD13C,0.150000*%
%ADD14C,0.010000*%
%ADD15C,0.120000*%
%ADD16C,0.127000*%
%ADD17C,0.050000*%
G04 APERTURE END LIST*
D10*
X107668190Y-72409809D02*
X107430095Y-72576476D01*
X107668190Y-72695523D02*
X107168190Y-72695523D01*
X107168190Y-72505047D01*
X107192000Y-72457428D01*
X107215809Y-72433619D01*
X107263428Y-72409809D01*
X107334857Y-72409809D01*
X107382476Y-72433619D01*
X107406285Y-72457428D01*
X107430095Y-72505047D01*
X107430095Y-72695523D01*
X107644380Y-72219333D02*
X107668190Y-72147904D01*
X107668190Y-72028857D01*
X107644380Y-71981238D01*
X107620571Y-71957428D01*
X107572952Y-71933619D01*
X107525333Y-71933619D01*
X107477714Y-71957428D01*
X107453904Y-71981238D01*
X107430095Y-72028857D01*
X107406285Y-72124095D01*
X107382476Y-72171714D01*
X107358666Y-72195523D01*
X107311047Y-72219333D01*
X107263428Y-72219333D01*
X107215809Y-72195523D01*
X107192000Y-72171714D01*
X107168190Y-72124095D01*
X107168190Y-72005047D01*
X107192000Y-71933619D01*
X107168190Y-71790761D02*
X107168190Y-71505047D01*
X107668190Y-71647904D02*
X107168190Y-71647904D01*
D11*
X99984000Y-96420571D02*
X99926857Y-96534857D01*
X99926857Y-96706285D01*
X99984000Y-96877714D01*
X100098285Y-96992000D01*
X100212571Y-97049142D01*
X100441142Y-97106285D01*
X100612571Y-97106285D01*
X100841142Y-97049142D01*
X100955428Y-96992000D01*
X101069714Y-96877714D01*
X101126857Y-96706285D01*
X101126857Y-96592000D01*
X101069714Y-96420571D01*
X101012571Y-96363428D01*
X100612571Y-96363428D01*
X100612571Y-96592000D01*
X101126857Y-95849142D02*
X99926857Y-95849142D01*
X99926857Y-95392000D01*
X99984000Y-95277714D01*
X100041142Y-95220571D01*
X100155428Y-95163428D01*
X100326857Y-95163428D01*
X100441142Y-95220571D01*
X100498285Y-95277714D01*
X100555428Y-95392000D01*
X100555428Y-95849142D01*
X100669714Y-94649142D02*
X100669714Y-93734857D01*
X101126857Y-93163428D02*
X99926857Y-93163428D01*
X99926857Y-92706285D01*
X99984000Y-92592000D01*
X100041142Y-92534857D01*
X100155428Y-92477714D01*
X100326857Y-92477714D01*
X100441142Y-92534857D01*
X100498285Y-92592000D01*
X100555428Y-92706285D01*
X100555428Y-93163428D01*
X101069714Y-91449142D02*
X101126857Y-91563428D01*
X101126857Y-91792000D01*
X101069714Y-91906285D01*
X101012571Y-91963428D01*
X100898285Y-92020571D01*
X100555428Y-92020571D01*
X100441142Y-91963428D01*
X100384000Y-91906285D01*
X100326857Y-91792000D01*
X100326857Y-91563428D01*
X100384000Y-91449142D01*
X101126857Y-90934857D02*
X99926857Y-90934857D01*
X100384000Y-90934857D02*
X100326857Y-90820571D01*
X100326857Y-90592000D01*
X100384000Y-90477714D01*
X100441142Y-90420571D01*
X100555428Y-90363428D01*
X100898285Y-90363428D01*
X101012571Y-90420571D01*
X101069714Y-90477714D01*
X101126857Y-90592000D01*
X101126857Y-90820571D01*
X101069714Y-90934857D01*
X100669714Y-89849142D02*
X100669714Y-88934857D01*
X101126857Y-88363428D02*
X99926857Y-88363428D01*
X101126857Y-87677714D01*
X99926857Y-87677714D01*
X101126857Y-86592000D02*
X100498285Y-86592000D01*
X100384000Y-86649142D01*
X100326857Y-86763428D01*
X100326857Y-86992000D01*
X100384000Y-87106285D01*
X101069714Y-86592000D02*
X101126857Y-86706285D01*
X101126857Y-86992000D01*
X101069714Y-87106285D01*
X100955428Y-87163428D01*
X100841142Y-87163428D01*
X100726857Y-87106285D01*
X100669714Y-86992000D01*
X100669714Y-86706285D01*
X100612571Y-86592000D01*
X100326857Y-86020571D02*
X101126857Y-86020571D01*
X100441142Y-86020571D02*
X100384000Y-85963428D01*
X100326857Y-85849142D01*
X100326857Y-85677714D01*
X100384000Y-85563428D01*
X100498285Y-85506285D01*
X101126857Y-85506285D01*
X101126857Y-84763428D02*
X101069714Y-84877714D01*
X101012571Y-84934857D01*
X100898285Y-84992000D01*
X100555428Y-84992000D01*
X100441142Y-84934857D01*
X100384000Y-84877714D01*
X100326857Y-84763428D01*
X100326857Y-84592000D01*
X100384000Y-84477714D01*
X100441142Y-84420571D01*
X100555428Y-84363428D01*
X100898285Y-84363428D01*
X101012571Y-84420571D01*
X101069714Y-84477714D01*
X101126857Y-84592000D01*
X101126857Y-84763428D01*
X100326857Y-83049142D02*
X101126857Y-82763428D01*
X100326857Y-82477714D01*
X100041142Y-82077714D02*
X99984000Y-82020571D01*
X99926857Y-81906285D01*
X99926857Y-81620571D01*
X99984000Y-81506285D01*
X100041142Y-81449142D01*
X100155428Y-81392000D01*
X100269714Y-81392000D01*
X100441142Y-81449142D01*
X101126857Y-82134857D01*
X101126857Y-81392000D01*
X101012571Y-80877714D02*
X101069714Y-80820571D01*
X101126857Y-80877714D01*
X101069714Y-80934857D01*
X101012571Y-80877714D01*
X101126857Y-80877714D01*
X99926857Y-80077714D02*
X99926857Y-79963428D01*
X99984000Y-79849142D01*
X100041142Y-79792000D01*
X100155428Y-79734857D01*
X100384000Y-79677714D01*
X100669714Y-79677714D01*
X100898285Y-79734857D01*
X101012571Y-79792000D01*
X101069714Y-79849142D01*
X101126857Y-79963428D01*
X101126857Y-80077714D01*
X101069714Y-80192000D01*
X101012571Y-80249142D01*
X100898285Y-80306285D01*
X100669714Y-80363428D01*
X100384000Y-80363428D01*
X100155428Y-80306285D01*
X100041142Y-80249142D01*
X99984000Y-80192000D01*
X99926857Y-80077714D01*
D10*
X135080380Y-68806190D02*
X134913714Y-68568095D01*
X134794666Y-68806190D02*
X134794666Y-68306190D01*
X134985142Y-68306190D01*
X135032761Y-68330000D01*
X135056571Y-68353809D01*
X135080380Y-68401428D01*
X135080380Y-68472857D01*
X135056571Y-68520476D01*
X135032761Y-68544285D01*
X134985142Y-68568095D01*
X134794666Y-68568095D01*
X135247047Y-68806190D02*
X135508952Y-68472857D01*
X135247047Y-68472857D02*
X135508952Y-68806190D01*
X128432761Y-68306190D02*
X128718476Y-68306190D01*
X128575619Y-68806190D02*
X128575619Y-68306190D01*
X128837523Y-68806190D02*
X129099428Y-68472857D01*
X128837523Y-68472857D02*
X129099428Y-68806190D01*
X121757333Y-68544285D02*
X121924000Y-68544285D01*
X121995428Y-68806190D02*
X121757333Y-68806190D01*
X121757333Y-68306190D01*
X121995428Y-68306190D01*
X122209714Y-68806190D02*
X122209714Y-68472857D01*
X122209714Y-68568095D02*
X122233523Y-68520476D01*
X122257333Y-68496666D01*
X122304952Y-68472857D01*
X122352571Y-68472857D01*
X122519238Y-68806190D02*
X122519238Y-68472857D01*
X122519238Y-68568095D02*
X122543047Y-68520476D01*
X122566857Y-68496666D01*
X122614476Y-68472857D01*
X122662095Y-68472857D01*
D12*
X135701142Y-110507428D02*
X135701142Y-109907428D01*
X135844000Y-109907428D01*
X135929714Y-109936000D01*
X135986857Y-109993142D01*
X136015428Y-110050285D01*
X136044000Y-110164571D01*
X136044000Y-110250285D01*
X136015428Y-110364571D01*
X135986857Y-110421714D01*
X135929714Y-110478857D01*
X135844000Y-110507428D01*
X135701142Y-110507428D01*
X136558285Y-110107428D02*
X136558285Y-110507428D01*
X136415428Y-109878857D02*
X136272571Y-110307428D01*
X136644000Y-110307428D01*
D10*
X113942857Y-69425333D02*
X114180952Y-69425333D01*
X113895238Y-69568190D02*
X114061904Y-69068190D01*
X114228571Y-69568190D01*
X114347619Y-69068190D02*
X114657142Y-69068190D01*
X114490476Y-69258666D01*
X114561904Y-69258666D01*
X114609523Y-69282476D01*
X114633333Y-69306285D01*
X114657142Y-69353904D01*
X114657142Y-69472952D01*
X114633333Y-69520571D01*
X114609523Y-69544380D01*
X114561904Y-69568190D01*
X114419047Y-69568190D01*
X114371428Y-69544380D01*
X114347619Y-69520571D01*
D12*
X111501666Y-69426433D02*
X111501666Y-69076433D01*
X111585000Y-69076433D01*
X111635000Y-69093100D01*
X111668333Y-69126433D01*
X111685000Y-69159766D01*
X111701666Y-69226433D01*
X111701666Y-69276433D01*
X111685000Y-69343100D01*
X111668333Y-69376433D01*
X111635000Y-69409766D01*
X111585000Y-69426433D01*
X111501666Y-69426433D01*
X111901666Y-69226433D02*
X111868333Y-69209766D01*
X111851666Y-69193100D01*
X111835000Y-69159766D01*
X111835000Y-69143100D01*
X111851666Y-69109766D01*
X111868333Y-69093100D01*
X111901666Y-69076433D01*
X111968333Y-69076433D01*
X112001666Y-69093100D01*
X112018333Y-69109766D01*
X112035000Y-69143100D01*
X112035000Y-69159766D01*
X112018333Y-69193100D01*
X112001666Y-69209766D01*
X111968333Y-69226433D01*
X111901666Y-69226433D01*
X111868333Y-69243100D01*
X111851666Y-69259766D01*
X111835000Y-69293100D01*
X111835000Y-69359766D01*
X111851666Y-69393100D01*
X111868333Y-69409766D01*
X111901666Y-69426433D01*
X111968333Y-69426433D01*
X112001666Y-69409766D01*
X112018333Y-69393100D01*
X112035000Y-69359766D01*
X112035000Y-69293100D01*
X112018333Y-69259766D01*
X112001666Y-69243100D01*
X111968333Y-69226433D01*
X111701666Y-69998100D02*
X111685000Y-70014766D01*
X111635000Y-70031433D01*
X111601666Y-70031433D01*
X111551666Y-70014766D01*
X111518333Y-69981433D01*
X111501666Y-69948100D01*
X111485000Y-69881433D01*
X111485000Y-69831433D01*
X111501666Y-69764766D01*
X111518333Y-69731433D01*
X111551666Y-69698100D01*
X111601666Y-69681433D01*
X111635000Y-69681433D01*
X111685000Y-69698100D01*
X111701666Y-69714766D01*
X111835000Y-70014766D02*
X111885000Y-70031433D01*
X111968333Y-70031433D01*
X112001666Y-70014766D01*
X112018333Y-69998100D01*
X112035000Y-69964766D01*
X112035000Y-69931433D01*
X112018333Y-69898100D01*
X112001666Y-69881433D01*
X111968333Y-69864766D01*
X111901666Y-69848100D01*
X111868333Y-69831433D01*
X111851666Y-69814766D01*
X111835000Y-69781433D01*
X111835000Y-69748100D01*
X111851666Y-69714766D01*
X111868333Y-69698100D01*
X111901666Y-69681433D01*
X111985000Y-69681433D01*
X112035000Y-69698100D01*
X108670000Y-70008333D02*
X108670000Y-69658333D01*
X108786666Y-69908333D01*
X108903333Y-69658333D01*
X108903333Y-70008333D01*
X109070000Y-70008333D02*
X109070000Y-69658333D01*
X109220000Y-69991666D02*
X109270000Y-70008333D01*
X109353333Y-70008333D01*
X109386666Y-69991666D01*
X109403333Y-69975000D01*
X109420000Y-69941666D01*
X109420000Y-69908333D01*
X109403333Y-69875000D01*
X109386666Y-69858333D01*
X109353333Y-69841666D01*
X109286666Y-69825000D01*
X109253333Y-69808333D01*
X109236666Y-69791666D01*
X109220000Y-69758333D01*
X109220000Y-69725000D01*
X109236666Y-69691666D01*
X109253333Y-69675000D01*
X109286666Y-69658333D01*
X109370000Y-69658333D01*
X109420000Y-69675000D01*
X109636666Y-69658333D02*
X109703333Y-69658333D01*
X109736666Y-69675000D01*
X109770000Y-69708333D01*
X109786666Y-69775000D01*
X109786666Y-69891666D01*
X109770000Y-69958333D01*
X109736666Y-69991666D01*
X109703333Y-70008333D01*
X109636666Y-70008333D01*
X109603333Y-69991666D01*
X109570000Y-69958333D01*
X109553333Y-69891666D01*
X109553333Y-69775000D01*
X109570000Y-69708333D01*
X109603333Y-69675000D01*
X109636666Y-69658333D01*
X108795000Y-69398733D02*
X108795000Y-69048733D01*
X108878333Y-69048733D01*
X108928333Y-69065400D01*
X108961666Y-69098733D01*
X108978333Y-69132066D01*
X108995000Y-69198733D01*
X108995000Y-69248733D01*
X108978333Y-69315400D01*
X108961666Y-69348733D01*
X108928333Y-69382066D01*
X108878333Y-69398733D01*
X108795000Y-69398733D01*
X109328333Y-69398733D02*
X109128333Y-69398733D01*
X109228333Y-69398733D02*
X109228333Y-69048733D01*
X109195000Y-69098733D01*
X109161666Y-69132066D01*
X109128333Y-69148733D01*
X109461666Y-69082066D02*
X109478333Y-69065400D01*
X109511666Y-69048733D01*
X109595000Y-69048733D01*
X109628333Y-69065400D01*
X109645000Y-69082066D01*
X109661666Y-69115400D01*
X109661666Y-69148733D01*
X109645000Y-69198733D01*
X109445000Y-69398733D01*
X109661666Y-69398733D01*
D10*
X106322857Y-69425333D02*
X106560952Y-69425333D01*
X106275238Y-69568190D02*
X106441904Y-69068190D01*
X106608571Y-69568190D01*
X107037142Y-69568190D02*
X106751428Y-69568190D01*
X106894285Y-69568190D02*
X106894285Y-69068190D01*
X106846666Y-69139619D01*
X106799047Y-69187238D01*
X106751428Y-69211047D01*
D12*
X103915400Y-69326433D02*
X104082066Y-69326433D01*
X103882066Y-69426433D02*
X103998733Y-69076433D01*
X104115400Y-69426433D01*
X104382066Y-69193100D02*
X104382066Y-69426433D01*
X104298733Y-69059766D02*
X104215400Y-69309766D01*
X104432066Y-69309766D01*
X103740400Y-70014766D02*
X103790400Y-70031433D01*
X103873733Y-70031433D01*
X103907066Y-70014766D01*
X103923733Y-69998100D01*
X103940400Y-69964766D01*
X103940400Y-69931433D01*
X103923733Y-69898100D01*
X103907066Y-69881433D01*
X103873733Y-69864766D01*
X103807066Y-69848100D01*
X103773733Y-69831433D01*
X103757066Y-69814766D01*
X103740400Y-69781433D01*
X103740400Y-69748100D01*
X103757066Y-69714766D01*
X103773733Y-69698100D01*
X103807066Y-69681433D01*
X103890400Y-69681433D01*
X103940400Y-69698100D01*
X104090400Y-70031433D02*
X104090400Y-69681433D01*
X104173733Y-69681433D01*
X104223733Y-69698100D01*
X104257066Y-69731433D01*
X104273733Y-69764766D01*
X104290400Y-69831433D01*
X104290400Y-69881433D01*
X104273733Y-69948100D01*
X104257066Y-69981433D01*
X104223733Y-70014766D01*
X104173733Y-70031433D01*
X104090400Y-70031433D01*
X104423733Y-69931433D02*
X104590400Y-69931433D01*
X104390400Y-70031433D02*
X104507066Y-69681433D01*
X104623733Y-70031433D01*
D10*
X101230952Y-69568190D02*
X101230952Y-69068190D01*
X101350000Y-69068190D01*
X101421428Y-69092000D01*
X101469047Y-69139619D01*
X101492857Y-69187238D01*
X101516666Y-69282476D01*
X101516666Y-69353904D01*
X101492857Y-69449142D01*
X101469047Y-69496761D01*
X101421428Y-69544380D01*
X101350000Y-69568190D01*
X101230952Y-69568190D01*
X101945238Y-69068190D02*
X101850000Y-69068190D01*
X101802380Y-69092000D01*
X101778571Y-69115809D01*
X101730952Y-69187238D01*
X101707142Y-69282476D01*
X101707142Y-69472952D01*
X101730952Y-69520571D01*
X101754761Y-69544380D01*
X101802380Y-69568190D01*
X101897619Y-69568190D01*
X101945238Y-69544380D01*
X101969047Y-69520571D01*
X101992857Y-69472952D01*
X101992857Y-69353904D01*
X101969047Y-69306285D01*
X101945238Y-69282476D01*
X101897619Y-69258666D01*
X101802380Y-69258666D01*
X101754761Y-69282476D01*
X101730952Y-69306285D01*
X101707142Y-69353904D01*
X98690952Y-69568190D02*
X98690952Y-69068190D01*
X98810000Y-69068190D01*
X98881428Y-69092000D01*
X98929047Y-69139619D01*
X98952857Y-69187238D01*
X98976666Y-69282476D01*
X98976666Y-69353904D01*
X98952857Y-69449142D01*
X98929047Y-69496761D01*
X98881428Y-69544380D01*
X98810000Y-69568190D01*
X98690952Y-69568190D01*
X99143333Y-69068190D02*
X99452857Y-69068190D01*
X99286190Y-69258666D01*
X99357619Y-69258666D01*
X99405238Y-69282476D01*
X99429047Y-69306285D01*
X99452857Y-69353904D01*
X99452857Y-69472952D01*
X99429047Y-69520571D01*
X99405238Y-69544380D01*
X99357619Y-69568190D01*
X99214761Y-69568190D01*
X99167142Y-69544380D01*
X99143333Y-69520571D01*
X96162857Y-69425333D02*
X96400952Y-69425333D01*
X96115238Y-69568190D02*
X96281904Y-69068190D01*
X96448571Y-69568190D01*
X96567619Y-69068190D02*
X96900952Y-69068190D01*
X96686666Y-69568190D01*
X93932380Y-69568190D02*
X93765714Y-69330095D01*
X93646666Y-69568190D02*
X93646666Y-69068190D01*
X93837142Y-69068190D01*
X93884761Y-69092000D01*
X93908571Y-69115809D01*
X93932380Y-69163428D01*
X93932380Y-69234857D01*
X93908571Y-69282476D01*
X93884761Y-69306285D01*
X93837142Y-69330095D01*
X93646666Y-69330095D01*
X94099047Y-69568190D02*
X94360952Y-69234857D01*
X94099047Y-69234857D02*
X94360952Y-69568190D01*
D12*
X103890000Y-62849433D02*
X104056666Y-62849433D01*
X103856666Y-62949433D02*
X103973333Y-62599433D01*
X104090000Y-62949433D01*
X104373333Y-62599433D02*
X104206666Y-62599433D01*
X104190000Y-62766100D01*
X104206666Y-62749433D01*
X104240000Y-62732766D01*
X104323333Y-62732766D01*
X104356666Y-62749433D01*
X104373333Y-62766100D01*
X104390000Y-62799433D01*
X104390000Y-62882766D01*
X104373333Y-62916100D01*
X104356666Y-62932766D01*
X104323333Y-62949433D01*
X104240000Y-62949433D01*
X104206666Y-62932766D01*
X104190000Y-62916100D01*
X103723333Y-63537766D02*
X103773333Y-63554433D01*
X103856666Y-63554433D01*
X103890000Y-63537766D01*
X103906666Y-63521100D01*
X103923333Y-63487766D01*
X103923333Y-63454433D01*
X103906666Y-63421100D01*
X103890000Y-63404433D01*
X103856666Y-63387766D01*
X103790000Y-63371100D01*
X103756666Y-63354433D01*
X103740000Y-63337766D01*
X103723333Y-63304433D01*
X103723333Y-63271100D01*
X103740000Y-63237766D01*
X103756666Y-63221100D01*
X103790000Y-63204433D01*
X103873333Y-63204433D01*
X103923333Y-63221100D01*
X104273333Y-63521100D02*
X104256666Y-63537766D01*
X104206666Y-63554433D01*
X104173333Y-63554433D01*
X104123333Y-63537766D01*
X104090000Y-63504433D01*
X104073333Y-63471100D01*
X104056666Y-63404433D01*
X104056666Y-63354433D01*
X104073333Y-63287766D01*
X104090000Y-63254433D01*
X104123333Y-63221100D01*
X104173333Y-63204433D01*
X104206666Y-63204433D01*
X104256666Y-63221100D01*
X104273333Y-63237766D01*
X104590000Y-63554433D02*
X104423333Y-63554433D01*
X104423333Y-63204433D01*
D10*
X91059047Y-69600000D02*
X91011428Y-69576190D01*
X90940000Y-69576190D01*
X90868571Y-69600000D01*
X90820952Y-69647619D01*
X90797142Y-69695238D01*
X90773333Y-69790476D01*
X90773333Y-69861904D01*
X90797142Y-69957142D01*
X90820952Y-70004761D01*
X90868571Y-70052380D01*
X90940000Y-70076190D01*
X90987619Y-70076190D01*
X91059047Y-70052380D01*
X91082857Y-70028571D01*
X91082857Y-69861904D01*
X90987619Y-69861904D01*
X91297142Y-70076190D02*
X91297142Y-69576190D01*
X91582857Y-70076190D01*
X91582857Y-69576190D01*
X91820952Y-70076190D02*
X91820952Y-69576190D01*
X91940000Y-69576190D01*
X92011428Y-69600000D01*
X92059047Y-69647619D01*
X92082857Y-69695238D01*
X92106666Y-69790476D01*
X92106666Y-69861904D01*
X92082857Y-69957142D01*
X92059047Y-70004761D01*
X92011428Y-70052380D01*
X91940000Y-70076190D01*
X91820952Y-70076190D01*
D12*
X111335000Y-62949433D02*
X111335000Y-62599433D01*
X111418333Y-62599433D01*
X111468333Y-62616100D01*
X111501666Y-62649433D01*
X111518333Y-62682766D01*
X111535000Y-62749433D01*
X111535000Y-62799433D01*
X111518333Y-62866100D01*
X111501666Y-62899433D01*
X111468333Y-62932766D01*
X111418333Y-62949433D01*
X111335000Y-62949433D01*
X111868333Y-62949433D02*
X111668333Y-62949433D01*
X111768333Y-62949433D02*
X111768333Y-62599433D01*
X111735000Y-62649433D01*
X111701666Y-62682766D01*
X111668333Y-62699433D01*
X111985000Y-62599433D02*
X112201666Y-62599433D01*
X112085000Y-62732766D01*
X112135000Y-62732766D01*
X112168333Y-62749433D01*
X112185000Y-62766100D01*
X112201666Y-62799433D01*
X112201666Y-62882766D01*
X112185000Y-62916100D01*
X112168333Y-62932766D01*
X112135000Y-62949433D01*
X112035000Y-62949433D01*
X112001666Y-62932766D01*
X111985000Y-62916100D01*
X111310000Y-63537766D02*
X111360000Y-63554433D01*
X111443333Y-63554433D01*
X111476666Y-63537766D01*
X111493333Y-63521100D01*
X111510000Y-63487766D01*
X111510000Y-63454433D01*
X111493333Y-63421100D01*
X111476666Y-63404433D01*
X111443333Y-63387766D01*
X111376666Y-63371100D01*
X111343333Y-63354433D01*
X111326666Y-63337766D01*
X111310000Y-63304433D01*
X111310000Y-63271100D01*
X111326666Y-63237766D01*
X111343333Y-63221100D01*
X111376666Y-63204433D01*
X111460000Y-63204433D01*
X111510000Y-63221100D01*
X111860000Y-63521100D02*
X111843333Y-63537766D01*
X111793333Y-63554433D01*
X111760000Y-63554433D01*
X111710000Y-63537766D01*
X111676666Y-63504433D01*
X111660000Y-63471100D01*
X111643333Y-63404433D01*
X111643333Y-63354433D01*
X111660000Y-63287766D01*
X111676666Y-63254433D01*
X111710000Y-63221100D01*
X111760000Y-63204433D01*
X111793333Y-63204433D01*
X111843333Y-63221100D01*
X111860000Y-63237766D01*
X112010000Y-63554433D02*
X112010000Y-63204433D01*
X112210000Y-63554433D02*
X112060000Y-63354433D01*
X112210000Y-63204433D02*
X112010000Y-63404433D01*
D10*
X113942857Y-63329333D02*
X114180952Y-63329333D01*
X113895238Y-63472190D02*
X114061904Y-62972190D01*
X114228571Y-63472190D01*
X114371428Y-63019809D02*
X114395238Y-62996000D01*
X114442857Y-62972190D01*
X114561904Y-62972190D01*
X114609523Y-62996000D01*
X114633333Y-63019809D01*
X114657142Y-63067428D01*
X114657142Y-63115047D01*
X114633333Y-63186476D01*
X114347619Y-63472190D01*
X114657142Y-63472190D01*
D12*
X108871200Y-62949433D02*
X108871200Y-62599433D01*
X108954533Y-62599433D01*
X109004533Y-62616100D01*
X109037866Y-62649433D01*
X109054533Y-62682766D01*
X109071200Y-62749433D01*
X109071200Y-62799433D01*
X109054533Y-62866100D01*
X109037866Y-62899433D01*
X109004533Y-62932766D01*
X108954533Y-62949433D01*
X108871200Y-62949433D01*
X109404533Y-62949433D02*
X109204533Y-62949433D01*
X109304533Y-62949433D02*
X109304533Y-62599433D01*
X109271200Y-62649433D01*
X109237866Y-62682766D01*
X109204533Y-62699433D01*
X109737866Y-62949433D02*
X109537866Y-62949433D01*
X109637866Y-62949433D02*
X109637866Y-62599433D01*
X109604533Y-62649433D01*
X109571200Y-62682766D01*
X109537866Y-62699433D01*
X108746200Y-63554433D02*
X108746200Y-63204433D01*
X108862866Y-63454433D01*
X108979533Y-63204433D01*
X108979533Y-63554433D01*
X109212866Y-63204433D02*
X109279533Y-63204433D01*
X109312866Y-63221100D01*
X109346200Y-63254433D01*
X109362866Y-63321100D01*
X109362866Y-63437766D01*
X109346200Y-63504433D01*
X109312866Y-63537766D01*
X109279533Y-63554433D01*
X109212866Y-63554433D01*
X109179533Y-63537766D01*
X109146200Y-63504433D01*
X109129533Y-63437766D01*
X109129533Y-63321100D01*
X109146200Y-63254433D01*
X109179533Y-63221100D01*
X109212866Y-63204433D01*
X109496200Y-63537766D02*
X109546200Y-63554433D01*
X109629533Y-63554433D01*
X109662866Y-63537766D01*
X109679533Y-63521100D01*
X109696200Y-63487766D01*
X109696200Y-63454433D01*
X109679533Y-63421100D01*
X109662866Y-63404433D01*
X109629533Y-63387766D01*
X109562866Y-63371100D01*
X109529533Y-63354433D01*
X109512866Y-63337766D01*
X109496200Y-63304433D01*
X109496200Y-63271100D01*
X109512866Y-63237766D01*
X109529533Y-63221100D01*
X109562866Y-63204433D01*
X109646200Y-63204433D01*
X109696200Y-63221100D01*
X109846200Y-63554433D02*
X109846200Y-63204433D01*
D10*
X106322857Y-63329333D02*
X106560952Y-63329333D01*
X106275238Y-63472190D02*
X106441904Y-62972190D01*
X106608571Y-63472190D01*
X106870476Y-62972190D02*
X106918095Y-62972190D01*
X106965714Y-62996000D01*
X106989523Y-63019809D01*
X107013333Y-63067428D01*
X107037142Y-63162666D01*
X107037142Y-63281714D01*
X107013333Y-63376952D01*
X106989523Y-63424571D01*
X106965714Y-63448380D01*
X106918095Y-63472190D01*
X106870476Y-63472190D01*
X106822857Y-63448380D01*
X106799047Y-63424571D01*
X106775238Y-63376952D01*
X106751428Y-63281714D01*
X106751428Y-63162666D01*
X106775238Y-63067428D01*
X106799047Y-63019809D01*
X106822857Y-62996000D01*
X106870476Y-62972190D01*
X101230952Y-63472190D02*
X101230952Y-62972190D01*
X101350000Y-62972190D01*
X101421428Y-62996000D01*
X101469047Y-63043619D01*
X101492857Y-63091238D01*
X101516666Y-63186476D01*
X101516666Y-63257904D01*
X101492857Y-63353142D01*
X101469047Y-63400761D01*
X101421428Y-63448380D01*
X101350000Y-63472190D01*
X101230952Y-63472190D01*
X101969047Y-62972190D02*
X101730952Y-62972190D01*
X101707142Y-63210285D01*
X101730952Y-63186476D01*
X101778571Y-63162666D01*
X101897619Y-63162666D01*
X101945238Y-63186476D01*
X101969047Y-63210285D01*
X101992857Y-63257904D01*
X101992857Y-63376952D01*
X101969047Y-63424571D01*
X101945238Y-63448380D01*
X101897619Y-63472190D01*
X101778571Y-63472190D01*
X101730952Y-63448380D01*
X101707142Y-63424571D01*
X98690952Y-63472190D02*
X98690952Y-62972190D01*
X98810000Y-62972190D01*
X98881428Y-62996000D01*
X98929047Y-63043619D01*
X98952857Y-63091238D01*
X98976666Y-63186476D01*
X98976666Y-63257904D01*
X98952857Y-63353142D01*
X98929047Y-63400761D01*
X98881428Y-63448380D01*
X98810000Y-63472190D01*
X98690952Y-63472190D01*
X99167142Y-63019809D02*
X99190952Y-62996000D01*
X99238571Y-62972190D01*
X99357619Y-62972190D01*
X99405238Y-62996000D01*
X99429047Y-63019809D01*
X99452857Y-63067428D01*
X99452857Y-63115047D01*
X99429047Y-63186476D01*
X99143333Y-63472190D01*
X99452857Y-63472190D01*
X95948571Y-63472190D02*
X95948571Y-62972190D01*
X96067619Y-62972190D01*
X96139047Y-62996000D01*
X96186666Y-63043619D01*
X96210476Y-63091238D01*
X96234285Y-63186476D01*
X96234285Y-63257904D01*
X96210476Y-63353142D01*
X96186666Y-63400761D01*
X96139047Y-63448380D01*
X96067619Y-63472190D01*
X95948571Y-63472190D01*
X96377142Y-62972190D02*
X96662857Y-62972190D01*
X96520000Y-63472190D02*
X96520000Y-62972190D01*
X97115238Y-63472190D02*
X96948571Y-63234095D01*
X96829523Y-63472190D02*
X96829523Y-62972190D01*
X97020000Y-62972190D01*
X97067619Y-62996000D01*
X97091428Y-63019809D01*
X97115238Y-63067428D01*
X97115238Y-63138857D01*
X97091428Y-63186476D01*
X97067619Y-63210285D01*
X97020000Y-63234095D01*
X96829523Y-63234095D01*
X93634761Y-62972190D02*
X93920476Y-62972190D01*
X93777619Y-63472190D02*
X93777619Y-62972190D01*
X94039523Y-63472190D02*
X94301428Y-63138857D01*
X94039523Y-63138857D02*
X94301428Y-63472190D01*
X90844761Y-62972190D02*
X91011428Y-63472190D01*
X91178095Y-62972190D01*
X91559047Y-63448380D02*
X91511428Y-63472190D01*
X91416190Y-63472190D01*
X91368571Y-63448380D01*
X91344761Y-63424571D01*
X91320952Y-63376952D01*
X91320952Y-63234095D01*
X91344761Y-63186476D01*
X91368571Y-63162666D01*
X91416190Y-63138857D01*
X91511428Y-63138857D01*
X91559047Y-63162666D01*
X91987619Y-63448380D02*
X91940000Y-63472190D01*
X91844761Y-63472190D01*
X91797142Y-63448380D01*
X91773333Y-63424571D01*
X91749523Y-63376952D01*
X91749523Y-63234095D01*
X91773333Y-63186476D01*
X91797142Y-63162666D01*
X91844761Y-63138857D01*
X91940000Y-63138857D01*
X91987619Y-63162666D01*
X88388095Y-62718190D02*
X88554761Y-63218190D01*
X88721428Y-62718190D01*
X88888095Y-63218190D02*
X88888095Y-62884857D01*
X88888095Y-62718190D02*
X88864285Y-62742000D01*
X88888095Y-62765809D01*
X88911904Y-62742000D01*
X88888095Y-62718190D01*
X88888095Y-62765809D01*
X89126190Y-62884857D02*
X89126190Y-63218190D01*
X89126190Y-62932476D02*
X89150000Y-62908666D01*
X89197619Y-62884857D01*
X89269047Y-62884857D01*
X89316666Y-62908666D01*
X89340476Y-62956285D01*
X89340476Y-63218190D01*
X87900000Y-69377714D02*
X88280952Y-69377714D01*
X88090476Y-69568190D02*
X88090476Y-69187238D01*
X88471428Y-69068190D02*
X88780952Y-69068190D01*
X88614285Y-69258666D01*
X88685714Y-69258666D01*
X88733333Y-69282476D01*
X88757142Y-69306285D01*
X88780952Y-69353904D01*
X88780952Y-69472952D01*
X88757142Y-69520571D01*
X88733333Y-69544380D01*
X88685714Y-69568190D01*
X88542857Y-69568190D01*
X88495238Y-69544380D01*
X88471428Y-69520571D01*
X88995238Y-69520571D02*
X89019047Y-69544380D01*
X88995238Y-69568190D01*
X88971428Y-69544380D01*
X88995238Y-69520571D01*
X88995238Y-69568190D01*
X89185714Y-69068190D02*
X89495238Y-69068190D01*
X89328571Y-69258666D01*
X89400000Y-69258666D01*
X89447619Y-69282476D01*
X89471428Y-69306285D01*
X89495238Y-69353904D01*
X89495238Y-69472952D01*
X89471428Y-69520571D01*
X89447619Y-69544380D01*
X89400000Y-69568190D01*
X89257142Y-69568190D01*
X89209523Y-69544380D01*
X89185714Y-69520571D01*
X89638095Y-69068190D02*
X89804761Y-69568190D01*
X89971428Y-69068190D01*
D12*
X134953428Y-63346000D02*
X135239142Y-63346000D01*
X134896285Y-63517428D02*
X135096285Y-62917428D01*
X135296285Y-63517428D01*
X135467714Y-62974571D02*
X135496285Y-62946000D01*
X135553428Y-62917428D01*
X135696285Y-62917428D01*
X135753428Y-62946000D01*
X135782000Y-62974571D01*
X135810571Y-63031714D01*
X135810571Y-63088857D01*
X135782000Y-63174571D01*
X135439142Y-63517428D01*
X135810571Y-63517428D01*
X128349428Y-63346000D02*
X128635142Y-63346000D01*
X128292285Y-63517428D02*
X128492285Y-62917428D01*
X128692285Y-63517428D01*
X129206571Y-63517428D02*
X128863714Y-63517428D01*
X129035142Y-63517428D02*
X129035142Y-62917428D01*
X128978000Y-63003142D01*
X128920857Y-63060285D01*
X128863714Y-63088857D01*
X121745428Y-63346000D02*
X122031142Y-63346000D01*
X121688285Y-63517428D02*
X121888285Y-62917428D01*
X122088285Y-63517428D01*
X122402571Y-62917428D02*
X122459714Y-62917428D01*
X122516857Y-62946000D01*
X122545428Y-62974571D01*
X122574000Y-63031714D01*
X122602571Y-63146000D01*
X122602571Y-63288857D01*
X122574000Y-63403142D01*
X122545428Y-63460285D01*
X122516857Y-63488857D01*
X122459714Y-63517428D01*
X122402571Y-63517428D01*
X122345428Y-63488857D01*
X122316857Y-63460285D01*
X122288285Y-63403142D01*
X122259714Y-63288857D01*
X122259714Y-63146000D01*
X122288285Y-63031714D01*
X122316857Y-62974571D01*
X122345428Y-62946000D01*
X122402571Y-62917428D01*
X130381428Y-82396000D02*
X130667142Y-82396000D01*
X130324285Y-82567428D02*
X130524285Y-81967428D01*
X130724285Y-82567428D01*
X131181428Y-81967428D02*
X131067142Y-81967428D01*
X131010000Y-81996000D01*
X130981428Y-82024571D01*
X130924285Y-82110285D01*
X130895714Y-82224571D01*
X130895714Y-82453142D01*
X130924285Y-82510285D01*
X130952857Y-82538857D01*
X131010000Y-82567428D01*
X131124285Y-82567428D01*
X131181428Y-82538857D01*
X131210000Y-82510285D01*
X131238571Y-82453142D01*
X131238571Y-82310285D01*
X131210000Y-82253142D01*
X131181428Y-82224571D01*
X131124285Y-82196000D01*
X131010000Y-82196000D01*
X130952857Y-82224571D01*
X130924285Y-82253142D01*
X130895714Y-82310285D01*
X139779428Y-71474000D02*
X140065142Y-71474000D01*
X139722285Y-71645428D02*
X139922285Y-71045428D01*
X140122285Y-71645428D01*
X140579428Y-71045428D02*
X140465142Y-71045428D01*
X140408000Y-71074000D01*
X140379428Y-71102571D01*
X140322285Y-71188285D01*
X140293714Y-71302571D01*
X140293714Y-71531142D01*
X140322285Y-71588285D01*
X140350857Y-71616857D01*
X140408000Y-71645428D01*
X140522285Y-71645428D01*
X140579428Y-71616857D01*
X140608000Y-71588285D01*
X140636571Y-71531142D01*
X140636571Y-71388285D01*
X140608000Y-71331142D01*
X140579428Y-71302571D01*
X140522285Y-71274000D01*
X140408000Y-71274000D01*
X140350857Y-71302571D01*
X140322285Y-71331142D01*
X140293714Y-71388285D01*
X134699428Y-71728000D02*
X134985142Y-71728000D01*
X134642285Y-71899428D02*
X134842285Y-71299428D01*
X135042285Y-71899428D01*
X135499428Y-71299428D02*
X135385142Y-71299428D01*
X135328000Y-71328000D01*
X135299428Y-71356571D01*
X135242285Y-71442285D01*
X135213714Y-71556571D01*
X135213714Y-71785142D01*
X135242285Y-71842285D01*
X135270857Y-71870857D01*
X135328000Y-71899428D01*
X135442285Y-71899428D01*
X135499428Y-71870857D01*
X135528000Y-71842285D01*
X135556571Y-71785142D01*
X135556571Y-71642285D01*
X135528000Y-71585142D01*
X135499428Y-71556571D01*
X135442285Y-71528000D01*
X135328000Y-71528000D01*
X135270857Y-71556571D01*
X135242285Y-71585142D01*
X135213714Y-71642285D01*
X90063714Y-71807428D02*
X90263714Y-72407428D01*
X90463714Y-71807428D01*
X90663714Y-72407428D02*
X90663714Y-72007428D01*
X90663714Y-71807428D02*
X90635142Y-71836000D01*
X90663714Y-71864571D01*
X90692285Y-71836000D01*
X90663714Y-71807428D01*
X90663714Y-71864571D01*
X90949428Y-72007428D02*
X90949428Y-72407428D01*
X90949428Y-72064571D02*
X90978000Y-72036000D01*
X91035142Y-72007428D01*
X91120857Y-72007428D01*
X91178000Y-72036000D01*
X91206571Y-72093142D01*
X91206571Y-72407428D01*
X90063714Y-74601428D02*
X90263714Y-75201428D01*
X90463714Y-74601428D01*
X90663714Y-75201428D02*
X90663714Y-74801428D01*
X90663714Y-74601428D02*
X90635142Y-74630000D01*
X90663714Y-74658571D01*
X90692285Y-74630000D01*
X90663714Y-74601428D01*
X90663714Y-74658571D01*
X90949428Y-74801428D02*
X90949428Y-75201428D01*
X90949428Y-74858571D02*
X90978000Y-74830000D01*
X91035142Y-74801428D01*
X91120857Y-74801428D01*
X91178000Y-74830000D01*
X91206571Y-74887142D01*
X91206571Y-75201428D01*
X122029200Y-89619433D02*
X122029200Y-89269433D01*
X122145866Y-89519433D01*
X122262533Y-89269433D01*
X122262533Y-89619433D01*
X122629200Y-89586100D02*
X122612533Y-89602766D01*
X122562533Y-89619433D01*
X122529200Y-89619433D01*
X122479200Y-89602766D01*
X122445866Y-89569433D01*
X122429200Y-89536100D01*
X122412533Y-89469433D01*
X122412533Y-89419433D01*
X122429200Y-89352766D01*
X122445866Y-89319433D01*
X122479200Y-89286100D01*
X122529200Y-89269433D01*
X122562533Y-89269433D01*
X122612533Y-89286100D01*
X122629200Y-89302766D01*
X122779200Y-89269433D02*
X122779200Y-89552766D01*
X122795866Y-89586100D01*
X122812533Y-89602766D01*
X122845866Y-89619433D01*
X122912533Y-89619433D01*
X122945866Y-89602766D01*
X122962533Y-89586100D01*
X122979200Y-89552766D01*
X122979200Y-89269433D01*
X121804200Y-90091100D02*
X122070866Y-90091100D01*
X121937533Y-90224433D02*
X121937533Y-89957766D01*
X122204200Y-89874433D02*
X122420866Y-89874433D01*
X122304200Y-90007766D01*
X122354200Y-90007766D01*
X122387533Y-90024433D01*
X122404200Y-90041100D01*
X122420866Y-90074433D01*
X122420866Y-90157766D01*
X122404200Y-90191100D01*
X122387533Y-90207766D01*
X122354200Y-90224433D01*
X122254200Y-90224433D01*
X122220866Y-90207766D01*
X122204200Y-90191100D01*
X122570866Y-90191100D02*
X122587533Y-90207766D01*
X122570866Y-90224433D01*
X122554200Y-90207766D01*
X122570866Y-90191100D01*
X122570866Y-90224433D01*
X122704200Y-89874433D02*
X122920866Y-89874433D01*
X122804200Y-90007766D01*
X122854200Y-90007766D01*
X122887533Y-90024433D01*
X122904200Y-90041100D01*
X122920866Y-90074433D01*
X122920866Y-90157766D01*
X122904200Y-90191100D01*
X122887533Y-90207766D01*
X122854200Y-90224433D01*
X122754200Y-90224433D01*
X122720866Y-90207766D01*
X122704200Y-90191100D01*
X123020866Y-89874433D02*
X123137533Y-90224433D01*
X123254200Y-89874433D01*
X112122000Y-101109428D02*
X111922000Y-100823714D01*
X111779142Y-101109428D02*
X111779142Y-100509428D01*
X112007714Y-100509428D01*
X112064857Y-100538000D01*
X112093428Y-100566571D01*
X112122000Y-100623714D01*
X112122000Y-100709428D01*
X112093428Y-100766571D01*
X112064857Y-100795142D01*
X112007714Y-100823714D01*
X111779142Y-100823714D01*
X112636285Y-101109428D02*
X112636285Y-100795142D01*
X112607714Y-100738000D01*
X112550571Y-100709428D01*
X112436285Y-100709428D01*
X112379142Y-100738000D01*
X112636285Y-101080857D02*
X112579142Y-101109428D01*
X112436285Y-101109428D01*
X112379142Y-101080857D01*
X112350571Y-101023714D01*
X112350571Y-100966571D01*
X112379142Y-100909428D01*
X112436285Y-100880857D01*
X112579142Y-100880857D01*
X112636285Y-100852285D01*
X112864857Y-100709428D02*
X112979142Y-101109428D01*
X113093428Y-100823714D01*
X113207714Y-101109428D01*
X113322000Y-100709428D01*
X105714857Y-100509428D02*
X105714857Y-100995142D01*
X105743428Y-101052285D01*
X105772000Y-101080857D01*
X105829142Y-101109428D01*
X105943428Y-101109428D01*
X106000571Y-101080857D01*
X106029142Y-101052285D01*
X106057714Y-100995142D01*
X106057714Y-100509428D01*
X106657714Y-101109428D02*
X106314857Y-101109428D01*
X106486285Y-101109428D02*
X106486285Y-100509428D01*
X106429142Y-100595142D01*
X106372000Y-100652285D01*
X106314857Y-100680857D01*
X108972409Y-100771352D02*
X109105742Y-101171352D01*
X109239076Y-100771352D01*
X109543838Y-101152304D02*
X109505742Y-101171352D01*
X109429552Y-101171352D01*
X109391457Y-101152304D01*
X109372409Y-101133257D01*
X109353361Y-101095161D01*
X109353361Y-100980876D01*
X109372409Y-100942780D01*
X109391457Y-100923733D01*
X109429552Y-100904685D01*
X109505742Y-100904685D01*
X109543838Y-100923733D01*
X109886695Y-101152304D02*
X109848600Y-101171352D01*
X109772409Y-101171352D01*
X109734314Y-101152304D01*
X109715266Y-101133257D01*
X109696219Y-101095161D01*
X109696219Y-100980876D01*
X109715266Y-100942780D01*
X109734314Y-100923733D01*
X109772409Y-100904685D01*
X109848600Y-100904685D01*
X109886695Y-100923733D01*
X111907714Y-106605428D02*
X112107714Y-107205428D01*
X112307714Y-106605428D01*
X112507714Y-107205428D02*
X112507714Y-106805428D01*
X112507714Y-106605428D02*
X112479142Y-106634000D01*
X112507714Y-106662571D01*
X112536285Y-106634000D01*
X112507714Y-106605428D01*
X112507714Y-106662571D01*
X112793428Y-106805428D02*
X112793428Y-107205428D01*
X112793428Y-106862571D02*
X112822000Y-106834000D01*
X112879142Y-106805428D01*
X112964857Y-106805428D01*
X113022000Y-106834000D01*
X113050571Y-106891142D01*
X113050571Y-107205428D01*
X105811714Y-106605428D02*
X106011714Y-107205428D01*
X106211714Y-106605428D01*
X106411714Y-107205428D02*
X106411714Y-106805428D01*
X106411714Y-106605428D02*
X106383142Y-106634000D01*
X106411714Y-106662571D01*
X106440285Y-106634000D01*
X106411714Y-106605428D01*
X106411714Y-106662571D01*
X106697428Y-106805428D02*
X106697428Y-107205428D01*
X106697428Y-106862571D02*
X106726000Y-106834000D01*
X106783142Y-106805428D01*
X106868857Y-106805428D01*
X106926000Y-106834000D01*
X106954571Y-106891142D01*
X106954571Y-107205428D01*
X108859714Y-106605428D02*
X109059714Y-107205428D01*
X109259714Y-106605428D01*
X109459714Y-107205428D02*
X109459714Y-106805428D01*
X109459714Y-106605428D02*
X109431142Y-106634000D01*
X109459714Y-106662571D01*
X109488285Y-106634000D01*
X109459714Y-106605428D01*
X109459714Y-106662571D01*
X109745428Y-106805428D02*
X109745428Y-107205428D01*
X109745428Y-106862571D02*
X109774000Y-106834000D01*
X109831142Y-106805428D01*
X109916857Y-106805428D01*
X109974000Y-106834000D01*
X110002571Y-106891142D01*
X110002571Y-107205428D01*
X121967714Y-106859428D02*
X122167714Y-107459428D01*
X122367714Y-106859428D01*
X122824857Y-107430857D02*
X122767714Y-107459428D01*
X122653428Y-107459428D01*
X122596285Y-107430857D01*
X122567714Y-107402285D01*
X122539142Y-107345142D01*
X122539142Y-107173714D01*
X122567714Y-107116571D01*
X122596285Y-107088000D01*
X122653428Y-107059428D01*
X122767714Y-107059428D01*
X122824857Y-107088000D01*
X123339142Y-107430857D02*
X123282000Y-107459428D01*
X123167714Y-107459428D01*
X123110571Y-107430857D01*
X123082000Y-107402285D01*
X123053428Y-107345142D01*
X123053428Y-107173714D01*
X123082000Y-107116571D01*
X123110571Y-107088000D01*
X123167714Y-107059428D01*
X123282000Y-107059428D01*
X123339142Y-107088000D01*
X115971714Y-106859428D02*
X116171714Y-107459428D01*
X116371714Y-106859428D01*
X116571714Y-107459428D02*
X116571714Y-107059428D01*
X116571714Y-106859428D02*
X116543142Y-106888000D01*
X116571714Y-106916571D01*
X116600285Y-106888000D01*
X116571714Y-106859428D01*
X116571714Y-106916571D01*
X116857428Y-107059428D02*
X116857428Y-107459428D01*
X116857428Y-107116571D02*
X116886000Y-107088000D01*
X116943142Y-107059428D01*
X117028857Y-107059428D01*
X117086000Y-107088000D01*
X117114571Y-107145142D01*
X117114571Y-107459428D01*
X119176857Y-106877428D02*
X119176857Y-107363142D01*
X119205428Y-107420285D01*
X119234000Y-107448857D01*
X119291142Y-107477428D01*
X119405428Y-107477428D01*
X119462571Y-107448857D01*
X119491142Y-107420285D01*
X119519714Y-107363142D01*
X119519714Y-106877428D01*
X119776857Y-106934571D02*
X119805428Y-106906000D01*
X119862571Y-106877428D01*
X120005428Y-106877428D01*
X120062571Y-106906000D01*
X120091142Y-106934571D01*
X120119714Y-106991714D01*
X120119714Y-107048857D01*
X120091142Y-107134571D01*
X119748285Y-107477428D01*
X120119714Y-107477428D01*
X119362571Y-108457428D02*
X119362571Y-107857428D01*
X119648285Y-108057428D02*
X119648285Y-108457428D01*
X119648285Y-108114571D02*
X119676857Y-108086000D01*
X119734000Y-108057428D01*
X119819714Y-108057428D01*
X119876857Y-108086000D01*
X119905428Y-108143142D01*
X119905428Y-108457428D01*
X116281238Y-89356952D02*
X116281238Y-89680761D01*
X116300285Y-89718857D01*
X116319333Y-89737904D01*
X116357428Y-89756952D01*
X116433619Y-89756952D01*
X116471714Y-89737904D01*
X116490761Y-89718857D01*
X116509809Y-89680761D01*
X116509809Y-89356952D01*
X116681238Y-89395047D02*
X116700285Y-89376000D01*
X116738380Y-89356952D01*
X116833619Y-89356952D01*
X116871714Y-89376000D01*
X116890761Y-89395047D01*
X116909809Y-89433142D01*
X116909809Y-89471238D01*
X116890761Y-89528380D01*
X116662190Y-89756952D01*
X116909809Y-89756952D01*
X116252666Y-90036952D02*
X116328857Y-90036952D01*
X116366952Y-90056000D01*
X116405047Y-90094095D01*
X116424095Y-90170285D01*
X116424095Y-90303619D01*
X116405047Y-90379809D01*
X116366952Y-90417904D01*
X116328857Y-90436952D01*
X116252666Y-90436952D01*
X116214571Y-90417904D01*
X116176476Y-90379809D01*
X116157428Y-90303619D01*
X116157428Y-90170285D01*
X116176476Y-90094095D01*
X116214571Y-90056000D01*
X116252666Y-90036952D01*
X116766952Y-90170285D02*
X116766952Y-90436952D01*
X116595523Y-90170285D02*
X116595523Y-90379809D01*
X116614571Y-90417904D01*
X116652666Y-90436952D01*
X116709809Y-90436952D01*
X116747904Y-90417904D01*
X116766952Y-90398857D01*
X116900285Y-90170285D02*
X117052666Y-90170285D01*
X116957428Y-90036952D02*
X116957428Y-90379809D01*
X116976476Y-90417904D01*
X117014571Y-90436952D01*
X117052666Y-90436952D01*
X118180000Y-89958857D02*
X118637142Y-89958857D01*
X118408571Y-90187428D02*
X118408571Y-89730285D01*
X118865714Y-89587428D02*
X119237142Y-89587428D01*
X119037142Y-89816000D01*
X119122857Y-89816000D01*
X119180000Y-89844571D01*
X119208571Y-89873142D01*
X119237142Y-89930285D01*
X119237142Y-90073142D01*
X119208571Y-90130285D01*
X119180000Y-90158857D01*
X119122857Y-90187428D01*
X118951428Y-90187428D01*
X118894285Y-90158857D01*
X118865714Y-90130285D01*
X119494285Y-90130285D02*
X119522857Y-90158857D01*
X119494285Y-90187428D01*
X119465714Y-90158857D01*
X119494285Y-90130285D01*
X119494285Y-90187428D01*
X119722857Y-89587428D02*
X120094285Y-89587428D01*
X119894285Y-89816000D01*
X119980000Y-89816000D01*
X120037142Y-89844571D01*
X120065714Y-89873142D01*
X120094285Y-89930285D01*
X120094285Y-90073142D01*
X120065714Y-90130285D01*
X120037142Y-90158857D01*
X119980000Y-90187428D01*
X119808571Y-90187428D01*
X119751428Y-90158857D01*
X119722857Y-90130285D01*
X120265714Y-89587428D02*
X120465714Y-90187428D01*
X120665714Y-89587428D01*
D13*
X119396000Y-86320380D02*
X119586476Y-86320380D01*
X119681714Y-86368000D01*
X119776952Y-86463238D01*
X119824571Y-86653714D01*
X119824571Y-86987047D01*
X119776952Y-87177523D01*
X119681714Y-87272761D01*
X119586476Y-87320380D01*
X119396000Y-87320380D01*
X119300761Y-87272761D01*
X119205523Y-87177523D01*
X119157904Y-86987047D01*
X119157904Y-86653714D01*
X119205523Y-86463238D01*
X119300761Y-86368000D01*
X119396000Y-86320380D01*
X120253142Y-86320380D02*
X120253142Y-87129904D01*
X120300761Y-87225142D01*
X120348380Y-87272761D01*
X120443619Y-87320380D01*
X120634095Y-87320380D01*
X120729333Y-87272761D01*
X120776952Y-87225142D01*
X120824571Y-87129904D01*
X120824571Y-86320380D01*
X121157904Y-86320380D02*
X121729333Y-86320380D01*
X121443619Y-87320380D02*
X121443619Y-86320380D01*
X108442190Y-87320380D02*
X108442190Y-86320380D01*
X108918380Y-87320380D02*
X108918380Y-86320380D01*
X109489809Y-87320380D01*
X109489809Y-86320380D01*
D14*
X86360000Y-62484000D02*
X86360000Y-117484000D01*
X141360000Y-117484000D02*
X86360000Y-117484000D01*
X141360000Y-62484000D02*
X141360000Y-117484000D01*
X86360000Y-62484000D02*
X141360000Y-62484000D01*
D15*
X108144000Y-73466000D02*
X110804000Y-73466000D01*
X108144000Y-73406000D02*
X108144000Y-73466000D01*
X110804000Y-73406000D02*
X110804000Y-73466000D01*
X108144000Y-73406000D02*
X110804000Y-73406000D01*
X108144000Y-72136000D02*
X108144000Y-70806000D01*
X108144000Y-70806000D02*
X109474000Y-70806000D01*
X129710000Y-117291000D02*
X124370000Y-117291000D01*
X129710000Y-113849000D02*
X124370000Y-113849000D01*
X129710000Y-117291000D02*
X129710000Y-116625000D01*
X129710000Y-114515000D02*
X129710000Y-113849000D01*
X124370000Y-117291000D02*
X124370000Y-116625000D01*
X124370000Y-114515000D02*
X124370000Y-113849000D01*
X122738000Y-111506000D02*
G75*
G03X122738000Y-111506000I-2870000J0D01*
G01*
X116795738Y-109891000D02*
X117345738Y-109891000D01*
X117070738Y-109616000D02*
X117070738Y-110166000D01*
X141050000Y-81042000D02*
G75*
G03X141050000Y-81042000I-2620000J0D01*
G01*
X139470000Y-81042000D02*
X141010000Y-81042000D01*
X135850000Y-81042000D02*
X137390000Y-81042000D01*
X139470000Y-81002000D02*
X141010000Y-81002000D01*
X135850000Y-81002000D02*
X137390000Y-81002000D01*
X135851000Y-80962000D02*
X137390000Y-80962000D01*
X139470000Y-80962000D02*
X141009000Y-80962000D01*
X135852000Y-80922000D02*
X137390000Y-80922000D01*
X139470000Y-80922000D02*
X141008000Y-80922000D01*
X135854000Y-80882000D02*
X137390000Y-80882000D01*
X139470000Y-80882000D02*
X141006000Y-80882000D01*
X135857000Y-80842000D02*
X137390000Y-80842000D01*
X139470000Y-80842000D02*
X141003000Y-80842000D01*
X135861000Y-80802000D02*
X137390000Y-80802000D01*
X139470000Y-80802000D02*
X140999000Y-80802000D01*
X135865000Y-80762000D02*
X137390000Y-80762000D01*
X139470000Y-80762000D02*
X140995000Y-80762000D01*
X135869000Y-80722000D02*
X137390000Y-80722000D01*
X139470000Y-80722000D02*
X140991000Y-80722000D01*
X135874000Y-80682000D02*
X137390000Y-80682000D01*
X139470000Y-80682000D02*
X140986000Y-80682000D01*
X135880000Y-80642000D02*
X137390000Y-80642000D01*
X139470000Y-80642000D02*
X140980000Y-80642000D01*
X135887000Y-80602000D02*
X137390000Y-80602000D01*
X139470000Y-80602000D02*
X140973000Y-80602000D01*
X135894000Y-80562000D02*
X137390000Y-80562000D01*
X139470000Y-80562000D02*
X140966000Y-80562000D01*
X135902000Y-80522000D02*
X137390000Y-80522000D01*
X139470000Y-80522000D02*
X140958000Y-80522000D01*
X135910000Y-80482000D02*
X137390000Y-80482000D01*
X139470000Y-80482000D02*
X140950000Y-80482000D01*
X135919000Y-80442000D02*
X137390000Y-80442000D01*
X139470000Y-80442000D02*
X140941000Y-80442000D01*
X135929000Y-80402000D02*
X137390000Y-80402000D01*
X139470000Y-80402000D02*
X140931000Y-80402000D01*
X135939000Y-80362000D02*
X137390000Y-80362000D01*
X139470000Y-80362000D02*
X140921000Y-80362000D01*
X135950000Y-80321000D02*
X137390000Y-80321000D01*
X139470000Y-80321000D02*
X140910000Y-80321000D01*
X135962000Y-80281000D02*
X137390000Y-80281000D01*
X139470000Y-80281000D02*
X140898000Y-80281000D01*
X135975000Y-80241000D02*
X137390000Y-80241000D01*
X139470000Y-80241000D02*
X140885000Y-80241000D01*
X135988000Y-80201000D02*
X137390000Y-80201000D01*
X139470000Y-80201000D02*
X140872000Y-80201000D01*
X136002000Y-80161000D02*
X137390000Y-80161000D01*
X139470000Y-80161000D02*
X140858000Y-80161000D01*
X136016000Y-80121000D02*
X137390000Y-80121000D01*
X139470000Y-80121000D02*
X140844000Y-80121000D01*
X136032000Y-80081000D02*
X137390000Y-80081000D01*
X139470000Y-80081000D02*
X140828000Y-80081000D01*
X136048000Y-80041000D02*
X137390000Y-80041000D01*
X139470000Y-80041000D02*
X140812000Y-80041000D01*
X136065000Y-80001000D02*
X137390000Y-80001000D01*
X139470000Y-80001000D02*
X140795000Y-80001000D01*
X136082000Y-79961000D02*
X137390000Y-79961000D01*
X139470000Y-79961000D02*
X140778000Y-79961000D01*
X136101000Y-79921000D02*
X137390000Y-79921000D01*
X139470000Y-79921000D02*
X140759000Y-79921000D01*
X136120000Y-79881000D02*
X137390000Y-79881000D01*
X139470000Y-79881000D02*
X140740000Y-79881000D01*
X136140000Y-79841000D02*
X137390000Y-79841000D01*
X139470000Y-79841000D02*
X140720000Y-79841000D01*
X136162000Y-79801000D02*
X137390000Y-79801000D01*
X139470000Y-79801000D02*
X140698000Y-79801000D01*
X136183000Y-79761000D02*
X137390000Y-79761000D01*
X139470000Y-79761000D02*
X140677000Y-79761000D01*
X136206000Y-79721000D02*
X137390000Y-79721000D01*
X139470000Y-79721000D02*
X140654000Y-79721000D01*
X136230000Y-79681000D02*
X137390000Y-79681000D01*
X139470000Y-79681000D02*
X140630000Y-79681000D01*
X136255000Y-79641000D02*
X137390000Y-79641000D01*
X139470000Y-79641000D02*
X140605000Y-79641000D01*
X136281000Y-79601000D02*
X137390000Y-79601000D01*
X139470000Y-79601000D02*
X140579000Y-79601000D01*
X136308000Y-79561000D02*
X137390000Y-79561000D01*
X139470000Y-79561000D02*
X140552000Y-79561000D01*
X136335000Y-79521000D02*
X137390000Y-79521000D01*
X139470000Y-79521000D02*
X140525000Y-79521000D01*
X136365000Y-79481000D02*
X137390000Y-79481000D01*
X139470000Y-79481000D02*
X140495000Y-79481000D01*
X136395000Y-79441000D02*
X137390000Y-79441000D01*
X139470000Y-79441000D02*
X140465000Y-79441000D01*
X136426000Y-79401000D02*
X137390000Y-79401000D01*
X139470000Y-79401000D02*
X140434000Y-79401000D01*
X136459000Y-79361000D02*
X137390000Y-79361000D01*
X139470000Y-79361000D02*
X140401000Y-79361000D01*
X136493000Y-79321000D02*
X137390000Y-79321000D01*
X139470000Y-79321000D02*
X140367000Y-79321000D01*
X136529000Y-79281000D02*
X137390000Y-79281000D01*
X139470000Y-79281000D02*
X140331000Y-79281000D01*
X136566000Y-79241000D02*
X137390000Y-79241000D01*
X139470000Y-79241000D02*
X140294000Y-79241000D01*
X136604000Y-79201000D02*
X137390000Y-79201000D01*
X139470000Y-79201000D02*
X140256000Y-79201000D01*
X136645000Y-79161000D02*
X137390000Y-79161000D01*
X139470000Y-79161000D02*
X140215000Y-79161000D01*
X136687000Y-79121000D02*
X137390000Y-79121000D01*
X139470000Y-79121000D02*
X140173000Y-79121000D01*
X136731000Y-79081000D02*
X137390000Y-79081000D01*
X139470000Y-79081000D02*
X140129000Y-79081000D01*
X136777000Y-79041000D02*
X137390000Y-79041000D01*
X139470000Y-79041000D02*
X140083000Y-79041000D01*
X136825000Y-79001000D02*
X140035000Y-79001000D01*
X136876000Y-78961000D02*
X139984000Y-78961000D01*
X136930000Y-78921000D02*
X139930000Y-78921000D01*
X136987000Y-78881000D02*
X139873000Y-78881000D01*
X137047000Y-78841000D02*
X139813000Y-78841000D01*
X137111000Y-78801000D02*
X139749000Y-78801000D01*
X137179000Y-78761000D02*
X139681000Y-78761000D01*
X137252000Y-78721000D02*
X139608000Y-78721000D01*
X137332000Y-78681000D02*
X139528000Y-78681000D01*
X137419000Y-78641000D02*
X139441000Y-78641000D01*
X137515000Y-78601000D02*
X139345000Y-78601000D01*
X137625000Y-78561000D02*
X139235000Y-78561000D01*
X137753000Y-78521000D02*
X139107000Y-78521000D01*
X137912000Y-78481000D02*
X138948000Y-78481000D01*
X138146000Y-78441000D02*
X138714000Y-78441000D01*
X136955000Y-83846775D02*
X136955000Y-83346775D01*
X136705000Y-83596775D02*
X137205000Y-83596775D01*
X112425241Y-99436000D02*
X112425241Y-98806000D01*
X112740241Y-99121000D02*
X112110241Y-99121000D01*
X105999000Y-97684000D02*
X105999000Y-96880000D01*
X106039000Y-97915000D02*
X106039000Y-96649000D01*
X106079000Y-98084000D02*
X106079000Y-96480000D01*
X106119000Y-98222000D02*
X106119000Y-96342000D01*
X106159000Y-98341000D02*
X106159000Y-96223000D01*
X106199000Y-98447000D02*
X106199000Y-96117000D01*
X106239000Y-98544000D02*
X106239000Y-96020000D01*
X106279000Y-98632000D02*
X106279000Y-95932000D01*
X106319000Y-98714000D02*
X106319000Y-95850000D01*
X106359000Y-98791000D02*
X106359000Y-95773000D01*
X106399000Y-98863000D02*
X106399000Y-95701000D01*
X106439000Y-98932000D02*
X106439000Y-95632000D01*
X106479000Y-98996000D02*
X106479000Y-95568000D01*
X106519000Y-99058000D02*
X106519000Y-95506000D01*
X106559000Y-99116000D02*
X106559000Y-95448000D01*
X106599000Y-99172000D02*
X106599000Y-95392000D01*
X106639000Y-99226000D02*
X106639000Y-95338000D01*
X106679000Y-99277000D02*
X106679000Y-95287000D01*
X106719000Y-99326000D02*
X106719000Y-95238000D01*
X106759000Y-99374000D02*
X106759000Y-95190000D01*
X106799000Y-99419000D02*
X106799000Y-95145000D01*
X106839000Y-99464000D02*
X106839000Y-95100000D01*
X106879000Y-99506000D02*
X106879000Y-95058000D01*
X106919000Y-99547000D02*
X106919000Y-95017000D01*
X106959000Y-96242000D02*
X106959000Y-94977000D01*
X106959000Y-99587000D02*
X106959000Y-98322000D01*
X106999000Y-96242000D02*
X106999000Y-94939000D01*
X106999000Y-99625000D02*
X106999000Y-98322000D01*
X107039000Y-96242000D02*
X107039000Y-94902000D01*
X107039000Y-99662000D02*
X107039000Y-98322000D01*
X107079000Y-96242000D02*
X107079000Y-94866000D01*
X107079000Y-99698000D02*
X107079000Y-98322000D01*
X107119000Y-96242000D02*
X107119000Y-94832000D01*
X107119000Y-99732000D02*
X107119000Y-98322000D01*
X107159000Y-96242000D02*
X107159000Y-94798000D01*
X107159000Y-99766000D02*
X107159000Y-98322000D01*
X107199000Y-96242000D02*
X107199000Y-94766000D01*
X107199000Y-99798000D02*
X107199000Y-98322000D01*
X107239000Y-96242000D02*
X107239000Y-94734000D01*
X107239000Y-99830000D02*
X107239000Y-98322000D01*
X107279000Y-96242000D02*
X107279000Y-94704000D01*
X107279000Y-99860000D02*
X107279000Y-98322000D01*
X107319000Y-96242000D02*
X107319000Y-94675000D01*
X107319000Y-99889000D02*
X107319000Y-98322000D01*
X107359000Y-96242000D02*
X107359000Y-94646000D01*
X107359000Y-99918000D02*
X107359000Y-98322000D01*
X107399000Y-96242000D02*
X107399000Y-94618000D01*
X107399000Y-99946000D02*
X107399000Y-98322000D01*
X107439000Y-96242000D02*
X107439000Y-94592000D01*
X107439000Y-99972000D02*
X107439000Y-98322000D01*
X107479000Y-96242000D02*
X107479000Y-94566000D01*
X107479000Y-99998000D02*
X107479000Y-98322000D01*
X107519000Y-96242000D02*
X107519000Y-94540000D01*
X107519000Y-100024000D02*
X107519000Y-98322000D01*
X107559000Y-96242000D02*
X107559000Y-94516000D01*
X107559000Y-100048000D02*
X107559000Y-98322000D01*
X107599000Y-96242000D02*
X107599000Y-94492000D01*
X107599000Y-100072000D02*
X107599000Y-98322000D01*
X107639000Y-96242000D02*
X107639000Y-94470000D01*
X107639000Y-100094000D02*
X107639000Y-98322000D01*
X107679000Y-96242000D02*
X107679000Y-94448000D01*
X107679000Y-100116000D02*
X107679000Y-98322000D01*
X107719000Y-96242000D02*
X107719000Y-94426000D01*
X107719000Y-100138000D02*
X107719000Y-98322000D01*
X107759000Y-96242000D02*
X107759000Y-94406000D01*
X107759000Y-100158000D02*
X107759000Y-98322000D01*
X107799000Y-96242000D02*
X107799000Y-94386000D01*
X107799000Y-100178000D02*
X107799000Y-98322000D01*
X107839000Y-96242000D02*
X107839000Y-94366000D01*
X107839000Y-100198000D02*
X107839000Y-98322000D01*
X107879000Y-96242000D02*
X107879000Y-94348000D01*
X107879000Y-100216000D02*
X107879000Y-98322000D01*
X107919000Y-96242000D02*
X107919000Y-94330000D01*
X107919000Y-100234000D02*
X107919000Y-98322000D01*
X107959000Y-96242000D02*
X107959000Y-94312000D01*
X107959000Y-100252000D02*
X107959000Y-98322000D01*
X107999000Y-96242000D02*
X107999000Y-94296000D01*
X107999000Y-100268000D02*
X107999000Y-98322000D01*
X108039000Y-96242000D02*
X108039000Y-94280000D01*
X108039000Y-100284000D02*
X108039000Y-98322000D01*
X108079000Y-96242000D02*
X108079000Y-94264000D01*
X108079000Y-100300000D02*
X108079000Y-98322000D01*
X108119000Y-96242000D02*
X108119000Y-94249000D01*
X108119000Y-100315000D02*
X108119000Y-98322000D01*
X108159000Y-96242000D02*
X108159000Y-94235000D01*
X108159000Y-100329000D02*
X108159000Y-98322000D01*
X108199000Y-96242000D02*
X108199000Y-94221000D01*
X108199000Y-100343000D02*
X108199000Y-98322000D01*
X108239000Y-96242000D02*
X108239000Y-94208000D01*
X108239000Y-100356000D02*
X108239000Y-98322000D01*
X108279000Y-96242000D02*
X108279000Y-94196000D01*
X108279000Y-100368000D02*
X108279000Y-98322000D01*
X108319000Y-96242000D02*
X108319000Y-94184000D01*
X108319000Y-100380000D02*
X108319000Y-98322000D01*
X108359000Y-96242000D02*
X108359000Y-94172000D01*
X108359000Y-100392000D02*
X108359000Y-98322000D01*
X108399000Y-96242000D02*
X108399000Y-94161000D01*
X108399000Y-100403000D02*
X108399000Y-98322000D01*
X108439000Y-96242000D02*
X108439000Y-94151000D01*
X108439000Y-100413000D02*
X108439000Y-98322000D01*
X108479000Y-96242000D02*
X108479000Y-94141000D01*
X108479000Y-100423000D02*
X108479000Y-98322000D01*
X108519000Y-96242000D02*
X108519000Y-94132000D01*
X108519000Y-100432000D02*
X108519000Y-98322000D01*
X108560000Y-96242000D02*
X108560000Y-94123000D01*
X108560000Y-100441000D02*
X108560000Y-98322000D01*
X108600000Y-96242000D02*
X108600000Y-94115000D01*
X108600000Y-100449000D02*
X108600000Y-98322000D01*
X108640000Y-96242000D02*
X108640000Y-94107000D01*
X108640000Y-100457000D02*
X108640000Y-98322000D01*
X108680000Y-96242000D02*
X108680000Y-94100000D01*
X108680000Y-100464000D02*
X108680000Y-98322000D01*
X108720000Y-96242000D02*
X108720000Y-94093000D01*
X108720000Y-100471000D02*
X108720000Y-98322000D01*
X108760000Y-96242000D02*
X108760000Y-94087000D01*
X108760000Y-100477000D02*
X108760000Y-98322000D01*
X108800000Y-96242000D02*
X108800000Y-94081000D01*
X108800000Y-100483000D02*
X108800000Y-98322000D01*
X108840000Y-96242000D02*
X108840000Y-94076000D01*
X108840000Y-100488000D02*
X108840000Y-98322000D01*
X108880000Y-96242000D02*
X108880000Y-94071000D01*
X108880000Y-100493000D02*
X108880000Y-98322000D01*
X108920000Y-96242000D02*
X108920000Y-94067000D01*
X108920000Y-100497000D02*
X108920000Y-98322000D01*
X108960000Y-96242000D02*
X108960000Y-94064000D01*
X108960000Y-100500000D02*
X108960000Y-98322000D01*
X109000000Y-96242000D02*
X109000000Y-94060000D01*
X109000000Y-100504000D02*
X109000000Y-98322000D01*
X109040000Y-100506000D02*
X109040000Y-94058000D01*
X109080000Y-100509000D02*
X109080000Y-94055000D01*
X109120000Y-100510000D02*
X109120000Y-94054000D01*
X109160000Y-100512000D02*
X109160000Y-94052000D01*
X109200000Y-100512000D02*
X109200000Y-94052000D01*
X109240000Y-100512000D02*
X109240000Y-94052000D01*
X112510000Y-97282000D02*
G75*
G03X112510000Y-97282000I-3270000J0D01*
G01*
X111850000Y-92749000D02*
X111850000Y-93415000D01*
X111850000Y-89973000D02*
X111850000Y-90639000D01*
X106510000Y-92749000D02*
X106510000Y-93415000D01*
X106510000Y-89973000D02*
X106510000Y-90639000D01*
X106510000Y-93415000D02*
X111850000Y-93415000D01*
X106510000Y-89973000D02*
X111850000Y-89973000D01*
X132170000Y-82335000D02*
X132170000Y-83001000D01*
X132170000Y-79559000D02*
X132170000Y-80225000D01*
X126830000Y-82335000D02*
X126830000Y-83001000D01*
X126830000Y-79559000D02*
X126830000Y-80225000D01*
X126830000Y-83001000D02*
X132170000Y-83001000D01*
X126830000Y-79559000D02*
X132170000Y-79559000D01*
X117913000Y-68750000D02*
X117913000Y-63410000D01*
X121355000Y-68750000D02*
X121355000Y-63410000D01*
X117913000Y-68750000D02*
X118579000Y-68750000D01*
X120689000Y-68750000D02*
X121355000Y-68750000D01*
X117913000Y-63410000D02*
X118579000Y-63410000D01*
X120689000Y-63410000D02*
X121355000Y-63410000D01*
X114582000Y-113912000D02*
X114582000Y-122412000D01*
X114582000Y-122412000D02*
X105382000Y-122412000D01*
X105382000Y-122412000D02*
X105382000Y-107712000D01*
X112482000Y-107712000D02*
X114582000Y-107712000D01*
X114582000Y-107712000D02*
X114582000Y-109512000D01*
X106782000Y-107412000D02*
X105082000Y-107412000D01*
X105082000Y-107412000D02*
X105082000Y-109012000D01*
X105382000Y-107712000D02*
X107482000Y-107712000D01*
X89722000Y-70806000D02*
X87062000Y-70806000D01*
X89722000Y-73406000D02*
X89722000Y-70806000D01*
X87062000Y-73406000D02*
X87062000Y-70806000D01*
X89722000Y-73406000D02*
X87062000Y-73406000D01*
X89722000Y-74676000D02*
X89722000Y-76006000D01*
X89722000Y-76006000D02*
X88392000Y-76006000D01*
X115764000Y-93024000D02*
X115764000Y-91694000D01*
X117094000Y-93024000D02*
X115764000Y-93024000D01*
X118364000Y-93024000D02*
X118364000Y-90364000D01*
X118364000Y-90364000D02*
X123504000Y-90364000D01*
X118364000Y-93024000D02*
X123504000Y-93024000D01*
X123504000Y-93024000D02*
X123504000Y-90364000D01*
X123504000Y-106486000D02*
X123504000Y-103826000D01*
X118364000Y-106486000D02*
X123504000Y-106486000D01*
X118364000Y-103826000D02*
X123504000Y-103826000D01*
X118364000Y-106486000D02*
X118364000Y-103826000D01*
X117094000Y-106486000D02*
X115764000Y-106486000D01*
X115764000Y-106486000D02*
X115764000Y-105156000D01*
X113344000Y-106486000D02*
X113344000Y-101286000D01*
X108204000Y-106486000D02*
X113344000Y-106486000D01*
X105604000Y-101286000D02*
X113344000Y-101286000D01*
X108204000Y-106486000D02*
X108204000Y-103886000D01*
X108204000Y-103886000D02*
X105604000Y-103886000D01*
X105604000Y-103886000D02*
X105604000Y-101286000D01*
X106934000Y-106486000D02*
X105604000Y-106486000D01*
X105604000Y-106486000D02*
X105604000Y-105156000D01*
X127704000Y-65786462D02*
G75*
G03X122154000Y-64241170I-2990000J462D01*
G01*
X127704000Y-65785538D02*
G75*
G02X122154000Y-67330830I-2990000J-462D01*
G01*
X127214000Y-65786000D02*
G75*
G03X127214000Y-65786000I-2500000J0D01*
G01*
X122154000Y-64241000D02*
X122154000Y-67331000D01*
X128758000Y-64241000D02*
X128758000Y-67331000D01*
X133818000Y-65786000D02*
G75*
G03X133818000Y-65786000I-2500000J0D01*
G01*
X134308000Y-65785538D02*
G75*
G02X128758000Y-67330830I-2990000J-462D01*
G01*
X134308000Y-65786462D02*
G75*
G03X128758000Y-64241170I-2990000J462D01*
G01*
X140912000Y-65786462D02*
G75*
G03X135362000Y-64241170I-2990000J462D01*
G01*
X140912000Y-65785538D02*
G75*
G02X135362000Y-67330830I-2990000J-462D01*
G01*
X140422000Y-65786000D02*
G75*
G03X140422000Y-65786000I-2500000J0D01*
G01*
X135362000Y-64241000D02*
X135362000Y-67331000D01*
D16*
X105918000Y-89154000D02*
X105918000Y-76454000D01*
X105918000Y-76454000D02*
X123698000Y-76454000D01*
X123698000Y-76454000D02*
X123698000Y-89154000D01*
X123698000Y-89154000D02*
X105918000Y-89154000D01*
D15*
X141038000Y-73306000D02*
X141038000Y-70506000D01*
X136838000Y-73306000D02*
X136838000Y-70506000D01*
X141047242Y-70519963D02*
G75*
G03X136838000Y-70506000I-2109242J-1386037D01*
G01*
X136828758Y-73292037D02*
G75*
G03X141038000Y-73306000I2109242J1386037D01*
G01*
X123044000Y-96642000D02*
X121784000Y-96642000D01*
X116224000Y-96642000D02*
X117484000Y-96642000D01*
X123044000Y-100402000D02*
X123044000Y-96642000D01*
X116224000Y-102652000D02*
X116224000Y-96642000D01*
X140462000Y-84328000D02*
X140462000Y-89662000D01*
X140462000Y-89662000D02*
X129794000Y-89662000D01*
X129794000Y-89662000D02*
X129794000Y-84328000D01*
X129794000Y-84328000D02*
X129794000Y-84328000D01*
X139954000Y-86868000D02*
X137668000Y-86868000D01*
X137668000Y-86868000D02*
X137668000Y-84582000D01*
X137668000Y-84582000D02*
X137668000Y-84582000D01*
X141038000Y-83998000D02*
X141038000Y-113198000D01*
X141038000Y-113198000D02*
X125588000Y-113198000D01*
X125588000Y-113198000D02*
X125588000Y-83998000D01*
X125588000Y-83998000D02*
X141038000Y-83998000D01*
X141038000Y-83998000D02*
X141038000Y-83998000D01*
X129794000Y-84328000D02*
X140462000Y-84328000D01*
X140462000Y-84328000D02*
X140462000Y-84328000D01*
X135104000Y-115792000D02*
X134774000Y-115792000D01*
X134774000Y-115792000D02*
X134774000Y-109252000D01*
X134774000Y-109252000D02*
X135104000Y-109252000D01*
X137184000Y-115792000D02*
X137514000Y-115792000D01*
X137514000Y-115792000D02*
X137514000Y-109252000D01*
X137514000Y-109252000D02*
X137184000Y-109252000D01*
X132612000Y-70644000D02*
X132942000Y-70644000D01*
X132942000Y-70644000D02*
X132942000Y-77184000D01*
X132942000Y-77184000D02*
X132612000Y-77184000D01*
X130532000Y-70644000D02*
X130202000Y-70644000D01*
X130202000Y-70644000D02*
X130202000Y-77184000D01*
X130202000Y-77184000D02*
X130532000Y-77184000D01*
X127154000Y-77184000D02*
X127484000Y-77184000D01*
X127154000Y-70644000D02*
X127154000Y-77184000D01*
X127484000Y-70644000D02*
X127154000Y-70644000D01*
X129894000Y-77184000D02*
X129564000Y-77184000D01*
X129894000Y-70644000D02*
X129894000Y-77184000D01*
X129564000Y-70644000D02*
X129894000Y-70644000D01*
X126516000Y-70644000D02*
X126846000Y-70644000D01*
X126846000Y-70644000D02*
X126846000Y-77184000D01*
X126846000Y-77184000D02*
X126516000Y-77184000D01*
X124436000Y-70644000D02*
X124106000Y-70644000D01*
X124106000Y-70644000D02*
X124106000Y-77184000D01*
X124106000Y-77184000D02*
X124436000Y-77184000D01*
X136168000Y-70644000D02*
X136498000Y-70644000D01*
X136498000Y-70644000D02*
X136498000Y-77184000D01*
X136498000Y-77184000D02*
X136168000Y-77184000D01*
X134088000Y-70644000D02*
X133758000Y-70644000D01*
X133758000Y-70644000D02*
X133758000Y-77184000D01*
X133758000Y-77184000D02*
X134088000Y-77184000D01*
D13*
X90170000Y-63754000D02*
X115570000Y-63754000D01*
X115570000Y-63754000D02*
X115570000Y-68834000D01*
X115570000Y-68834000D02*
X87630000Y-68834000D01*
X87630000Y-68834000D02*
X87630000Y-66294000D01*
X87350000Y-65024000D02*
X87350000Y-63474000D01*
X87630000Y-66294000D02*
X90170000Y-66294000D01*
X90170000Y-66294000D02*
X90170000Y-63754000D01*
X87350000Y-63474000D02*
X88900000Y-63474000D01*
D15*
X89154000Y-81788000D02*
X89154000Y-79248000D01*
X89154000Y-79248000D02*
X86484000Y-79248000D01*
X86484000Y-81788000D02*
X86484000Y-120018000D01*
X86484000Y-76578000D02*
X86484000Y-79248000D01*
X101854000Y-79248000D02*
X104524000Y-79248000D01*
X101854000Y-79248000D02*
X101854000Y-117348000D01*
X101854000Y-117348000D02*
X104524000Y-117348000D01*
X89154000Y-81788000D02*
X86484000Y-81788000D01*
X89154000Y-81788000D02*
X89154000Y-117348000D01*
X89154000Y-117348000D02*
X86484000Y-117348000D01*
X86484000Y-120018000D02*
X104524000Y-120018000D01*
X104524000Y-120018000D02*
X104524000Y-76578000D01*
X104524000Y-76578000D02*
X86484000Y-76578000D01*
D13*
X110958380Y-72945523D02*
X111672666Y-72945523D01*
X111815523Y-72993142D01*
X111910761Y-73088380D01*
X111958380Y-73231238D01*
X111958380Y-73326476D01*
X111958380Y-71945523D02*
X111958380Y-72516952D01*
X111958380Y-72231238D02*
X110958380Y-72231238D01*
X111101238Y-72326476D01*
X111196476Y-72421714D01*
X111244095Y-72516952D01*
X110958380Y-71326476D02*
X110958380Y-71231238D01*
X111006000Y-71136000D01*
X111053619Y-71088380D01*
X111148857Y-71040761D01*
X111339333Y-70993142D01*
X111577428Y-70993142D01*
X111767904Y-71040761D01*
X111863142Y-71088380D01*
X111910761Y-71136000D01*
X111958380Y-71231238D01*
X111958380Y-71326476D01*
X111910761Y-71421714D01*
X111863142Y-71469333D01*
X111767904Y-71516952D01*
X111577428Y-71564571D01*
X111339333Y-71564571D01*
X111148857Y-71516952D01*
X111053619Y-71469333D01*
X111006000Y-71421714D01*
X110958380Y-71326476D01*
X126873333Y-115927142D02*
X126825714Y-115974761D01*
X126682857Y-116022380D01*
X126587619Y-116022380D01*
X126444761Y-115974761D01*
X126349523Y-115879523D01*
X126301904Y-115784285D01*
X126254285Y-115593809D01*
X126254285Y-115450952D01*
X126301904Y-115260476D01*
X126349523Y-115165238D01*
X126444761Y-115070000D01*
X126587619Y-115022380D01*
X126682857Y-115022380D01*
X126825714Y-115070000D01*
X126873333Y-115117619D01*
X127730476Y-115355714D02*
X127730476Y-116022380D01*
X127492380Y-114974761D02*
X127254285Y-115689047D01*
X127873333Y-115689047D01*
X119975333Y-110085142D02*
X119927714Y-110132761D01*
X119784857Y-110180380D01*
X119689619Y-110180380D01*
X119546761Y-110132761D01*
X119451523Y-110037523D01*
X119403904Y-109942285D01*
X119356285Y-109751809D01*
X119356285Y-109608952D01*
X119403904Y-109418476D01*
X119451523Y-109323238D01*
X119546761Y-109228000D01*
X119689619Y-109180380D01*
X119784857Y-109180380D01*
X119927714Y-109228000D01*
X119975333Y-109275619D01*
X120308666Y-109180380D02*
X120927714Y-109180380D01*
X120594380Y-109561333D01*
X120737238Y-109561333D01*
X120832476Y-109608952D01*
X120880095Y-109656571D01*
X120927714Y-109751809D01*
X120927714Y-109989904D01*
X120880095Y-110085142D01*
X120832476Y-110132761D01*
X120737238Y-110180380D01*
X120451523Y-110180380D01*
X120356285Y-110132761D01*
X120308666Y-110085142D01*
X141073142Y-78144666D02*
X141120761Y-78192285D01*
X141168380Y-78335142D01*
X141168380Y-78430380D01*
X141120761Y-78573238D01*
X141025523Y-78668476D01*
X140930285Y-78716095D01*
X140739809Y-78763714D01*
X140596952Y-78763714D01*
X140406476Y-78716095D01*
X140311238Y-78668476D01*
X140216000Y-78573238D01*
X140168380Y-78430380D01*
X140168380Y-78335142D01*
X140216000Y-78192285D01*
X140263619Y-78144666D01*
X140168380Y-77811333D02*
X140168380Y-77144666D01*
X141168380Y-77573238D01*
X110069333Y-99671142D02*
X110021714Y-99718761D01*
X109878857Y-99766380D01*
X109783619Y-99766380D01*
X109640761Y-99718761D01*
X109545523Y-99623523D01*
X109497904Y-99528285D01*
X109450285Y-99337809D01*
X109450285Y-99194952D01*
X109497904Y-99004476D01*
X109545523Y-98909238D01*
X109640761Y-98814000D01*
X109783619Y-98766380D01*
X109878857Y-98766380D01*
X110021714Y-98814000D01*
X110069333Y-98861619D01*
X111021714Y-99766380D02*
X110450285Y-99766380D01*
X110736000Y-99766380D02*
X110736000Y-98766380D01*
X110640761Y-98909238D01*
X110545523Y-99004476D01*
X110450285Y-99052095D01*
X109013333Y-92051142D02*
X108965714Y-92098761D01*
X108822857Y-92146380D01*
X108727619Y-92146380D01*
X108584761Y-92098761D01*
X108489523Y-92003523D01*
X108441904Y-91908285D01*
X108394285Y-91717809D01*
X108394285Y-91574952D01*
X108441904Y-91384476D01*
X108489523Y-91289238D01*
X108584761Y-91194000D01*
X108727619Y-91146380D01*
X108822857Y-91146380D01*
X108965714Y-91194000D01*
X109013333Y-91241619D01*
X109394285Y-91241619D02*
X109441904Y-91194000D01*
X109537142Y-91146380D01*
X109775238Y-91146380D01*
X109870476Y-91194000D01*
X109918095Y-91241619D01*
X109965714Y-91336857D01*
X109965714Y-91432095D01*
X109918095Y-91574952D01*
X109346666Y-92146380D01*
X109965714Y-92146380D01*
X129333333Y-81637142D02*
X129285714Y-81684761D01*
X129142857Y-81732380D01*
X129047619Y-81732380D01*
X128904761Y-81684761D01*
X128809523Y-81589523D01*
X128761904Y-81494285D01*
X128714285Y-81303809D01*
X128714285Y-81160952D01*
X128761904Y-80970476D01*
X128809523Y-80875238D01*
X128904761Y-80780000D01*
X129047619Y-80732380D01*
X129142857Y-80732380D01*
X129285714Y-80780000D01*
X129333333Y-80827619D01*
X130238095Y-80732380D02*
X129761904Y-80732380D01*
X129714285Y-81208571D01*
X129761904Y-81160952D01*
X129857142Y-81113333D01*
X130095238Y-81113333D01*
X130190476Y-81160952D01*
X130238095Y-81208571D01*
X130285714Y-81303809D01*
X130285714Y-81541904D01*
X130238095Y-81637142D01*
X130190476Y-81684761D01*
X130095238Y-81732380D01*
X129857142Y-81732380D01*
X129761904Y-81684761D01*
X129714285Y-81637142D01*
X119991142Y-66246666D02*
X120038761Y-66294285D01*
X120086380Y-66437142D01*
X120086380Y-66532380D01*
X120038761Y-66675238D01*
X119943523Y-66770476D01*
X119848285Y-66818095D01*
X119657809Y-66865714D01*
X119514952Y-66865714D01*
X119324476Y-66818095D01*
X119229238Y-66770476D01*
X119134000Y-66675238D01*
X119086380Y-66532380D01*
X119086380Y-66437142D01*
X119134000Y-66294285D01*
X119181619Y-66246666D01*
X119086380Y-65389523D02*
X119086380Y-65580000D01*
X119134000Y-65675238D01*
X119181619Y-65722857D01*
X119324476Y-65818095D01*
X119514952Y-65865714D01*
X119895904Y-65865714D01*
X119991142Y-65818095D01*
X120038761Y-65770476D01*
X120086380Y-65675238D01*
X120086380Y-65484761D01*
X120038761Y-65389523D01*
X119991142Y-65341904D01*
X119895904Y-65294285D01*
X119657809Y-65294285D01*
X119562571Y-65341904D01*
X119514952Y-65389523D01*
X119467333Y-65484761D01*
X119467333Y-65675238D01*
X119514952Y-65770476D01*
X119562571Y-65818095D01*
X119657809Y-65865714D01*
X109648666Y-115784380D02*
X109648666Y-116498666D01*
X109601047Y-116641523D01*
X109505809Y-116736761D01*
X109362952Y-116784380D01*
X109267714Y-116784380D01*
X110648666Y-116784380D02*
X110077238Y-116784380D01*
X110362952Y-116784380D02*
X110362952Y-115784380D01*
X110267714Y-115927238D01*
X110172476Y-116022476D01*
X110077238Y-116070095D01*
X90860666Y-73112380D02*
X90860666Y-73826666D01*
X90813047Y-73969523D01*
X90717809Y-74064761D01*
X90574952Y-74112380D01*
X90479714Y-74112380D01*
X91336857Y-74112380D02*
X91336857Y-73112380D01*
X91717809Y-73112380D01*
X91813047Y-73160000D01*
X91860666Y-73207619D01*
X91908285Y-73302857D01*
X91908285Y-73445714D01*
X91860666Y-73540952D01*
X91813047Y-73588571D01*
X91717809Y-73636190D01*
X91336857Y-73636190D01*
X92241619Y-73112380D02*
X92860666Y-73112380D01*
X92527333Y-73493333D01*
X92670190Y-73493333D01*
X92765428Y-73540952D01*
X92813047Y-73588571D01*
X92860666Y-73683809D01*
X92860666Y-73921904D01*
X92813047Y-74017142D01*
X92765428Y-74064761D01*
X92670190Y-74112380D01*
X92384476Y-74112380D01*
X92289238Y-74064761D01*
X92241619Y-74017142D01*
X124166380Y-92527333D02*
X124880666Y-92527333D01*
X125023523Y-92574952D01*
X125118761Y-92670190D01*
X125166380Y-92813047D01*
X125166380Y-92908285D01*
X125166380Y-92051142D02*
X124166380Y-92051142D01*
X124166380Y-91670190D01*
X124214000Y-91574952D01*
X124261619Y-91527333D01*
X124356857Y-91479714D01*
X124499714Y-91479714D01*
X124594952Y-91527333D01*
X124642571Y-91574952D01*
X124690190Y-91670190D01*
X124690190Y-92051142D01*
X124499714Y-90622571D02*
X125166380Y-90622571D01*
X124118761Y-90860666D02*
X124833047Y-91098761D01*
X124833047Y-90479714D01*
X124166380Y-105989333D02*
X124880666Y-105989333D01*
X125023523Y-106036952D01*
X125118761Y-106132190D01*
X125166380Y-106275047D01*
X125166380Y-106370285D01*
X125166380Y-105513142D02*
X124166380Y-105513142D01*
X124166380Y-105132190D01*
X124214000Y-105036952D01*
X124261619Y-104989333D01*
X124356857Y-104941714D01*
X124499714Y-104941714D01*
X124594952Y-104989333D01*
X124642571Y-105036952D01*
X124690190Y-105132190D01*
X124690190Y-105513142D01*
X124261619Y-104560761D02*
X124214000Y-104513142D01*
X124166380Y-104417904D01*
X124166380Y-104179809D01*
X124214000Y-104084571D01*
X124261619Y-104036952D01*
X124356857Y-103989333D01*
X124452095Y-103989333D01*
X124594952Y-104036952D01*
X125166380Y-104608380D01*
X125166380Y-103989333D01*
X113752380Y-104219333D02*
X114466666Y-104219333D01*
X114609523Y-104266952D01*
X114704761Y-104362190D01*
X114752380Y-104505047D01*
X114752380Y-104600285D01*
X113847619Y-103790761D02*
X113800000Y-103743142D01*
X113752380Y-103647904D01*
X113752380Y-103409809D01*
X113800000Y-103314571D01*
X113847619Y-103266952D01*
X113942857Y-103219333D01*
X114038095Y-103219333D01*
X114180952Y-103266952D01*
X114752380Y-103838380D01*
X114752380Y-103219333D01*
D17*
X108204095Y-76668380D02*
X108204095Y-77477904D01*
X108251714Y-77573142D01*
X108299333Y-77620761D01*
X108394571Y-77668380D01*
X108585047Y-77668380D01*
X108680285Y-77620761D01*
X108727904Y-77573142D01*
X108775523Y-77477904D01*
X108775523Y-76668380D01*
X109775523Y-77668380D02*
X109204095Y-77668380D01*
X109489809Y-77668380D02*
X109489809Y-76668380D01*
X109394571Y-76811238D01*
X109299333Y-76906476D01*
X109204095Y-76954095D01*
X111236761Y-77668380D02*
X111236761Y-76668380D01*
X111570095Y-77382666D01*
X111903428Y-76668380D01*
X111903428Y-77668380D01*
X112379619Y-77668380D02*
X112379619Y-76668380D01*
X112379619Y-77144571D02*
X112951047Y-77144571D01*
X112951047Y-77668380D02*
X112951047Y-76668380D01*
X113427238Y-77287428D02*
X114189142Y-77287428D01*
X114665333Y-77668380D02*
X114665333Y-76668380D01*
X114998666Y-77382666D01*
X115332000Y-76668380D01*
X115332000Y-77668380D01*
X115808190Y-77668380D02*
X115808190Y-76668380D01*
X116284380Y-77668380D02*
X116284380Y-76668380D01*
X116855809Y-77668380D01*
X116855809Y-76668380D01*
X117332000Y-77668380D02*
X117332000Y-76668380D01*
X117808190Y-77287428D02*
X118570095Y-77287428D01*
X118951047Y-76668380D02*
X119570095Y-76668380D01*
X119236761Y-77049333D01*
X119379619Y-77049333D01*
X119474857Y-77096952D01*
X119522476Y-77144571D01*
X119570095Y-77239809D01*
X119570095Y-77477904D01*
X119522476Y-77573142D01*
X119474857Y-77620761D01*
X119379619Y-77668380D01*
X119093904Y-77668380D01*
X118998666Y-77620761D01*
X118951047Y-77573142D01*
X120427238Y-76668380D02*
X120236761Y-76668380D01*
X120141523Y-76716000D01*
X120093904Y-76763619D01*
X119998666Y-76906476D01*
X119951047Y-77096952D01*
X119951047Y-77477904D01*
X119998666Y-77573142D01*
X120046285Y-77620761D01*
X120141523Y-77668380D01*
X120332000Y-77668380D01*
X120427238Y-77620761D01*
X120474857Y-77573142D01*
X120522476Y-77477904D01*
X120522476Y-77239809D01*
X120474857Y-77144571D01*
X120427238Y-77096952D01*
X120332000Y-77049333D01*
X120141523Y-77049333D01*
X120046285Y-77096952D01*
X119998666Y-77144571D01*
X119951047Y-77239809D01*
X121141523Y-76668380D02*
X121236761Y-76668380D01*
X121332000Y-76716000D01*
X121379619Y-76763619D01*
X121427238Y-76858857D01*
X121474857Y-77049333D01*
X121474857Y-77287428D01*
X121427238Y-77477904D01*
X121379619Y-77573142D01*
X121332000Y-77620761D01*
X121236761Y-77668380D01*
X121141523Y-77668380D01*
X121046285Y-77620761D01*
X120998666Y-77573142D01*
X120951047Y-77477904D01*
X120903428Y-77287428D01*
X120903428Y-77049333D01*
X120951047Y-76858857D01*
X120998666Y-76763619D01*
X121046285Y-76716000D01*
X121141523Y-76668380D01*
X108585047Y-88463428D02*
X109346952Y-88463428D01*
X108966000Y-88844380D02*
X108966000Y-88082476D01*
X108331047Y-78303428D02*
X109092952Y-78303428D01*
X120523047Y-78303428D02*
X121284952Y-78303428D01*
X120015047Y-88463428D02*
X120776952Y-88463428D01*
X120396000Y-88844380D02*
X120396000Y-88082476D01*
D13*
X141168380Y-75604666D02*
X140692190Y-75938000D01*
X141168380Y-76176095D02*
X140168380Y-76176095D01*
X140168380Y-75795142D01*
X140216000Y-75699904D01*
X140263619Y-75652285D01*
X140358857Y-75604666D01*
X140501714Y-75604666D01*
X140596952Y-75652285D01*
X140644571Y-75699904D01*
X140692190Y-75795142D01*
X140692190Y-76176095D01*
X141168380Y-74652285D02*
X141168380Y-75223714D01*
X141168380Y-74938000D02*
X140168380Y-74938000D01*
X140311238Y-75033238D01*
X140406476Y-75128476D01*
X140454095Y-75223714D01*
X118872095Y-98004380D02*
X118872095Y-98813904D01*
X118919714Y-98909142D01*
X118967333Y-98956761D01*
X119062571Y-99004380D01*
X119253047Y-99004380D01*
X119348285Y-98956761D01*
X119395904Y-98909142D01*
X119443523Y-98813904D01*
X119443523Y-98004380D01*
X119872095Y-98099619D02*
X119919714Y-98052000D01*
X120014952Y-98004380D01*
X120253047Y-98004380D01*
X120348285Y-98052000D01*
X120395904Y-98099619D01*
X120443523Y-98194857D01*
X120443523Y-98290095D01*
X120395904Y-98432952D01*
X119824476Y-99004380D01*
X120443523Y-99004380D01*
X135850380Y-98805904D02*
X136659904Y-98805904D01*
X136755142Y-98758285D01*
X136802761Y-98710666D01*
X136850380Y-98615428D01*
X136850380Y-98424952D01*
X136802761Y-98329714D01*
X136755142Y-98282095D01*
X136659904Y-98234476D01*
X135850380Y-98234476D01*
X135850380Y-97853523D02*
X135850380Y-97234476D01*
X136231333Y-97567809D01*
X136231333Y-97424952D01*
X136278952Y-97329714D01*
X136326571Y-97282095D01*
X136421809Y-97234476D01*
X136659904Y-97234476D01*
X136755142Y-97282095D01*
X136802761Y-97329714D01*
X136850380Y-97424952D01*
X136850380Y-97710666D01*
X136802761Y-97805904D01*
X136755142Y-97853523D01*
X136596380Y-112688666D02*
X136120190Y-113022000D01*
X136596380Y-113260095D02*
X135596380Y-113260095D01*
X135596380Y-112879142D01*
X135644000Y-112783904D01*
X135691619Y-112736285D01*
X135786857Y-112688666D01*
X135929714Y-112688666D01*
X136024952Y-112736285D01*
X136072571Y-112783904D01*
X136120190Y-112879142D01*
X136120190Y-113260095D01*
X136024952Y-112117238D02*
X135977333Y-112212476D01*
X135929714Y-112260095D01*
X135834476Y-112307714D01*
X135786857Y-112307714D01*
X135691619Y-112260095D01*
X135644000Y-112212476D01*
X135596380Y-112117238D01*
X135596380Y-111926761D01*
X135644000Y-111831523D01*
X135691619Y-111783904D01*
X135786857Y-111736285D01*
X135834476Y-111736285D01*
X135929714Y-111783904D01*
X135977333Y-111831523D01*
X136024952Y-111926761D01*
X136024952Y-112117238D01*
X136072571Y-112212476D01*
X136120190Y-112260095D01*
X136215428Y-112307714D01*
X136405904Y-112307714D01*
X136501142Y-112260095D01*
X136548761Y-112212476D01*
X136596380Y-112117238D01*
X136596380Y-111926761D01*
X136548761Y-111831523D01*
X136501142Y-111783904D01*
X136405904Y-111736285D01*
X136215428Y-111736285D01*
X136120190Y-111783904D01*
X136072571Y-111831523D01*
X136024952Y-111926761D01*
X132024380Y-74556857D02*
X131548190Y-74890190D01*
X132024380Y-75128285D02*
X131024380Y-75128285D01*
X131024380Y-74747333D01*
X131072000Y-74652095D01*
X131119619Y-74604476D01*
X131214857Y-74556857D01*
X131357714Y-74556857D01*
X131452952Y-74604476D01*
X131500571Y-74652095D01*
X131548190Y-74747333D01*
X131548190Y-75128285D01*
X132024380Y-73604476D02*
X132024380Y-74175904D01*
X132024380Y-73890190D02*
X131024380Y-73890190D01*
X131167238Y-73985428D01*
X131262476Y-74080666D01*
X131310095Y-74175904D01*
X131024380Y-72985428D02*
X131024380Y-72890190D01*
X131072000Y-72794952D01*
X131119619Y-72747333D01*
X131214857Y-72699714D01*
X131405333Y-72652095D01*
X131643428Y-72652095D01*
X131833904Y-72699714D01*
X131929142Y-72747333D01*
X131976761Y-72794952D01*
X132024380Y-72890190D01*
X132024380Y-72985428D01*
X131976761Y-73080666D01*
X131929142Y-73128285D01*
X131833904Y-73175904D01*
X131643428Y-73223523D01*
X131405333Y-73223523D01*
X131214857Y-73175904D01*
X131119619Y-73128285D01*
X131072000Y-73080666D01*
X131024380Y-72985428D01*
X128976380Y-74080666D02*
X128500190Y-74414000D01*
X128976380Y-74652095D02*
X127976380Y-74652095D01*
X127976380Y-74271142D01*
X128024000Y-74175904D01*
X128071619Y-74128285D01*
X128166857Y-74080666D01*
X128309714Y-74080666D01*
X128404952Y-74128285D01*
X128452571Y-74175904D01*
X128500190Y-74271142D01*
X128500190Y-74652095D01*
X128976380Y-73604476D02*
X128976380Y-73414000D01*
X128928761Y-73318761D01*
X128881142Y-73271142D01*
X128738285Y-73175904D01*
X128547809Y-73128285D01*
X128166857Y-73128285D01*
X128071619Y-73175904D01*
X128024000Y-73223523D01*
X127976380Y-73318761D01*
X127976380Y-73509238D01*
X128024000Y-73604476D01*
X128071619Y-73652095D01*
X128166857Y-73699714D01*
X128404952Y-73699714D01*
X128500190Y-73652095D01*
X128547809Y-73604476D01*
X128595428Y-73509238D01*
X128595428Y-73318761D01*
X128547809Y-73223523D01*
X128500190Y-73175904D01*
X128404952Y-73128285D01*
X125928380Y-74080666D02*
X125452190Y-74414000D01*
X125928380Y-74652095D02*
X124928380Y-74652095D01*
X124928380Y-74271142D01*
X124976000Y-74175904D01*
X125023619Y-74128285D01*
X125118857Y-74080666D01*
X125261714Y-74080666D01*
X125356952Y-74128285D01*
X125404571Y-74175904D01*
X125452190Y-74271142D01*
X125452190Y-74652095D01*
X124928380Y-73747333D02*
X124928380Y-73080666D01*
X125928380Y-73509238D01*
X135689381Y-74080666D02*
X135213191Y-74414000D01*
X135689381Y-74652095D02*
X134689381Y-74652095D01*
X134689381Y-74271142D01*
X134737001Y-74175904D01*
X134784620Y-74128285D01*
X134879858Y-74080666D01*
X135022715Y-74080666D01*
X135117953Y-74128285D01*
X135165572Y-74175904D01*
X135213191Y-74271142D01*
X135213191Y-74652095D01*
X134784620Y-73699714D02*
X134737001Y-73652095D01*
X134689381Y-73556857D01*
X134689381Y-73318761D01*
X134737001Y-73223523D01*
X134784620Y-73175904D01*
X134879858Y-73128285D01*
X134975096Y-73128285D01*
X135117953Y-73175904D01*
X135689381Y-73747333D01*
X135689381Y-73128285D01*
X117038380Y-69833714D02*
X116038380Y-69833714D01*
X116752666Y-69500380D01*
X116038380Y-69167047D01*
X117038380Y-69167047D01*
X116562190Y-68500380D02*
X117038380Y-68500380D01*
X116038380Y-68833714D02*
X116562190Y-68500380D01*
X116038380Y-68167047D01*
X116990761Y-67881333D02*
X117038380Y-67738476D01*
X117038380Y-67500380D01*
X116990761Y-67405142D01*
X116943142Y-67357523D01*
X116847904Y-67309904D01*
X116752666Y-67309904D01*
X116657428Y-67357523D01*
X116609809Y-67405142D01*
X116562190Y-67500380D01*
X116514571Y-67690857D01*
X116466952Y-67786095D01*
X116419333Y-67833714D01*
X116324095Y-67881333D01*
X116228857Y-67881333D01*
X116133619Y-67833714D01*
X116086000Y-67786095D01*
X116038380Y-67690857D01*
X116038380Y-67452761D01*
X116086000Y-67309904D01*
X116038380Y-66976571D02*
X117038380Y-66309904D01*
X116038380Y-66309904D02*
X117038380Y-66976571D01*
X117133619Y-66167047D02*
X117133619Y-65405142D01*
X116133619Y-65214666D02*
X116086000Y-65167047D01*
X116038380Y-65071809D01*
X116038380Y-64833714D01*
X116086000Y-64738476D01*
X116133619Y-64690857D01*
X116228857Y-64643238D01*
X116324095Y-64643238D01*
X116466952Y-64690857D01*
X117038380Y-65262285D01*
X117038380Y-64643238D01*
X116943142Y-64214666D02*
X116990761Y-64167047D01*
X117038380Y-64214666D01*
X116990761Y-64262285D01*
X116943142Y-64214666D01*
X117038380Y-64214666D01*
X116038380Y-63309904D02*
X116038380Y-63500380D01*
X116086000Y-63595619D01*
X116133619Y-63643238D01*
X116276476Y-63738476D01*
X116466952Y-63786095D01*
X116847904Y-63786095D01*
X116943142Y-63738476D01*
X116990761Y-63690857D01*
X117038380Y-63595619D01*
X117038380Y-63405142D01*
X116990761Y-63309904D01*
X116943142Y-63262285D01*
X116847904Y-63214666D01*
X116609809Y-63214666D01*
X116514571Y-63262285D01*
X116466952Y-63309904D01*
X116419333Y-63405142D01*
X116419333Y-63595619D01*
X116466952Y-63690857D01*
X116514571Y-63738476D01*
X116609809Y-63786095D01*
X94789714Y-80684666D02*
X95265904Y-80684666D01*
X94694476Y-80970380D02*
X95027809Y-79970380D01*
X95361142Y-80970380D01*
X96218285Y-80970380D02*
X95646857Y-80970380D01*
X95932571Y-80970380D02*
X95932571Y-79970380D01*
X95837333Y-80113238D01*
X95742095Y-80208476D01*
X95646857Y-80256095D01*
M02*
