%TF.GenerationSoftware,KiCad,Pcbnew,5.0.2-bee76a0~70~ubuntu18.04.1*%
%TF.CreationDate,2019-02-16T11:31:49+01:00*%
%TF.ProjectId,GP-Pcb-Nano,47502d50-6362-42d4-9e61-6e6f2e6b6963,2.0*%
%TF.SameCoordinates,Original*%
%TF.FileFunction,Copper,L2,Bot*%
%TF.FilePolarity,Positive*%
%FSLAX46Y46*%
G04 Gerber Fmt 4.6, Leading zero omitted, Abs format (unit mm)*
G04 Created by KiCad (PCBNEW 5.0.2-bee76a0~70~ubuntu18.04.1) date sab 16 feb 2019 11:31:49 CET*
%MOMM*%
%LPD*%
G01*
G04 APERTURE LIST*
%ADD10C,0.010000*%
%ADD11R,1.700000X1.700000*%
%ADD12C,1.600000*%
%ADD13R,1.600000X1.600000*%
%ADD14R,1.900000X0.800000*%
%ADD15O,1.600000X1.600000*%
%ADD16R,2.000000X2.000000*%
%ADD17C,2.000000*%
%ADD18O,1.800000X4.000000*%
%ADD19O,4.000000X1.800000*%
%ADD20R,4.400000X1.800000*%
%ADD21O,1.700000X1.700000*%
%ADD22R,1.400000X1.000000*%
%ADD23R,1.800000X1.800000*%
%ADD24C,1.800000*%
%ADD25C,1.524000*%
%ADD26R,1.524000X1.524000*%
%ADD27O,1.727200X1.727200*%
%ADD28R,1.727200X1.727200*%
%ADD29C,0.650000*%
%ADD30C,0.160000*%
%ADD31C,0.300000*%
%ADD32C,1.400000*%
%ADD33C,0.800000*%
%ADD34C,2.100000*%
%ADD35C,0.254000*%
G04 APERTURE END LIST*
D10*
X86360000Y-62484000D02*
X86360000Y-117484000D01*
X141360000Y-117484000D02*
X86360000Y-117484000D01*
X141360000Y-62484000D02*
X141360000Y-117484000D01*
X86360000Y-62484000D02*
X141360000Y-62484000D01*
D11*
X109474000Y-72136000D03*
D12*
X129540000Y-115570000D03*
X124540000Y-115570000D03*
D13*
X118618000Y-111506000D03*
D12*
X121118000Y-111506000D03*
X92710000Y-88138000D03*
X97710000Y-88138000D03*
D14*
X96242000Y-93538000D03*
X96242000Y-95438000D03*
X93242000Y-94488000D03*
D12*
X99060000Y-100838000D03*
D15*
X91440000Y-100838000D03*
D16*
X95504000Y-106934000D03*
D17*
X95504000Y-114534000D03*
D13*
X138430000Y-82042000D03*
D12*
X138430000Y-80042000D03*
X107990000Y-97282000D03*
D13*
X110490000Y-97282000D03*
D12*
X111680000Y-91694000D03*
X106680000Y-91694000D03*
X132000000Y-81280000D03*
X127000000Y-81280000D03*
X119634000Y-68580000D03*
X119634000Y-63580000D03*
D18*
X114782000Y-111712000D03*
D19*
X109982000Y-114512000D03*
D20*
X109982000Y-108712000D03*
D21*
X127762000Y-87884000D03*
D11*
X127762000Y-85344000D03*
X88392000Y-74676000D03*
D21*
X88392000Y-72136000D03*
D11*
X121920000Y-84074000D03*
D21*
X119380000Y-84074000D03*
X116840000Y-84074000D03*
X112776000Y-84074000D03*
X110236000Y-84074000D03*
D11*
X107696000Y-84074000D03*
X107696000Y-80518000D03*
D21*
X110236000Y-80518000D03*
X112776000Y-80518000D03*
X116840000Y-80518000D03*
X119380000Y-80518000D03*
D11*
X121920000Y-80518000D03*
X112014000Y-87884000D03*
D21*
X114554000Y-87884000D03*
X117094000Y-87884000D03*
X122174000Y-91694000D03*
X119634000Y-91694000D03*
D11*
X117094000Y-91694000D03*
X117094000Y-105156000D03*
D21*
X119634000Y-105156000D03*
X122174000Y-105156000D03*
X139446000Y-107950000D03*
X139446000Y-110490000D03*
X139446000Y-113030000D03*
D11*
X139446000Y-115570000D03*
X132842000Y-111760000D03*
D21*
X130302000Y-111760000D03*
X127762000Y-111760000D03*
X125222000Y-111760000D03*
D11*
X139446000Y-91948000D03*
D21*
X139446000Y-94488000D03*
X139446000Y-97028000D03*
X139446000Y-99568000D03*
X139446000Y-102108000D03*
D11*
X106934000Y-105156000D03*
D21*
X106934000Y-102616000D03*
X109474000Y-105156000D03*
X109474000Y-102616000D03*
X112014000Y-105156000D03*
X112014000Y-102616000D03*
D22*
X133774000Y-92898000D03*
X133774000Y-90998000D03*
X135974000Y-91948000D03*
X135974000Y-95946000D03*
X133774000Y-94996000D03*
X133774000Y-96896000D03*
X133858000Y-100838000D03*
X133858000Y-98938000D03*
X136058000Y-99888000D03*
X136144000Y-103886000D03*
X133944000Y-102936000D03*
X133944000Y-104836000D03*
D23*
X123444000Y-65786000D03*
D24*
X125984000Y-65786000D03*
X132588000Y-65786000D03*
D23*
X130048000Y-65786000D03*
X136652000Y-65786000D03*
D24*
X139192000Y-65786000D03*
D25*
X107188000Y-77724000D03*
X107188000Y-87884000D03*
X122428000Y-87884000D03*
X122428000Y-77724000D03*
D12*
X138938000Y-73406000D03*
X138938000Y-70406000D03*
D26*
X138938000Y-85598000D03*
D25*
X138938000Y-88138000D03*
X136398000Y-85598000D03*
X136398000Y-88138000D03*
X133858000Y-85598000D03*
X133858000Y-88138000D03*
X131318000Y-85598000D03*
X131318000Y-88138000D03*
D12*
X136144000Y-116332000D03*
D15*
X136144000Y-108712000D03*
X130810000Y-91186000D03*
D12*
X130810000Y-98806000D03*
X131572000Y-70104000D03*
D15*
X131572000Y-77724000D03*
X128524000Y-77724000D03*
D12*
X128524000Y-70104000D03*
X125476000Y-70104000D03*
D15*
X125476000Y-77724000D03*
X127508000Y-108712000D03*
D12*
X127508000Y-101092000D03*
X127508000Y-91186000D03*
D15*
X127508000Y-98806000D03*
X130810000Y-101092000D03*
D12*
X130810000Y-108712000D03*
X135128000Y-70104000D03*
D15*
X135128000Y-77724000D03*
D27*
X111760000Y-67564000D03*
X111760000Y-65024000D03*
X109220000Y-67564000D03*
X109220000Y-65024000D03*
X106680000Y-67564000D03*
X106680000Y-65024000D03*
X104140000Y-67564000D03*
X104140000Y-65024000D03*
X101600000Y-67564000D03*
X101600000Y-65024000D03*
X99060000Y-67564000D03*
X99060000Y-65024000D03*
D28*
X88900000Y-65024000D03*
D27*
X88900000Y-67564000D03*
X91440000Y-65024000D03*
X91440000Y-67564000D03*
X93980000Y-65024000D03*
X93980000Y-67564000D03*
X96520000Y-65024000D03*
X96520000Y-67564000D03*
X114300000Y-65024000D03*
X114300000Y-67564000D03*
D13*
X87884000Y-80518000D03*
D15*
X103124000Y-113538000D03*
X87884000Y-83058000D03*
X103124000Y-110998000D03*
X87884000Y-85598000D03*
X103124000Y-108458000D03*
X87884000Y-88138000D03*
X103124000Y-105918000D03*
X87884000Y-90678000D03*
X103124000Y-103378000D03*
X87884000Y-93218000D03*
X103124000Y-100838000D03*
X87884000Y-95758000D03*
X103124000Y-98298000D03*
X87884000Y-98298000D03*
X103124000Y-95758000D03*
X87884000Y-100838000D03*
X103124000Y-93218000D03*
X87884000Y-103378000D03*
X103124000Y-90678000D03*
X87884000Y-105918000D03*
X103124000Y-88138000D03*
X87884000Y-108458000D03*
X103124000Y-85598000D03*
X87884000Y-110998000D03*
X103124000Y-83058000D03*
X87884000Y-113538000D03*
X103124000Y-80518000D03*
X87884000Y-116078000D03*
X103124000Y-116078000D03*
D29*
X111760000Y-78486000D03*
X88964001Y-79248000D03*
X136906000Y-78232000D03*
X112776000Y-70866000D03*
X101092000Y-70866000D03*
X134874000Y-72390000D03*
X109220000Y-70104000D03*
X98806000Y-70104000D03*
X97790000Y-116078000D03*
X130491999Y-71692001D03*
X107823601Y-69088000D03*
X91694000Y-69088000D03*
X136208001Y-68644001D03*
X93726000Y-113538000D03*
X102043999Y-72708001D03*
X106615999Y-72708001D03*
X118364000Y-65024000D03*
X116775999Y-72708001D03*
X101092000Y-71882000D03*
X105664000Y-71882000D03*
X87122000Y-78232000D03*
X102870000Y-78232000D03*
X99822000Y-98298000D03*
X130745999Y-96201999D03*
X96774000Y-91694000D03*
X95758000Y-89408000D03*
X95758000Y-81534000D03*
X127762000Y-82550000D03*
X90170000Y-73406000D03*
X116840000Y-73914000D03*
X120580001Y-82804000D03*
X90932000Y-87122000D03*
X98298000Y-95504000D03*
X91440000Y-95758000D03*
X131572000Y-73406000D03*
X123698000Y-98552000D03*
X113538000Y-98552000D03*
X132080000Y-102870000D03*
X123698000Y-102870000D03*
X132080000Y-94996000D03*
X91440000Y-94488000D03*
X99568000Y-109474000D03*
X99568000Y-111506000D03*
X99568000Y-113792000D03*
X99568000Y-108204000D03*
X99568000Y-110490000D03*
X99568000Y-112776000D03*
X135636000Y-97790000D03*
X136652000Y-97536000D03*
X125222000Y-97282000D03*
X125222000Y-98552000D03*
X123444000Y-92964000D03*
X125222000Y-102108000D03*
X125222000Y-101346000D03*
X88392000Y-76708000D03*
X89916000Y-85090000D03*
X100330000Y-99568000D03*
X89916000Y-81788000D03*
X113284000Y-114554000D03*
X121158000Y-114554000D03*
X92456000Y-80518000D03*
X93218000Y-83058000D03*
X94996000Y-90678000D03*
X105918000Y-76962000D03*
X115753001Y-76637001D03*
X105664000Y-75946000D03*
X114300000Y-75946000D03*
X90424000Y-93538000D03*
X90099001Y-102291001D03*
X132080000Y-93472000D03*
X90170000Y-116840000D03*
X131572000Y-116840000D03*
X127508000Y-104902000D03*
X136144000Y-113030000D03*
X137668000Y-94234000D03*
X129225990Y-103825990D03*
X129225990Y-89722010D03*
X137440001Y-89635999D03*
X115824000Y-116078000D03*
X125730000Y-80518000D03*
X124460000Y-105664000D03*
X104902000Y-106426000D03*
X115639999Y-79248000D03*
X114808000Y-89916000D03*
X114808000Y-99822000D03*
X106964051Y-100330000D03*
X125222000Y-87884000D03*
X125222000Y-94234000D03*
X111680000Y-94154000D03*
X110490000Y-86106000D03*
X114554000Y-86106000D03*
X110236000Y-74676000D03*
X105964041Y-93472000D03*
X108550001Y-92456000D03*
X93980000Y-85598000D03*
D30*
X103231401Y-78766001D02*
X102749402Y-79248000D01*
X111760000Y-78486000D02*
X107968162Y-78486000D01*
X107688161Y-78766001D02*
X103231401Y-78766001D01*
X107968162Y-78486000D02*
X107688161Y-78766001D01*
X88964001Y-79248000D02*
X91948000Y-79248000D01*
X102749402Y-79248000D02*
X91948000Y-79248000D01*
X91948000Y-79248000D02*
X91694000Y-79248000D01*
X121647838Y-78486000D02*
X122409838Y-79248000D01*
X111760000Y-78486000D02*
X121647838Y-78486000D01*
X122409838Y-79248000D02*
X135890000Y-79248000D01*
X135890000Y-79248000D02*
X136906000Y-78232000D01*
X112776000Y-70866000D02*
X113030000Y-70866000D01*
X101092000Y-70866000D02*
X112776000Y-70866000D01*
X134874000Y-72390000D02*
X122280001Y-72390000D01*
X112776000Y-70866000D02*
X120756001Y-70866000D01*
X122280001Y-72390000D02*
X121518001Y-71628000D01*
X120756001Y-70866000D02*
X121518001Y-71628000D01*
X121518001Y-71628000D02*
X121412000Y-71521999D01*
X87884000Y-116078000D02*
X97790000Y-116078000D01*
X109220000Y-70104000D02*
X98806000Y-70104000D01*
X120503131Y-70104000D02*
X109220000Y-70104000D01*
X122091132Y-71692001D02*
X120503131Y-70104000D01*
X130491999Y-71692001D02*
X122091132Y-71692001D01*
X91694000Y-69088000D02*
X107823601Y-69088000D01*
X124321597Y-69660001D02*
X125401598Y-68580000D01*
X119115599Y-69660001D02*
X124321597Y-69660001D01*
X107823601Y-69088000D02*
X118543598Y-69088000D01*
X118543598Y-69088000D02*
X119115599Y-69660001D01*
X125401598Y-68580000D02*
X136144000Y-68580000D01*
X87884000Y-113538000D02*
X93726000Y-113538000D01*
X102043999Y-72708001D02*
X106615999Y-72708001D01*
X120206403Y-64605999D02*
X119788402Y-65024000D01*
X127807999Y-64605999D02*
X120206403Y-64605999D01*
X130048000Y-65786000D02*
X128988000Y-65786000D01*
X128988000Y-65786000D02*
X127807999Y-64605999D01*
X119788402Y-65024000D02*
X118364000Y-65024000D01*
X116451000Y-73033000D02*
X116775999Y-72708001D01*
X116078000Y-73406000D02*
X116451000Y-73033000D01*
X107313998Y-73406000D02*
X116078000Y-73406000D01*
X106615999Y-72708001D02*
X107313998Y-73406000D01*
X101092000Y-71882000D02*
X105664000Y-71882000D01*
X107543599Y-64160401D02*
X106680000Y-65024000D01*
X107823601Y-63880399D02*
X107543599Y-64160401D01*
X114848929Y-63880399D02*
X107823601Y-63880399D01*
X116754530Y-65786000D02*
X114848929Y-63880399D01*
X123444000Y-65786000D02*
X116754530Y-65786000D01*
X87122000Y-78232000D02*
X102870000Y-78232000D01*
X128286630Y-96896000D02*
X133774000Y-96896000D01*
X127508000Y-97674630D02*
X128286630Y-96896000D01*
X127508000Y-98806000D02*
X127508000Y-97674630D01*
X88683999Y-101771401D02*
X88683999Y-101637999D01*
X89808600Y-102896002D02*
X88683999Y-101771401D01*
X97511128Y-102896002D02*
X89808600Y-102896002D01*
X88683999Y-101637999D02*
X87884000Y-100838000D01*
X98333531Y-102073599D02*
X97511128Y-102896002D01*
X105803999Y-102073599D02*
X98333531Y-102073599D01*
X106391599Y-101485999D02*
X105803999Y-102073599D01*
X123696631Y-101485999D02*
X106391599Y-101485999D01*
X126376630Y-98806000D02*
X123696631Y-101485999D01*
X127508000Y-98806000D02*
X126376630Y-98806000D01*
X87884000Y-98298000D02*
X99822000Y-98298000D01*
X132522000Y-92898000D02*
X133774000Y-92898000D01*
X130810000Y-91186000D02*
X132522000Y-92898000D01*
X107471599Y-96201999D02*
X130745999Y-96201999D01*
X106455599Y-97217999D02*
X107471599Y-96201999D01*
X99822000Y-98298000D02*
X100902001Y-97217999D01*
X100902001Y-97217999D02*
X106455599Y-97217999D01*
X89015370Y-93218000D02*
X90539370Y-91694000D01*
X87884000Y-93218000D02*
X89015370Y-93218000D01*
X90539370Y-91694000D02*
X96774000Y-91694000D01*
X89154000Y-89408000D02*
X95758000Y-89408000D01*
X87884000Y-90678000D02*
X89154000Y-89408000D01*
X96082999Y-81858999D02*
X125980597Y-81858999D01*
X95758000Y-81534000D02*
X96082999Y-81858999D01*
X125980597Y-81858999D02*
X126671598Y-82550000D01*
X126671598Y-82550000D02*
X127762000Y-82550000D01*
D31*
X116840000Y-80518000D02*
X119380000Y-80518000D01*
X90170000Y-73865619D02*
X90218381Y-73914000D01*
X90170000Y-73406000D02*
X90170000Y-73865619D01*
X90218381Y-73914000D02*
X116840000Y-73914000D01*
X125992475Y-82479001D02*
X126825474Y-83312000D01*
X120580001Y-82804000D02*
X120905000Y-82479001D01*
X120905000Y-82479001D02*
X125992475Y-82479001D01*
X137330000Y-82042000D02*
X138430000Y-82042000D01*
X136060000Y-83312000D02*
X137330000Y-82042000D01*
X126825474Y-83312000D02*
X136060000Y-83312000D01*
D32*
X112014000Y-88138000D02*
X112014000Y-87884000D01*
D31*
X103124000Y-88138000D02*
X97710000Y-88138000D01*
X96369001Y-86797001D02*
X97710000Y-88138000D01*
X91256999Y-86797001D02*
X96369001Y-86797001D01*
X90932000Y-87122000D02*
X91256999Y-86797001D01*
D30*
X98232000Y-95438000D02*
X98298000Y-95504000D01*
X96242000Y-95438000D02*
X98232000Y-95438000D01*
X95922000Y-95758000D02*
X96242000Y-95438000D01*
X91440000Y-95758000D02*
X95922000Y-95758000D01*
D31*
X125476000Y-77724000D02*
X128524000Y-77724000D01*
X128524000Y-77724000D02*
X131572000Y-77724000D01*
X138938000Y-73406000D02*
X131572000Y-73406000D01*
D33*
X110364000Y-87884000D02*
X112014000Y-87884000D01*
X108840000Y-86360000D02*
X110364000Y-87884000D01*
X104902000Y-86360000D02*
X108840000Y-86360000D01*
X103124000Y-88138000D02*
X104902000Y-86360000D01*
X107696000Y-84074000D02*
X112776000Y-84074000D01*
X113538000Y-98552000D02*
X123698000Y-98552000D01*
D31*
X136906000Y-115570000D02*
X136144000Y-116332000D01*
X139446000Y-115570000D02*
X136906000Y-115570000D01*
X123698000Y-102870000D02*
X132080000Y-102870000D01*
D30*
X93242000Y-94488000D02*
X91440000Y-94488000D01*
D31*
X109977998Y-91694000D02*
X111247998Y-92964000D01*
X106680000Y-91694000D02*
X109977998Y-91694000D01*
X111247998Y-92964000D02*
X123444000Y-92964000D01*
D33*
X133944000Y-101940000D02*
X133945999Y-101938001D01*
X133944000Y-102936000D02*
X133944000Y-101940000D01*
X133945999Y-101938001D02*
X135019778Y-101938001D01*
X90576401Y-68427599D02*
X90576401Y-69189599D01*
X91440000Y-67564000D02*
X90576401Y-68427599D01*
X90576401Y-69189599D02*
X90170000Y-69596000D01*
X108265630Y-77724000D02*
X108519630Y-77470000D01*
X107188000Y-77724000D02*
X108265630Y-77724000D01*
X108519630Y-77470000D02*
X109728000Y-77470000D01*
D31*
X113284000Y-114554000D02*
X121158000Y-114554000D01*
X128199001Y-114229001D02*
X129540000Y-115570000D01*
X121482999Y-114229001D02*
X128199001Y-114229001D01*
X121158000Y-114554000D02*
X121482999Y-114229001D01*
X106110370Y-77724000D02*
X105664000Y-78170370D01*
X107188000Y-77724000D02*
X106110370Y-77724000D01*
X107188000Y-77724000D02*
X107188000Y-77978000D01*
D30*
X87884000Y-80518000D02*
X92456000Y-80518000D01*
X87884000Y-83058000D02*
X93218000Y-83058000D01*
X117346870Y-68580000D02*
X119634000Y-68580000D01*
X115187269Y-66420399D02*
X117346870Y-68580000D01*
X97916399Y-66420399D02*
X115187269Y-66420399D01*
X96520000Y-65024000D02*
X97916399Y-66420399D01*
X103124000Y-90678000D02*
X94996000Y-90678000D01*
X106242999Y-76637001D02*
X115753001Y-76637001D01*
X105918000Y-76962000D02*
X106242999Y-76637001D01*
X116242001Y-66966001D02*
X115163599Y-65887599D01*
X136531999Y-66966001D02*
X116242001Y-66966001D01*
X115163599Y-65887599D02*
X114300000Y-65024000D01*
X136652000Y-66846000D02*
X136531999Y-66966001D01*
X136652000Y-65786000D02*
X136652000Y-66846000D01*
X99060000Y-100838000D02*
X103124000Y-100838000D01*
X105664000Y-75946000D02*
X114300000Y-75946000D01*
X96242000Y-93538000D02*
X90424000Y-93538000D01*
X90424000Y-93538000D02*
X90358000Y-93538000D01*
X97606999Y-102291001D02*
X99060000Y-100838000D01*
X90099001Y-102291001D02*
X97606999Y-102291001D01*
X138636000Y-70104000D02*
X138938000Y-70406000D01*
X135128000Y-70104000D02*
X138636000Y-70104000D01*
X104740010Y-94834010D02*
X108296010Y-94834010D01*
X103124000Y-93218000D02*
X104740010Y-94834010D01*
X108296010Y-94834010D02*
X108712000Y-95250000D01*
X132080000Y-93472000D02*
X130810000Y-93472000D01*
X130810000Y-93472000D02*
X129032000Y-95250000D01*
X129032000Y-95250000D02*
X108712000Y-95250000D01*
X133604000Y-101092000D02*
X133858000Y-100838000D01*
X130810000Y-101092000D02*
X133604000Y-101092000D01*
X103642401Y-114997999D02*
X101410001Y-114997999D01*
X105484402Y-116840000D02*
X103642401Y-114997999D01*
X99568000Y-116840000D02*
X90170000Y-116840000D01*
X101410001Y-114997999D02*
X99568000Y-116840000D01*
X131572000Y-116840000D02*
X105484402Y-116840000D01*
X133878000Y-104902000D02*
X133944000Y-104836000D01*
X127508000Y-104902000D02*
X133878000Y-104902000D01*
X93944002Y-110998000D02*
X87884000Y-110998000D01*
X97810022Y-107131980D02*
X93944002Y-110998000D01*
X124173100Y-107131980D02*
X97810022Y-107131980D01*
X126403080Y-104902000D02*
X124173100Y-107131980D01*
X127508000Y-104902000D02*
X126403080Y-104902000D01*
X136144000Y-113030000D02*
X139446000Y-113030000D01*
X106306479Y-96857989D02*
X107406468Y-95758000D01*
X87884000Y-95758000D02*
X88983989Y-96857989D01*
X88983989Y-96857989D02*
X106306479Y-96857989D01*
X107406468Y-95758000D02*
X129540000Y-95758000D01*
X129540000Y-95758000D02*
X131082001Y-94215999D01*
X131082001Y-94215999D02*
X137649999Y-94215999D01*
X137649999Y-94215999D02*
X137668000Y-94234000D01*
X106060008Y-103825990D02*
X129225990Y-103825990D01*
X105427997Y-104458001D02*
X106060008Y-103825990D01*
X90095371Y-104458001D02*
X105427997Y-104458001D01*
X87884000Y-103378000D02*
X89015370Y-103378000D01*
X89015370Y-103378000D02*
X90095371Y-104458001D01*
X129312001Y-89635999D02*
X129225990Y-89722010D01*
X137440001Y-89635999D02*
X129312001Y-89635999D01*
X131064000Y-87884000D02*
X131318000Y-88138000D01*
X127762000Y-87884000D02*
X131064000Y-87884000D01*
D31*
X109252097Y-115762010D02*
X109568087Y-116078000D01*
X109568087Y-116078000D02*
X115824000Y-116078000D01*
X105348010Y-115762010D02*
X109252097Y-115762010D01*
X103124000Y-113538000D02*
X105348010Y-115762010D01*
D30*
X121920000Y-80518000D02*
X125730000Y-80518000D01*
X105226999Y-106750999D02*
X104902000Y-106426000D01*
X122913382Y-106750999D02*
X105226999Y-106750999D01*
X124000381Y-105664000D02*
X122913382Y-106750999D01*
X124460000Y-105664000D02*
X124000381Y-105664000D01*
D31*
X104394000Y-79248000D02*
X103124000Y-80518000D01*
X115639999Y-79248000D02*
X104394000Y-79248000D01*
D33*
X107188000Y-87884000D02*
X109220000Y-89916000D01*
X109220000Y-89916000D02*
X114808000Y-89916000D01*
X114300000Y-100330000D02*
X114808000Y-99822000D01*
X106964051Y-100330000D02*
X114300000Y-100330000D01*
X122428000Y-87884000D02*
X125222000Y-87884000D01*
X125142000Y-94154000D02*
X125222000Y-94234000D01*
X111680000Y-94154000D02*
X125142000Y-94154000D01*
X110490000Y-86106000D02*
X114554000Y-86106000D01*
D32*
X139228270Y-99568000D02*
X139446000Y-99568000D01*
X136144000Y-102652270D02*
X139228270Y-99568000D01*
X136144000Y-103886000D02*
X136144000Y-102652270D01*
X136586000Y-99888000D02*
X139446000Y-97028000D01*
X136058000Y-99888000D02*
X136586000Y-99888000D01*
X137988000Y-95946000D02*
X139446000Y-94488000D01*
X135974000Y-95946000D02*
X137988000Y-95946000D01*
X135974000Y-91948000D02*
X139446000Y-91948000D01*
D34*
X139446000Y-104841998D02*
X139446000Y-102108000D01*
X137701997Y-106586001D02*
X139446000Y-104841998D01*
X124724008Y-108461990D02*
X126599997Y-106586001D01*
X110232010Y-108461990D02*
X124724008Y-108461990D01*
X109982000Y-108712000D02*
X110232010Y-108461990D01*
X130302000Y-111760000D02*
X132842000Y-111760000D01*
X133604000Y-110998000D02*
X133604000Y-106586001D01*
X132842000Y-111760000D02*
X133604000Y-110998000D01*
X126599997Y-106586001D02*
X133604000Y-106586001D01*
X133604000Y-106586001D02*
X137701997Y-106586001D01*
X106934000Y-105156000D02*
X109474000Y-105156000D01*
X109474000Y-105156000D02*
X112014000Y-105156000D01*
X112014000Y-105156000D02*
X117094000Y-105156000D01*
D33*
X107696000Y-80518000D02*
X112776000Y-80518000D01*
X88392000Y-74676000D02*
X110236000Y-74676000D01*
X107534001Y-93472000D02*
X108550001Y-92456000D01*
X105964041Y-93472000D02*
X107534001Y-93472000D01*
D30*
X103124000Y-85598000D02*
X93980000Y-85598000D01*
D35*
G36*
X140978001Y-117102000D02*
X137038530Y-117102000D01*
X137141813Y-116998717D01*
X137321000Y-116566120D01*
X137321000Y-116097880D01*
X137320635Y-116097000D01*
X138211615Y-116097000D01*
X138211615Y-116420000D01*
X138240875Y-116567098D01*
X138324199Y-116691801D01*
X138448902Y-116775125D01*
X138596000Y-116804385D01*
X140296000Y-116804385D01*
X140443098Y-116775125D01*
X140567801Y-116691801D01*
X140651125Y-116567098D01*
X140680385Y-116420000D01*
X140680385Y-114720000D01*
X140651125Y-114572902D01*
X140567801Y-114448199D01*
X140443098Y-114364875D01*
X140296000Y-114335615D01*
X138596000Y-114335615D01*
X138448902Y-114364875D01*
X138324199Y-114448199D01*
X138240875Y-114572902D01*
X138211615Y-114720000D01*
X138211615Y-115043000D01*
X136957899Y-115043000D01*
X136906000Y-115032677D01*
X136854101Y-115043000D01*
X136854097Y-115043000D01*
X136732387Y-115067209D01*
X136700374Y-115073577D01*
X136570055Y-115160654D01*
X136570052Y-115160657D01*
X136526055Y-115190055D01*
X136512332Y-115210592D01*
X136378120Y-115155000D01*
X135909880Y-115155000D01*
X135477283Y-115334187D01*
X135146187Y-115665283D01*
X134967000Y-116097880D01*
X134967000Y-116566120D01*
X135146187Y-116998717D01*
X135249470Y-117102000D01*
X132223315Y-117102000D01*
X132274000Y-116979636D01*
X132274000Y-116700364D01*
X132167127Y-116442349D01*
X131969651Y-116244873D01*
X131711636Y-116138000D01*
X131432364Y-116138000D01*
X131174349Y-116244873D01*
X131036222Y-116383000D01*
X130937000Y-116383000D01*
X130937000Y-115925785D01*
X130986965Y-115786777D01*
X130959778Y-115216546D01*
X130937000Y-115161555D01*
X130937000Y-113792000D01*
X130927333Y-113743399D01*
X130899803Y-113702197D01*
X130858601Y-113674667D01*
X130810000Y-113665000D01*
X122555000Y-113665000D01*
X122555000Y-112116892D01*
X123780514Y-112116892D01*
X124026817Y-112641358D01*
X124455076Y-113031645D01*
X124865110Y-113201476D01*
X125095000Y-113080155D01*
X125095000Y-111887000D01*
X125349000Y-111887000D01*
X125349000Y-113080155D01*
X125578890Y-113201476D01*
X125988924Y-113031645D01*
X126417183Y-112641358D01*
X126492000Y-112482046D01*
X126566817Y-112641358D01*
X126995076Y-113031645D01*
X127405110Y-113201476D01*
X127635000Y-113080155D01*
X127635000Y-111887000D01*
X125349000Y-111887000D01*
X125095000Y-111887000D01*
X123901181Y-111887000D01*
X123780514Y-112116892D01*
X122555000Y-112116892D01*
X122555000Y-111750501D01*
X122564965Y-111722777D01*
X122555000Y-111513767D01*
X122555000Y-111403108D01*
X123780514Y-111403108D01*
X123901181Y-111633000D01*
X125095000Y-111633000D01*
X125095000Y-110439845D01*
X125349000Y-110439845D01*
X125349000Y-111633000D01*
X127635000Y-111633000D01*
X127635000Y-110439845D01*
X127405110Y-110318524D01*
X126995076Y-110488355D01*
X126566817Y-110878642D01*
X126492000Y-111037954D01*
X126417183Y-110878642D01*
X125988924Y-110488355D01*
X125578890Y-110318524D01*
X125349000Y-110439845D01*
X125095000Y-110439845D01*
X124865110Y-110318524D01*
X124455076Y-110488355D01*
X124026817Y-110878642D01*
X123780514Y-111403108D01*
X122555000Y-111403108D01*
X122555000Y-110236000D01*
X122545333Y-110187399D01*
X122517803Y-110146197D01*
X122476601Y-110118667D01*
X122428000Y-110109000D01*
X121473785Y-110109000D01*
X121334777Y-110059035D01*
X120764546Y-110086222D01*
X120709555Y-110109000D01*
X119888000Y-110109000D01*
X119839399Y-110118667D01*
X119798197Y-110146197D01*
X119770667Y-110187399D01*
X119761000Y-110236000D01*
X119761000Y-110540756D01*
X119689801Y-110434199D01*
X119565098Y-110350875D01*
X119418000Y-110321615D01*
X117818000Y-110321615D01*
X117670902Y-110350875D01*
X117546199Y-110434199D01*
X117462875Y-110558902D01*
X117433615Y-110706000D01*
X117433615Y-112306000D01*
X117462875Y-112453098D01*
X117546199Y-112577801D01*
X117670902Y-112661125D01*
X117818000Y-112690385D01*
X119418000Y-112690385D01*
X119565098Y-112661125D01*
X119689801Y-112577801D01*
X119761000Y-112471244D01*
X119761000Y-113919000D01*
X115831825Y-113919000D01*
X116151554Y-113516752D01*
X116317000Y-112939000D01*
X116317000Y-111839000D01*
X114909000Y-111839000D01*
X114909000Y-111859000D01*
X114655000Y-111859000D01*
X114655000Y-111839000D01*
X114635000Y-111839000D01*
X114635000Y-111585000D01*
X114655000Y-111585000D01*
X114655000Y-111565000D01*
X114909000Y-111565000D01*
X114909000Y-111585000D01*
X116317000Y-111585000D01*
X116317000Y-110485000D01*
X116151554Y-109907248D01*
X116137042Y-109888990D01*
X124583468Y-109888990D01*
X124724008Y-109916945D01*
X124864548Y-109888990D01*
X124864552Y-109888990D01*
X125280796Y-109806194D01*
X125752817Y-109490799D01*
X125832432Y-109371647D01*
X126338492Y-108865587D01*
X126399291Y-109171242D01*
X126659431Y-109560569D01*
X127048758Y-109820709D01*
X127392080Y-109889000D01*
X127623920Y-109889000D01*
X127967242Y-109820709D01*
X128118345Y-109719745D01*
X129981861Y-109719745D01*
X130055995Y-109965864D01*
X130593223Y-110158965D01*
X131163454Y-110131778D01*
X131564005Y-109965864D01*
X131638139Y-109719745D01*
X130810000Y-108891605D01*
X129981861Y-109719745D01*
X128118345Y-109719745D01*
X128356569Y-109560569D01*
X128616709Y-109171242D01*
X128708058Y-108712000D01*
X128616709Y-108252758D01*
X128456508Y-108013001D01*
X129536365Y-108013001D01*
X129363035Y-108495223D01*
X129390222Y-109065454D01*
X129556136Y-109466005D01*
X129802255Y-109540139D01*
X130630395Y-108712000D01*
X130616252Y-108697858D01*
X130795858Y-108518252D01*
X130810000Y-108532395D01*
X130824142Y-108518252D01*
X131003748Y-108697858D01*
X130989605Y-108712000D01*
X131817745Y-109540139D01*
X132063864Y-109466005D01*
X132177000Y-109151247D01*
X132177000Y-110333000D01*
X130161456Y-110333000D01*
X129745212Y-110415796D01*
X129273191Y-110731191D01*
X129046949Y-111069785D01*
X128957183Y-110878642D01*
X128528924Y-110488355D01*
X128118890Y-110318524D01*
X127889000Y-110439845D01*
X127889000Y-111633000D01*
X127909000Y-111633000D01*
X127909000Y-111887000D01*
X127889000Y-111887000D01*
X127889000Y-113080155D01*
X128118890Y-113201476D01*
X128528924Y-113031645D01*
X128957183Y-112641358D01*
X129046949Y-112450215D01*
X129273191Y-112788809D01*
X129745212Y-113104204D01*
X130161456Y-113187000D01*
X132701460Y-113187000D01*
X132842000Y-113214955D01*
X132982540Y-113187000D01*
X132982544Y-113187000D01*
X133398788Y-113104204D01*
X133563143Y-112994385D01*
X133692000Y-112994385D01*
X133839098Y-112965125D01*
X133950985Y-112890364D01*
X135442000Y-112890364D01*
X135442000Y-113169636D01*
X135548873Y-113427651D01*
X135746349Y-113625127D01*
X136004364Y-113732000D01*
X136283636Y-113732000D01*
X136541651Y-113625127D01*
X136679778Y-113487000D01*
X138285865Y-113487000D01*
X138290192Y-113508752D01*
X138561383Y-113914617D01*
X138967248Y-114185808D01*
X139325153Y-114257000D01*
X139566847Y-114257000D01*
X139924752Y-114185808D01*
X140330617Y-113914617D01*
X140601808Y-113508752D01*
X140697038Y-113030000D01*
X140601808Y-112551248D01*
X140330617Y-112145383D01*
X139924752Y-111874192D01*
X139566847Y-111803000D01*
X139325153Y-111803000D01*
X138967248Y-111874192D01*
X138561383Y-112145383D01*
X138290192Y-112551248D01*
X138285865Y-112573000D01*
X136679778Y-112573000D01*
X136541651Y-112434873D01*
X136283636Y-112328000D01*
X136004364Y-112328000D01*
X135746349Y-112434873D01*
X135548873Y-112632349D01*
X135442000Y-112890364D01*
X133950985Y-112890364D01*
X133963801Y-112881801D01*
X134047125Y-112757098D01*
X134076385Y-112610000D01*
X134076385Y-112543696D01*
X134513661Y-112106420D01*
X134632808Y-112026809D01*
X134753242Y-111846569D01*
X134948204Y-111554788D01*
X134948204Y-111554787D01*
X135031000Y-111138544D01*
X135031000Y-111138541D01*
X135058955Y-110998000D01*
X135031000Y-110857460D01*
X135031000Y-109149670D01*
X135035291Y-109171242D01*
X135295431Y-109560569D01*
X135684758Y-109820709D01*
X136028080Y-109889000D01*
X136259920Y-109889000D01*
X136603242Y-109820709D01*
X136992569Y-109560569D01*
X137252709Y-109171242D01*
X137344058Y-108712000D01*
X137252709Y-108252758D01*
X137092508Y-108013001D01*
X137561457Y-108013001D01*
X137701997Y-108040956D01*
X137842537Y-108013001D01*
X137842541Y-108013001D01*
X137961000Y-107989438D01*
X137961000Y-108077002D01*
X138125844Y-108077002D01*
X138004524Y-108306890D01*
X138174355Y-108716924D01*
X138564642Y-109145183D01*
X138967191Y-109334230D01*
X138561383Y-109605383D01*
X138290192Y-110011248D01*
X138194962Y-110490000D01*
X138290192Y-110968752D01*
X138561383Y-111374617D01*
X138967248Y-111645808D01*
X139325153Y-111717000D01*
X139566847Y-111717000D01*
X139924752Y-111645808D01*
X140330617Y-111374617D01*
X140601808Y-110968752D01*
X140697038Y-110490000D01*
X140601808Y-110011248D01*
X140330617Y-109605383D01*
X139924809Y-109334230D01*
X140327358Y-109145183D01*
X140717645Y-108716924D01*
X140887476Y-108306890D01*
X140766155Y-108077000D01*
X139573000Y-108077000D01*
X139573000Y-108097000D01*
X139319000Y-108097000D01*
X139319000Y-108077000D01*
X139299000Y-108077000D01*
X139299000Y-107823000D01*
X139319000Y-107823000D01*
X139319000Y-107803000D01*
X139573000Y-107803000D01*
X139573000Y-107823000D01*
X140766155Y-107823000D01*
X140887476Y-107593110D01*
X140717645Y-107183076D01*
X140327358Y-106754817D01*
X139802892Y-106508514D01*
X139791683Y-106514398D01*
X140355664Y-105950416D01*
X140474808Y-105870807D01*
X140554418Y-105751663D01*
X140554421Y-105751660D01*
X140724494Y-105497127D01*
X140790204Y-105398786D01*
X140873000Y-104982542D01*
X140873000Y-104982538D01*
X140900955Y-104841998D01*
X140873000Y-104701458D01*
X140873000Y-101967456D01*
X140790204Y-101551212D01*
X140474809Y-101079191D01*
X140002788Y-100763796D01*
X139863253Y-100736041D01*
X139924752Y-100723808D01*
X140330617Y-100452617D01*
X140601808Y-100046752D01*
X140697038Y-99568000D01*
X140601808Y-99089248D01*
X140330617Y-98683383D01*
X139924752Y-98412192D01*
X139641298Y-98355809D01*
X139785626Y-98211482D01*
X139924752Y-98183808D01*
X140330617Y-97912617D01*
X140601808Y-97506752D01*
X140697038Y-97028000D01*
X140601808Y-96549248D01*
X140330617Y-96143383D01*
X139924752Y-95872192D01*
X139641298Y-95815809D01*
X139785626Y-95671482D01*
X139924752Y-95643808D01*
X140330617Y-95372617D01*
X140601808Y-94966752D01*
X140697038Y-94488000D01*
X140601808Y-94009248D01*
X140330617Y-93603383D01*
X139924752Y-93332192D01*
X139566847Y-93261000D01*
X139325153Y-93261000D01*
X138967248Y-93332192D01*
X138561383Y-93603383D01*
X138317695Y-93968087D01*
X138263127Y-93836349D01*
X138065651Y-93638873D01*
X137807636Y-93532000D01*
X137528364Y-93532000D01*
X137270349Y-93638873D01*
X137150223Y-93758999D01*
X134591568Y-93758999D01*
X134621098Y-93753125D01*
X134745801Y-93669801D01*
X134829125Y-93545098D01*
X134858385Y-93398000D01*
X134858385Y-92398000D01*
X134829125Y-92250902D01*
X134745801Y-92126199D01*
X134696407Y-92093195D01*
X134833699Y-92036327D01*
X134883554Y-91986472D01*
X134889615Y-92016945D01*
X134889615Y-92448000D01*
X134918875Y-92595098D01*
X135002199Y-92719801D01*
X135126902Y-92803125D01*
X135274000Y-92832385D01*
X135359029Y-92832385D01*
X135553776Y-92962511D01*
X135867928Y-93025000D01*
X138294264Y-93025000D01*
X138324199Y-93069801D01*
X138448902Y-93153125D01*
X138596000Y-93182385D01*
X140296000Y-93182385D01*
X140443098Y-93153125D01*
X140567801Y-93069801D01*
X140651125Y-92945098D01*
X140680385Y-92798000D01*
X140680385Y-91098000D01*
X140651125Y-90950902D01*
X140567801Y-90826199D01*
X140443098Y-90742875D01*
X140296000Y-90713615D01*
X138596000Y-90713615D01*
X138448902Y-90742875D01*
X138324199Y-90826199D01*
X138294264Y-90871000D01*
X135867928Y-90871000D01*
X135553776Y-90933489D01*
X135359029Y-91063615D01*
X135274000Y-91063615D01*
X135126902Y-91092875D01*
X135002199Y-91176199D01*
X135001899Y-91176649D01*
X134950250Y-91125000D01*
X133901000Y-91125000D01*
X133901000Y-91145000D01*
X133647000Y-91145000D01*
X133647000Y-91125000D01*
X132597750Y-91125000D01*
X132439000Y-91283750D01*
X132439000Y-91624309D01*
X132535673Y-91857698D01*
X132714301Y-92036327D01*
X132851593Y-92093195D01*
X132802199Y-92126199D01*
X132718875Y-92250902D01*
X132689615Y-92398000D01*
X132689615Y-92419319D01*
X131917438Y-91647144D01*
X131918709Y-91645242D01*
X132010058Y-91186000D01*
X131918709Y-90726758D01*
X131658569Y-90337431D01*
X131292751Y-90092999D01*
X132580976Y-90092999D01*
X132535673Y-90138302D01*
X132439000Y-90371691D01*
X132439000Y-90712250D01*
X132597750Y-90871000D01*
X133647000Y-90871000D01*
X133647000Y-90851000D01*
X133901000Y-90851000D01*
X133901000Y-90871000D01*
X134950250Y-90871000D01*
X135109000Y-90712250D01*
X135109000Y-90371691D01*
X135012327Y-90138302D01*
X134967024Y-90092999D01*
X136904223Y-90092999D01*
X137042350Y-90231126D01*
X137300365Y-90337999D01*
X137579637Y-90337999D01*
X137837652Y-90231126D01*
X138035128Y-90033650D01*
X138142001Y-89775635D01*
X138142001Y-89496363D01*
X138035128Y-89238348D01*
X137837652Y-89040872D01*
X137579637Y-88933999D01*
X137300365Y-88933999D01*
X137150864Y-88995924D01*
X137363597Y-88783191D01*
X137537000Y-88364561D01*
X137537000Y-87911439D01*
X137799000Y-87911439D01*
X137799000Y-88364561D01*
X137972403Y-88783191D01*
X138292809Y-89103597D01*
X138711439Y-89277000D01*
X139164561Y-89277000D01*
X139583191Y-89103597D01*
X139903597Y-88783191D01*
X140077000Y-88364561D01*
X140077000Y-87911439D01*
X139903597Y-87492809D01*
X139583191Y-87172403D01*
X139164561Y-86999000D01*
X138711439Y-86999000D01*
X138292809Y-87172403D01*
X137972403Y-87492809D01*
X137799000Y-87911439D01*
X137537000Y-87911439D01*
X137363597Y-87492809D01*
X137043191Y-87172403D01*
X136624561Y-86999000D01*
X136171439Y-86999000D01*
X135752809Y-87172403D01*
X135432403Y-87492809D01*
X135259000Y-87911439D01*
X135259000Y-88364561D01*
X135432403Y-88783191D01*
X135752809Y-89103597D01*
X135934845Y-89178999D01*
X134321155Y-89178999D01*
X134503191Y-89103597D01*
X134823597Y-88783191D01*
X134997000Y-88364561D01*
X134997000Y-87911439D01*
X134823597Y-87492809D01*
X134503191Y-87172403D01*
X134084561Y-86999000D01*
X133631439Y-86999000D01*
X133212809Y-87172403D01*
X132892403Y-87492809D01*
X132719000Y-87911439D01*
X132719000Y-88364561D01*
X132892403Y-88783191D01*
X133212809Y-89103597D01*
X133394845Y-89178999D01*
X131781155Y-89178999D01*
X131963191Y-89103597D01*
X132283597Y-88783191D01*
X132457000Y-88364561D01*
X132457000Y-87911439D01*
X132283597Y-87492809D01*
X131963191Y-87172403D01*
X131544561Y-86999000D01*
X131091439Y-86999000D01*
X130672809Y-87172403D01*
X130418212Y-87427000D01*
X128922135Y-87427000D01*
X128917808Y-87405248D01*
X128646617Y-86999383D01*
X128240752Y-86728192D01*
X127882847Y-86657000D01*
X127641153Y-86657000D01*
X127283248Y-86728192D01*
X126877383Y-86999383D01*
X126606192Y-87405248D01*
X126510962Y-87884000D01*
X126606192Y-88362752D01*
X126877383Y-88768617D01*
X127283248Y-89039808D01*
X127641153Y-89111000D01*
X127882847Y-89111000D01*
X128240752Y-89039808D01*
X128646617Y-88768617D01*
X128917808Y-88362752D01*
X128922135Y-88341000D01*
X130179000Y-88341000D01*
X130179000Y-88364561D01*
X130352403Y-88783191D01*
X130672809Y-89103597D01*
X130854845Y-89178999D01*
X129675757Y-89178999D01*
X129623641Y-89126883D01*
X129365626Y-89020010D01*
X129086354Y-89020010D01*
X128828339Y-89126883D01*
X128630863Y-89324359D01*
X128523990Y-89582374D01*
X128523990Y-89861646D01*
X128630863Y-90119661D01*
X128828339Y-90317137D01*
X129086354Y-90424010D01*
X129365626Y-90424010D01*
X129623641Y-90317137D01*
X129821117Y-90119661D01*
X129832161Y-90092999D01*
X130327249Y-90092999D01*
X129961431Y-90337431D01*
X129701291Y-90726758D01*
X129609942Y-91186000D01*
X129701291Y-91645242D01*
X129961431Y-92034569D01*
X130350758Y-92294709D01*
X130694080Y-92363000D01*
X130925920Y-92363000D01*
X131269242Y-92294709D01*
X131271144Y-92293438D01*
X131804133Y-92826429D01*
X131682349Y-92876873D01*
X131544222Y-93015000D01*
X130855008Y-93015000D01*
X130810000Y-93006047D01*
X130764992Y-93015000D01*
X130764991Y-93015000D01*
X130631688Y-93041516D01*
X130480521Y-93142521D01*
X130455025Y-93180679D01*
X128842706Y-94793000D01*
X125782977Y-94793000D01*
X125953917Y-94537170D01*
X126014222Y-94233999D01*
X125953917Y-93930830D01*
X125825533Y-93738691D01*
X125745539Y-93658697D01*
X125702186Y-93593814D01*
X125445170Y-93422082D01*
X125218526Y-93377000D01*
X125218525Y-93377000D01*
X125142000Y-93361778D01*
X125065475Y-93377000D01*
X124079000Y-93377000D01*
X124079000Y-92193745D01*
X126679861Y-92193745D01*
X126753995Y-92439864D01*
X127291223Y-92632965D01*
X127861454Y-92605778D01*
X128262005Y-92439864D01*
X128336139Y-92193745D01*
X127508000Y-91365605D01*
X126679861Y-92193745D01*
X124079000Y-92193745D01*
X124079000Y-90969223D01*
X126061035Y-90969223D01*
X126088222Y-91539454D01*
X126254136Y-91940005D01*
X126500255Y-92014139D01*
X127328395Y-91186000D01*
X127687605Y-91186000D01*
X128515745Y-92014139D01*
X128761864Y-91940005D01*
X128954965Y-91402777D01*
X128927778Y-90832546D01*
X128761864Y-90431995D01*
X128515745Y-90357861D01*
X127687605Y-91186000D01*
X127328395Y-91186000D01*
X126500255Y-90357861D01*
X126254136Y-90431995D01*
X126061035Y-90969223D01*
X124079000Y-90969223D01*
X124079000Y-90178255D01*
X126679861Y-90178255D01*
X127508000Y-91006395D01*
X128336139Y-90178255D01*
X128262005Y-89932136D01*
X127724777Y-89739035D01*
X127154546Y-89766222D01*
X126753995Y-89932136D01*
X126679861Y-90178255D01*
X124079000Y-90178255D01*
X124079000Y-88661000D01*
X125298526Y-88661000D01*
X125525170Y-88615918D01*
X125782186Y-88444186D01*
X125953918Y-88187170D01*
X126014222Y-87884000D01*
X125953918Y-87580830D01*
X125782186Y-87323814D01*
X125525170Y-87152082D01*
X125298526Y-87107000D01*
X124079000Y-87107000D01*
X124079000Y-84494000D01*
X126527615Y-84494000D01*
X126527615Y-86194000D01*
X126556875Y-86341098D01*
X126640199Y-86465801D01*
X126764902Y-86549125D01*
X126912000Y-86578385D01*
X128612000Y-86578385D01*
X128759098Y-86549125D01*
X128883801Y-86465801D01*
X128967125Y-86341098D01*
X128996385Y-86194000D01*
X128996385Y-85371439D01*
X130179000Y-85371439D01*
X130179000Y-85824561D01*
X130352403Y-86243191D01*
X130672809Y-86563597D01*
X131091439Y-86737000D01*
X131544561Y-86737000D01*
X131963191Y-86563597D01*
X132283597Y-86243191D01*
X132457000Y-85824561D01*
X132457000Y-85371439D01*
X132719000Y-85371439D01*
X132719000Y-85824561D01*
X132892403Y-86243191D01*
X133212809Y-86563597D01*
X133631439Y-86737000D01*
X134084561Y-86737000D01*
X134503191Y-86563597D01*
X134823597Y-86243191D01*
X134997000Y-85824561D01*
X134997000Y-85371439D01*
X135259000Y-85371439D01*
X135259000Y-85824561D01*
X135432403Y-86243191D01*
X135752809Y-86563597D01*
X136171439Y-86737000D01*
X136624561Y-86737000D01*
X137043191Y-86563597D01*
X137363597Y-86243191D01*
X137512483Y-85883750D01*
X137541000Y-85883750D01*
X137541000Y-86486309D01*
X137637673Y-86719698D01*
X137816301Y-86898327D01*
X138049690Y-86995000D01*
X138652250Y-86995000D01*
X138811000Y-86836250D01*
X138811000Y-85725000D01*
X139065000Y-85725000D01*
X139065000Y-86836250D01*
X139223750Y-86995000D01*
X139826310Y-86995000D01*
X140059699Y-86898327D01*
X140238327Y-86719698D01*
X140335000Y-86486309D01*
X140335000Y-85883750D01*
X140176250Y-85725000D01*
X139065000Y-85725000D01*
X138811000Y-85725000D01*
X137699750Y-85725000D01*
X137541000Y-85883750D01*
X137512483Y-85883750D01*
X137537000Y-85824561D01*
X137537000Y-85371439D01*
X137363597Y-84952809D01*
X137120479Y-84709691D01*
X137541000Y-84709691D01*
X137541000Y-85312250D01*
X137699750Y-85471000D01*
X138811000Y-85471000D01*
X138811000Y-84359750D01*
X139065000Y-84359750D01*
X139065000Y-85471000D01*
X140176250Y-85471000D01*
X140335000Y-85312250D01*
X140335000Y-84709691D01*
X140238327Y-84476302D01*
X140059699Y-84297673D01*
X139826310Y-84201000D01*
X139223750Y-84201000D01*
X139065000Y-84359750D01*
X138811000Y-84359750D01*
X138652250Y-84201000D01*
X138049690Y-84201000D01*
X137816301Y-84297673D01*
X137637673Y-84476302D01*
X137541000Y-84709691D01*
X137120479Y-84709691D01*
X137043191Y-84632403D01*
X136624561Y-84459000D01*
X136171439Y-84459000D01*
X135752809Y-84632403D01*
X135432403Y-84952809D01*
X135259000Y-85371439D01*
X134997000Y-85371439D01*
X134823597Y-84952809D01*
X134503191Y-84632403D01*
X134084561Y-84459000D01*
X133631439Y-84459000D01*
X133212809Y-84632403D01*
X132892403Y-84952809D01*
X132719000Y-85371439D01*
X132457000Y-85371439D01*
X132283597Y-84952809D01*
X131963191Y-84632403D01*
X131544561Y-84459000D01*
X131091439Y-84459000D01*
X130672809Y-84632403D01*
X130352403Y-84952809D01*
X130179000Y-85371439D01*
X128996385Y-85371439D01*
X128996385Y-84494000D01*
X128967125Y-84346902D01*
X128883801Y-84222199D01*
X128759098Y-84138875D01*
X128612000Y-84109615D01*
X126912000Y-84109615D01*
X126764902Y-84138875D01*
X126640199Y-84222199D01*
X126556875Y-84346902D01*
X126527615Y-84494000D01*
X124079000Y-84494000D01*
X124079000Y-83006001D01*
X125774185Y-83006001D01*
X126416129Y-83647945D01*
X126445529Y-83691945D01*
X126619849Y-83808423D01*
X126773571Y-83839000D01*
X126773575Y-83839000D01*
X126825473Y-83849323D01*
X126877371Y-83839000D01*
X136008102Y-83839000D01*
X136060000Y-83849323D01*
X136111898Y-83839000D01*
X136111903Y-83839000D01*
X136265625Y-83808423D01*
X136439945Y-83691945D01*
X136469345Y-83647945D01*
X137250539Y-82866752D01*
X137274875Y-82989098D01*
X137358199Y-83113801D01*
X137482902Y-83197125D01*
X137630000Y-83226385D01*
X139230000Y-83226385D01*
X139377098Y-83197125D01*
X139501801Y-83113801D01*
X139585125Y-82989098D01*
X139614385Y-82842000D01*
X139614385Y-81242000D01*
X139585125Y-81094902D01*
X139528091Y-81009545D01*
X139552622Y-80985014D01*
X139437747Y-80870139D01*
X139683864Y-80796005D01*
X139876965Y-80258777D01*
X139849778Y-79688546D01*
X139683864Y-79287995D01*
X139437745Y-79213861D01*
X138609605Y-80042000D01*
X138623748Y-80056142D01*
X138444142Y-80235748D01*
X138430000Y-80221605D01*
X138415858Y-80235748D01*
X138236252Y-80056142D01*
X138250395Y-80042000D01*
X137422255Y-79213861D01*
X137176136Y-79287995D01*
X136983035Y-79825223D01*
X137010222Y-80395454D01*
X137176136Y-80796005D01*
X137422253Y-80870139D01*
X137307378Y-80985014D01*
X137331909Y-81009545D01*
X137274875Y-81094902D01*
X137245615Y-81242000D01*
X137245615Y-81521461D01*
X137124375Y-81545577D01*
X137124373Y-81545578D01*
X137124374Y-81545578D01*
X136994055Y-81632654D01*
X136994052Y-81632657D01*
X136950055Y-81662055D01*
X136920656Y-81706053D01*
X135841710Y-82785000D01*
X128424499Y-82785000D01*
X128464000Y-82689636D01*
X128464000Y-82410364D01*
X128357127Y-82152349D01*
X128242274Y-82037496D01*
X128253864Y-82034005D01*
X128446965Y-81496777D01*
X128425468Y-81045880D01*
X130823000Y-81045880D01*
X130823000Y-81514120D01*
X131002187Y-81946717D01*
X131333283Y-82277813D01*
X131765880Y-82457000D01*
X132234120Y-82457000D01*
X132666717Y-82277813D01*
X132997813Y-81946717D01*
X133177000Y-81514120D01*
X133177000Y-81045880D01*
X132997813Y-80613283D01*
X132666717Y-80282187D01*
X132234120Y-80103000D01*
X131765880Y-80103000D01*
X131333283Y-80282187D01*
X131002187Y-80613283D01*
X130823000Y-81045880D01*
X128425468Y-81045880D01*
X128419778Y-80926546D01*
X128253864Y-80525995D01*
X128007745Y-80451861D01*
X127179605Y-81280000D01*
X127193748Y-81294142D01*
X127014142Y-81473748D01*
X127000000Y-81459605D01*
X126985858Y-81473748D01*
X126806252Y-81294142D01*
X126820395Y-81280000D01*
X126806252Y-81265858D01*
X126985858Y-81086252D01*
X127000000Y-81100395D01*
X127828139Y-80272255D01*
X127754005Y-80026136D01*
X127216777Y-79833035D01*
X126646546Y-79860222D01*
X126245995Y-80026136D01*
X126242504Y-80037726D01*
X126127651Y-79922873D01*
X125869636Y-79816000D01*
X125590364Y-79816000D01*
X125332349Y-79922873D01*
X125194222Y-80061000D01*
X124079000Y-80061000D01*
X124079000Y-79705000D01*
X135844992Y-79705000D01*
X135890000Y-79713953D01*
X135935008Y-79705000D01*
X135935009Y-79705000D01*
X136068312Y-79678484D01*
X136219479Y-79577479D01*
X136244979Y-79539315D01*
X136750039Y-79034255D01*
X137601861Y-79034255D01*
X138430000Y-79862395D01*
X139258139Y-79034255D01*
X139184005Y-78788136D01*
X138646777Y-78595035D01*
X138076546Y-78622222D01*
X137675995Y-78788136D01*
X137601861Y-79034255D01*
X136750039Y-79034255D01*
X136850295Y-78934000D01*
X137045636Y-78934000D01*
X137303651Y-78827127D01*
X137501127Y-78629651D01*
X137608000Y-78371636D01*
X137608000Y-78092364D01*
X137501127Y-77834349D01*
X137303651Y-77636873D01*
X137045636Y-77530000D01*
X136766364Y-77530000D01*
X136563000Y-77614236D01*
X136563000Y-77596998D01*
X136398630Y-77596998D01*
X136519914Y-77374959D01*
X136280389Y-76868866D01*
X135865423Y-76492959D01*
X135477039Y-76332096D01*
X135255000Y-76454085D01*
X135255000Y-77597000D01*
X135275000Y-77597000D01*
X135275000Y-77851000D01*
X135255000Y-77851000D01*
X135255000Y-77871000D01*
X135001000Y-77871000D01*
X135001000Y-77851000D01*
X133857371Y-77851000D01*
X133736086Y-78073041D01*
X133975611Y-78579134D01*
X134209491Y-78791000D01*
X132093664Y-78791000D01*
X132420569Y-78572569D01*
X132680709Y-78183242D01*
X132772058Y-77724000D01*
X132702630Y-77374959D01*
X133736086Y-77374959D01*
X133857371Y-77597000D01*
X135001000Y-77597000D01*
X135001000Y-76454085D01*
X134778961Y-76332096D01*
X134390577Y-76492959D01*
X133975611Y-76868866D01*
X133736086Y-77374959D01*
X132702630Y-77374959D01*
X132680709Y-77264758D01*
X132420569Y-76875431D01*
X132031242Y-76615291D01*
X131687920Y-76547000D01*
X131456080Y-76547000D01*
X131112758Y-76615291D01*
X130723431Y-76875431D01*
X130508565Y-77197000D01*
X129587435Y-77197000D01*
X129372569Y-76875431D01*
X128983242Y-76615291D01*
X128639920Y-76547000D01*
X128408080Y-76547000D01*
X128064758Y-76615291D01*
X127675431Y-76875431D01*
X127460565Y-77197000D01*
X126539435Y-77197000D01*
X126324569Y-76875431D01*
X125935242Y-76615291D01*
X125591920Y-76547000D01*
X125360080Y-76547000D01*
X125016758Y-76615291D01*
X124627431Y-76875431D01*
X124367291Y-77264758D01*
X124275942Y-77724000D01*
X124367291Y-78183242D01*
X124627431Y-78572569D01*
X124954336Y-78791000D01*
X123825000Y-78791000D01*
X123825000Y-77965737D01*
X123837144Y-77931698D01*
X123825000Y-77689069D01*
X123825000Y-76454000D01*
X123815333Y-76405399D01*
X123787803Y-76364197D01*
X123746601Y-76336667D01*
X123698000Y-76327000D01*
X122669737Y-76327000D01*
X122635698Y-76314856D01*
X122393069Y-76327000D01*
X121412000Y-76327000D01*
X121363399Y-76336667D01*
X121322197Y-76364197D01*
X121294667Y-76405399D01*
X121285000Y-76454000D01*
X121285000Y-76970084D01*
X121205603Y-76992857D01*
X121018856Y-77516302D01*
X121044517Y-78029000D01*
X112295778Y-78029000D01*
X112157651Y-77890873D01*
X111899636Y-77784000D01*
X111620364Y-77784000D01*
X111362349Y-77890873D01*
X111224222Y-78029000D01*
X108562430Y-78029000D01*
X108597144Y-77931698D01*
X108569362Y-77376632D01*
X108452292Y-77094001D01*
X115217223Y-77094001D01*
X115355350Y-77232128D01*
X115613365Y-77339001D01*
X115892637Y-77339001D01*
X116150652Y-77232128D01*
X116348128Y-77034652D01*
X116455001Y-76776637D01*
X116455001Y-76497365D01*
X116348128Y-76239350D01*
X116150652Y-76041874D01*
X115892637Y-75935001D01*
X115613365Y-75935001D01*
X115355350Y-76041874D01*
X115217223Y-76180001D01*
X114962913Y-76180001D01*
X115002000Y-76085636D01*
X115002000Y-75806364D01*
X114895127Y-75548349D01*
X114697651Y-75350873D01*
X114439636Y-75244000D01*
X114160364Y-75244000D01*
X113902349Y-75350873D01*
X113764222Y-75489000D01*
X106199778Y-75489000D01*
X106163778Y-75453000D01*
X110312526Y-75453000D01*
X110539170Y-75407918D01*
X110796186Y-75236186D01*
X110967918Y-74979170D01*
X111028222Y-74676000D01*
X110981478Y-74441000D01*
X116374222Y-74441000D01*
X116442349Y-74509127D01*
X116700364Y-74616000D01*
X116979636Y-74616000D01*
X117237651Y-74509127D01*
X117435127Y-74311651D01*
X117542000Y-74053636D01*
X117542000Y-73774364D01*
X117435127Y-73516349D01*
X117237651Y-73318873D01*
X117181262Y-73295516D01*
X117371126Y-73105652D01*
X117477999Y-72847637D01*
X117477999Y-72568365D01*
X117371126Y-72310350D01*
X117173650Y-72112874D01*
X116915635Y-72006001D01*
X116636363Y-72006001D01*
X116378348Y-72112874D01*
X116180872Y-72310350D01*
X116073999Y-72568365D01*
X116073999Y-72763705D01*
X115888705Y-72949000D01*
X110708385Y-72949000D01*
X110708385Y-71323000D01*
X112240222Y-71323000D01*
X112378349Y-71461127D01*
X112636364Y-71568000D01*
X112915636Y-71568000D01*
X113173651Y-71461127D01*
X113311778Y-71323000D01*
X120566707Y-71323000D01*
X120668706Y-71425000D01*
X120306478Y-71425000D01*
X119671733Y-71687920D01*
X119185920Y-72173733D01*
X118923000Y-72808478D01*
X118923000Y-73495522D01*
X119185920Y-74130267D01*
X119671733Y-74616080D01*
X120306478Y-74879000D01*
X120993522Y-74879000D01*
X121628267Y-74616080D01*
X122114080Y-74130267D01*
X122377000Y-73495522D01*
X122377000Y-72847000D01*
X131138222Y-72847000D01*
X130976873Y-73008349D01*
X130870000Y-73266364D01*
X130870000Y-73545636D01*
X130976873Y-73803651D01*
X131174349Y-74001127D01*
X131432364Y-74108000D01*
X131711636Y-74108000D01*
X131969651Y-74001127D01*
X132037778Y-73933000D01*
X137882314Y-73933000D01*
X137940187Y-74072717D01*
X138271283Y-74403813D01*
X138703880Y-74583000D01*
X139172120Y-74583000D01*
X139604717Y-74403813D01*
X139935813Y-74072717D01*
X140115000Y-73640120D01*
X140115000Y-73171880D01*
X139935813Y-72739283D01*
X139604717Y-72408187D01*
X139172120Y-72229000D01*
X138703880Y-72229000D01*
X138271283Y-72408187D01*
X137940187Y-72739283D01*
X137882314Y-72879000D01*
X135377778Y-72879000D01*
X135469127Y-72787651D01*
X135576000Y-72529636D01*
X135576000Y-72250364D01*
X135469127Y-71992349D01*
X135271651Y-71794873D01*
X135013636Y-71688000D01*
X134734364Y-71688000D01*
X134476349Y-71794873D01*
X134338222Y-71933000D01*
X131152013Y-71933000D01*
X131193999Y-71831637D01*
X131193999Y-71552365D01*
X131087126Y-71294350D01*
X130889650Y-71096874D01*
X130631635Y-70990001D01*
X130352363Y-70990001D01*
X130094348Y-71096874D01*
X129956221Y-71235001D01*
X128869172Y-71235001D01*
X129190717Y-71101813D01*
X129521813Y-70770717D01*
X129701000Y-70338120D01*
X129701000Y-69869880D01*
X129521813Y-69437283D01*
X129190717Y-69106187D01*
X129023684Y-69037000D01*
X131072316Y-69037000D01*
X130905283Y-69106187D01*
X130574187Y-69437283D01*
X130395000Y-69869880D01*
X130395000Y-70338120D01*
X130574187Y-70770717D01*
X130905283Y-71101813D01*
X131337880Y-71281000D01*
X131806120Y-71281000D01*
X132238717Y-71101813D01*
X132569813Y-70770717D01*
X132749000Y-70338120D01*
X132749000Y-69869880D01*
X132569813Y-69437283D01*
X132238717Y-69106187D01*
X132071684Y-69037000D01*
X134628316Y-69037000D01*
X134461283Y-69106187D01*
X134130187Y-69437283D01*
X133951000Y-69869880D01*
X133951000Y-70338120D01*
X134130187Y-70770717D01*
X134461283Y-71101813D01*
X134893880Y-71281000D01*
X135362120Y-71281000D01*
X135794717Y-71101813D01*
X136125813Y-70770717D01*
X136212680Y-70561000D01*
X137761000Y-70561000D01*
X137761000Y-70640120D01*
X137940187Y-71072717D01*
X138271283Y-71403813D01*
X138703880Y-71583000D01*
X139172120Y-71583000D01*
X139604717Y-71403813D01*
X139935813Y-71072717D01*
X140115000Y-70640120D01*
X140115000Y-70171880D01*
X139935813Y-69739283D01*
X139604717Y-69408187D01*
X139172120Y-69229000D01*
X138703880Y-69229000D01*
X138271283Y-69408187D01*
X138032470Y-69647000D01*
X136212680Y-69647000D01*
X136125813Y-69437283D01*
X136010607Y-69322077D01*
X136068365Y-69346001D01*
X136347637Y-69346001D01*
X136605652Y-69239128D01*
X136803128Y-69041652D01*
X136910001Y-68783637D01*
X136910001Y-68504365D01*
X136803128Y-68246350D01*
X136605652Y-68048874D01*
X136347637Y-67942001D01*
X136068365Y-67942001D01*
X135810350Y-68048874D01*
X135736224Y-68123000D01*
X125446605Y-68123000D01*
X125401597Y-68114047D01*
X125356589Y-68123000D01*
X125223286Y-68149516D01*
X125072119Y-68250521D01*
X125046621Y-68288682D01*
X124132303Y-69203001D01*
X120649921Y-69203001D01*
X120811000Y-68814120D01*
X120811000Y-68345880D01*
X120631813Y-67913283D01*
X120300717Y-67582187D01*
X119916407Y-67423001D01*
X136486991Y-67423001D01*
X136531999Y-67431954D01*
X136577007Y-67423001D01*
X136577008Y-67423001D01*
X136710311Y-67396485D01*
X136861478Y-67295480D01*
X136886978Y-67257316D01*
X136943315Y-67200979D01*
X136981479Y-67175479D01*
X137051699Y-67070385D01*
X137552000Y-67070385D01*
X137699098Y-67041125D01*
X137823801Y-66957801D01*
X137907125Y-66833098D01*
X137936385Y-66686000D01*
X137936385Y-66091639D01*
X138109412Y-66509362D01*
X138468638Y-66868588D01*
X138937989Y-67063000D01*
X139446011Y-67063000D01*
X139915362Y-66868588D01*
X140274588Y-66509362D01*
X140469000Y-66040011D01*
X140469000Y-65531989D01*
X140274588Y-65062638D01*
X139915362Y-64703412D01*
X139446011Y-64509000D01*
X138937989Y-64509000D01*
X138468638Y-64703412D01*
X138109412Y-65062638D01*
X137936385Y-65480361D01*
X137936385Y-64886000D01*
X137907125Y-64738902D01*
X137823801Y-64614199D01*
X137699098Y-64530875D01*
X137552000Y-64501615D01*
X135752000Y-64501615D01*
X135604902Y-64530875D01*
X135480199Y-64614199D01*
X135396875Y-64738902D01*
X135367615Y-64886000D01*
X135367615Y-66509001D01*
X133670738Y-66509001D01*
X133865000Y-66040011D01*
X133865000Y-65531989D01*
X133670588Y-65062638D01*
X133311362Y-64703412D01*
X132842011Y-64509000D01*
X132333989Y-64509000D01*
X131864638Y-64703412D01*
X131505412Y-65062638D01*
X131332385Y-65480361D01*
X131332385Y-64886000D01*
X131303125Y-64738902D01*
X131219801Y-64614199D01*
X131095098Y-64530875D01*
X130948000Y-64501615D01*
X129148000Y-64501615D01*
X129000902Y-64530875D01*
X128876199Y-64614199D01*
X128792875Y-64738902D01*
X128763615Y-64886000D01*
X128763615Y-64915320D01*
X128162978Y-64314684D01*
X128137478Y-64276520D01*
X127986311Y-64175515D01*
X127853008Y-64148999D01*
X127853007Y-64148999D01*
X127807999Y-64140046D01*
X127762991Y-64148999D01*
X120672289Y-64148999D01*
X120811000Y-63814120D01*
X120811000Y-63345880D01*
X120631813Y-62913283D01*
X120584530Y-62866000D01*
X140978000Y-62866000D01*
X140978001Y-117102000D01*
X140978001Y-117102000D01*
G37*
X140978001Y-117102000D02*
X137038530Y-117102000D01*
X137141813Y-116998717D01*
X137321000Y-116566120D01*
X137321000Y-116097880D01*
X137320635Y-116097000D01*
X138211615Y-116097000D01*
X138211615Y-116420000D01*
X138240875Y-116567098D01*
X138324199Y-116691801D01*
X138448902Y-116775125D01*
X138596000Y-116804385D01*
X140296000Y-116804385D01*
X140443098Y-116775125D01*
X140567801Y-116691801D01*
X140651125Y-116567098D01*
X140680385Y-116420000D01*
X140680385Y-114720000D01*
X140651125Y-114572902D01*
X140567801Y-114448199D01*
X140443098Y-114364875D01*
X140296000Y-114335615D01*
X138596000Y-114335615D01*
X138448902Y-114364875D01*
X138324199Y-114448199D01*
X138240875Y-114572902D01*
X138211615Y-114720000D01*
X138211615Y-115043000D01*
X136957899Y-115043000D01*
X136906000Y-115032677D01*
X136854101Y-115043000D01*
X136854097Y-115043000D01*
X136732387Y-115067209D01*
X136700374Y-115073577D01*
X136570055Y-115160654D01*
X136570052Y-115160657D01*
X136526055Y-115190055D01*
X136512332Y-115210592D01*
X136378120Y-115155000D01*
X135909880Y-115155000D01*
X135477283Y-115334187D01*
X135146187Y-115665283D01*
X134967000Y-116097880D01*
X134967000Y-116566120D01*
X135146187Y-116998717D01*
X135249470Y-117102000D01*
X132223315Y-117102000D01*
X132274000Y-116979636D01*
X132274000Y-116700364D01*
X132167127Y-116442349D01*
X131969651Y-116244873D01*
X131711636Y-116138000D01*
X131432364Y-116138000D01*
X131174349Y-116244873D01*
X131036222Y-116383000D01*
X130937000Y-116383000D01*
X130937000Y-115925785D01*
X130986965Y-115786777D01*
X130959778Y-115216546D01*
X130937000Y-115161555D01*
X130937000Y-113792000D01*
X130927333Y-113743399D01*
X130899803Y-113702197D01*
X130858601Y-113674667D01*
X130810000Y-113665000D01*
X122555000Y-113665000D01*
X122555000Y-112116892D01*
X123780514Y-112116892D01*
X124026817Y-112641358D01*
X124455076Y-113031645D01*
X124865110Y-113201476D01*
X125095000Y-113080155D01*
X125095000Y-111887000D01*
X125349000Y-111887000D01*
X125349000Y-113080155D01*
X125578890Y-113201476D01*
X125988924Y-113031645D01*
X126417183Y-112641358D01*
X126492000Y-112482046D01*
X126566817Y-112641358D01*
X126995076Y-113031645D01*
X127405110Y-113201476D01*
X127635000Y-113080155D01*
X127635000Y-111887000D01*
X125349000Y-111887000D01*
X125095000Y-111887000D01*
X123901181Y-111887000D01*
X123780514Y-112116892D01*
X122555000Y-112116892D01*
X122555000Y-111750501D01*
X122564965Y-111722777D01*
X122555000Y-111513767D01*
X122555000Y-111403108D01*
X123780514Y-111403108D01*
X123901181Y-111633000D01*
X125095000Y-111633000D01*
X125095000Y-110439845D01*
X125349000Y-110439845D01*
X125349000Y-111633000D01*
X127635000Y-111633000D01*
X127635000Y-110439845D01*
X127405110Y-110318524D01*
X126995076Y-110488355D01*
X126566817Y-110878642D01*
X126492000Y-111037954D01*
X126417183Y-110878642D01*
X125988924Y-110488355D01*
X125578890Y-110318524D01*
X125349000Y-110439845D01*
X125095000Y-110439845D01*
X124865110Y-110318524D01*
X124455076Y-110488355D01*
X124026817Y-110878642D01*
X123780514Y-111403108D01*
X122555000Y-111403108D01*
X122555000Y-110236000D01*
X122545333Y-110187399D01*
X122517803Y-110146197D01*
X122476601Y-110118667D01*
X122428000Y-110109000D01*
X121473785Y-110109000D01*
X121334777Y-110059035D01*
X120764546Y-110086222D01*
X120709555Y-110109000D01*
X119888000Y-110109000D01*
X119839399Y-110118667D01*
X119798197Y-110146197D01*
X119770667Y-110187399D01*
X119761000Y-110236000D01*
X119761000Y-110540756D01*
X119689801Y-110434199D01*
X119565098Y-110350875D01*
X119418000Y-110321615D01*
X117818000Y-110321615D01*
X117670902Y-110350875D01*
X117546199Y-110434199D01*
X117462875Y-110558902D01*
X117433615Y-110706000D01*
X117433615Y-112306000D01*
X117462875Y-112453098D01*
X117546199Y-112577801D01*
X117670902Y-112661125D01*
X117818000Y-112690385D01*
X119418000Y-112690385D01*
X119565098Y-112661125D01*
X119689801Y-112577801D01*
X119761000Y-112471244D01*
X119761000Y-113919000D01*
X115831825Y-113919000D01*
X116151554Y-113516752D01*
X116317000Y-112939000D01*
X116317000Y-111839000D01*
X114909000Y-111839000D01*
X114909000Y-111859000D01*
X114655000Y-111859000D01*
X114655000Y-111839000D01*
X114635000Y-111839000D01*
X114635000Y-111585000D01*
X114655000Y-111585000D01*
X114655000Y-111565000D01*
X114909000Y-111565000D01*
X114909000Y-111585000D01*
X116317000Y-111585000D01*
X116317000Y-110485000D01*
X116151554Y-109907248D01*
X116137042Y-109888990D01*
X124583468Y-109888990D01*
X124724008Y-109916945D01*
X124864548Y-109888990D01*
X124864552Y-109888990D01*
X125280796Y-109806194D01*
X125752817Y-109490799D01*
X125832432Y-109371647D01*
X126338492Y-108865587D01*
X126399291Y-109171242D01*
X126659431Y-109560569D01*
X127048758Y-109820709D01*
X127392080Y-109889000D01*
X127623920Y-109889000D01*
X127967242Y-109820709D01*
X128118345Y-109719745D01*
X129981861Y-109719745D01*
X130055995Y-109965864D01*
X130593223Y-110158965D01*
X131163454Y-110131778D01*
X131564005Y-109965864D01*
X131638139Y-109719745D01*
X130810000Y-108891605D01*
X129981861Y-109719745D01*
X128118345Y-109719745D01*
X128356569Y-109560569D01*
X128616709Y-109171242D01*
X128708058Y-108712000D01*
X128616709Y-108252758D01*
X128456508Y-108013001D01*
X129536365Y-108013001D01*
X129363035Y-108495223D01*
X129390222Y-109065454D01*
X129556136Y-109466005D01*
X129802255Y-109540139D01*
X130630395Y-108712000D01*
X130616252Y-108697858D01*
X130795858Y-108518252D01*
X130810000Y-108532395D01*
X130824142Y-108518252D01*
X131003748Y-108697858D01*
X130989605Y-108712000D01*
X131817745Y-109540139D01*
X132063864Y-109466005D01*
X132177000Y-109151247D01*
X132177000Y-110333000D01*
X130161456Y-110333000D01*
X129745212Y-110415796D01*
X129273191Y-110731191D01*
X129046949Y-111069785D01*
X128957183Y-110878642D01*
X128528924Y-110488355D01*
X128118890Y-110318524D01*
X127889000Y-110439845D01*
X127889000Y-111633000D01*
X127909000Y-111633000D01*
X127909000Y-111887000D01*
X127889000Y-111887000D01*
X127889000Y-113080155D01*
X128118890Y-113201476D01*
X128528924Y-113031645D01*
X128957183Y-112641358D01*
X129046949Y-112450215D01*
X129273191Y-112788809D01*
X129745212Y-113104204D01*
X130161456Y-113187000D01*
X132701460Y-113187000D01*
X132842000Y-113214955D01*
X132982540Y-113187000D01*
X132982544Y-113187000D01*
X133398788Y-113104204D01*
X133563143Y-112994385D01*
X133692000Y-112994385D01*
X133839098Y-112965125D01*
X133950985Y-112890364D01*
X135442000Y-112890364D01*
X135442000Y-113169636D01*
X135548873Y-113427651D01*
X135746349Y-113625127D01*
X136004364Y-113732000D01*
X136283636Y-113732000D01*
X136541651Y-113625127D01*
X136679778Y-113487000D01*
X138285865Y-113487000D01*
X138290192Y-113508752D01*
X138561383Y-113914617D01*
X138967248Y-114185808D01*
X139325153Y-114257000D01*
X139566847Y-114257000D01*
X139924752Y-114185808D01*
X140330617Y-113914617D01*
X140601808Y-113508752D01*
X140697038Y-113030000D01*
X140601808Y-112551248D01*
X140330617Y-112145383D01*
X139924752Y-111874192D01*
X139566847Y-111803000D01*
X139325153Y-111803000D01*
X138967248Y-111874192D01*
X138561383Y-112145383D01*
X138290192Y-112551248D01*
X138285865Y-112573000D01*
X136679778Y-112573000D01*
X136541651Y-112434873D01*
X136283636Y-112328000D01*
X136004364Y-112328000D01*
X135746349Y-112434873D01*
X135548873Y-112632349D01*
X135442000Y-112890364D01*
X133950985Y-112890364D01*
X133963801Y-112881801D01*
X134047125Y-112757098D01*
X134076385Y-112610000D01*
X134076385Y-112543696D01*
X134513661Y-112106420D01*
X134632808Y-112026809D01*
X134753242Y-111846569D01*
X134948204Y-111554788D01*
X134948204Y-111554787D01*
X135031000Y-111138544D01*
X135031000Y-111138541D01*
X135058955Y-110998000D01*
X135031000Y-110857460D01*
X135031000Y-109149670D01*
X135035291Y-109171242D01*
X135295431Y-109560569D01*
X135684758Y-109820709D01*
X136028080Y-109889000D01*
X136259920Y-109889000D01*
X136603242Y-109820709D01*
X136992569Y-109560569D01*
X137252709Y-109171242D01*
X137344058Y-108712000D01*
X137252709Y-108252758D01*
X137092508Y-108013001D01*
X137561457Y-108013001D01*
X137701997Y-108040956D01*
X137842537Y-108013001D01*
X137842541Y-108013001D01*
X137961000Y-107989438D01*
X137961000Y-108077002D01*
X138125844Y-108077002D01*
X138004524Y-108306890D01*
X138174355Y-108716924D01*
X138564642Y-109145183D01*
X138967191Y-109334230D01*
X138561383Y-109605383D01*
X138290192Y-110011248D01*
X138194962Y-110490000D01*
X138290192Y-110968752D01*
X138561383Y-111374617D01*
X138967248Y-111645808D01*
X139325153Y-111717000D01*
X139566847Y-111717000D01*
X139924752Y-111645808D01*
X140330617Y-111374617D01*
X140601808Y-110968752D01*
X140697038Y-110490000D01*
X140601808Y-110011248D01*
X140330617Y-109605383D01*
X139924809Y-109334230D01*
X140327358Y-109145183D01*
X140717645Y-108716924D01*
X140887476Y-108306890D01*
X140766155Y-108077000D01*
X139573000Y-108077000D01*
X139573000Y-108097000D01*
X139319000Y-108097000D01*
X139319000Y-108077000D01*
X139299000Y-108077000D01*
X139299000Y-107823000D01*
X139319000Y-107823000D01*
X139319000Y-107803000D01*
X139573000Y-107803000D01*
X139573000Y-107823000D01*
X140766155Y-107823000D01*
X140887476Y-107593110D01*
X140717645Y-107183076D01*
X140327358Y-106754817D01*
X139802892Y-106508514D01*
X139791683Y-106514398D01*
X140355664Y-105950416D01*
X140474808Y-105870807D01*
X140554418Y-105751663D01*
X140554421Y-105751660D01*
X140724494Y-105497127D01*
X140790204Y-105398786D01*
X140873000Y-104982542D01*
X140873000Y-104982538D01*
X140900955Y-104841998D01*
X140873000Y-104701458D01*
X140873000Y-101967456D01*
X140790204Y-101551212D01*
X140474809Y-101079191D01*
X140002788Y-100763796D01*
X139863253Y-100736041D01*
X139924752Y-100723808D01*
X140330617Y-100452617D01*
X140601808Y-100046752D01*
X140697038Y-99568000D01*
X140601808Y-99089248D01*
X140330617Y-98683383D01*
X139924752Y-98412192D01*
X139641298Y-98355809D01*
X139785626Y-98211482D01*
X139924752Y-98183808D01*
X140330617Y-97912617D01*
X140601808Y-97506752D01*
X140697038Y-97028000D01*
X140601808Y-96549248D01*
X140330617Y-96143383D01*
X139924752Y-95872192D01*
X139641298Y-95815809D01*
X139785626Y-95671482D01*
X139924752Y-95643808D01*
X140330617Y-95372617D01*
X140601808Y-94966752D01*
X140697038Y-94488000D01*
X140601808Y-94009248D01*
X140330617Y-93603383D01*
X139924752Y-93332192D01*
X139566847Y-93261000D01*
X139325153Y-93261000D01*
X138967248Y-93332192D01*
X138561383Y-93603383D01*
X138317695Y-93968087D01*
X138263127Y-93836349D01*
X138065651Y-93638873D01*
X137807636Y-93532000D01*
X137528364Y-93532000D01*
X137270349Y-93638873D01*
X137150223Y-93758999D01*
X134591568Y-93758999D01*
X134621098Y-93753125D01*
X134745801Y-93669801D01*
X134829125Y-93545098D01*
X134858385Y-93398000D01*
X134858385Y-92398000D01*
X134829125Y-92250902D01*
X134745801Y-92126199D01*
X134696407Y-92093195D01*
X134833699Y-92036327D01*
X134883554Y-91986472D01*
X134889615Y-92016945D01*
X134889615Y-92448000D01*
X134918875Y-92595098D01*
X135002199Y-92719801D01*
X135126902Y-92803125D01*
X135274000Y-92832385D01*
X135359029Y-92832385D01*
X135553776Y-92962511D01*
X135867928Y-93025000D01*
X138294264Y-93025000D01*
X138324199Y-93069801D01*
X138448902Y-93153125D01*
X138596000Y-93182385D01*
X140296000Y-93182385D01*
X140443098Y-93153125D01*
X140567801Y-93069801D01*
X140651125Y-92945098D01*
X140680385Y-92798000D01*
X140680385Y-91098000D01*
X140651125Y-90950902D01*
X140567801Y-90826199D01*
X140443098Y-90742875D01*
X140296000Y-90713615D01*
X138596000Y-90713615D01*
X138448902Y-90742875D01*
X138324199Y-90826199D01*
X138294264Y-90871000D01*
X135867928Y-90871000D01*
X135553776Y-90933489D01*
X135359029Y-91063615D01*
X135274000Y-91063615D01*
X135126902Y-91092875D01*
X135002199Y-91176199D01*
X135001899Y-91176649D01*
X134950250Y-91125000D01*
X133901000Y-91125000D01*
X133901000Y-91145000D01*
X133647000Y-91145000D01*
X133647000Y-91125000D01*
X132597750Y-91125000D01*
X132439000Y-91283750D01*
X132439000Y-91624309D01*
X132535673Y-91857698D01*
X132714301Y-92036327D01*
X132851593Y-92093195D01*
X132802199Y-92126199D01*
X132718875Y-92250902D01*
X132689615Y-92398000D01*
X132689615Y-92419319D01*
X131917438Y-91647144D01*
X131918709Y-91645242D01*
X132010058Y-91186000D01*
X131918709Y-90726758D01*
X131658569Y-90337431D01*
X131292751Y-90092999D01*
X132580976Y-90092999D01*
X132535673Y-90138302D01*
X132439000Y-90371691D01*
X132439000Y-90712250D01*
X132597750Y-90871000D01*
X133647000Y-90871000D01*
X133647000Y-90851000D01*
X133901000Y-90851000D01*
X133901000Y-90871000D01*
X134950250Y-90871000D01*
X135109000Y-90712250D01*
X135109000Y-90371691D01*
X135012327Y-90138302D01*
X134967024Y-90092999D01*
X136904223Y-90092999D01*
X137042350Y-90231126D01*
X137300365Y-90337999D01*
X137579637Y-90337999D01*
X137837652Y-90231126D01*
X138035128Y-90033650D01*
X138142001Y-89775635D01*
X138142001Y-89496363D01*
X138035128Y-89238348D01*
X137837652Y-89040872D01*
X137579637Y-88933999D01*
X137300365Y-88933999D01*
X137150864Y-88995924D01*
X137363597Y-88783191D01*
X137537000Y-88364561D01*
X137537000Y-87911439D01*
X137799000Y-87911439D01*
X137799000Y-88364561D01*
X137972403Y-88783191D01*
X138292809Y-89103597D01*
X138711439Y-89277000D01*
X139164561Y-89277000D01*
X139583191Y-89103597D01*
X139903597Y-88783191D01*
X140077000Y-88364561D01*
X140077000Y-87911439D01*
X139903597Y-87492809D01*
X139583191Y-87172403D01*
X139164561Y-86999000D01*
X138711439Y-86999000D01*
X138292809Y-87172403D01*
X137972403Y-87492809D01*
X137799000Y-87911439D01*
X137537000Y-87911439D01*
X137363597Y-87492809D01*
X137043191Y-87172403D01*
X136624561Y-86999000D01*
X136171439Y-86999000D01*
X135752809Y-87172403D01*
X135432403Y-87492809D01*
X135259000Y-87911439D01*
X135259000Y-88364561D01*
X135432403Y-88783191D01*
X135752809Y-89103597D01*
X135934845Y-89178999D01*
X134321155Y-89178999D01*
X134503191Y-89103597D01*
X134823597Y-88783191D01*
X134997000Y-88364561D01*
X134997000Y-87911439D01*
X134823597Y-87492809D01*
X134503191Y-87172403D01*
X134084561Y-86999000D01*
X133631439Y-86999000D01*
X133212809Y-87172403D01*
X132892403Y-87492809D01*
X132719000Y-87911439D01*
X132719000Y-88364561D01*
X132892403Y-88783191D01*
X133212809Y-89103597D01*
X133394845Y-89178999D01*
X131781155Y-89178999D01*
X131963191Y-89103597D01*
X132283597Y-88783191D01*
X132457000Y-88364561D01*
X132457000Y-87911439D01*
X132283597Y-87492809D01*
X131963191Y-87172403D01*
X131544561Y-86999000D01*
X131091439Y-86999000D01*
X130672809Y-87172403D01*
X130418212Y-87427000D01*
X128922135Y-87427000D01*
X128917808Y-87405248D01*
X128646617Y-86999383D01*
X128240752Y-86728192D01*
X127882847Y-86657000D01*
X127641153Y-86657000D01*
X127283248Y-86728192D01*
X126877383Y-86999383D01*
X126606192Y-87405248D01*
X126510962Y-87884000D01*
X126606192Y-88362752D01*
X126877383Y-88768617D01*
X127283248Y-89039808D01*
X127641153Y-89111000D01*
X127882847Y-89111000D01*
X128240752Y-89039808D01*
X128646617Y-88768617D01*
X128917808Y-88362752D01*
X128922135Y-88341000D01*
X130179000Y-88341000D01*
X130179000Y-88364561D01*
X130352403Y-88783191D01*
X130672809Y-89103597D01*
X130854845Y-89178999D01*
X129675757Y-89178999D01*
X129623641Y-89126883D01*
X129365626Y-89020010D01*
X129086354Y-89020010D01*
X128828339Y-89126883D01*
X128630863Y-89324359D01*
X128523990Y-89582374D01*
X128523990Y-89861646D01*
X128630863Y-90119661D01*
X128828339Y-90317137D01*
X129086354Y-90424010D01*
X129365626Y-90424010D01*
X129623641Y-90317137D01*
X129821117Y-90119661D01*
X129832161Y-90092999D01*
X130327249Y-90092999D01*
X129961431Y-90337431D01*
X129701291Y-90726758D01*
X129609942Y-91186000D01*
X129701291Y-91645242D01*
X129961431Y-92034569D01*
X130350758Y-92294709D01*
X130694080Y-92363000D01*
X130925920Y-92363000D01*
X131269242Y-92294709D01*
X131271144Y-92293438D01*
X131804133Y-92826429D01*
X131682349Y-92876873D01*
X131544222Y-93015000D01*
X130855008Y-93015000D01*
X130810000Y-93006047D01*
X130764992Y-93015000D01*
X130764991Y-93015000D01*
X130631688Y-93041516D01*
X130480521Y-93142521D01*
X130455025Y-93180679D01*
X128842706Y-94793000D01*
X125782977Y-94793000D01*
X125953917Y-94537170D01*
X126014222Y-94233999D01*
X125953917Y-93930830D01*
X125825533Y-93738691D01*
X125745539Y-93658697D01*
X125702186Y-93593814D01*
X125445170Y-93422082D01*
X125218526Y-93377000D01*
X125218525Y-93377000D01*
X125142000Y-93361778D01*
X125065475Y-93377000D01*
X124079000Y-93377000D01*
X124079000Y-92193745D01*
X126679861Y-92193745D01*
X126753995Y-92439864D01*
X127291223Y-92632965D01*
X127861454Y-92605778D01*
X128262005Y-92439864D01*
X128336139Y-92193745D01*
X127508000Y-91365605D01*
X126679861Y-92193745D01*
X124079000Y-92193745D01*
X124079000Y-90969223D01*
X126061035Y-90969223D01*
X126088222Y-91539454D01*
X126254136Y-91940005D01*
X126500255Y-92014139D01*
X127328395Y-91186000D01*
X127687605Y-91186000D01*
X128515745Y-92014139D01*
X128761864Y-91940005D01*
X128954965Y-91402777D01*
X128927778Y-90832546D01*
X128761864Y-90431995D01*
X128515745Y-90357861D01*
X127687605Y-91186000D01*
X127328395Y-91186000D01*
X126500255Y-90357861D01*
X126254136Y-90431995D01*
X126061035Y-90969223D01*
X124079000Y-90969223D01*
X124079000Y-90178255D01*
X126679861Y-90178255D01*
X127508000Y-91006395D01*
X128336139Y-90178255D01*
X128262005Y-89932136D01*
X127724777Y-89739035D01*
X127154546Y-89766222D01*
X126753995Y-89932136D01*
X126679861Y-90178255D01*
X124079000Y-90178255D01*
X124079000Y-88661000D01*
X125298526Y-88661000D01*
X125525170Y-88615918D01*
X125782186Y-88444186D01*
X125953918Y-88187170D01*
X126014222Y-87884000D01*
X125953918Y-87580830D01*
X125782186Y-87323814D01*
X125525170Y-87152082D01*
X125298526Y-87107000D01*
X124079000Y-87107000D01*
X124079000Y-84494000D01*
X126527615Y-84494000D01*
X126527615Y-86194000D01*
X126556875Y-86341098D01*
X126640199Y-86465801D01*
X126764902Y-86549125D01*
X126912000Y-86578385D01*
X128612000Y-86578385D01*
X128759098Y-86549125D01*
X128883801Y-86465801D01*
X128967125Y-86341098D01*
X128996385Y-86194000D01*
X128996385Y-85371439D01*
X130179000Y-85371439D01*
X130179000Y-85824561D01*
X130352403Y-86243191D01*
X130672809Y-86563597D01*
X131091439Y-86737000D01*
X131544561Y-86737000D01*
X131963191Y-86563597D01*
X132283597Y-86243191D01*
X132457000Y-85824561D01*
X132457000Y-85371439D01*
X132719000Y-85371439D01*
X132719000Y-85824561D01*
X132892403Y-86243191D01*
X133212809Y-86563597D01*
X133631439Y-86737000D01*
X134084561Y-86737000D01*
X134503191Y-86563597D01*
X134823597Y-86243191D01*
X134997000Y-85824561D01*
X134997000Y-85371439D01*
X135259000Y-85371439D01*
X135259000Y-85824561D01*
X135432403Y-86243191D01*
X135752809Y-86563597D01*
X136171439Y-86737000D01*
X136624561Y-86737000D01*
X137043191Y-86563597D01*
X137363597Y-86243191D01*
X137512483Y-85883750D01*
X137541000Y-85883750D01*
X137541000Y-86486309D01*
X137637673Y-86719698D01*
X137816301Y-86898327D01*
X138049690Y-86995000D01*
X138652250Y-86995000D01*
X138811000Y-86836250D01*
X138811000Y-85725000D01*
X139065000Y-85725000D01*
X139065000Y-86836250D01*
X139223750Y-86995000D01*
X139826310Y-86995000D01*
X140059699Y-86898327D01*
X140238327Y-86719698D01*
X140335000Y-86486309D01*
X140335000Y-85883750D01*
X140176250Y-85725000D01*
X139065000Y-85725000D01*
X138811000Y-85725000D01*
X137699750Y-85725000D01*
X137541000Y-85883750D01*
X137512483Y-85883750D01*
X137537000Y-85824561D01*
X137537000Y-85371439D01*
X137363597Y-84952809D01*
X137120479Y-84709691D01*
X137541000Y-84709691D01*
X137541000Y-85312250D01*
X137699750Y-85471000D01*
X138811000Y-85471000D01*
X138811000Y-84359750D01*
X139065000Y-84359750D01*
X139065000Y-85471000D01*
X140176250Y-85471000D01*
X140335000Y-85312250D01*
X140335000Y-84709691D01*
X140238327Y-84476302D01*
X140059699Y-84297673D01*
X139826310Y-84201000D01*
X139223750Y-84201000D01*
X139065000Y-84359750D01*
X138811000Y-84359750D01*
X138652250Y-84201000D01*
X138049690Y-84201000D01*
X137816301Y-84297673D01*
X137637673Y-84476302D01*
X137541000Y-84709691D01*
X137120479Y-84709691D01*
X137043191Y-84632403D01*
X136624561Y-84459000D01*
X136171439Y-84459000D01*
X135752809Y-84632403D01*
X135432403Y-84952809D01*
X135259000Y-85371439D01*
X134997000Y-85371439D01*
X134823597Y-84952809D01*
X134503191Y-84632403D01*
X134084561Y-84459000D01*
X133631439Y-84459000D01*
X133212809Y-84632403D01*
X132892403Y-84952809D01*
X132719000Y-85371439D01*
X132457000Y-85371439D01*
X132283597Y-84952809D01*
X131963191Y-84632403D01*
X131544561Y-84459000D01*
X131091439Y-84459000D01*
X130672809Y-84632403D01*
X130352403Y-84952809D01*
X130179000Y-85371439D01*
X128996385Y-85371439D01*
X128996385Y-84494000D01*
X128967125Y-84346902D01*
X128883801Y-84222199D01*
X128759098Y-84138875D01*
X128612000Y-84109615D01*
X126912000Y-84109615D01*
X126764902Y-84138875D01*
X126640199Y-84222199D01*
X126556875Y-84346902D01*
X126527615Y-84494000D01*
X124079000Y-84494000D01*
X124079000Y-83006001D01*
X125774185Y-83006001D01*
X126416129Y-83647945D01*
X126445529Y-83691945D01*
X126619849Y-83808423D01*
X126773571Y-83839000D01*
X126773575Y-83839000D01*
X126825473Y-83849323D01*
X126877371Y-83839000D01*
X136008102Y-83839000D01*
X136060000Y-83849323D01*
X136111898Y-83839000D01*
X136111903Y-83839000D01*
X136265625Y-83808423D01*
X136439945Y-83691945D01*
X136469345Y-83647945D01*
X137250539Y-82866752D01*
X137274875Y-82989098D01*
X137358199Y-83113801D01*
X137482902Y-83197125D01*
X137630000Y-83226385D01*
X139230000Y-83226385D01*
X139377098Y-83197125D01*
X139501801Y-83113801D01*
X139585125Y-82989098D01*
X139614385Y-82842000D01*
X139614385Y-81242000D01*
X139585125Y-81094902D01*
X139528091Y-81009545D01*
X139552622Y-80985014D01*
X139437747Y-80870139D01*
X139683864Y-80796005D01*
X139876965Y-80258777D01*
X139849778Y-79688546D01*
X139683864Y-79287995D01*
X139437745Y-79213861D01*
X138609605Y-80042000D01*
X138623748Y-80056142D01*
X138444142Y-80235748D01*
X138430000Y-80221605D01*
X138415858Y-80235748D01*
X138236252Y-80056142D01*
X138250395Y-80042000D01*
X137422255Y-79213861D01*
X137176136Y-79287995D01*
X136983035Y-79825223D01*
X137010222Y-80395454D01*
X137176136Y-80796005D01*
X137422253Y-80870139D01*
X137307378Y-80985014D01*
X137331909Y-81009545D01*
X137274875Y-81094902D01*
X137245615Y-81242000D01*
X137245615Y-81521461D01*
X137124375Y-81545577D01*
X137124373Y-81545578D01*
X137124374Y-81545578D01*
X136994055Y-81632654D01*
X136994052Y-81632657D01*
X136950055Y-81662055D01*
X136920656Y-81706053D01*
X135841710Y-82785000D01*
X128424499Y-82785000D01*
X128464000Y-82689636D01*
X128464000Y-82410364D01*
X128357127Y-82152349D01*
X128242274Y-82037496D01*
X128253864Y-82034005D01*
X128446965Y-81496777D01*
X128425468Y-81045880D01*
X130823000Y-81045880D01*
X130823000Y-81514120D01*
X131002187Y-81946717D01*
X131333283Y-82277813D01*
X131765880Y-82457000D01*
X132234120Y-82457000D01*
X132666717Y-82277813D01*
X132997813Y-81946717D01*
X133177000Y-81514120D01*
X133177000Y-81045880D01*
X132997813Y-80613283D01*
X132666717Y-80282187D01*
X132234120Y-80103000D01*
X131765880Y-80103000D01*
X131333283Y-80282187D01*
X131002187Y-80613283D01*
X130823000Y-81045880D01*
X128425468Y-81045880D01*
X128419778Y-80926546D01*
X128253864Y-80525995D01*
X128007745Y-80451861D01*
X127179605Y-81280000D01*
X127193748Y-81294142D01*
X127014142Y-81473748D01*
X127000000Y-81459605D01*
X126985858Y-81473748D01*
X126806252Y-81294142D01*
X126820395Y-81280000D01*
X126806252Y-81265858D01*
X126985858Y-81086252D01*
X127000000Y-81100395D01*
X127828139Y-80272255D01*
X127754005Y-80026136D01*
X127216777Y-79833035D01*
X126646546Y-79860222D01*
X126245995Y-80026136D01*
X126242504Y-80037726D01*
X126127651Y-79922873D01*
X125869636Y-79816000D01*
X125590364Y-79816000D01*
X125332349Y-79922873D01*
X125194222Y-80061000D01*
X124079000Y-80061000D01*
X124079000Y-79705000D01*
X135844992Y-79705000D01*
X135890000Y-79713953D01*
X135935008Y-79705000D01*
X135935009Y-79705000D01*
X136068312Y-79678484D01*
X136219479Y-79577479D01*
X136244979Y-79539315D01*
X136750039Y-79034255D01*
X137601861Y-79034255D01*
X138430000Y-79862395D01*
X139258139Y-79034255D01*
X139184005Y-78788136D01*
X138646777Y-78595035D01*
X138076546Y-78622222D01*
X137675995Y-78788136D01*
X137601861Y-79034255D01*
X136750039Y-79034255D01*
X136850295Y-78934000D01*
X137045636Y-78934000D01*
X137303651Y-78827127D01*
X137501127Y-78629651D01*
X137608000Y-78371636D01*
X137608000Y-78092364D01*
X137501127Y-77834349D01*
X137303651Y-77636873D01*
X137045636Y-77530000D01*
X136766364Y-77530000D01*
X136563000Y-77614236D01*
X136563000Y-77596998D01*
X136398630Y-77596998D01*
X136519914Y-77374959D01*
X136280389Y-76868866D01*
X135865423Y-76492959D01*
X135477039Y-76332096D01*
X135255000Y-76454085D01*
X135255000Y-77597000D01*
X135275000Y-77597000D01*
X135275000Y-77851000D01*
X135255000Y-77851000D01*
X135255000Y-77871000D01*
X135001000Y-77871000D01*
X135001000Y-77851000D01*
X133857371Y-77851000D01*
X133736086Y-78073041D01*
X133975611Y-78579134D01*
X134209491Y-78791000D01*
X132093664Y-78791000D01*
X132420569Y-78572569D01*
X132680709Y-78183242D01*
X132772058Y-77724000D01*
X132702630Y-77374959D01*
X133736086Y-77374959D01*
X133857371Y-77597000D01*
X135001000Y-77597000D01*
X135001000Y-76454085D01*
X134778961Y-76332096D01*
X134390577Y-76492959D01*
X133975611Y-76868866D01*
X133736086Y-77374959D01*
X132702630Y-77374959D01*
X132680709Y-77264758D01*
X132420569Y-76875431D01*
X132031242Y-76615291D01*
X131687920Y-76547000D01*
X131456080Y-76547000D01*
X131112758Y-76615291D01*
X130723431Y-76875431D01*
X130508565Y-77197000D01*
X129587435Y-77197000D01*
X129372569Y-76875431D01*
X128983242Y-76615291D01*
X128639920Y-76547000D01*
X128408080Y-76547000D01*
X128064758Y-76615291D01*
X127675431Y-76875431D01*
X127460565Y-77197000D01*
X126539435Y-77197000D01*
X126324569Y-76875431D01*
X125935242Y-76615291D01*
X125591920Y-76547000D01*
X125360080Y-76547000D01*
X125016758Y-76615291D01*
X124627431Y-76875431D01*
X124367291Y-77264758D01*
X124275942Y-77724000D01*
X124367291Y-78183242D01*
X124627431Y-78572569D01*
X124954336Y-78791000D01*
X123825000Y-78791000D01*
X123825000Y-77965737D01*
X123837144Y-77931698D01*
X123825000Y-77689069D01*
X123825000Y-76454000D01*
X123815333Y-76405399D01*
X123787803Y-76364197D01*
X123746601Y-76336667D01*
X123698000Y-76327000D01*
X122669737Y-76327000D01*
X122635698Y-76314856D01*
X122393069Y-76327000D01*
X121412000Y-76327000D01*
X121363399Y-76336667D01*
X121322197Y-76364197D01*
X121294667Y-76405399D01*
X121285000Y-76454000D01*
X121285000Y-76970084D01*
X121205603Y-76992857D01*
X121018856Y-77516302D01*
X121044517Y-78029000D01*
X112295778Y-78029000D01*
X112157651Y-77890873D01*
X111899636Y-77784000D01*
X111620364Y-77784000D01*
X111362349Y-77890873D01*
X111224222Y-78029000D01*
X108562430Y-78029000D01*
X108597144Y-77931698D01*
X108569362Y-77376632D01*
X108452292Y-77094001D01*
X115217223Y-77094001D01*
X115355350Y-77232128D01*
X115613365Y-77339001D01*
X115892637Y-77339001D01*
X116150652Y-77232128D01*
X116348128Y-77034652D01*
X116455001Y-76776637D01*
X116455001Y-76497365D01*
X116348128Y-76239350D01*
X116150652Y-76041874D01*
X115892637Y-75935001D01*
X115613365Y-75935001D01*
X115355350Y-76041874D01*
X115217223Y-76180001D01*
X114962913Y-76180001D01*
X115002000Y-76085636D01*
X115002000Y-75806364D01*
X114895127Y-75548349D01*
X114697651Y-75350873D01*
X114439636Y-75244000D01*
X114160364Y-75244000D01*
X113902349Y-75350873D01*
X113764222Y-75489000D01*
X106199778Y-75489000D01*
X106163778Y-75453000D01*
X110312526Y-75453000D01*
X110539170Y-75407918D01*
X110796186Y-75236186D01*
X110967918Y-74979170D01*
X111028222Y-74676000D01*
X110981478Y-74441000D01*
X116374222Y-74441000D01*
X116442349Y-74509127D01*
X116700364Y-74616000D01*
X116979636Y-74616000D01*
X117237651Y-74509127D01*
X117435127Y-74311651D01*
X117542000Y-74053636D01*
X117542000Y-73774364D01*
X117435127Y-73516349D01*
X117237651Y-73318873D01*
X117181262Y-73295516D01*
X117371126Y-73105652D01*
X117477999Y-72847637D01*
X117477999Y-72568365D01*
X117371126Y-72310350D01*
X117173650Y-72112874D01*
X116915635Y-72006001D01*
X116636363Y-72006001D01*
X116378348Y-72112874D01*
X116180872Y-72310350D01*
X116073999Y-72568365D01*
X116073999Y-72763705D01*
X115888705Y-72949000D01*
X110708385Y-72949000D01*
X110708385Y-71323000D01*
X112240222Y-71323000D01*
X112378349Y-71461127D01*
X112636364Y-71568000D01*
X112915636Y-71568000D01*
X113173651Y-71461127D01*
X113311778Y-71323000D01*
X120566707Y-71323000D01*
X120668706Y-71425000D01*
X120306478Y-71425000D01*
X119671733Y-71687920D01*
X119185920Y-72173733D01*
X118923000Y-72808478D01*
X118923000Y-73495522D01*
X119185920Y-74130267D01*
X119671733Y-74616080D01*
X120306478Y-74879000D01*
X120993522Y-74879000D01*
X121628267Y-74616080D01*
X122114080Y-74130267D01*
X122377000Y-73495522D01*
X122377000Y-72847000D01*
X131138222Y-72847000D01*
X130976873Y-73008349D01*
X130870000Y-73266364D01*
X130870000Y-73545636D01*
X130976873Y-73803651D01*
X131174349Y-74001127D01*
X131432364Y-74108000D01*
X131711636Y-74108000D01*
X131969651Y-74001127D01*
X132037778Y-73933000D01*
X137882314Y-73933000D01*
X137940187Y-74072717D01*
X138271283Y-74403813D01*
X138703880Y-74583000D01*
X139172120Y-74583000D01*
X139604717Y-74403813D01*
X139935813Y-74072717D01*
X140115000Y-73640120D01*
X140115000Y-73171880D01*
X139935813Y-72739283D01*
X139604717Y-72408187D01*
X139172120Y-72229000D01*
X138703880Y-72229000D01*
X138271283Y-72408187D01*
X137940187Y-72739283D01*
X137882314Y-72879000D01*
X135377778Y-72879000D01*
X135469127Y-72787651D01*
X135576000Y-72529636D01*
X135576000Y-72250364D01*
X135469127Y-71992349D01*
X135271651Y-71794873D01*
X135013636Y-71688000D01*
X134734364Y-71688000D01*
X134476349Y-71794873D01*
X134338222Y-71933000D01*
X131152013Y-71933000D01*
X131193999Y-71831637D01*
X131193999Y-71552365D01*
X131087126Y-71294350D01*
X130889650Y-71096874D01*
X130631635Y-70990001D01*
X130352363Y-70990001D01*
X130094348Y-71096874D01*
X129956221Y-71235001D01*
X128869172Y-71235001D01*
X129190717Y-71101813D01*
X129521813Y-70770717D01*
X129701000Y-70338120D01*
X129701000Y-69869880D01*
X129521813Y-69437283D01*
X129190717Y-69106187D01*
X129023684Y-69037000D01*
X131072316Y-69037000D01*
X130905283Y-69106187D01*
X130574187Y-69437283D01*
X130395000Y-69869880D01*
X130395000Y-70338120D01*
X130574187Y-70770717D01*
X130905283Y-71101813D01*
X131337880Y-71281000D01*
X131806120Y-71281000D01*
X132238717Y-71101813D01*
X132569813Y-70770717D01*
X132749000Y-70338120D01*
X132749000Y-69869880D01*
X132569813Y-69437283D01*
X132238717Y-69106187D01*
X132071684Y-69037000D01*
X134628316Y-69037000D01*
X134461283Y-69106187D01*
X134130187Y-69437283D01*
X133951000Y-69869880D01*
X133951000Y-70338120D01*
X134130187Y-70770717D01*
X134461283Y-71101813D01*
X134893880Y-71281000D01*
X135362120Y-71281000D01*
X135794717Y-71101813D01*
X136125813Y-70770717D01*
X136212680Y-70561000D01*
X137761000Y-70561000D01*
X137761000Y-70640120D01*
X137940187Y-71072717D01*
X138271283Y-71403813D01*
X138703880Y-71583000D01*
X139172120Y-71583000D01*
X139604717Y-71403813D01*
X139935813Y-71072717D01*
X140115000Y-70640120D01*
X140115000Y-70171880D01*
X139935813Y-69739283D01*
X139604717Y-69408187D01*
X139172120Y-69229000D01*
X138703880Y-69229000D01*
X138271283Y-69408187D01*
X138032470Y-69647000D01*
X136212680Y-69647000D01*
X136125813Y-69437283D01*
X136010607Y-69322077D01*
X136068365Y-69346001D01*
X136347637Y-69346001D01*
X136605652Y-69239128D01*
X136803128Y-69041652D01*
X136910001Y-68783637D01*
X136910001Y-68504365D01*
X136803128Y-68246350D01*
X136605652Y-68048874D01*
X136347637Y-67942001D01*
X136068365Y-67942001D01*
X135810350Y-68048874D01*
X135736224Y-68123000D01*
X125446605Y-68123000D01*
X125401597Y-68114047D01*
X125356589Y-68123000D01*
X125223286Y-68149516D01*
X125072119Y-68250521D01*
X125046621Y-68288682D01*
X124132303Y-69203001D01*
X120649921Y-69203001D01*
X120811000Y-68814120D01*
X120811000Y-68345880D01*
X120631813Y-67913283D01*
X120300717Y-67582187D01*
X119916407Y-67423001D01*
X136486991Y-67423001D01*
X136531999Y-67431954D01*
X136577007Y-67423001D01*
X136577008Y-67423001D01*
X136710311Y-67396485D01*
X136861478Y-67295480D01*
X136886978Y-67257316D01*
X136943315Y-67200979D01*
X136981479Y-67175479D01*
X137051699Y-67070385D01*
X137552000Y-67070385D01*
X137699098Y-67041125D01*
X137823801Y-66957801D01*
X137907125Y-66833098D01*
X137936385Y-66686000D01*
X137936385Y-66091639D01*
X138109412Y-66509362D01*
X138468638Y-66868588D01*
X138937989Y-67063000D01*
X139446011Y-67063000D01*
X139915362Y-66868588D01*
X140274588Y-66509362D01*
X140469000Y-66040011D01*
X140469000Y-65531989D01*
X140274588Y-65062638D01*
X139915362Y-64703412D01*
X139446011Y-64509000D01*
X138937989Y-64509000D01*
X138468638Y-64703412D01*
X138109412Y-65062638D01*
X137936385Y-65480361D01*
X137936385Y-64886000D01*
X137907125Y-64738902D01*
X137823801Y-64614199D01*
X137699098Y-64530875D01*
X137552000Y-64501615D01*
X135752000Y-64501615D01*
X135604902Y-64530875D01*
X135480199Y-64614199D01*
X135396875Y-64738902D01*
X135367615Y-64886000D01*
X135367615Y-66509001D01*
X133670738Y-66509001D01*
X133865000Y-66040011D01*
X133865000Y-65531989D01*
X133670588Y-65062638D01*
X133311362Y-64703412D01*
X132842011Y-64509000D01*
X132333989Y-64509000D01*
X131864638Y-64703412D01*
X131505412Y-65062638D01*
X131332385Y-65480361D01*
X131332385Y-64886000D01*
X131303125Y-64738902D01*
X131219801Y-64614199D01*
X131095098Y-64530875D01*
X130948000Y-64501615D01*
X129148000Y-64501615D01*
X129000902Y-64530875D01*
X128876199Y-64614199D01*
X128792875Y-64738902D01*
X128763615Y-64886000D01*
X128763615Y-64915320D01*
X128162978Y-64314684D01*
X128137478Y-64276520D01*
X127986311Y-64175515D01*
X127853008Y-64148999D01*
X127853007Y-64148999D01*
X127807999Y-64140046D01*
X127762991Y-64148999D01*
X120672289Y-64148999D01*
X120811000Y-63814120D01*
X120811000Y-63345880D01*
X120631813Y-62913283D01*
X120584530Y-62866000D01*
X140978000Y-62866000D01*
X140978001Y-117102000D01*
G36*
X102275431Y-107609431D02*
X102015291Y-107998758D01*
X101923942Y-108458000D01*
X102015291Y-108917242D01*
X102275431Y-109306569D01*
X102664758Y-109566709D01*
X103008080Y-109635000D01*
X103239920Y-109635000D01*
X103583242Y-109566709D01*
X103972569Y-109306569D01*
X104232709Y-108917242D01*
X104324058Y-108458000D01*
X104232709Y-107998758D01*
X103972569Y-107609431D01*
X103941962Y-107588980D01*
X107477605Y-107588980D01*
X107426875Y-107664902D01*
X107397615Y-107812000D01*
X107397615Y-109612000D01*
X107426875Y-109759098D01*
X107510199Y-109883801D01*
X107634902Y-109967125D01*
X107782000Y-109996385D01*
X109335688Y-109996385D01*
X109425213Y-110056204D01*
X109982000Y-110166955D01*
X110538787Y-110056204D01*
X110628312Y-109996385D01*
X112182000Y-109996385D01*
X112329098Y-109967125D01*
X112446035Y-109888990D01*
X112903000Y-109888990D01*
X112903000Y-115551000D01*
X112202618Y-115551000D01*
X112257212Y-115507606D01*
X112548756Y-114982086D01*
X112573036Y-114876740D01*
X112452378Y-114639000D01*
X110109000Y-114639000D01*
X110109000Y-114659000D01*
X109855000Y-114659000D01*
X109855000Y-114639000D01*
X107511622Y-114639000D01*
X107390964Y-114876740D01*
X107415244Y-114982086D01*
X107555559Y-115235010D01*
X105566301Y-115235010D01*
X104478551Y-114147260D01*
X107390964Y-114147260D01*
X107511622Y-114385000D01*
X109855000Y-114385000D01*
X109855000Y-112977000D01*
X110109000Y-112977000D01*
X110109000Y-114385000D01*
X112452378Y-114385000D01*
X112573036Y-114147260D01*
X112548756Y-114041914D01*
X112257212Y-113516394D01*
X111786752Y-113142446D01*
X111209000Y-112977000D01*
X110109000Y-112977000D01*
X109855000Y-112977000D01*
X108755000Y-112977000D01*
X108177248Y-113142446D01*
X107706788Y-113516394D01*
X107415244Y-114041914D01*
X107390964Y-114147260D01*
X104478551Y-114147260D01*
X104248607Y-113917317D01*
X104324058Y-113538000D01*
X104232709Y-113078758D01*
X103972569Y-112689431D01*
X103583242Y-112429291D01*
X103239920Y-112361000D01*
X103008080Y-112361000D01*
X102664758Y-112429291D01*
X102275431Y-112689431D01*
X102015291Y-113078758D01*
X101923942Y-113538000D01*
X102015291Y-113997242D01*
X102275431Y-114386569D01*
X102506552Y-114540999D01*
X101455009Y-114540999D01*
X101410001Y-114532046D01*
X101364993Y-114540999D01*
X101364992Y-114540999D01*
X101231689Y-114567515D01*
X101080522Y-114668520D01*
X101055026Y-114706678D01*
X99378706Y-116383000D01*
X98423504Y-116383000D01*
X98492000Y-116217636D01*
X98492000Y-115938364D01*
X98385127Y-115680349D01*
X98187651Y-115482873D01*
X97929636Y-115376000D01*
X97650364Y-115376000D01*
X97392349Y-115482873D01*
X97254222Y-115621000D01*
X96770608Y-115621000D01*
X96656534Y-115506926D01*
X96923387Y-115408264D01*
X97149908Y-114798539D01*
X97125856Y-114148540D01*
X96923387Y-113659736D01*
X96656532Y-113561073D01*
X95683605Y-114534000D01*
X95697748Y-114548143D01*
X95518143Y-114727748D01*
X95504000Y-114713605D01*
X95489858Y-114727748D01*
X95310253Y-114548143D01*
X95324395Y-114534000D01*
X95310253Y-114519858D01*
X95489858Y-114340253D01*
X95504000Y-114354395D01*
X96476927Y-113381468D01*
X96378264Y-113114613D01*
X95768539Y-112888092D01*
X95118540Y-112912144D01*
X94629736Y-113114613D01*
X94531074Y-113381466D01*
X94416794Y-113267186D01*
X94386297Y-113297683D01*
X94321127Y-113140349D01*
X94123651Y-112942873D01*
X93865636Y-112836000D01*
X93586364Y-112836000D01*
X93328349Y-112942873D01*
X93190222Y-113081000D01*
X88993155Y-113081000D01*
X88992709Y-113078758D01*
X88732569Y-112689431D01*
X88343242Y-112429291D01*
X87999920Y-112361000D01*
X87768080Y-112361000D01*
X87424758Y-112429291D01*
X87035431Y-112689431D01*
X86775291Y-113078758D01*
X86742000Y-113246123D01*
X86742000Y-111289877D01*
X86775291Y-111457242D01*
X87035431Y-111846569D01*
X87424758Y-112106709D01*
X87768080Y-112175000D01*
X87999920Y-112175000D01*
X88343242Y-112106709D01*
X88732569Y-111846569D01*
X88992709Y-111457242D01*
X88993155Y-111455000D01*
X93898994Y-111455000D01*
X93944002Y-111463953D01*
X93989010Y-111455000D01*
X93989011Y-111455000D01*
X94122314Y-111428484D01*
X94273481Y-111327479D01*
X94298981Y-111289315D01*
X94590296Y-110998000D01*
X101923942Y-110998000D01*
X102015291Y-111457242D01*
X102275431Y-111846569D01*
X102664758Y-112106709D01*
X103008080Y-112175000D01*
X103239920Y-112175000D01*
X103583242Y-112106709D01*
X103972569Y-111846569D01*
X104232709Y-111457242D01*
X104324058Y-110998000D01*
X104232709Y-110538758D01*
X103972569Y-110149431D01*
X103583242Y-109889291D01*
X103239920Y-109821000D01*
X103008080Y-109821000D01*
X102664758Y-109889291D01*
X102275431Y-110149431D01*
X102015291Y-110538758D01*
X101923942Y-110998000D01*
X94590296Y-110998000D01*
X97999318Y-107588980D01*
X102306038Y-107588980D01*
X102275431Y-107609431D01*
X102275431Y-107609431D01*
G37*
X102275431Y-107609431D02*
X102015291Y-107998758D01*
X101923942Y-108458000D01*
X102015291Y-108917242D01*
X102275431Y-109306569D01*
X102664758Y-109566709D01*
X103008080Y-109635000D01*
X103239920Y-109635000D01*
X103583242Y-109566709D01*
X103972569Y-109306569D01*
X104232709Y-108917242D01*
X104324058Y-108458000D01*
X104232709Y-107998758D01*
X103972569Y-107609431D01*
X103941962Y-107588980D01*
X107477605Y-107588980D01*
X107426875Y-107664902D01*
X107397615Y-107812000D01*
X107397615Y-109612000D01*
X107426875Y-109759098D01*
X107510199Y-109883801D01*
X107634902Y-109967125D01*
X107782000Y-109996385D01*
X109335688Y-109996385D01*
X109425213Y-110056204D01*
X109982000Y-110166955D01*
X110538787Y-110056204D01*
X110628312Y-109996385D01*
X112182000Y-109996385D01*
X112329098Y-109967125D01*
X112446035Y-109888990D01*
X112903000Y-109888990D01*
X112903000Y-115551000D01*
X112202618Y-115551000D01*
X112257212Y-115507606D01*
X112548756Y-114982086D01*
X112573036Y-114876740D01*
X112452378Y-114639000D01*
X110109000Y-114639000D01*
X110109000Y-114659000D01*
X109855000Y-114659000D01*
X109855000Y-114639000D01*
X107511622Y-114639000D01*
X107390964Y-114876740D01*
X107415244Y-114982086D01*
X107555559Y-115235010D01*
X105566301Y-115235010D01*
X104478551Y-114147260D01*
X107390964Y-114147260D01*
X107511622Y-114385000D01*
X109855000Y-114385000D01*
X109855000Y-112977000D01*
X110109000Y-112977000D01*
X110109000Y-114385000D01*
X112452378Y-114385000D01*
X112573036Y-114147260D01*
X112548756Y-114041914D01*
X112257212Y-113516394D01*
X111786752Y-113142446D01*
X111209000Y-112977000D01*
X110109000Y-112977000D01*
X109855000Y-112977000D01*
X108755000Y-112977000D01*
X108177248Y-113142446D01*
X107706788Y-113516394D01*
X107415244Y-114041914D01*
X107390964Y-114147260D01*
X104478551Y-114147260D01*
X104248607Y-113917317D01*
X104324058Y-113538000D01*
X104232709Y-113078758D01*
X103972569Y-112689431D01*
X103583242Y-112429291D01*
X103239920Y-112361000D01*
X103008080Y-112361000D01*
X102664758Y-112429291D01*
X102275431Y-112689431D01*
X102015291Y-113078758D01*
X101923942Y-113538000D01*
X102015291Y-113997242D01*
X102275431Y-114386569D01*
X102506552Y-114540999D01*
X101455009Y-114540999D01*
X101410001Y-114532046D01*
X101364993Y-114540999D01*
X101364992Y-114540999D01*
X101231689Y-114567515D01*
X101080522Y-114668520D01*
X101055026Y-114706678D01*
X99378706Y-116383000D01*
X98423504Y-116383000D01*
X98492000Y-116217636D01*
X98492000Y-115938364D01*
X98385127Y-115680349D01*
X98187651Y-115482873D01*
X97929636Y-115376000D01*
X97650364Y-115376000D01*
X97392349Y-115482873D01*
X97254222Y-115621000D01*
X96770608Y-115621000D01*
X96656534Y-115506926D01*
X96923387Y-115408264D01*
X97149908Y-114798539D01*
X97125856Y-114148540D01*
X96923387Y-113659736D01*
X96656532Y-113561073D01*
X95683605Y-114534000D01*
X95697748Y-114548143D01*
X95518143Y-114727748D01*
X95504000Y-114713605D01*
X95489858Y-114727748D01*
X95310253Y-114548143D01*
X95324395Y-114534000D01*
X95310253Y-114519858D01*
X95489858Y-114340253D01*
X95504000Y-114354395D01*
X96476927Y-113381468D01*
X96378264Y-113114613D01*
X95768539Y-112888092D01*
X95118540Y-112912144D01*
X94629736Y-113114613D01*
X94531074Y-113381466D01*
X94416794Y-113267186D01*
X94386297Y-113297683D01*
X94321127Y-113140349D01*
X94123651Y-112942873D01*
X93865636Y-112836000D01*
X93586364Y-112836000D01*
X93328349Y-112942873D01*
X93190222Y-113081000D01*
X88993155Y-113081000D01*
X88992709Y-113078758D01*
X88732569Y-112689431D01*
X88343242Y-112429291D01*
X87999920Y-112361000D01*
X87768080Y-112361000D01*
X87424758Y-112429291D01*
X87035431Y-112689431D01*
X86775291Y-113078758D01*
X86742000Y-113246123D01*
X86742000Y-111289877D01*
X86775291Y-111457242D01*
X87035431Y-111846569D01*
X87424758Y-112106709D01*
X87768080Y-112175000D01*
X87999920Y-112175000D01*
X88343242Y-112106709D01*
X88732569Y-111846569D01*
X88992709Y-111457242D01*
X88993155Y-111455000D01*
X93898994Y-111455000D01*
X93944002Y-111463953D01*
X93989010Y-111455000D01*
X93989011Y-111455000D01*
X94122314Y-111428484D01*
X94273481Y-111327479D01*
X94298981Y-111289315D01*
X94590296Y-110998000D01*
X101923942Y-110998000D01*
X102015291Y-111457242D01*
X102275431Y-111846569D01*
X102664758Y-112106709D01*
X103008080Y-112175000D01*
X103239920Y-112175000D01*
X103583242Y-112106709D01*
X103972569Y-111846569D01*
X104232709Y-111457242D01*
X104324058Y-110998000D01*
X104232709Y-110538758D01*
X103972569Y-110149431D01*
X103583242Y-109889291D01*
X103239920Y-109821000D01*
X103008080Y-109821000D01*
X102664758Y-109889291D01*
X102275431Y-110149431D01*
X102015291Y-110538758D01*
X101923942Y-110998000D01*
X94590296Y-110998000D01*
X97999318Y-107588980D01*
X102306038Y-107588980D01*
X102275431Y-107609431D01*
G36*
X134889615Y-96014945D02*
X134889615Y-96446000D01*
X134918875Y-96593098D01*
X135002199Y-96717801D01*
X135126902Y-96801125D01*
X135274000Y-96830385D01*
X135359029Y-96830385D01*
X135553776Y-96960511D01*
X135867928Y-97023000D01*
X137881934Y-97023000D01*
X137920267Y-97030625D01*
X136139893Y-98811000D01*
X135951928Y-98811000D01*
X135637776Y-98873489D01*
X135443029Y-99003615D01*
X135358000Y-99003615D01*
X135210902Y-99032875D01*
X135086199Y-99116199D01*
X135085899Y-99116649D01*
X135034250Y-99065000D01*
X133985000Y-99065000D01*
X133985000Y-99085000D01*
X133731000Y-99085000D01*
X133731000Y-99065000D01*
X132681750Y-99065000D01*
X132523000Y-99223750D01*
X132523000Y-99564309D01*
X132619673Y-99797698D01*
X132798301Y-99976327D01*
X132935593Y-100033195D01*
X132886199Y-100066199D01*
X132802875Y-100190902D01*
X132773615Y-100338000D01*
X132773615Y-100635000D01*
X131919155Y-100635000D01*
X131918709Y-100632758D01*
X131658569Y-100243431D01*
X131452787Y-100105932D01*
X131564005Y-100059864D01*
X131638139Y-99813745D01*
X130810000Y-98985605D01*
X129981861Y-99813745D01*
X130055995Y-100059864D01*
X130173141Y-100101971D01*
X129961431Y-100243431D01*
X129701291Y-100632758D01*
X129609942Y-101092000D01*
X129701291Y-101551242D01*
X129961431Y-101940569D01*
X130350758Y-102200709D01*
X130694080Y-102269000D01*
X130925920Y-102269000D01*
X131269242Y-102200709D01*
X131658569Y-101940569D01*
X131918709Y-101551242D01*
X131919155Y-101549000D01*
X132845573Y-101549000D01*
X132886199Y-101609801D01*
X133010902Y-101693125D01*
X133158000Y-101722385D01*
X134558000Y-101722385D01*
X134705098Y-101693125D01*
X134829801Y-101609801D01*
X134913125Y-101485098D01*
X134942385Y-101338000D01*
X134942385Y-100338000D01*
X134913125Y-100190902D01*
X134829801Y-100066199D01*
X134780407Y-100033195D01*
X134917699Y-99976327D01*
X134967554Y-99926472D01*
X134973615Y-99956945D01*
X134973615Y-100388000D01*
X135002875Y-100535098D01*
X135086199Y-100659801D01*
X135210902Y-100743125D01*
X135358000Y-100772385D01*
X135443029Y-100772385D01*
X135637776Y-100902511D01*
X135951928Y-100965000D01*
X136308163Y-100965000D01*
X135457450Y-101815713D01*
X135367528Y-101875797D01*
X135307444Y-101965719D01*
X135307442Y-101965721D01*
X135201931Y-102123630D01*
X135182327Y-102076302D01*
X135003699Y-101897673D01*
X134770310Y-101801000D01*
X134229750Y-101801000D01*
X134071000Y-101959750D01*
X134071000Y-102809000D01*
X134091000Y-102809000D01*
X134091000Y-103063000D01*
X134071000Y-103063000D01*
X134071000Y-103083000D01*
X133817000Y-103083000D01*
X133817000Y-103063000D01*
X133797000Y-103063000D01*
X133797000Y-102809000D01*
X133817000Y-102809000D01*
X133817000Y-101959750D01*
X133658250Y-101801000D01*
X133117690Y-101801000D01*
X132884301Y-101897673D01*
X132705673Y-102076302D01*
X132609000Y-102309691D01*
X132609000Y-102406222D01*
X132477651Y-102274873D01*
X132219636Y-102168000D01*
X131940364Y-102168000D01*
X131682349Y-102274873D01*
X131614222Y-102343000D01*
X128262868Y-102343000D01*
X128336139Y-102099745D01*
X127508000Y-101271605D01*
X126679861Y-102099745D01*
X126753132Y-102343000D01*
X124163778Y-102343000D01*
X124095651Y-102274873D01*
X123837636Y-102168000D01*
X123558364Y-102168000D01*
X123300349Y-102274873D01*
X123102873Y-102472349D01*
X122996000Y-102730364D01*
X122996000Y-103009636D01*
X123102873Y-103267651D01*
X123204212Y-103368990D01*
X118491000Y-103368990D01*
X118491000Y-101942999D01*
X123651623Y-101942999D01*
X123696631Y-101951952D01*
X123741639Y-101942999D01*
X123741640Y-101942999D01*
X123874943Y-101916483D01*
X124026110Y-101815478D01*
X124051610Y-101777314D01*
X124953701Y-100875223D01*
X126061035Y-100875223D01*
X126088222Y-101445454D01*
X126254136Y-101846005D01*
X126500255Y-101920139D01*
X127328395Y-101092000D01*
X127687605Y-101092000D01*
X128515745Y-101920139D01*
X128761864Y-101846005D01*
X128954965Y-101308777D01*
X128927778Y-100738546D01*
X128761864Y-100337995D01*
X128515745Y-100263861D01*
X127687605Y-101092000D01*
X127328395Y-101092000D01*
X126500255Y-100263861D01*
X126254136Y-100337995D01*
X126061035Y-100875223D01*
X124953701Y-100875223D01*
X126465138Y-99363788D01*
X126659431Y-99654569D01*
X126865213Y-99792068D01*
X126753995Y-99838136D01*
X126679861Y-100084255D01*
X127508000Y-100912395D01*
X128336139Y-100084255D01*
X128262005Y-99838136D01*
X128144859Y-99796029D01*
X128356569Y-99654569D01*
X128616709Y-99265242D01*
X128708058Y-98806000D01*
X128664939Y-98589223D01*
X129363035Y-98589223D01*
X129390222Y-99159454D01*
X129556136Y-99560005D01*
X129802255Y-99634139D01*
X130630395Y-98806000D01*
X130989605Y-98806000D01*
X131817745Y-99634139D01*
X132063864Y-99560005D01*
X132256965Y-99022777D01*
X132229778Y-98452546D01*
X132171434Y-98311691D01*
X132523000Y-98311691D01*
X132523000Y-98652250D01*
X132681750Y-98811000D01*
X133731000Y-98811000D01*
X133731000Y-97961750D01*
X133985000Y-97961750D01*
X133985000Y-98811000D01*
X135034250Y-98811000D01*
X135193000Y-98652250D01*
X135193000Y-98311691D01*
X135096327Y-98078302D01*
X134917699Y-97899673D01*
X134684310Y-97803000D01*
X134143750Y-97803000D01*
X133985000Y-97961750D01*
X133731000Y-97961750D01*
X133572250Y-97803000D01*
X133031690Y-97803000D01*
X132798301Y-97899673D01*
X132619673Y-98078302D01*
X132523000Y-98311691D01*
X132171434Y-98311691D01*
X132063864Y-98051995D01*
X131817745Y-97977861D01*
X130989605Y-98806000D01*
X130630395Y-98806000D01*
X129802255Y-97977861D01*
X129556136Y-98051995D01*
X129363035Y-98589223D01*
X128664939Y-98589223D01*
X128616709Y-98346758D01*
X128356569Y-97957431D01*
X128118345Y-97798255D01*
X129981861Y-97798255D01*
X130810000Y-98626395D01*
X131638139Y-97798255D01*
X131564005Y-97552136D01*
X131026777Y-97359035D01*
X130456546Y-97386222D01*
X130055995Y-97552136D01*
X129981861Y-97798255D01*
X128118345Y-97798255D01*
X128065787Y-97763137D01*
X128475925Y-97353000D01*
X132689615Y-97353000D01*
X132689615Y-97396000D01*
X132718875Y-97543098D01*
X132802199Y-97667801D01*
X132926902Y-97751125D01*
X133074000Y-97780385D01*
X134474000Y-97780385D01*
X134621098Y-97751125D01*
X134745801Y-97667801D01*
X134829125Y-97543098D01*
X134858385Y-97396000D01*
X134858385Y-96396000D01*
X134829125Y-96248902D01*
X134745801Y-96124199D01*
X134696407Y-96091195D01*
X134833699Y-96034327D01*
X134883554Y-95984472D01*
X134889615Y-96014945D01*
X134889615Y-96014945D01*
G37*
X134889615Y-96014945D02*
X134889615Y-96446000D01*
X134918875Y-96593098D01*
X135002199Y-96717801D01*
X135126902Y-96801125D01*
X135274000Y-96830385D01*
X135359029Y-96830385D01*
X135553776Y-96960511D01*
X135867928Y-97023000D01*
X137881934Y-97023000D01*
X137920267Y-97030625D01*
X136139893Y-98811000D01*
X135951928Y-98811000D01*
X135637776Y-98873489D01*
X135443029Y-99003615D01*
X135358000Y-99003615D01*
X135210902Y-99032875D01*
X135086199Y-99116199D01*
X135085899Y-99116649D01*
X135034250Y-99065000D01*
X133985000Y-99065000D01*
X133985000Y-99085000D01*
X133731000Y-99085000D01*
X133731000Y-99065000D01*
X132681750Y-99065000D01*
X132523000Y-99223750D01*
X132523000Y-99564309D01*
X132619673Y-99797698D01*
X132798301Y-99976327D01*
X132935593Y-100033195D01*
X132886199Y-100066199D01*
X132802875Y-100190902D01*
X132773615Y-100338000D01*
X132773615Y-100635000D01*
X131919155Y-100635000D01*
X131918709Y-100632758D01*
X131658569Y-100243431D01*
X131452787Y-100105932D01*
X131564005Y-100059864D01*
X131638139Y-99813745D01*
X130810000Y-98985605D01*
X129981861Y-99813745D01*
X130055995Y-100059864D01*
X130173141Y-100101971D01*
X129961431Y-100243431D01*
X129701291Y-100632758D01*
X129609942Y-101092000D01*
X129701291Y-101551242D01*
X129961431Y-101940569D01*
X130350758Y-102200709D01*
X130694080Y-102269000D01*
X130925920Y-102269000D01*
X131269242Y-102200709D01*
X131658569Y-101940569D01*
X131918709Y-101551242D01*
X131919155Y-101549000D01*
X132845573Y-101549000D01*
X132886199Y-101609801D01*
X133010902Y-101693125D01*
X133158000Y-101722385D01*
X134558000Y-101722385D01*
X134705098Y-101693125D01*
X134829801Y-101609801D01*
X134913125Y-101485098D01*
X134942385Y-101338000D01*
X134942385Y-100338000D01*
X134913125Y-100190902D01*
X134829801Y-100066199D01*
X134780407Y-100033195D01*
X134917699Y-99976327D01*
X134967554Y-99926472D01*
X134973615Y-99956945D01*
X134973615Y-100388000D01*
X135002875Y-100535098D01*
X135086199Y-100659801D01*
X135210902Y-100743125D01*
X135358000Y-100772385D01*
X135443029Y-100772385D01*
X135637776Y-100902511D01*
X135951928Y-100965000D01*
X136308163Y-100965000D01*
X135457450Y-101815713D01*
X135367528Y-101875797D01*
X135307444Y-101965719D01*
X135307442Y-101965721D01*
X135201931Y-102123630D01*
X135182327Y-102076302D01*
X135003699Y-101897673D01*
X134770310Y-101801000D01*
X134229750Y-101801000D01*
X134071000Y-101959750D01*
X134071000Y-102809000D01*
X134091000Y-102809000D01*
X134091000Y-103063000D01*
X134071000Y-103063000D01*
X134071000Y-103083000D01*
X133817000Y-103083000D01*
X133817000Y-103063000D01*
X133797000Y-103063000D01*
X133797000Y-102809000D01*
X133817000Y-102809000D01*
X133817000Y-101959750D01*
X133658250Y-101801000D01*
X133117690Y-101801000D01*
X132884301Y-101897673D01*
X132705673Y-102076302D01*
X132609000Y-102309691D01*
X132609000Y-102406222D01*
X132477651Y-102274873D01*
X132219636Y-102168000D01*
X131940364Y-102168000D01*
X131682349Y-102274873D01*
X131614222Y-102343000D01*
X128262868Y-102343000D01*
X128336139Y-102099745D01*
X127508000Y-101271605D01*
X126679861Y-102099745D01*
X126753132Y-102343000D01*
X124163778Y-102343000D01*
X124095651Y-102274873D01*
X123837636Y-102168000D01*
X123558364Y-102168000D01*
X123300349Y-102274873D01*
X123102873Y-102472349D01*
X122996000Y-102730364D01*
X122996000Y-103009636D01*
X123102873Y-103267651D01*
X123204212Y-103368990D01*
X118491000Y-103368990D01*
X118491000Y-101942999D01*
X123651623Y-101942999D01*
X123696631Y-101951952D01*
X123741639Y-101942999D01*
X123741640Y-101942999D01*
X123874943Y-101916483D01*
X124026110Y-101815478D01*
X124051610Y-101777314D01*
X124953701Y-100875223D01*
X126061035Y-100875223D01*
X126088222Y-101445454D01*
X126254136Y-101846005D01*
X126500255Y-101920139D01*
X127328395Y-101092000D01*
X127687605Y-101092000D01*
X128515745Y-101920139D01*
X128761864Y-101846005D01*
X128954965Y-101308777D01*
X128927778Y-100738546D01*
X128761864Y-100337995D01*
X128515745Y-100263861D01*
X127687605Y-101092000D01*
X127328395Y-101092000D01*
X126500255Y-100263861D01*
X126254136Y-100337995D01*
X126061035Y-100875223D01*
X124953701Y-100875223D01*
X126465138Y-99363788D01*
X126659431Y-99654569D01*
X126865213Y-99792068D01*
X126753995Y-99838136D01*
X126679861Y-100084255D01*
X127508000Y-100912395D01*
X128336139Y-100084255D01*
X128262005Y-99838136D01*
X128144859Y-99796029D01*
X128356569Y-99654569D01*
X128616709Y-99265242D01*
X128708058Y-98806000D01*
X128664939Y-98589223D01*
X129363035Y-98589223D01*
X129390222Y-99159454D01*
X129556136Y-99560005D01*
X129802255Y-99634139D01*
X130630395Y-98806000D01*
X130989605Y-98806000D01*
X131817745Y-99634139D01*
X132063864Y-99560005D01*
X132256965Y-99022777D01*
X132229778Y-98452546D01*
X132171434Y-98311691D01*
X132523000Y-98311691D01*
X132523000Y-98652250D01*
X132681750Y-98811000D01*
X133731000Y-98811000D01*
X133731000Y-97961750D01*
X133985000Y-97961750D01*
X133985000Y-98811000D01*
X135034250Y-98811000D01*
X135193000Y-98652250D01*
X135193000Y-98311691D01*
X135096327Y-98078302D01*
X134917699Y-97899673D01*
X134684310Y-97803000D01*
X134143750Y-97803000D01*
X133985000Y-97961750D01*
X133731000Y-97961750D01*
X133572250Y-97803000D01*
X133031690Y-97803000D01*
X132798301Y-97899673D01*
X132619673Y-98078302D01*
X132523000Y-98311691D01*
X132171434Y-98311691D01*
X132063864Y-98051995D01*
X131817745Y-97977861D01*
X130989605Y-98806000D01*
X130630395Y-98806000D01*
X129802255Y-97977861D01*
X129556136Y-98051995D01*
X129363035Y-98589223D01*
X128664939Y-98589223D01*
X128616709Y-98346758D01*
X128356569Y-97957431D01*
X128118345Y-97798255D01*
X129981861Y-97798255D01*
X130810000Y-98626395D01*
X131638139Y-97798255D01*
X131564005Y-97552136D01*
X131026777Y-97359035D01*
X130456546Y-97386222D01*
X130055995Y-97552136D01*
X129981861Y-97798255D01*
X128118345Y-97798255D01*
X128065787Y-97763137D01*
X128475925Y-97353000D01*
X132689615Y-97353000D01*
X132689615Y-97396000D01*
X132718875Y-97543098D01*
X132802199Y-97667801D01*
X132926902Y-97751125D01*
X133074000Y-97780385D01*
X134474000Y-97780385D01*
X134621098Y-97751125D01*
X134745801Y-97667801D01*
X134829125Y-97543098D01*
X134858385Y-97396000D01*
X134858385Y-96396000D01*
X134829125Y-96248902D01*
X134745801Y-96124199D01*
X134696407Y-96091195D01*
X134833699Y-96034327D01*
X134883554Y-95984472D01*
X134889615Y-96014945D01*
G36*
X127216683Y-97319653D02*
X127178522Y-97345151D01*
X127100711Y-97461605D01*
X127077517Y-97496318D01*
X127042047Y-97674630D01*
X127046813Y-97698590D01*
X126659431Y-97957431D01*
X126400590Y-98344813D01*
X126376630Y-98340047D01*
X126331622Y-98349000D01*
X126331621Y-98349000D01*
X126198318Y-98375516D01*
X126047151Y-98476521D01*
X126021655Y-98514679D01*
X123507337Y-101028999D01*
X118491000Y-101028999D01*
X118491000Y-100330000D01*
X118481333Y-100281399D01*
X118453803Y-100240197D01*
X118412601Y-100212667D01*
X118364000Y-100203000D01*
X116332000Y-100203000D01*
X116283399Y-100212667D01*
X116242197Y-100240197D01*
X116214667Y-100281399D01*
X116205000Y-100330000D01*
X116205000Y-101028999D01*
X114652437Y-101028999D01*
X114860186Y-100890186D01*
X114903537Y-100825306D01*
X115411533Y-100317311D01*
X115539917Y-100125171D01*
X115600222Y-99822001D01*
X115539917Y-99518830D01*
X115413077Y-99329000D01*
X123774526Y-99329000D01*
X124001170Y-99283918D01*
X124258186Y-99112186D01*
X124429918Y-98855170D01*
X124490222Y-98552000D01*
X124429918Y-98248830D01*
X124258186Y-97991814D01*
X124001170Y-97820082D01*
X123774526Y-97775000D01*
X113461474Y-97775000D01*
X113234830Y-97820082D01*
X112977814Y-97991814D01*
X112806082Y-98248830D01*
X112745778Y-98552000D01*
X112806082Y-98855170D01*
X112977814Y-99112186D01*
X113234830Y-99283918D01*
X113461474Y-99329000D01*
X114202156Y-99329000D01*
X113978157Y-99553000D01*
X106887525Y-99553000D01*
X106660881Y-99598082D01*
X106403865Y-99769814D01*
X106232133Y-100026830D01*
X106171829Y-100330000D01*
X106232133Y-100633170D01*
X106403865Y-100890186D01*
X106611614Y-101028999D01*
X106436607Y-101028999D01*
X106391599Y-101020046D01*
X106346591Y-101028999D01*
X106346590Y-101028999D01*
X106213287Y-101055515D01*
X106062120Y-101156520D01*
X106036624Y-101194678D01*
X105614704Y-101616599D01*
X104019321Y-101616599D01*
X104232709Y-101297242D01*
X104324058Y-100838000D01*
X104232709Y-100378758D01*
X103972569Y-99989431D01*
X103583242Y-99729291D01*
X103239920Y-99661000D01*
X103008080Y-99661000D01*
X102664758Y-99729291D01*
X102275431Y-99989431D01*
X102015291Y-100378758D01*
X102014845Y-100381000D01*
X100144680Y-100381000D01*
X100057813Y-100171283D01*
X99726717Y-99840187D01*
X99294120Y-99661000D01*
X98825880Y-99661000D01*
X98393283Y-99840187D01*
X98062187Y-100171283D01*
X97883000Y-100603880D01*
X97883000Y-101072120D01*
X97969868Y-101281837D01*
X97417705Y-101834001D01*
X92067921Y-101834001D01*
X92288569Y-101686569D01*
X92548709Y-101297242D01*
X92640058Y-100838000D01*
X92548709Y-100378758D01*
X92288569Y-99989431D01*
X91899242Y-99729291D01*
X91555920Y-99661000D01*
X91324080Y-99661000D01*
X90980758Y-99729291D01*
X90591431Y-99989431D01*
X90331291Y-100378758D01*
X90239942Y-100838000D01*
X90331291Y-101297242D01*
X90591431Y-101686569D01*
X90812079Y-101834001D01*
X90634779Y-101834001D01*
X90496652Y-101695874D01*
X90238637Y-101589001D01*
X89959365Y-101589001D01*
X89701350Y-101695874D01*
X89503874Y-101893350D01*
X89488751Y-101929859D01*
X89138296Y-101579404D01*
X89133277Y-101554171D01*
X89114483Y-101459687D01*
X89013478Y-101308520D01*
X88993165Y-101294948D01*
X89084058Y-100838000D01*
X88992709Y-100378758D01*
X88732569Y-99989431D01*
X88343242Y-99729291D01*
X87999920Y-99661000D01*
X87768080Y-99661000D01*
X87424758Y-99729291D01*
X87035431Y-99989431D01*
X86775291Y-100378758D01*
X86742000Y-100546123D01*
X86742000Y-98589877D01*
X86775291Y-98757242D01*
X87035431Y-99146569D01*
X87424758Y-99406709D01*
X87768080Y-99475000D01*
X87999920Y-99475000D01*
X88343242Y-99406709D01*
X88732569Y-99146569D01*
X88992709Y-98757242D01*
X88993155Y-98755000D01*
X99286222Y-98755000D01*
X99424349Y-98893127D01*
X99682364Y-99000000D01*
X99961636Y-99000000D01*
X100219651Y-98893127D01*
X100417127Y-98695651D01*
X100524000Y-98437636D01*
X100524000Y-98242294D01*
X101091296Y-97674999D01*
X102124711Y-97674999D01*
X102015291Y-97838758D01*
X101923942Y-98298000D01*
X102015291Y-98757242D01*
X102275431Y-99146569D01*
X102664758Y-99406709D01*
X103008080Y-99475000D01*
X103239920Y-99475000D01*
X103583242Y-99406709D01*
X103972569Y-99146569D01*
X104232709Y-98757242D01*
X104324058Y-98298000D01*
X104322416Y-98289745D01*
X107161861Y-98289745D01*
X107235995Y-98535864D01*
X107773223Y-98728965D01*
X108343454Y-98701778D01*
X108744005Y-98535864D01*
X108818139Y-98289745D01*
X107990000Y-97461605D01*
X107161861Y-98289745D01*
X104322416Y-98289745D01*
X104232709Y-97838758D01*
X104123289Y-97674999D01*
X106410591Y-97674999D01*
X106455599Y-97683952D01*
X106500607Y-97674999D01*
X106500608Y-97674999D01*
X106580056Y-97659196D01*
X106736136Y-98036005D01*
X106982255Y-98110139D01*
X107810395Y-97282000D01*
X107796253Y-97267858D01*
X107975858Y-97088253D01*
X107990000Y-97102395D01*
X108004142Y-97088252D01*
X108183748Y-97267858D01*
X108169605Y-97282000D01*
X108997745Y-98110139D01*
X109243864Y-98036005D01*
X109305615Y-97864207D01*
X109305615Y-98082000D01*
X109334875Y-98229098D01*
X109418199Y-98353801D01*
X109542902Y-98437125D01*
X109690000Y-98466385D01*
X111290000Y-98466385D01*
X111437098Y-98437125D01*
X111561801Y-98353801D01*
X111645125Y-98229098D01*
X111674385Y-98082000D01*
X111674385Y-96658999D01*
X127877336Y-96658999D01*
X127216683Y-97319653D01*
X127216683Y-97319653D01*
G37*
X127216683Y-97319653D02*
X127178522Y-97345151D01*
X127100711Y-97461605D01*
X127077517Y-97496318D01*
X127042047Y-97674630D01*
X127046813Y-97698590D01*
X126659431Y-97957431D01*
X126400590Y-98344813D01*
X126376630Y-98340047D01*
X126331622Y-98349000D01*
X126331621Y-98349000D01*
X126198318Y-98375516D01*
X126047151Y-98476521D01*
X126021655Y-98514679D01*
X123507337Y-101028999D01*
X118491000Y-101028999D01*
X118491000Y-100330000D01*
X118481333Y-100281399D01*
X118453803Y-100240197D01*
X118412601Y-100212667D01*
X118364000Y-100203000D01*
X116332000Y-100203000D01*
X116283399Y-100212667D01*
X116242197Y-100240197D01*
X116214667Y-100281399D01*
X116205000Y-100330000D01*
X116205000Y-101028999D01*
X114652437Y-101028999D01*
X114860186Y-100890186D01*
X114903537Y-100825306D01*
X115411533Y-100317311D01*
X115539917Y-100125171D01*
X115600222Y-99822001D01*
X115539917Y-99518830D01*
X115413077Y-99329000D01*
X123774526Y-99329000D01*
X124001170Y-99283918D01*
X124258186Y-99112186D01*
X124429918Y-98855170D01*
X124490222Y-98552000D01*
X124429918Y-98248830D01*
X124258186Y-97991814D01*
X124001170Y-97820082D01*
X123774526Y-97775000D01*
X113461474Y-97775000D01*
X113234830Y-97820082D01*
X112977814Y-97991814D01*
X112806082Y-98248830D01*
X112745778Y-98552000D01*
X112806082Y-98855170D01*
X112977814Y-99112186D01*
X113234830Y-99283918D01*
X113461474Y-99329000D01*
X114202156Y-99329000D01*
X113978157Y-99553000D01*
X106887525Y-99553000D01*
X106660881Y-99598082D01*
X106403865Y-99769814D01*
X106232133Y-100026830D01*
X106171829Y-100330000D01*
X106232133Y-100633170D01*
X106403865Y-100890186D01*
X106611614Y-101028999D01*
X106436607Y-101028999D01*
X106391599Y-101020046D01*
X106346591Y-101028999D01*
X106346590Y-101028999D01*
X106213287Y-101055515D01*
X106062120Y-101156520D01*
X106036624Y-101194678D01*
X105614704Y-101616599D01*
X104019321Y-101616599D01*
X104232709Y-101297242D01*
X104324058Y-100838000D01*
X104232709Y-100378758D01*
X103972569Y-99989431D01*
X103583242Y-99729291D01*
X103239920Y-99661000D01*
X103008080Y-99661000D01*
X102664758Y-99729291D01*
X102275431Y-99989431D01*
X102015291Y-100378758D01*
X102014845Y-100381000D01*
X100144680Y-100381000D01*
X100057813Y-100171283D01*
X99726717Y-99840187D01*
X99294120Y-99661000D01*
X98825880Y-99661000D01*
X98393283Y-99840187D01*
X98062187Y-100171283D01*
X97883000Y-100603880D01*
X97883000Y-101072120D01*
X97969868Y-101281837D01*
X97417705Y-101834001D01*
X92067921Y-101834001D01*
X92288569Y-101686569D01*
X92548709Y-101297242D01*
X92640058Y-100838000D01*
X92548709Y-100378758D01*
X92288569Y-99989431D01*
X91899242Y-99729291D01*
X91555920Y-99661000D01*
X91324080Y-99661000D01*
X90980758Y-99729291D01*
X90591431Y-99989431D01*
X90331291Y-100378758D01*
X90239942Y-100838000D01*
X90331291Y-101297242D01*
X90591431Y-101686569D01*
X90812079Y-101834001D01*
X90634779Y-101834001D01*
X90496652Y-101695874D01*
X90238637Y-101589001D01*
X89959365Y-101589001D01*
X89701350Y-101695874D01*
X89503874Y-101893350D01*
X89488751Y-101929859D01*
X89138296Y-101579404D01*
X89133277Y-101554171D01*
X89114483Y-101459687D01*
X89013478Y-101308520D01*
X88993165Y-101294948D01*
X89084058Y-100838000D01*
X88992709Y-100378758D01*
X88732569Y-99989431D01*
X88343242Y-99729291D01*
X87999920Y-99661000D01*
X87768080Y-99661000D01*
X87424758Y-99729291D01*
X87035431Y-99989431D01*
X86775291Y-100378758D01*
X86742000Y-100546123D01*
X86742000Y-98589877D01*
X86775291Y-98757242D01*
X87035431Y-99146569D01*
X87424758Y-99406709D01*
X87768080Y-99475000D01*
X87999920Y-99475000D01*
X88343242Y-99406709D01*
X88732569Y-99146569D01*
X88992709Y-98757242D01*
X88993155Y-98755000D01*
X99286222Y-98755000D01*
X99424349Y-98893127D01*
X99682364Y-99000000D01*
X99961636Y-99000000D01*
X100219651Y-98893127D01*
X100417127Y-98695651D01*
X100524000Y-98437636D01*
X100524000Y-98242294D01*
X101091296Y-97674999D01*
X102124711Y-97674999D01*
X102015291Y-97838758D01*
X101923942Y-98298000D01*
X102015291Y-98757242D01*
X102275431Y-99146569D01*
X102664758Y-99406709D01*
X103008080Y-99475000D01*
X103239920Y-99475000D01*
X103583242Y-99406709D01*
X103972569Y-99146569D01*
X104232709Y-98757242D01*
X104324058Y-98298000D01*
X104322416Y-98289745D01*
X107161861Y-98289745D01*
X107235995Y-98535864D01*
X107773223Y-98728965D01*
X108343454Y-98701778D01*
X108744005Y-98535864D01*
X108818139Y-98289745D01*
X107990000Y-97461605D01*
X107161861Y-98289745D01*
X104322416Y-98289745D01*
X104232709Y-97838758D01*
X104123289Y-97674999D01*
X106410591Y-97674999D01*
X106455599Y-97683952D01*
X106500607Y-97674999D01*
X106500608Y-97674999D01*
X106580056Y-97659196D01*
X106736136Y-98036005D01*
X106982255Y-98110139D01*
X107810395Y-97282000D01*
X107796253Y-97267858D01*
X107975858Y-97088253D01*
X107990000Y-97102395D01*
X108004142Y-97088252D01*
X108183748Y-97267858D01*
X108169605Y-97282000D01*
X108997745Y-98110139D01*
X109243864Y-98036005D01*
X109305615Y-97864207D01*
X109305615Y-98082000D01*
X109334875Y-98229098D01*
X109418199Y-98353801D01*
X109542902Y-98437125D01*
X109690000Y-98466385D01*
X111290000Y-98466385D01*
X111437098Y-98437125D01*
X111561801Y-98353801D01*
X111645125Y-98229098D01*
X111674385Y-98082000D01*
X111674385Y-96658999D01*
X127877336Y-96658999D01*
X127216683Y-97319653D01*
G36*
X132439000Y-94710250D02*
X132597750Y-94869000D01*
X133647000Y-94869000D01*
X133647000Y-94849000D01*
X133901000Y-94849000D01*
X133901000Y-94869000D01*
X134950250Y-94869000D01*
X135109000Y-94710250D01*
X135109000Y-94672999D01*
X137114221Y-94672999D01*
X137270349Y-94829127D01*
X137366611Y-94869000D01*
X135867928Y-94869000D01*
X135553776Y-94931489D01*
X135359029Y-95061615D01*
X135274000Y-95061615D01*
X135126902Y-95090875D01*
X135002199Y-95174199D01*
X135001899Y-95174649D01*
X134950250Y-95123000D01*
X133901000Y-95123000D01*
X133901000Y-95143000D01*
X133647000Y-95143000D01*
X133647000Y-95123000D01*
X132597750Y-95123000D01*
X132439000Y-95281750D01*
X132439000Y-95622309D01*
X132535673Y-95855698D01*
X132714301Y-96034327D01*
X132851593Y-96091195D01*
X132802199Y-96124199D01*
X132718875Y-96248902D01*
X132689615Y-96396000D01*
X132689615Y-96439000D01*
X131407669Y-96439000D01*
X131447999Y-96341635D01*
X131447999Y-96062363D01*
X131341126Y-95804348D01*
X131143650Y-95606872D01*
X130885635Y-95499999D01*
X130606363Y-95499999D01*
X130348348Y-95606872D01*
X130210221Y-95744999D01*
X130199295Y-95744999D01*
X131271297Y-94672999D01*
X132439000Y-94672999D01*
X132439000Y-94710250D01*
X132439000Y-94710250D01*
G37*
X132439000Y-94710250D02*
X132597750Y-94869000D01*
X133647000Y-94869000D01*
X133647000Y-94849000D01*
X133901000Y-94849000D01*
X133901000Y-94869000D01*
X134950250Y-94869000D01*
X135109000Y-94710250D01*
X135109000Y-94672999D01*
X137114221Y-94672999D01*
X137270349Y-94829127D01*
X137366611Y-94869000D01*
X135867928Y-94869000D01*
X135553776Y-94931489D01*
X135359029Y-95061615D01*
X135274000Y-95061615D01*
X135126902Y-95090875D01*
X135002199Y-95174199D01*
X135001899Y-95174649D01*
X134950250Y-95123000D01*
X133901000Y-95123000D01*
X133901000Y-95143000D01*
X133647000Y-95143000D01*
X133647000Y-95123000D01*
X132597750Y-95123000D01*
X132439000Y-95281750D01*
X132439000Y-95622309D01*
X132535673Y-95855698D01*
X132714301Y-96034327D01*
X132851593Y-96091195D01*
X132802199Y-96124199D01*
X132718875Y-96248902D01*
X132689615Y-96396000D01*
X132689615Y-96439000D01*
X131407669Y-96439000D01*
X131447999Y-96341635D01*
X131447999Y-96062363D01*
X131341126Y-95804348D01*
X131143650Y-95606872D01*
X130885635Y-95499999D01*
X130606363Y-95499999D01*
X130348348Y-95606872D01*
X130210221Y-95744999D01*
X130199295Y-95744999D01*
X131271297Y-94672999D01*
X132439000Y-94672999D01*
X132439000Y-94710250D01*
G36*
X102015291Y-80058758D02*
X101923942Y-80518000D01*
X102015291Y-80977242D01*
X102275431Y-81366569D01*
X102328456Y-81401999D01*
X96460000Y-81401999D01*
X96460000Y-81394364D01*
X96353127Y-81136349D01*
X96155651Y-80938873D01*
X95897636Y-80832000D01*
X95618364Y-80832000D01*
X95360349Y-80938873D01*
X95162873Y-81136349D01*
X95056000Y-81394364D01*
X95056000Y-81673636D01*
X95162873Y-81931651D01*
X95360349Y-82129127D01*
X95618364Y-82236000D01*
X95824643Y-82236000D01*
X95904687Y-82289483D01*
X96037990Y-82315999D01*
X96037991Y-82315999D01*
X96082999Y-82324952D01*
X96128007Y-82315999D01*
X101897106Y-82315999D01*
X101892959Y-82320577D01*
X101732096Y-82708961D01*
X101854085Y-82931000D01*
X102997000Y-82931000D01*
X102997000Y-82911000D01*
X103251000Y-82911000D01*
X103251000Y-82931000D01*
X104393915Y-82931000D01*
X104515904Y-82708961D01*
X104355041Y-82320577D01*
X104350894Y-82315999D01*
X120075224Y-82315999D01*
X119984874Y-82406349D01*
X119878001Y-82664364D01*
X119878001Y-82690970D01*
X119736890Y-82632524D01*
X119507000Y-82753845D01*
X119507000Y-83947000D01*
X121793000Y-83947000D01*
X121793000Y-83927000D01*
X122047000Y-83927000D01*
X122047000Y-83947000D01*
X122067000Y-83947000D01*
X122067000Y-84201000D01*
X122047000Y-84201000D01*
X122047000Y-85400250D01*
X122205750Y-85559000D01*
X122896310Y-85559000D01*
X123063000Y-85489955D01*
X123063000Y-86914182D01*
X122654561Y-86745000D01*
X122201439Y-86745000D01*
X121782809Y-86918403D01*
X121462403Y-87238809D01*
X121289000Y-87657439D01*
X121289000Y-88110561D01*
X121462403Y-88529191D01*
X121782809Y-88849597D01*
X122201439Y-89023000D01*
X122654561Y-89023000D01*
X123063000Y-88853818D01*
X123063000Y-90815943D01*
X123058617Y-90809383D01*
X122652752Y-90538192D01*
X122294847Y-90467000D01*
X122053153Y-90467000D01*
X121695248Y-90538192D01*
X121289383Y-90809383D01*
X121018192Y-91215248D01*
X120922962Y-91694000D01*
X121018192Y-92172752D01*
X121122594Y-92329000D01*
X120685406Y-92329000D01*
X120789808Y-92172752D01*
X120885038Y-91694000D01*
X120789808Y-91215248D01*
X120518617Y-90809383D01*
X120112752Y-90538192D01*
X119754847Y-90467000D01*
X119513153Y-90467000D01*
X119155248Y-90538192D01*
X118749383Y-90809383D01*
X118478192Y-91215248D01*
X118382962Y-91694000D01*
X118478192Y-92172752D01*
X118582594Y-92329000D01*
X118328385Y-92329000D01*
X118328385Y-90844000D01*
X118299125Y-90696902D01*
X118215801Y-90572199D01*
X118091098Y-90488875D01*
X117944000Y-90459615D01*
X116244000Y-90459615D01*
X116096902Y-90488875D01*
X115972199Y-90572199D01*
X115888875Y-90696902D01*
X115859615Y-90844000D01*
X115859615Y-92329000D01*
X112690951Y-92329000D01*
X112857000Y-91928120D01*
X112857000Y-91459880D01*
X112793627Y-91306885D01*
X112870363Y-90693000D01*
X114884526Y-90693000D01*
X115111170Y-90647918D01*
X115368186Y-90476186D01*
X115539918Y-90219170D01*
X115600222Y-89916000D01*
X115539918Y-89612830D01*
X115368186Y-89355814D01*
X115111170Y-89184082D01*
X114884526Y-89139000D01*
X112454444Y-89139000D01*
X112485296Y-89118385D01*
X112864000Y-89118385D01*
X113011098Y-89089125D01*
X113135801Y-89005801D01*
X113219125Y-88881098D01*
X113248385Y-88734000D01*
X113248385Y-87034000D01*
X113219125Y-86886902D01*
X113216518Y-86883000D01*
X113843562Y-86883000D01*
X113669383Y-86999383D01*
X113398192Y-87405248D01*
X113302962Y-87884000D01*
X113398192Y-88362752D01*
X113669383Y-88768617D01*
X114075248Y-89039808D01*
X114433153Y-89111000D01*
X114674847Y-89111000D01*
X115032752Y-89039808D01*
X115438617Y-88768617D01*
X115709808Y-88362752D01*
X115805038Y-87884000D01*
X115842962Y-87884000D01*
X115938192Y-88362752D01*
X116209383Y-88768617D01*
X116615248Y-89039808D01*
X116973153Y-89111000D01*
X117214847Y-89111000D01*
X117572752Y-89039808D01*
X117978617Y-88768617D01*
X118249808Y-88362752D01*
X118345038Y-87884000D01*
X118249808Y-87405248D01*
X117978617Y-86999383D01*
X117572752Y-86728192D01*
X117214847Y-86657000D01*
X116973153Y-86657000D01*
X116615248Y-86728192D01*
X116209383Y-86999383D01*
X115938192Y-87405248D01*
X115842962Y-87884000D01*
X115805038Y-87884000D01*
X115709808Y-87405248D01*
X115438617Y-86999383D01*
X115032752Y-86728192D01*
X115023994Y-86726450D01*
X115114186Y-86666186D01*
X115285918Y-86409170D01*
X115346222Y-86106000D01*
X115285918Y-85802830D01*
X115114186Y-85545814D01*
X114857170Y-85374082D01*
X114630526Y-85329000D01*
X110413474Y-85329000D01*
X110186830Y-85374082D01*
X109929814Y-85545814D01*
X109758082Y-85802830D01*
X109697778Y-86106000D01*
X109700990Y-86122147D01*
X109443538Y-85864695D01*
X109400186Y-85799814D01*
X109143170Y-85628082D01*
X108916526Y-85583000D01*
X108916525Y-85583000D01*
X108840000Y-85567778D01*
X108763475Y-85583000D01*
X104978525Y-85583000D01*
X104902000Y-85567778D01*
X104825475Y-85583000D01*
X104825474Y-85583000D01*
X104598830Y-85628082D01*
X104341814Y-85799814D01*
X104298464Y-85864692D01*
X104264193Y-85898963D01*
X104324058Y-85598000D01*
X104232709Y-85138758D01*
X103972569Y-84749431D01*
X103583242Y-84489291D01*
X103251002Y-84423204D01*
X103251002Y-84328630D01*
X103473041Y-84449914D01*
X103979134Y-84210389D01*
X104355041Y-83795423D01*
X104515904Y-83407039D01*
X104415342Y-83224000D01*
X106461615Y-83224000D01*
X106461615Y-84924000D01*
X106490875Y-85071098D01*
X106574199Y-85195801D01*
X106698902Y-85279125D01*
X106846000Y-85308385D01*
X108546000Y-85308385D01*
X108693098Y-85279125D01*
X108817801Y-85195801D01*
X108901125Y-85071098D01*
X108930385Y-84924000D01*
X108930385Y-84851000D01*
X109279475Y-84851000D01*
X109351383Y-84958617D01*
X109757248Y-85229808D01*
X110115153Y-85301000D01*
X110356847Y-85301000D01*
X110714752Y-85229808D01*
X111120617Y-84958617D01*
X111192525Y-84851000D01*
X111819475Y-84851000D01*
X111891383Y-84958617D01*
X112297248Y-85229808D01*
X112655153Y-85301000D01*
X112896847Y-85301000D01*
X113254752Y-85229808D01*
X113660617Y-84958617D01*
X113931808Y-84552752D01*
X113956047Y-84430892D01*
X115398514Y-84430892D01*
X115644817Y-84955358D01*
X116073076Y-85345645D01*
X116483110Y-85515476D01*
X116713000Y-85394155D01*
X116713000Y-84201000D01*
X116967000Y-84201000D01*
X116967000Y-85394155D01*
X117196890Y-85515476D01*
X117606924Y-85345645D01*
X118035183Y-84955358D01*
X118110000Y-84796046D01*
X118184817Y-84955358D01*
X118613076Y-85345645D01*
X119023110Y-85515476D01*
X119253000Y-85394155D01*
X119253000Y-84201000D01*
X119507000Y-84201000D01*
X119507000Y-85394155D01*
X119736890Y-85515476D01*
X120146924Y-85345645D01*
X120444864Y-85074122D01*
X120531673Y-85283698D01*
X120710301Y-85462327D01*
X120943690Y-85559000D01*
X121634250Y-85559000D01*
X121793000Y-85400250D01*
X121793000Y-84201000D01*
X119507000Y-84201000D01*
X119253000Y-84201000D01*
X116967000Y-84201000D01*
X116713000Y-84201000D01*
X115519181Y-84201000D01*
X115398514Y-84430892D01*
X113956047Y-84430892D01*
X114027038Y-84074000D01*
X113956048Y-83717108D01*
X115398514Y-83717108D01*
X115519181Y-83947000D01*
X116713000Y-83947000D01*
X116713000Y-82753845D01*
X116967000Y-82753845D01*
X116967000Y-83947000D01*
X119253000Y-83947000D01*
X119253000Y-82753845D01*
X119023110Y-82632524D01*
X118613076Y-82802355D01*
X118184817Y-83192642D01*
X118110000Y-83351954D01*
X118035183Y-83192642D01*
X117606924Y-82802355D01*
X117196890Y-82632524D01*
X116967000Y-82753845D01*
X116713000Y-82753845D01*
X116483110Y-82632524D01*
X116073076Y-82802355D01*
X115644817Y-83192642D01*
X115398514Y-83717108D01*
X113956048Y-83717108D01*
X113931808Y-83595248D01*
X113660617Y-83189383D01*
X113254752Y-82918192D01*
X112896847Y-82847000D01*
X112655153Y-82847000D01*
X112297248Y-82918192D01*
X111891383Y-83189383D01*
X111819475Y-83297000D01*
X111192525Y-83297000D01*
X111120617Y-83189383D01*
X110714752Y-82918192D01*
X110356847Y-82847000D01*
X110115153Y-82847000D01*
X109757248Y-82918192D01*
X109351383Y-83189383D01*
X109279475Y-83297000D01*
X108930385Y-83297000D01*
X108930385Y-83224000D01*
X108901125Y-83076902D01*
X108817801Y-82952199D01*
X108693098Y-82868875D01*
X108546000Y-82839615D01*
X106846000Y-82839615D01*
X106698902Y-82868875D01*
X106574199Y-82952199D01*
X106490875Y-83076902D01*
X106461615Y-83224000D01*
X104415342Y-83224000D01*
X104393915Y-83185000D01*
X103251000Y-83185000D01*
X103251000Y-83205000D01*
X102997000Y-83205000D01*
X102997000Y-83185000D01*
X101854085Y-83185000D01*
X101732096Y-83407039D01*
X101892959Y-83795423D01*
X102268866Y-84210389D01*
X102774959Y-84449914D01*
X102996998Y-84328630D01*
X102996998Y-84423204D01*
X102664758Y-84489291D01*
X102275431Y-84749431D01*
X102015291Y-85138758D01*
X102014845Y-85141000D01*
X94515778Y-85141000D01*
X94377651Y-85002873D01*
X94119636Y-84896000D01*
X93840364Y-84896000D01*
X93582349Y-85002873D01*
X93384873Y-85200349D01*
X93278000Y-85458364D01*
X93278000Y-85737636D01*
X93384873Y-85995651D01*
X93582349Y-86193127D01*
X93767940Y-86270001D01*
X91308897Y-86270001D01*
X91256999Y-86259678D01*
X91205101Y-86270001D01*
X91205096Y-86270001D01*
X91051374Y-86300578D01*
X91051372Y-86300579D01*
X91051373Y-86300579D01*
X90962444Y-86360000D01*
X90877054Y-86417056D01*
X90875087Y-86420000D01*
X90792364Y-86420000D01*
X90534349Y-86526873D01*
X90336873Y-86724349D01*
X90230000Y-86982364D01*
X90230000Y-87261636D01*
X90336873Y-87519651D01*
X90534349Y-87717127D01*
X90792364Y-87824000D01*
X91059000Y-87824000D01*
X91059000Y-88951000D01*
X89199007Y-88951000D01*
X89153999Y-88942047D01*
X89108991Y-88951000D01*
X89032859Y-88966144D01*
X89115041Y-88875423D01*
X89275904Y-88487039D01*
X89153915Y-88265000D01*
X88011000Y-88265000D01*
X88011000Y-88285000D01*
X87757000Y-88285000D01*
X87757000Y-88265000D01*
X87737000Y-88265000D01*
X87737000Y-88011000D01*
X87757000Y-88011000D01*
X87757000Y-87991000D01*
X88011000Y-87991000D01*
X88011000Y-88011000D01*
X89153915Y-88011000D01*
X89275904Y-87788961D01*
X89115041Y-87400577D01*
X88739134Y-86985611D01*
X88233041Y-86746086D01*
X88011002Y-86867370D01*
X88011002Y-86772796D01*
X88343242Y-86706709D01*
X88732569Y-86446569D01*
X88992709Y-86057242D01*
X89084058Y-85598000D01*
X88992709Y-85138758D01*
X88732569Y-84749431D01*
X88343242Y-84489291D01*
X87999920Y-84421000D01*
X87768080Y-84421000D01*
X87424758Y-84489291D01*
X87035431Y-84749431D01*
X86775291Y-85138758D01*
X86742000Y-85306123D01*
X86742000Y-83349877D01*
X86775291Y-83517242D01*
X87035431Y-83906569D01*
X87424758Y-84166709D01*
X87768080Y-84235000D01*
X87999920Y-84235000D01*
X88343242Y-84166709D01*
X88732569Y-83906569D01*
X88992709Y-83517242D01*
X88993155Y-83515000D01*
X92682222Y-83515000D01*
X92820349Y-83653127D01*
X93078364Y-83760000D01*
X93357636Y-83760000D01*
X93615651Y-83653127D01*
X93813127Y-83455651D01*
X93920000Y-83197636D01*
X93920000Y-82918364D01*
X93813127Y-82660349D01*
X93615651Y-82462873D01*
X93357636Y-82356000D01*
X93078364Y-82356000D01*
X92820349Y-82462873D01*
X92682222Y-82601000D01*
X88993155Y-82601000D01*
X88992709Y-82598758D01*
X88732569Y-82209431D01*
X88343242Y-81949291D01*
X87999920Y-81881000D01*
X87768080Y-81881000D01*
X87424758Y-81949291D01*
X87035431Y-82209431D01*
X86775291Y-82598758D01*
X86742000Y-82766123D01*
X86742000Y-81484741D01*
X86812199Y-81589801D01*
X86936902Y-81673125D01*
X87084000Y-81702385D01*
X88684000Y-81702385D01*
X88831098Y-81673125D01*
X88955801Y-81589801D01*
X89039125Y-81465098D01*
X89068385Y-81318000D01*
X89068385Y-80975000D01*
X91920222Y-80975000D01*
X92058349Y-81113127D01*
X92316364Y-81220000D01*
X92595636Y-81220000D01*
X92853651Y-81113127D01*
X93051127Y-80915651D01*
X93158000Y-80657636D01*
X93158000Y-80378364D01*
X93051127Y-80120349D01*
X92853651Y-79922873D01*
X92595636Y-79816000D01*
X92316364Y-79816000D01*
X92058349Y-79922873D01*
X91920222Y-80061000D01*
X89068385Y-80061000D01*
X89068385Y-79950000D01*
X89103637Y-79950000D01*
X89361652Y-79843127D01*
X89499779Y-79705000D01*
X102251665Y-79705000D01*
X102015291Y-80058758D01*
X102015291Y-80058758D01*
G37*
X102015291Y-80058758D02*
X101923942Y-80518000D01*
X102015291Y-80977242D01*
X102275431Y-81366569D01*
X102328456Y-81401999D01*
X96460000Y-81401999D01*
X96460000Y-81394364D01*
X96353127Y-81136349D01*
X96155651Y-80938873D01*
X95897636Y-80832000D01*
X95618364Y-80832000D01*
X95360349Y-80938873D01*
X95162873Y-81136349D01*
X95056000Y-81394364D01*
X95056000Y-81673636D01*
X95162873Y-81931651D01*
X95360349Y-82129127D01*
X95618364Y-82236000D01*
X95824643Y-82236000D01*
X95904687Y-82289483D01*
X96037990Y-82315999D01*
X96037991Y-82315999D01*
X96082999Y-82324952D01*
X96128007Y-82315999D01*
X101897106Y-82315999D01*
X101892959Y-82320577D01*
X101732096Y-82708961D01*
X101854085Y-82931000D01*
X102997000Y-82931000D01*
X102997000Y-82911000D01*
X103251000Y-82911000D01*
X103251000Y-82931000D01*
X104393915Y-82931000D01*
X104515904Y-82708961D01*
X104355041Y-82320577D01*
X104350894Y-82315999D01*
X120075224Y-82315999D01*
X119984874Y-82406349D01*
X119878001Y-82664364D01*
X119878001Y-82690970D01*
X119736890Y-82632524D01*
X119507000Y-82753845D01*
X119507000Y-83947000D01*
X121793000Y-83947000D01*
X121793000Y-83927000D01*
X122047000Y-83927000D01*
X122047000Y-83947000D01*
X122067000Y-83947000D01*
X122067000Y-84201000D01*
X122047000Y-84201000D01*
X122047000Y-85400250D01*
X122205750Y-85559000D01*
X122896310Y-85559000D01*
X123063000Y-85489955D01*
X123063000Y-86914182D01*
X122654561Y-86745000D01*
X122201439Y-86745000D01*
X121782809Y-86918403D01*
X121462403Y-87238809D01*
X121289000Y-87657439D01*
X121289000Y-88110561D01*
X121462403Y-88529191D01*
X121782809Y-88849597D01*
X122201439Y-89023000D01*
X122654561Y-89023000D01*
X123063000Y-88853818D01*
X123063000Y-90815943D01*
X123058617Y-90809383D01*
X122652752Y-90538192D01*
X122294847Y-90467000D01*
X122053153Y-90467000D01*
X121695248Y-90538192D01*
X121289383Y-90809383D01*
X121018192Y-91215248D01*
X120922962Y-91694000D01*
X121018192Y-92172752D01*
X121122594Y-92329000D01*
X120685406Y-92329000D01*
X120789808Y-92172752D01*
X120885038Y-91694000D01*
X120789808Y-91215248D01*
X120518617Y-90809383D01*
X120112752Y-90538192D01*
X119754847Y-90467000D01*
X119513153Y-90467000D01*
X119155248Y-90538192D01*
X118749383Y-90809383D01*
X118478192Y-91215248D01*
X118382962Y-91694000D01*
X118478192Y-92172752D01*
X118582594Y-92329000D01*
X118328385Y-92329000D01*
X118328385Y-90844000D01*
X118299125Y-90696902D01*
X118215801Y-90572199D01*
X118091098Y-90488875D01*
X117944000Y-90459615D01*
X116244000Y-90459615D01*
X116096902Y-90488875D01*
X115972199Y-90572199D01*
X115888875Y-90696902D01*
X115859615Y-90844000D01*
X115859615Y-92329000D01*
X112690951Y-92329000D01*
X112857000Y-91928120D01*
X112857000Y-91459880D01*
X112793627Y-91306885D01*
X112870363Y-90693000D01*
X114884526Y-90693000D01*
X115111170Y-90647918D01*
X115368186Y-90476186D01*
X115539918Y-90219170D01*
X115600222Y-89916000D01*
X115539918Y-89612830D01*
X115368186Y-89355814D01*
X115111170Y-89184082D01*
X114884526Y-89139000D01*
X112454444Y-89139000D01*
X112485296Y-89118385D01*
X112864000Y-89118385D01*
X113011098Y-89089125D01*
X113135801Y-89005801D01*
X113219125Y-88881098D01*
X113248385Y-88734000D01*
X113248385Y-87034000D01*
X113219125Y-86886902D01*
X113216518Y-86883000D01*
X113843562Y-86883000D01*
X113669383Y-86999383D01*
X113398192Y-87405248D01*
X113302962Y-87884000D01*
X113398192Y-88362752D01*
X113669383Y-88768617D01*
X114075248Y-89039808D01*
X114433153Y-89111000D01*
X114674847Y-89111000D01*
X115032752Y-89039808D01*
X115438617Y-88768617D01*
X115709808Y-88362752D01*
X115805038Y-87884000D01*
X115842962Y-87884000D01*
X115938192Y-88362752D01*
X116209383Y-88768617D01*
X116615248Y-89039808D01*
X116973153Y-89111000D01*
X117214847Y-89111000D01*
X117572752Y-89039808D01*
X117978617Y-88768617D01*
X118249808Y-88362752D01*
X118345038Y-87884000D01*
X118249808Y-87405248D01*
X117978617Y-86999383D01*
X117572752Y-86728192D01*
X117214847Y-86657000D01*
X116973153Y-86657000D01*
X116615248Y-86728192D01*
X116209383Y-86999383D01*
X115938192Y-87405248D01*
X115842962Y-87884000D01*
X115805038Y-87884000D01*
X115709808Y-87405248D01*
X115438617Y-86999383D01*
X115032752Y-86728192D01*
X115023994Y-86726450D01*
X115114186Y-86666186D01*
X115285918Y-86409170D01*
X115346222Y-86106000D01*
X115285918Y-85802830D01*
X115114186Y-85545814D01*
X114857170Y-85374082D01*
X114630526Y-85329000D01*
X110413474Y-85329000D01*
X110186830Y-85374082D01*
X109929814Y-85545814D01*
X109758082Y-85802830D01*
X109697778Y-86106000D01*
X109700990Y-86122147D01*
X109443538Y-85864695D01*
X109400186Y-85799814D01*
X109143170Y-85628082D01*
X108916526Y-85583000D01*
X108916525Y-85583000D01*
X108840000Y-85567778D01*
X108763475Y-85583000D01*
X104978525Y-85583000D01*
X104902000Y-85567778D01*
X104825475Y-85583000D01*
X104825474Y-85583000D01*
X104598830Y-85628082D01*
X104341814Y-85799814D01*
X104298464Y-85864692D01*
X104264193Y-85898963D01*
X104324058Y-85598000D01*
X104232709Y-85138758D01*
X103972569Y-84749431D01*
X103583242Y-84489291D01*
X103251002Y-84423204D01*
X103251002Y-84328630D01*
X103473041Y-84449914D01*
X103979134Y-84210389D01*
X104355041Y-83795423D01*
X104515904Y-83407039D01*
X104415342Y-83224000D01*
X106461615Y-83224000D01*
X106461615Y-84924000D01*
X106490875Y-85071098D01*
X106574199Y-85195801D01*
X106698902Y-85279125D01*
X106846000Y-85308385D01*
X108546000Y-85308385D01*
X108693098Y-85279125D01*
X108817801Y-85195801D01*
X108901125Y-85071098D01*
X108930385Y-84924000D01*
X108930385Y-84851000D01*
X109279475Y-84851000D01*
X109351383Y-84958617D01*
X109757248Y-85229808D01*
X110115153Y-85301000D01*
X110356847Y-85301000D01*
X110714752Y-85229808D01*
X111120617Y-84958617D01*
X111192525Y-84851000D01*
X111819475Y-84851000D01*
X111891383Y-84958617D01*
X112297248Y-85229808D01*
X112655153Y-85301000D01*
X112896847Y-85301000D01*
X113254752Y-85229808D01*
X113660617Y-84958617D01*
X113931808Y-84552752D01*
X113956047Y-84430892D01*
X115398514Y-84430892D01*
X115644817Y-84955358D01*
X116073076Y-85345645D01*
X116483110Y-85515476D01*
X116713000Y-85394155D01*
X116713000Y-84201000D01*
X116967000Y-84201000D01*
X116967000Y-85394155D01*
X117196890Y-85515476D01*
X117606924Y-85345645D01*
X118035183Y-84955358D01*
X118110000Y-84796046D01*
X118184817Y-84955358D01*
X118613076Y-85345645D01*
X119023110Y-85515476D01*
X119253000Y-85394155D01*
X119253000Y-84201000D01*
X119507000Y-84201000D01*
X119507000Y-85394155D01*
X119736890Y-85515476D01*
X120146924Y-85345645D01*
X120444864Y-85074122D01*
X120531673Y-85283698D01*
X120710301Y-85462327D01*
X120943690Y-85559000D01*
X121634250Y-85559000D01*
X121793000Y-85400250D01*
X121793000Y-84201000D01*
X119507000Y-84201000D01*
X119253000Y-84201000D01*
X116967000Y-84201000D01*
X116713000Y-84201000D01*
X115519181Y-84201000D01*
X115398514Y-84430892D01*
X113956047Y-84430892D01*
X114027038Y-84074000D01*
X113956048Y-83717108D01*
X115398514Y-83717108D01*
X115519181Y-83947000D01*
X116713000Y-83947000D01*
X116713000Y-82753845D01*
X116967000Y-82753845D01*
X116967000Y-83947000D01*
X119253000Y-83947000D01*
X119253000Y-82753845D01*
X119023110Y-82632524D01*
X118613076Y-82802355D01*
X118184817Y-83192642D01*
X118110000Y-83351954D01*
X118035183Y-83192642D01*
X117606924Y-82802355D01*
X117196890Y-82632524D01*
X116967000Y-82753845D01*
X116713000Y-82753845D01*
X116483110Y-82632524D01*
X116073076Y-82802355D01*
X115644817Y-83192642D01*
X115398514Y-83717108D01*
X113956048Y-83717108D01*
X113931808Y-83595248D01*
X113660617Y-83189383D01*
X113254752Y-82918192D01*
X112896847Y-82847000D01*
X112655153Y-82847000D01*
X112297248Y-82918192D01*
X111891383Y-83189383D01*
X111819475Y-83297000D01*
X111192525Y-83297000D01*
X111120617Y-83189383D01*
X110714752Y-82918192D01*
X110356847Y-82847000D01*
X110115153Y-82847000D01*
X109757248Y-82918192D01*
X109351383Y-83189383D01*
X109279475Y-83297000D01*
X108930385Y-83297000D01*
X108930385Y-83224000D01*
X108901125Y-83076902D01*
X108817801Y-82952199D01*
X108693098Y-82868875D01*
X108546000Y-82839615D01*
X106846000Y-82839615D01*
X106698902Y-82868875D01*
X106574199Y-82952199D01*
X106490875Y-83076902D01*
X106461615Y-83224000D01*
X104415342Y-83224000D01*
X104393915Y-83185000D01*
X103251000Y-83185000D01*
X103251000Y-83205000D01*
X102997000Y-83205000D01*
X102997000Y-83185000D01*
X101854085Y-83185000D01*
X101732096Y-83407039D01*
X101892959Y-83795423D01*
X102268866Y-84210389D01*
X102774959Y-84449914D01*
X102996998Y-84328630D01*
X102996998Y-84423204D01*
X102664758Y-84489291D01*
X102275431Y-84749431D01*
X102015291Y-85138758D01*
X102014845Y-85141000D01*
X94515778Y-85141000D01*
X94377651Y-85002873D01*
X94119636Y-84896000D01*
X93840364Y-84896000D01*
X93582349Y-85002873D01*
X93384873Y-85200349D01*
X93278000Y-85458364D01*
X93278000Y-85737636D01*
X93384873Y-85995651D01*
X93582349Y-86193127D01*
X93767940Y-86270001D01*
X91308897Y-86270001D01*
X91256999Y-86259678D01*
X91205101Y-86270001D01*
X91205096Y-86270001D01*
X91051374Y-86300578D01*
X91051372Y-86300579D01*
X91051373Y-86300579D01*
X90962444Y-86360000D01*
X90877054Y-86417056D01*
X90875087Y-86420000D01*
X90792364Y-86420000D01*
X90534349Y-86526873D01*
X90336873Y-86724349D01*
X90230000Y-86982364D01*
X90230000Y-87261636D01*
X90336873Y-87519651D01*
X90534349Y-87717127D01*
X90792364Y-87824000D01*
X91059000Y-87824000D01*
X91059000Y-88951000D01*
X89199007Y-88951000D01*
X89153999Y-88942047D01*
X89108991Y-88951000D01*
X89032859Y-88966144D01*
X89115041Y-88875423D01*
X89275904Y-88487039D01*
X89153915Y-88265000D01*
X88011000Y-88265000D01*
X88011000Y-88285000D01*
X87757000Y-88285000D01*
X87757000Y-88265000D01*
X87737000Y-88265000D01*
X87737000Y-88011000D01*
X87757000Y-88011000D01*
X87757000Y-87991000D01*
X88011000Y-87991000D01*
X88011000Y-88011000D01*
X89153915Y-88011000D01*
X89275904Y-87788961D01*
X89115041Y-87400577D01*
X88739134Y-86985611D01*
X88233041Y-86746086D01*
X88011002Y-86867370D01*
X88011002Y-86772796D01*
X88343242Y-86706709D01*
X88732569Y-86446569D01*
X88992709Y-86057242D01*
X89084058Y-85598000D01*
X88992709Y-85138758D01*
X88732569Y-84749431D01*
X88343242Y-84489291D01*
X87999920Y-84421000D01*
X87768080Y-84421000D01*
X87424758Y-84489291D01*
X87035431Y-84749431D01*
X86775291Y-85138758D01*
X86742000Y-85306123D01*
X86742000Y-83349877D01*
X86775291Y-83517242D01*
X87035431Y-83906569D01*
X87424758Y-84166709D01*
X87768080Y-84235000D01*
X87999920Y-84235000D01*
X88343242Y-84166709D01*
X88732569Y-83906569D01*
X88992709Y-83517242D01*
X88993155Y-83515000D01*
X92682222Y-83515000D01*
X92820349Y-83653127D01*
X93078364Y-83760000D01*
X93357636Y-83760000D01*
X93615651Y-83653127D01*
X93813127Y-83455651D01*
X93920000Y-83197636D01*
X93920000Y-82918364D01*
X93813127Y-82660349D01*
X93615651Y-82462873D01*
X93357636Y-82356000D01*
X93078364Y-82356000D01*
X92820349Y-82462873D01*
X92682222Y-82601000D01*
X88993155Y-82601000D01*
X88992709Y-82598758D01*
X88732569Y-82209431D01*
X88343242Y-81949291D01*
X87999920Y-81881000D01*
X87768080Y-81881000D01*
X87424758Y-81949291D01*
X87035431Y-82209431D01*
X86775291Y-82598758D01*
X86742000Y-82766123D01*
X86742000Y-81484741D01*
X86812199Y-81589801D01*
X86936902Y-81673125D01*
X87084000Y-81702385D01*
X88684000Y-81702385D01*
X88831098Y-81673125D01*
X88955801Y-81589801D01*
X89039125Y-81465098D01*
X89068385Y-81318000D01*
X89068385Y-80975000D01*
X91920222Y-80975000D01*
X92058349Y-81113127D01*
X92316364Y-81220000D01*
X92595636Y-81220000D01*
X92853651Y-81113127D01*
X93051127Y-80915651D01*
X93158000Y-80657636D01*
X93158000Y-80378364D01*
X93051127Y-80120349D01*
X92853651Y-79922873D01*
X92595636Y-79816000D01*
X92316364Y-79816000D01*
X92058349Y-79922873D01*
X91920222Y-80061000D01*
X89068385Y-80061000D01*
X89068385Y-79950000D01*
X89103637Y-79950000D01*
X89361652Y-79843127D01*
X89499779Y-79705000D01*
X102251665Y-79705000D01*
X102015291Y-80058758D01*
G36*
X118636187Y-62913283D02*
X118457000Y-63345880D01*
X118457000Y-63814120D01*
X118636187Y-64246717D01*
X118956470Y-64567000D01*
X118899778Y-64567000D01*
X118761651Y-64428873D01*
X118503636Y-64322000D01*
X118224364Y-64322000D01*
X117966349Y-64428873D01*
X117768873Y-64626349D01*
X117662000Y-64884364D01*
X117662000Y-65163636D01*
X117730496Y-65329000D01*
X116943826Y-65329000D01*
X115203908Y-63589084D01*
X115178408Y-63550920D01*
X115027241Y-63449915D01*
X114893938Y-63423399D01*
X114893937Y-63423399D01*
X114848929Y-63414446D01*
X114803921Y-63423399D01*
X107868610Y-63423399D01*
X107823601Y-63414446D01*
X107645288Y-63449915D01*
X107599100Y-63480777D01*
X107494122Y-63550920D01*
X107468624Y-63589081D01*
X107186997Y-63870708D01*
X107164058Y-63855381D01*
X106802185Y-63783400D01*
X106557815Y-63783400D01*
X106195942Y-63855381D01*
X105785578Y-64129578D01*
X105511381Y-64539942D01*
X105415096Y-65024000D01*
X105511381Y-65508058D01*
X105785578Y-65918422D01*
X105852891Y-65963399D01*
X104967109Y-65963399D01*
X105034422Y-65918422D01*
X105308619Y-65508058D01*
X105404904Y-65024000D01*
X105308619Y-64539942D01*
X105034422Y-64129578D01*
X104624058Y-63855381D01*
X104262185Y-63783400D01*
X104017815Y-63783400D01*
X103655942Y-63855381D01*
X103245578Y-64129578D01*
X102971381Y-64539942D01*
X102875096Y-65024000D01*
X102971381Y-65508058D01*
X103245578Y-65918422D01*
X103312891Y-65963399D01*
X102427109Y-65963399D01*
X102494422Y-65918422D01*
X102768619Y-65508058D01*
X102864904Y-65024000D01*
X102768619Y-64539942D01*
X102494422Y-64129578D01*
X102084058Y-63855381D01*
X101722185Y-63783400D01*
X101477815Y-63783400D01*
X101115942Y-63855381D01*
X100705578Y-64129578D01*
X100431381Y-64539942D01*
X100335096Y-65024000D01*
X100431381Y-65508058D01*
X100705578Y-65918422D01*
X100772891Y-65963399D01*
X99887109Y-65963399D01*
X99954422Y-65918422D01*
X100228619Y-65508058D01*
X100324904Y-65024000D01*
X100228619Y-64539942D01*
X99954422Y-64129578D01*
X99544058Y-63855381D01*
X99182185Y-63783400D01*
X98937815Y-63783400D01*
X98575942Y-63855381D01*
X98165578Y-64129578D01*
X97891381Y-64539942D01*
X97795096Y-65024000D01*
X97891381Y-65508058D01*
X98165578Y-65918422D01*
X98232891Y-65963399D01*
X98105694Y-65963399D01*
X97673292Y-65530997D01*
X97688619Y-65508058D01*
X97784904Y-65024000D01*
X97688619Y-64539942D01*
X97414422Y-64129578D01*
X97004058Y-63855381D01*
X96642185Y-63783400D01*
X96397815Y-63783400D01*
X96035942Y-63855381D01*
X95625578Y-64129578D01*
X95351381Y-64539942D01*
X95255096Y-65024000D01*
X95351381Y-65508058D01*
X95625578Y-65918422D01*
X96035942Y-66192619D01*
X96397815Y-66264600D01*
X96642185Y-66264600D01*
X97004058Y-66192619D01*
X97026997Y-66177292D01*
X97561422Y-66711717D01*
X97586920Y-66749878D01*
X97738087Y-66850883D01*
X97871390Y-66877399D01*
X97916398Y-66886352D01*
X97961406Y-66877399D01*
X98026716Y-66877399D01*
X97891381Y-67079942D01*
X97795096Y-67564000D01*
X97891381Y-68048058D01*
X98165578Y-68458422D01*
X98423859Y-68631000D01*
X97156141Y-68631000D01*
X97414422Y-68458422D01*
X97688619Y-68048058D01*
X97784904Y-67564000D01*
X97688619Y-67079942D01*
X97414422Y-66669578D01*
X97004058Y-66395381D01*
X96642185Y-66323400D01*
X96397815Y-66323400D01*
X96035942Y-66395381D01*
X95625578Y-66669578D01*
X95351381Y-67079942D01*
X95255096Y-67564000D01*
X95351381Y-68048058D01*
X95625578Y-68458422D01*
X95883859Y-68631000D01*
X94616141Y-68631000D01*
X94874422Y-68458422D01*
X95148619Y-68048058D01*
X95244904Y-67564000D01*
X95148619Y-67079942D01*
X94874422Y-66669578D01*
X94464058Y-66395381D01*
X94102185Y-66323400D01*
X93857815Y-66323400D01*
X93495942Y-66395381D01*
X93085578Y-66669578D01*
X92826067Y-67057962D01*
X92646821Y-66675510D01*
X92214947Y-66281312D01*
X91953429Y-66172994D01*
X92334422Y-65918422D01*
X92608619Y-65508058D01*
X92704904Y-65024000D01*
X92715096Y-65024000D01*
X92811381Y-65508058D01*
X93085578Y-65918422D01*
X93495942Y-66192619D01*
X93857815Y-66264600D01*
X94102185Y-66264600D01*
X94464058Y-66192619D01*
X94874422Y-65918422D01*
X95148619Y-65508058D01*
X95244904Y-65024000D01*
X95148619Y-64539942D01*
X94874422Y-64129578D01*
X94464058Y-63855381D01*
X94102185Y-63783400D01*
X93857815Y-63783400D01*
X93495942Y-63855381D01*
X93085578Y-64129578D01*
X92811381Y-64539942D01*
X92715096Y-65024000D01*
X92704904Y-65024000D01*
X92608619Y-64539942D01*
X92334422Y-64129578D01*
X91924058Y-63855381D01*
X91562185Y-63783400D01*
X91317815Y-63783400D01*
X90955942Y-63855381D01*
X90545578Y-64129578D01*
X90271381Y-64539942D01*
X90175096Y-65024000D01*
X90271381Y-65508058D01*
X90545578Y-65918422D01*
X90926571Y-66172994D01*
X90665053Y-66281312D01*
X90233179Y-66675510D01*
X90053933Y-67057962D01*
X89794422Y-66669578D01*
X89384058Y-66395381D01*
X89022185Y-66323400D01*
X88777815Y-66323400D01*
X88415942Y-66395381D01*
X88005578Y-66669578D01*
X87731381Y-67079942D01*
X87635096Y-67564000D01*
X87731381Y-68048058D01*
X88005578Y-68458422D01*
X88415942Y-68732619D01*
X88777815Y-68804600D01*
X89022185Y-68804600D01*
X89384058Y-68732619D01*
X89794422Y-68458422D01*
X90053933Y-68070038D01*
X90233179Y-68452490D01*
X90665053Y-68846688D01*
X90992000Y-68982106D01*
X90992000Y-69227636D01*
X91098873Y-69485651D01*
X91296349Y-69683127D01*
X91554364Y-69790000D01*
X91833636Y-69790000D01*
X92091651Y-69683127D01*
X92229778Y-69545000D01*
X98372222Y-69545000D01*
X98210873Y-69706349D01*
X98104000Y-69964364D01*
X98104000Y-70243636D01*
X98210873Y-70501651D01*
X98408349Y-70699127D01*
X98666364Y-70806000D01*
X98945636Y-70806000D01*
X99203651Y-70699127D01*
X99341778Y-70561000D01*
X100458496Y-70561000D01*
X100390000Y-70726364D01*
X100390000Y-71005636D01*
X100496873Y-71263651D01*
X100607222Y-71374000D01*
X100496873Y-71484349D01*
X100390000Y-71742364D01*
X100390000Y-72021636D01*
X100496873Y-72279651D01*
X100694349Y-72477127D01*
X100952364Y-72584000D01*
X101231636Y-72584000D01*
X101357038Y-72532057D01*
X101341999Y-72568365D01*
X101341999Y-72847637D01*
X101448872Y-73105652D01*
X101646348Y-73303128D01*
X101848834Y-73387000D01*
X90872000Y-73387000D01*
X90872000Y-73266364D01*
X90765127Y-73008349D01*
X90567651Y-72810873D01*
X90309636Y-72704000D01*
X90030364Y-72704000D01*
X89772349Y-72810873D01*
X89574873Y-73008349D01*
X89468000Y-73266364D01*
X89468000Y-73523596D01*
X89389098Y-73470875D01*
X89242000Y-73441615D01*
X87542000Y-73441615D01*
X87394902Y-73470875D01*
X87270199Y-73554199D01*
X87186875Y-73678902D01*
X87157615Y-73826000D01*
X87157615Y-75526000D01*
X87186875Y-75673098D01*
X87270199Y-75797801D01*
X87394902Y-75881125D01*
X87542000Y-75910385D01*
X89242000Y-75910385D01*
X89389098Y-75881125D01*
X89513801Y-75797801D01*
X89597125Y-75673098D01*
X89626385Y-75526000D01*
X89626385Y-75453000D01*
X105164222Y-75453000D01*
X105068873Y-75548349D01*
X104962000Y-75806364D01*
X104962000Y-76085636D01*
X105068873Y-76343651D01*
X105266349Y-76541127D01*
X105322805Y-76564512D01*
X105216000Y-76822364D01*
X105216000Y-77101636D01*
X105322873Y-77359651D01*
X105520349Y-77557127D01*
X105778364Y-77664000D01*
X105786249Y-77664000D01*
X105806638Y-78071368D01*
X105905069Y-78309001D01*
X103572000Y-78309001D01*
X103572000Y-78092364D01*
X103465127Y-77834349D01*
X103267651Y-77636873D01*
X103009636Y-77530000D01*
X102730364Y-77530000D01*
X102472349Y-77636873D01*
X102334222Y-77775000D01*
X87657778Y-77775000D01*
X87519651Y-77636873D01*
X87261636Y-77530000D01*
X86982364Y-77530000D01*
X86742000Y-77629562D01*
X86742000Y-72136000D01*
X87140962Y-72136000D01*
X87236192Y-72614752D01*
X87507383Y-73020617D01*
X87913248Y-73291808D01*
X88271153Y-73363000D01*
X88512847Y-73363000D01*
X88870752Y-73291808D01*
X89276617Y-73020617D01*
X89547808Y-72614752D01*
X89643038Y-72136000D01*
X89547808Y-71657248D01*
X89276617Y-71251383D01*
X88870752Y-70980192D01*
X88512847Y-70909000D01*
X88271153Y-70909000D01*
X87913248Y-70980192D01*
X87507383Y-71251383D01*
X87236192Y-71657248D01*
X87140962Y-72136000D01*
X86742000Y-72136000D01*
X86742000Y-64160400D01*
X87652015Y-64160400D01*
X87652015Y-65887600D01*
X87681275Y-66034698D01*
X87764599Y-66159401D01*
X87889302Y-66242725D01*
X88036400Y-66271985D01*
X89763600Y-66271985D01*
X89910698Y-66242725D01*
X90035401Y-66159401D01*
X90118725Y-66034698D01*
X90147985Y-65887600D01*
X90147985Y-64160400D01*
X90118725Y-64013302D01*
X90035401Y-63888599D01*
X89910698Y-63805275D01*
X89763600Y-63776015D01*
X88036400Y-63776015D01*
X87889302Y-63805275D01*
X87764599Y-63888599D01*
X87681275Y-64013302D01*
X87652015Y-64160400D01*
X86742000Y-64160400D01*
X86742000Y-62866000D01*
X118683470Y-62866000D01*
X118636187Y-62913283D01*
X118636187Y-62913283D01*
G37*
X118636187Y-62913283D02*
X118457000Y-63345880D01*
X118457000Y-63814120D01*
X118636187Y-64246717D01*
X118956470Y-64567000D01*
X118899778Y-64567000D01*
X118761651Y-64428873D01*
X118503636Y-64322000D01*
X118224364Y-64322000D01*
X117966349Y-64428873D01*
X117768873Y-64626349D01*
X117662000Y-64884364D01*
X117662000Y-65163636D01*
X117730496Y-65329000D01*
X116943826Y-65329000D01*
X115203908Y-63589084D01*
X115178408Y-63550920D01*
X115027241Y-63449915D01*
X114893938Y-63423399D01*
X114893937Y-63423399D01*
X114848929Y-63414446D01*
X114803921Y-63423399D01*
X107868610Y-63423399D01*
X107823601Y-63414446D01*
X107645288Y-63449915D01*
X107599100Y-63480777D01*
X107494122Y-63550920D01*
X107468624Y-63589081D01*
X107186997Y-63870708D01*
X107164058Y-63855381D01*
X106802185Y-63783400D01*
X106557815Y-63783400D01*
X106195942Y-63855381D01*
X105785578Y-64129578D01*
X105511381Y-64539942D01*
X105415096Y-65024000D01*
X105511381Y-65508058D01*
X105785578Y-65918422D01*
X105852891Y-65963399D01*
X104967109Y-65963399D01*
X105034422Y-65918422D01*
X105308619Y-65508058D01*
X105404904Y-65024000D01*
X105308619Y-64539942D01*
X105034422Y-64129578D01*
X104624058Y-63855381D01*
X104262185Y-63783400D01*
X104017815Y-63783400D01*
X103655942Y-63855381D01*
X103245578Y-64129578D01*
X102971381Y-64539942D01*
X102875096Y-65024000D01*
X102971381Y-65508058D01*
X103245578Y-65918422D01*
X103312891Y-65963399D01*
X102427109Y-65963399D01*
X102494422Y-65918422D01*
X102768619Y-65508058D01*
X102864904Y-65024000D01*
X102768619Y-64539942D01*
X102494422Y-64129578D01*
X102084058Y-63855381D01*
X101722185Y-63783400D01*
X101477815Y-63783400D01*
X101115942Y-63855381D01*
X100705578Y-64129578D01*
X100431381Y-64539942D01*
X100335096Y-65024000D01*
X100431381Y-65508058D01*
X100705578Y-65918422D01*
X100772891Y-65963399D01*
X99887109Y-65963399D01*
X99954422Y-65918422D01*
X100228619Y-65508058D01*
X100324904Y-65024000D01*
X100228619Y-64539942D01*
X99954422Y-64129578D01*
X99544058Y-63855381D01*
X99182185Y-63783400D01*
X98937815Y-63783400D01*
X98575942Y-63855381D01*
X98165578Y-64129578D01*
X97891381Y-64539942D01*
X97795096Y-65024000D01*
X97891381Y-65508058D01*
X98165578Y-65918422D01*
X98232891Y-65963399D01*
X98105694Y-65963399D01*
X97673292Y-65530997D01*
X97688619Y-65508058D01*
X97784904Y-65024000D01*
X97688619Y-64539942D01*
X97414422Y-64129578D01*
X97004058Y-63855381D01*
X96642185Y-63783400D01*
X96397815Y-63783400D01*
X96035942Y-63855381D01*
X95625578Y-64129578D01*
X95351381Y-64539942D01*
X95255096Y-65024000D01*
X95351381Y-65508058D01*
X95625578Y-65918422D01*
X96035942Y-66192619D01*
X96397815Y-66264600D01*
X96642185Y-66264600D01*
X97004058Y-66192619D01*
X97026997Y-66177292D01*
X97561422Y-66711717D01*
X97586920Y-66749878D01*
X97738087Y-66850883D01*
X97871390Y-66877399D01*
X97916398Y-66886352D01*
X97961406Y-66877399D01*
X98026716Y-66877399D01*
X97891381Y-67079942D01*
X97795096Y-67564000D01*
X97891381Y-68048058D01*
X98165578Y-68458422D01*
X98423859Y-68631000D01*
X97156141Y-68631000D01*
X97414422Y-68458422D01*
X97688619Y-68048058D01*
X97784904Y-67564000D01*
X97688619Y-67079942D01*
X97414422Y-66669578D01*
X97004058Y-66395381D01*
X96642185Y-66323400D01*
X96397815Y-66323400D01*
X96035942Y-66395381D01*
X95625578Y-66669578D01*
X95351381Y-67079942D01*
X95255096Y-67564000D01*
X95351381Y-68048058D01*
X95625578Y-68458422D01*
X95883859Y-68631000D01*
X94616141Y-68631000D01*
X94874422Y-68458422D01*
X95148619Y-68048058D01*
X95244904Y-67564000D01*
X95148619Y-67079942D01*
X94874422Y-66669578D01*
X94464058Y-66395381D01*
X94102185Y-66323400D01*
X93857815Y-66323400D01*
X93495942Y-66395381D01*
X93085578Y-66669578D01*
X92826067Y-67057962D01*
X92646821Y-66675510D01*
X92214947Y-66281312D01*
X91953429Y-66172994D01*
X92334422Y-65918422D01*
X92608619Y-65508058D01*
X92704904Y-65024000D01*
X92715096Y-65024000D01*
X92811381Y-65508058D01*
X93085578Y-65918422D01*
X93495942Y-66192619D01*
X93857815Y-66264600D01*
X94102185Y-66264600D01*
X94464058Y-66192619D01*
X94874422Y-65918422D01*
X95148619Y-65508058D01*
X95244904Y-65024000D01*
X95148619Y-64539942D01*
X94874422Y-64129578D01*
X94464058Y-63855381D01*
X94102185Y-63783400D01*
X93857815Y-63783400D01*
X93495942Y-63855381D01*
X93085578Y-64129578D01*
X92811381Y-64539942D01*
X92715096Y-65024000D01*
X92704904Y-65024000D01*
X92608619Y-64539942D01*
X92334422Y-64129578D01*
X91924058Y-63855381D01*
X91562185Y-63783400D01*
X91317815Y-63783400D01*
X90955942Y-63855381D01*
X90545578Y-64129578D01*
X90271381Y-64539942D01*
X90175096Y-65024000D01*
X90271381Y-65508058D01*
X90545578Y-65918422D01*
X90926571Y-66172994D01*
X90665053Y-66281312D01*
X90233179Y-66675510D01*
X90053933Y-67057962D01*
X89794422Y-66669578D01*
X89384058Y-66395381D01*
X89022185Y-66323400D01*
X88777815Y-66323400D01*
X88415942Y-66395381D01*
X88005578Y-66669578D01*
X87731381Y-67079942D01*
X87635096Y-67564000D01*
X87731381Y-68048058D01*
X88005578Y-68458422D01*
X88415942Y-68732619D01*
X88777815Y-68804600D01*
X89022185Y-68804600D01*
X89384058Y-68732619D01*
X89794422Y-68458422D01*
X90053933Y-68070038D01*
X90233179Y-68452490D01*
X90665053Y-68846688D01*
X90992000Y-68982106D01*
X90992000Y-69227636D01*
X91098873Y-69485651D01*
X91296349Y-69683127D01*
X91554364Y-69790000D01*
X91833636Y-69790000D01*
X92091651Y-69683127D01*
X92229778Y-69545000D01*
X98372222Y-69545000D01*
X98210873Y-69706349D01*
X98104000Y-69964364D01*
X98104000Y-70243636D01*
X98210873Y-70501651D01*
X98408349Y-70699127D01*
X98666364Y-70806000D01*
X98945636Y-70806000D01*
X99203651Y-70699127D01*
X99341778Y-70561000D01*
X100458496Y-70561000D01*
X100390000Y-70726364D01*
X100390000Y-71005636D01*
X100496873Y-71263651D01*
X100607222Y-71374000D01*
X100496873Y-71484349D01*
X100390000Y-71742364D01*
X100390000Y-72021636D01*
X100496873Y-72279651D01*
X100694349Y-72477127D01*
X100952364Y-72584000D01*
X101231636Y-72584000D01*
X101357038Y-72532057D01*
X101341999Y-72568365D01*
X101341999Y-72847637D01*
X101448872Y-73105652D01*
X101646348Y-73303128D01*
X101848834Y-73387000D01*
X90872000Y-73387000D01*
X90872000Y-73266364D01*
X90765127Y-73008349D01*
X90567651Y-72810873D01*
X90309636Y-72704000D01*
X90030364Y-72704000D01*
X89772349Y-72810873D01*
X89574873Y-73008349D01*
X89468000Y-73266364D01*
X89468000Y-73523596D01*
X89389098Y-73470875D01*
X89242000Y-73441615D01*
X87542000Y-73441615D01*
X87394902Y-73470875D01*
X87270199Y-73554199D01*
X87186875Y-73678902D01*
X87157615Y-73826000D01*
X87157615Y-75526000D01*
X87186875Y-75673098D01*
X87270199Y-75797801D01*
X87394902Y-75881125D01*
X87542000Y-75910385D01*
X89242000Y-75910385D01*
X89389098Y-75881125D01*
X89513801Y-75797801D01*
X89597125Y-75673098D01*
X89626385Y-75526000D01*
X89626385Y-75453000D01*
X105164222Y-75453000D01*
X105068873Y-75548349D01*
X104962000Y-75806364D01*
X104962000Y-76085636D01*
X105068873Y-76343651D01*
X105266349Y-76541127D01*
X105322805Y-76564512D01*
X105216000Y-76822364D01*
X105216000Y-77101636D01*
X105322873Y-77359651D01*
X105520349Y-77557127D01*
X105778364Y-77664000D01*
X105786249Y-77664000D01*
X105806638Y-78071368D01*
X105905069Y-78309001D01*
X103572000Y-78309001D01*
X103572000Y-78092364D01*
X103465127Y-77834349D01*
X103267651Y-77636873D01*
X103009636Y-77530000D01*
X102730364Y-77530000D01*
X102472349Y-77636873D01*
X102334222Y-77775000D01*
X87657778Y-77775000D01*
X87519651Y-77636873D01*
X87261636Y-77530000D01*
X86982364Y-77530000D01*
X86742000Y-77629562D01*
X86742000Y-72136000D01*
X87140962Y-72136000D01*
X87236192Y-72614752D01*
X87507383Y-73020617D01*
X87913248Y-73291808D01*
X88271153Y-73363000D01*
X88512847Y-73363000D01*
X88870752Y-73291808D01*
X89276617Y-73020617D01*
X89547808Y-72614752D01*
X89643038Y-72136000D01*
X89547808Y-71657248D01*
X89276617Y-71251383D01*
X88870752Y-70980192D01*
X88512847Y-70909000D01*
X88271153Y-70909000D01*
X87913248Y-70980192D01*
X87507383Y-71251383D01*
X87236192Y-71657248D01*
X87140962Y-72136000D01*
X86742000Y-72136000D01*
X86742000Y-64160400D01*
X87652015Y-64160400D01*
X87652015Y-65887600D01*
X87681275Y-66034698D01*
X87764599Y-66159401D01*
X87889302Y-66242725D01*
X88036400Y-66271985D01*
X89763600Y-66271985D01*
X89910698Y-66242725D01*
X90035401Y-66159401D01*
X90118725Y-66034698D01*
X90147985Y-65887600D01*
X90147985Y-64160400D01*
X90118725Y-64013302D01*
X90035401Y-63888599D01*
X89910698Y-63805275D01*
X89763600Y-63776015D01*
X88036400Y-63776015D01*
X87889302Y-63805275D01*
X87764599Y-63888599D01*
X87681275Y-64013302D01*
X87652015Y-64160400D01*
X86742000Y-64160400D01*
X86742000Y-62866000D01*
X118683470Y-62866000D01*
X118636187Y-62913283D01*
G36*
X107381748Y-77709858D02*
X107367605Y-77724000D01*
X107381748Y-77738143D01*
X107202143Y-77917748D01*
X107188000Y-77903605D01*
X107173858Y-77917748D01*
X106994253Y-77738143D01*
X107008395Y-77724000D01*
X106994253Y-77709858D01*
X107173858Y-77530253D01*
X107188000Y-77544395D01*
X107202143Y-77530253D01*
X107381748Y-77709858D01*
X107381748Y-77709858D01*
G37*
X107381748Y-77709858D02*
X107367605Y-77724000D01*
X107381748Y-77738143D01*
X107202143Y-77917748D01*
X107188000Y-77903605D01*
X107173858Y-77917748D01*
X106994253Y-77738143D01*
X107008395Y-77724000D01*
X106994253Y-77709858D01*
X107173858Y-77530253D01*
X107188000Y-77544395D01*
X107202143Y-77530253D01*
X107381748Y-77709858D01*
G36*
X91567000Y-67437000D02*
X91587000Y-67437000D01*
X91587000Y-67691000D01*
X91567000Y-67691000D01*
X91567000Y-67711000D01*
X91313000Y-67711000D01*
X91313000Y-67691000D01*
X91293000Y-67691000D01*
X91293000Y-67437000D01*
X91313000Y-67437000D01*
X91313000Y-67417000D01*
X91567000Y-67417000D01*
X91567000Y-67437000D01*
X91567000Y-67437000D01*
G37*
X91567000Y-67437000D02*
X91587000Y-67437000D01*
X91587000Y-67691000D01*
X91567000Y-67691000D01*
X91567000Y-67711000D01*
X91313000Y-67711000D01*
X91313000Y-67691000D01*
X91293000Y-67691000D01*
X91293000Y-67437000D01*
X91313000Y-67437000D01*
X91313000Y-67417000D01*
X91567000Y-67417000D01*
X91567000Y-67437000D01*
M02*
