M48
;DRILL file {KiCad 5.0.2-bee76a0~70~ubuntu18.04.1} date sab 16 feb 2019 11:31:44 CET
;FORMAT={-:-/ absolute / inch / decimal}
FMAT,2
INCH,TZ
T1C0.0138
T2C0.0300
T3C0.0315
T4C0.0354
T5C0.0394
T6C0.0400
%
G90
G05
T1
X3.43Y-3.08
X3.48Y-3.02
X3.5025Y-3.12
X3.54Y-3.22
X3.54Y-3.35
X3.5472Y-4.0272
X3.55Y-2.89
X3.55Y-4.6
X3.56Y-3.6826
X3.58Y-3.43
X3.6Y-3.72
X3.6Y-3.77
X3.61Y-2.72
X3.64Y-3.17
X3.67Y-3.27
X3.69Y-4.47
X3.7Y-3.37
X3.74Y-3.57
X3.77Y-3.21
X3.77Y-3.52
X3.81Y-3.61
X3.85Y-4.57
X3.87Y-3.76
X3.89Y-2.76
X3.92Y-4.26
X3.92Y-4.31
X3.92Y-4.35
X3.92Y-4.39
X3.92Y-4.44
X3.92Y-4.48
X3.93Y-3.87
X3.95Y-3.92
X3.98Y-2.79
X3.98Y-2.83
X4.0175Y-2.8625
X4.05Y-3.08
X4.13Y-4.19
X4.16Y-2.83
X4.16Y-2.99
X4.17Y-3.03
X4.1718Y-3.68
X4.1975Y-2.8625
X4.2112Y-3.95
X4.245Y-2.72
X4.2736Y-3.64
X4.3Y-2.76
X4.34Y-2.94
X4.35Y-3.39
X4.3969Y-3.7069
X4.4Y-3.09
X4.44Y-2.79
X4.46Y-4.51
X4.47Y-3.88
X4.5Y-2.99
X4.51Y-3.39
X4.52Y-3.54
X4.52Y-3.93
X4.5528Y-3.12
X4.5572Y-3.0172
X4.56Y-4.57
X4.5975Y-2.8625
X4.6Y-2.91
X4.66Y-2.56
X4.7472Y-3.26
X4.77Y-4.51
X4.86Y-3.66
X4.87Y-3.88
X4.87Y-4.05
X4.9Y-4.16
X4.93Y-3.46
X4.93Y-3.71
X4.93Y-3.83
X4.93Y-3.88
X4.93Y-3.99
X4.93Y-4.02
X4.95Y-3.17
X5.02Y-4.13
X5.03Y-3.25
X5.0876Y-3.5324
X5.0876Y-4.0876
X5.1375Y-2.8225
X5.1475Y-3.7875
X5.18Y-2.89
X5.18Y-4.6
X5.2Y-3.68
X5.2Y-3.74
X5.2Y-4.05
X5.31Y-2.85
X5.34Y-3.85
X5.36Y-4.45
X5.3625Y-2.7025
X5.38Y-3.84
X5.39Y-3.08
X5.411Y-3.529
X5.42Y-3.71
T2
X5.17Y-3.37
X5.17Y-3.47
X5.27Y-3.37
X5.27Y-3.47
X5.37Y-3.37
X5.37Y-3.47
X5.47Y-3.37
X5.47Y-3.47
T3
X4.94Y-2.76
X4.94Y-3.06
X5.15Y-3.59
X5.15Y-3.89
X5.45Y-3.1513
X5.45Y-3.23
X5.02Y-3.98
X5.02Y-4.28
X4.9031Y-4.55
X5.1Y-4.55
X5.06Y-2.76
X5.06Y-3.06
X4.2516Y-3.83
X4.35Y-3.83
X5.18Y-2.76
X5.18Y-3.06
X5.02Y-3.59
X5.02Y-3.89
X5.Y-3.2
X5.1969Y-3.2
X3.46Y-3.17
X3.46Y-3.27
X3.46Y-3.37
X3.46Y-3.47
X3.46Y-3.57
X3.46Y-3.67
X3.46Y-3.77
X3.46Y-3.87
X3.46Y-3.97
X3.46Y-4.07
X3.46Y-4.17
X3.46Y-4.27
X3.46Y-4.37
X3.46Y-4.47
X3.46Y-4.57
X4.06Y-3.17
X4.06Y-3.27
X4.06Y-3.37
X4.06Y-3.47
X4.06Y-3.57
X4.06Y-3.67
X4.06Y-3.77
X4.06Y-3.87
X4.06Y-3.97
X4.06Y-4.07
X4.06Y-4.17
X4.06Y-4.27
X4.06Y-4.37
X4.06Y-4.47
X4.06Y-4.57
X5.32Y-2.76
X5.32Y-3.06
X5.36Y-4.28
X5.36Y-4.58
X3.6Y-3.97
X3.9Y-3.97
X4.71Y-2.5031
X4.71Y-2.7
X3.65Y-3.47
X3.8469Y-3.47
X4.2Y-3.61
X4.3969Y-3.61
X5.47Y-2.7719
X5.47Y-2.89
X4.67Y-4.39
X4.7684Y-4.39
X5.15Y-3.98
X5.15Y-4.28
T4
X5.38Y-2.59
X5.48Y-2.59
X5.12Y-2.59
X5.22Y-2.59
X4.86Y-2.59
X4.96Y-2.59
T5
X5.03Y-3.36
X5.03Y-3.46
X4.21Y-4.04
X4.21Y-4.14
X4.31Y-4.04
X4.31Y-4.14
X4.41Y-4.04
X4.41Y-4.14
X3.76Y-4.21
X3.76Y-4.5092
X4.24Y-3.17
X4.34Y-3.17
X4.44Y-3.17
X4.24Y-3.31
X4.34Y-3.31
X4.44Y-3.31
X4.61Y-3.61
X4.71Y-3.61
X4.81Y-3.61
X4.6Y-3.31
X4.7Y-3.31
X4.8Y-3.31
X4.31Y-2.84
X4.93Y-4.4
X5.03Y-4.4
X5.13Y-4.4
X5.23Y-4.4
X4.6Y-3.17
X4.7Y-3.17
X4.8Y-3.17
X5.49Y-4.25
X5.49Y-4.35
X5.49Y-4.45
X5.49Y-4.55
X4.61Y-4.14
X4.71Y-4.14
X4.81Y-4.14
X3.48Y-2.84
X3.48Y-2.94
X5.49Y-3.62
X5.49Y-3.72
X5.49Y-3.82
X5.49Y-3.92
X5.49Y-4.02
X4.41Y-3.46
X4.51Y-3.46
X4.61Y-3.46
T6
X4.22Y-3.06
X4.22Y-3.46
X4.82Y-3.06
X4.82Y-3.46
X3.5Y-2.56
X3.5Y-2.66
X3.6Y-2.56
X3.6Y-2.66
X3.7Y-2.56
X3.7Y-2.66
X3.8Y-2.56
X3.8Y-2.66
X3.9Y-2.56
X3.9Y-2.66
X4.Y-2.56
X4.Y-2.66
X4.1Y-2.56
X4.1Y-2.66
X4.2Y-2.56
X4.2Y-2.66
X4.3Y-2.56
X4.3Y-2.66
X4.4Y-2.56
X4.4Y-2.66
X4.5Y-2.56
X4.5Y-2.66
T3
X4.2788Y-4.28G85X4.3812Y-4.28
G05
X4.2867Y-4.5083G85X4.3733Y-4.5083
G05
X4.519Y-4.4414G85X4.519Y-4.3548
G05
T0
M30
