%TF.GenerationSoftware,KiCad,Pcbnew,5.0.2-bee76a0~70~ubuntu18.04.1*%
%TF.CreationDate,2019-02-16T11:31:50+01:00*%
%TF.ProjectId,GP-Pcb-Nano,47502d50-6362-42d4-9e61-6e6f2e6b6963,2.0*%
%TF.SameCoordinates,Original*%
%TF.FileFunction,Legend,Bot*%
%TF.FilePolarity,Positive*%
%FSLAX46Y46*%
G04 Gerber Fmt 4.6, Leading zero omitted, Abs format (unit mm)*
G04 Created by KiCad (PCBNEW 5.0.2-bee76a0~70~ubuntu18.04.1) date sab 16 feb 2019 11:31:50 CET*
%MOMM*%
%LPD*%
G01*
G04 APERTURE LIST*
%ADD10C,0.080000*%
%ADD11C,0.010000*%
%ADD12C,0.120000*%
%ADD13C,0.203200*%
%ADD14C,0.150000*%
%ADD15C,0.050000*%
G04 APERTURE END LIST*
D10*
X123715428Y-110274285D02*
X123115428Y-110274285D01*
X123115428Y-110502857D01*
X123144000Y-110560000D01*
X123172571Y-110588571D01*
X123229714Y-110617142D01*
X123315428Y-110617142D01*
X123372571Y-110588571D01*
X123401142Y-110560000D01*
X123429714Y-110502857D01*
X123429714Y-110274285D01*
X123115428Y-110817142D02*
X123715428Y-110960000D01*
X123286857Y-111074285D01*
X123715428Y-111188571D01*
X123115428Y-111331428D01*
X123715428Y-111902857D02*
X123429714Y-111702857D01*
X123715428Y-111560000D02*
X123115428Y-111560000D01*
X123115428Y-111788571D01*
X123144000Y-111845714D01*
X123172571Y-111874285D01*
X123229714Y-111902857D01*
X123315428Y-111902857D01*
X123372571Y-111874285D01*
X123401142Y-111845714D01*
X123429714Y-111788571D01*
X123429714Y-111560000D01*
X123715428Y-112617142D02*
X123115428Y-112617142D01*
X123715428Y-112902857D02*
X123115428Y-112902857D01*
X123715428Y-113245714D01*
X123115428Y-113245714D01*
X128236571Y-107459428D02*
X128236571Y-106859428D01*
X128093714Y-106859428D01*
X128008000Y-106888000D01*
X127950857Y-106945142D01*
X127922285Y-107002285D01*
X127893714Y-107116571D01*
X127893714Y-107202285D01*
X127922285Y-107316571D01*
X127950857Y-107373714D01*
X128008000Y-107430857D01*
X128093714Y-107459428D01*
X128236571Y-107459428D01*
X127322285Y-107459428D02*
X127665142Y-107459428D01*
X127493714Y-107459428D02*
X127493714Y-106859428D01*
X127550857Y-106945142D01*
X127608000Y-107002285D01*
X127665142Y-107030857D01*
X126950857Y-106859428D02*
X126893714Y-106859428D01*
X126836571Y-106888000D01*
X126808000Y-106916571D01*
X126779428Y-106973714D01*
X126750857Y-107088000D01*
X126750857Y-107230857D01*
X126779428Y-107345142D01*
X126808000Y-107402285D01*
X126836571Y-107430857D01*
X126893714Y-107459428D01*
X126950857Y-107459428D01*
X127008000Y-107430857D01*
X127036571Y-107402285D01*
X127065142Y-107345142D01*
X127093714Y-107230857D01*
X127093714Y-107088000D01*
X127065142Y-106973714D01*
X127036571Y-106916571D01*
X127008000Y-106888000D01*
X126950857Y-106859428D01*
X131252857Y-102887428D02*
X131252857Y-102287428D01*
X131110000Y-102287428D01*
X131024285Y-102316000D01*
X130967142Y-102373142D01*
X130938571Y-102430285D01*
X130910000Y-102544571D01*
X130910000Y-102630285D01*
X130938571Y-102744571D01*
X130967142Y-102801714D01*
X131024285Y-102858857D01*
X131110000Y-102887428D01*
X131252857Y-102887428D01*
X130624285Y-102887428D02*
X130510000Y-102887428D01*
X130452857Y-102858857D01*
X130424285Y-102830285D01*
X130367142Y-102744571D01*
X130338571Y-102630285D01*
X130338571Y-102401714D01*
X130367142Y-102344571D01*
X130395714Y-102316000D01*
X130452857Y-102287428D01*
X130567142Y-102287428D01*
X130624285Y-102316000D01*
X130652857Y-102344571D01*
X130681428Y-102401714D01*
X130681428Y-102544571D01*
X130652857Y-102601714D01*
X130624285Y-102630285D01*
X130567142Y-102658857D01*
X130452857Y-102658857D01*
X130395714Y-102630285D01*
X130367142Y-102601714D01*
X130338571Y-102544571D01*
X127950857Y-97553428D02*
X127950857Y-96953428D01*
X127808000Y-96953428D01*
X127722285Y-96982000D01*
X127665142Y-97039142D01*
X127636571Y-97096285D01*
X127608000Y-97210571D01*
X127608000Y-97296285D01*
X127636571Y-97410571D01*
X127665142Y-97467714D01*
X127722285Y-97524857D01*
X127808000Y-97553428D01*
X127950857Y-97553428D01*
X127093714Y-96953428D02*
X127208000Y-96953428D01*
X127265142Y-96982000D01*
X127293714Y-97010571D01*
X127350857Y-97096285D01*
X127379428Y-97210571D01*
X127379428Y-97439142D01*
X127350857Y-97496285D01*
X127322285Y-97524857D01*
X127265142Y-97553428D01*
X127150857Y-97553428D01*
X127093714Y-97524857D01*
X127065142Y-97496285D01*
X127036571Y-97439142D01*
X127036571Y-97296285D01*
X127065142Y-97239142D01*
X127093714Y-97210571D01*
X127150857Y-97182000D01*
X127265142Y-97182000D01*
X127322285Y-97210571D01*
X127350857Y-97239142D01*
X127379428Y-97296285D01*
X131252857Y-92981428D02*
X131252857Y-92381428D01*
X131110000Y-92381428D01*
X131024285Y-92410000D01*
X130967142Y-92467142D01*
X130938571Y-92524285D01*
X130910000Y-92638571D01*
X130910000Y-92724285D01*
X130938571Y-92838571D01*
X130967142Y-92895714D01*
X131024285Y-92952857D01*
X131110000Y-92981428D01*
X131252857Y-92981428D01*
X130367142Y-92381428D02*
X130652857Y-92381428D01*
X130681428Y-92667142D01*
X130652857Y-92638571D01*
X130595714Y-92610000D01*
X130452857Y-92610000D01*
X130395714Y-92638571D01*
X130367142Y-92667142D01*
X130338571Y-92724285D01*
X130338571Y-92867142D01*
X130367142Y-92924285D01*
X130395714Y-92952857D01*
X130452857Y-92981428D01*
X130595714Y-92981428D01*
X130652857Y-92952857D01*
X130681428Y-92924285D01*
X137939428Y-98539428D02*
X137339428Y-98539428D01*
X137339428Y-98682285D01*
X137368000Y-98768000D01*
X137425142Y-98825142D01*
X137482285Y-98853714D01*
X137596571Y-98882285D01*
X137682285Y-98882285D01*
X137796571Y-98853714D01*
X137853714Y-98825142D01*
X137910857Y-98768000D01*
X137939428Y-98682285D01*
X137939428Y-98539428D01*
X137939428Y-99453714D02*
X137939428Y-99110857D01*
X137939428Y-99282285D02*
X137339428Y-99282285D01*
X137425142Y-99225142D01*
X137482285Y-99168000D01*
X137510857Y-99110857D01*
X137339428Y-99825142D02*
X137339428Y-99882285D01*
X137368000Y-99939428D01*
X137396571Y-99968000D01*
X137453714Y-99996571D01*
X137568000Y-100025142D01*
X137710857Y-100025142D01*
X137825142Y-99996571D01*
X137882285Y-99968000D01*
X137910857Y-99939428D01*
X137939428Y-99882285D01*
X137939428Y-99825142D01*
X137910857Y-99768000D01*
X137882285Y-99739428D01*
X137825142Y-99710857D01*
X137710857Y-99682285D01*
X137568000Y-99682285D01*
X137453714Y-99710857D01*
X137396571Y-99739428D01*
X137368000Y-99768000D01*
X137339428Y-99825142D01*
X137939428Y-100282285D02*
X137339428Y-100282285D01*
X137339428Y-100425142D01*
X137368000Y-100510857D01*
X137425142Y-100568000D01*
X137482285Y-100596571D01*
X137596571Y-100625142D01*
X137682285Y-100625142D01*
X137796571Y-100596571D01*
X137853714Y-100568000D01*
X137910857Y-100510857D01*
X137939428Y-100425142D01*
X137939428Y-100282285D01*
X137939428Y-96285142D02*
X137339428Y-96285142D01*
X137339428Y-96428000D01*
X137368000Y-96513714D01*
X137425142Y-96570857D01*
X137482285Y-96599428D01*
X137596571Y-96628000D01*
X137682285Y-96628000D01*
X137796571Y-96599428D01*
X137853714Y-96570857D01*
X137910857Y-96513714D01*
X137939428Y-96428000D01*
X137939428Y-96285142D01*
X137939428Y-96913714D02*
X137939428Y-97028000D01*
X137910857Y-97085142D01*
X137882285Y-97113714D01*
X137796571Y-97170857D01*
X137682285Y-97199428D01*
X137453714Y-97199428D01*
X137396571Y-97170857D01*
X137368000Y-97142285D01*
X137339428Y-97085142D01*
X137339428Y-96970857D01*
X137368000Y-96913714D01*
X137396571Y-96885142D01*
X137453714Y-96856571D01*
X137596571Y-96856571D01*
X137653714Y-96885142D01*
X137682285Y-96913714D01*
X137710857Y-96970857D01*
X137710857Y-97085142D01*
X137682285Y-97142285D01*
X137653714Y-97170857D01*
X137596571Y-97199428D01*
X137939428Y-97456571D02*
X137339428Y-97456571D01*
X137339428Y-97599428D01*
X137368000Y-97685142D01*
X137425142Y-97742285D01*
X137482285Y-97770857D01*
X137596571Y-97799428D01*
X137682285Y-97799428D01*
X137796571Y-97770857D01*
X137853714Y-97742285D01*
X137910857Y-97685142D01*
X137939428Y-97599428D01*
X137939428Y-97456571D01*
X137939428Y-91205142D02*
X137339428Y-91205142D01*
X137339428Y-91348000D01*
X137368000Y-91433714D01*
X137425142Y-91490857D01*
X137482285Y-91519428D01*
X137596571Y-91548000D01*
X137682285Y-91548000D01*
X137796571Y-91519428D01*
X137853714Y-91490857D01*
X137910857Y-91433714D01*
X137939428Y-91348000D01*
X137939428Y-91205142D01*
X137339428Y-92090857D02*
X137339428Y-91805142D01*
X137625142Y-91776571D01*
X137596571Y-91805142D01*
X137568000Y-91862285D01*
X137568000Y-92005142D01*
X137596571Y-92062285D01*
X137625142Y-92090857D01*
X137682285Y-92119428D01*
X137825142Y-92119428D01*
X137882285Y-92090857D01*
X137910857Y-92062285D01*
X137939428Y-92005142D01*
X137939428Y-91862285D01*
X137910857Y-91805142D01*
X137882285Y-91776571D01*
X137939428Y-92376571D02*
X137339428Y-92376571D01*
X137339428Y-92519428D01*
X137368000Y-92605142D01*
X137425142Y-92662285D01*
X137482285Y-92690857D01*
X137596571Y-92719428D01*
X137682285Y-92719428D01*
X137796571Y-92690857D01*
X137853714Y-92662285D01*
X137910857Y-92605142D01*
X137939428Y-92519428D01*
X137939428Y-92376571D01*
X137939428Y-93745142D02*
X137339428Y-93745142D01*
X137339428Y-93888000D01*
X137368000Y-93973714D01*
X137425142Y-94030857D01*
X137482285Y-94059428D01*
X137596571Y-94088000D01*
X137682285Y-94088000D01*
X137796571Y-94059428D01*
X137853714Y-94030857D01*
X137910857Y-93973714D01*
X137939428Y-93888000D01*
X137939428Y-93745142D01*
X137339428Y-94602285D02*
X137339428Y-94488000D01*
X137368000Y-94430857D01*
X137396571Y-94402285D01*
X137482285Y-94345142D01*
X137596571Y-94316571D01*
X137825142Y-94316571D01*
X137882285Y-94345142D01*
X137910857Y-94373714D01*
X137939428Y-94430857D01*
X137939428Y-94545142D01*
X137910857Y-94602285D01*
X137882285Y-94630857D01*
X137825142Y-94659428D01*
X137682285Y-94659428D01*
X137625142Y-94630857D01*
X137596571Y-94602285D01*
X137568000Y-94545142D01*
X137568000Y-94430857D01*
X137596571Y-94373714D01*
X137625142Y-94345142D01*
X137682285Y-94316571D01*
X137939428Y-94916571D02*
X137339428Y-94916571D01*
X137339428Y-95059428D01*
X137368000Y-95145142D01*
X137425142Y-95202285D01*
X137482285Y-95230857D01*
X137596571Y-95259428D01*
X137682285Y-95259428D01*
X137796571Y-95230857D01*
X137853714Y-95202285D01*
X137910857Y-95145142D01*
X137939428Y-95059428D01*
X137939428Y-94916571D01*
X137339428Y-101747714D02*
X137939428Y-101947714D01*
X137339428Y-102147714D01*
X137939428Y-102347714D02*
X137539428Y-102347714D01*
X137339428Y-102347714D02*
X137368000Y-102319142D01*
X137396571Y-102347714D01*
X137368000Y-102376285D01*
X137339428Y-102347714D01*
X137396571Y-102347714D01*
X137539428Y-102633428D02*
X137939428Y-102633428D01*
X137596571Y-102633428D02*
X137568000Y-102662000D01*
X137539428Y-102719142D01*
X137539428Y-102804857D01*
X137568000Y-102862000D01*
X137625142Y-102890571D01*
X137939428Y-102890571D01*
X137368000Y-107492857D02*
X137339428Y-107435714D01*
X137339428Y-107350000D01*
X137368000Y-107264285D01*
X137425142Y-107207142D01*
X137482285Y-107178571D01*
X137596571Y-107150000D01*
X137682285Y-107150000D01*
X137796571Y-107178571D01*
X137853714Y-107207142D01*
X137910857Y-107264285D01*
X137939428Y-107350000D01*
X137939428Y-107407142D01*
X137910857Y-107492857D01*
X137882285Y-107521428D01*
X137682285Y-107521428D01*
X137682285Y-107407142D01*
X137939428Y-107778571D02*
X137339428Y-107778571D01*
X137939428Y-108121428D01*
X137339428Y-108121428D01*
X137939428Y-108407142D02*
X137339428Y-108407142D01*
X137339428Y-108550000D01*
X137368000Y-108635714D01*
X137425142Y-108692857D01*
X137482285Y-108721428D01*
X137596571Y-108750000D01*
X137682285Y-108750000D01*
X137796571Y-108721428D01*
X137853714Y-108692857D01*
X137910857Y-108635714D01*
X137939428Y-108550000D01*
X137939428Y-108407142D01*
X137339428Y-110290000D02*
X137939428Y-110690000D01*
X137339428Y-110690000D02*
X137939428Y-110290000D01*
X137339428Y-115617714D02*
X137939428Y-115817714D01*
X137339428Y-116017714D01*
X137910857Y-116474857D02*
X137939428Y-116417714D01*
X137939428Y-116303428D01*
X137910857Y-116246285D01*
X137882285Y-116217714D01*
X137825142Y-116189142D01*
X137653714Y-116189142D01*
X137596571Y-116217714D01*
X137568000Y-116246285D01*
X137539428Y-116303428D01*
X137539428Y-116417714D01*
X137568000Y-116474857D01*
X137910857Y-116989142D02*
X137939428Y-116932000D01*
X137939428Y-116817714D01*
X137910857Y-116760571D01*
X137882285Y-116732000D01*
X137825142Y-116703428D01*
X137653714Y-116703428D01*
X137596571Y-116732000D01*
X137568000Y-116760571D01*
X137539428Y-116817714D01*
X137539428Y-116932000D01*
X137568000Y-116989142D01*
X137939428Y-112587142D02*
X137339428Y-112587142D01*
X137339428Y-112730000D01*
X137368000Y-112815714D01*
X137425142Y-112872857D01*
X137482285Y-112901428D01*
X137596571Y-112930000D01*
X137682285Y-112930000D01*
X137796571Y-112901428D01*
X137853714Y-112872857D01*
X137910857Y-112815714D01*
X137939428Y-112730000D01*
X137939428Y-112587142D01*
X137539428Y-113444285D02*
X137939428Y-113444285D01*
X137310857Y-113301428D02*
X137739428Y-113158571D01*
X137739428Y-113530000D01*
X126001428Y-87269714D02*
X125401428Y-87269714D01*
X126001428Y-87898285D02*
X125715714Y-87698285D01*
X126001428Y-87555428D02*
X125401428Y-87555428D01*
X125401428Y-87784000D01*
X125430000Y-87841142D01*
X125458571Y-87869714D01*
X125515714Y-87898285D01*
X125601428Y-87898285D01*
X125658571Y-87869714D01*
X125687142Y-87841142D01*
X125715714Y-87784000D01*
X125715714Y-87555428D01*
X126058571Y-88555428D02*
X126030000Y-88498285D01*
X125972857Y-88441142D01*
X125887142Y-88355428D01*
X125858571Y-88298285D01*
X125858571Y-88241142D01*
X126001428Y-88269714D02*
X125972857Y-88212571D01*
X125915714Y-88155428D01*
X125801428Y-88126857D01*
X125601428Y-88126857D01*
X125487142Y-88155428D01*
X125430000Y-88212571D01*
X125401428Y-88269714D01*
X125401428Y-88384000D01*
X125430000Y-88441142D01*
X125487142Y-88498285D01*
X125601428Y-88526857D01*
X125801428Y-88526857D01*
X125915714Y-88498285D01*
X125972857Y-88441142D01*
X126001428Y-88384000D01*
X126001428Y-88269714D01*
X126001428Y-84901142D02*
X125401428Y-84901142D01*
X125401428Y-85044000D01*
X125430000Y-85129714D01*
X125487142Y-85186857D01*
X125544285Y-85215428D01*
X125658571Y-85244000D01*
X125744285Y-85244000D01*
X125858571Y-85215428D01*
X125915714Y-85186857D01*
X125972857Y-85129714D01*
X126001428Y-85044000D01*
X126001428Y-84901142D01*
X125458571Y-85472571D02*
X125430000Y-85501142D01*
X125401428Y-85558285D01*
X125401428Y-85701142D01*
X125430000Y-85758285D01*
X125458571Y-85786857D01*
X125515714Y-85815428D01*
X125572857Y-85815428D01*
X125658571Y-85786857D01*
X126001428Y-85444000D01*
X126001428Y-85815428D01*
X119837142Y-81996000D02*
X119894285Y-81967428D01*
X119980000Y-81967428D01*
X120065714Y-81996000D01*
X120122857Y-82053142D01*
X120151428Y-82110285D01*
X120180000Y-82224571D01*
X120180000Y-82310285D01*
X120151428Y-82424571D01*
X120122857Y-82481714D01*
X120065714Y-82538857D01*
X119980000Y-82567428D01*
X119922857Y-82567428D01*
X119837142Y-82538857D01*
X119808571Y-82510285D01*
X119808571Y-82310285D01*
X119922857Y-82310285D01*
X119551428Y-82567428D02*
X119551428Y-81967428D01*
X119208571Y-82567428D01*
X119208571Y-81967428D01*
X118922857Y-82567428D02*
X118922857Y-81967428D01*
X118780000Y-81967428D01*
X118694285Y-81996000D01*
X118637142Y-82053142D01*
X118608571Y-82110285D01*
X118580000Y-82224571D01*
X118580000Y-82310285D01*
X118608571Y-82424571D01*
X118637142Y-82481714D01*
X118694285Y-82538857D01*
X118780000Y-82567428D01*
X118922857Y-82567428D01*
X119310000Y-78782857D02*
X118852857Y-78782857D01*
X119081428Y-79011428D02*
X119081428Y-78554285D01*
X118624285Y-78411428D02*
X118252857Y-78411428D01*
X118452857Y-78640000D01*
X118367142Y-78640000D01*
X118310000Y-78668571D01*
X118281428Y-78697142D01*
X118252857Y-78754285D01*
X118252857Y-78897142D01*
X118281428Y-78954285D01*
X118310000Y-78982857D01*
X118367142Y-79011428D01*
X118538571Y-79011428D01*
X118595714Y-78982857D01*
X118624285Y-78954285D01*
X117995714Y-78954285D02*
X117967142Y-78982857D01*
X117995714Y-79011428D01*
X118024285Y-78982857D01*
X117995714Y-78954285D01*
X117995714Y-79011428D01*
X117767142Y-78411428D02*
X117395714Y-78411428D01*
X117595714Y-78640000D01*
X117510000Y-78640000D01*
X117452857Y-78668571D01*
X117424285Y-78697142D01*
X117395714Y-78754285D01*
X117395714Y-78897142D01*
X117424285Y-78954285D01*
X117452857Y-78982857D01*
X117510000Y-79011428D01*
X117681428Y-79011428D01*
X117738571Y-78982857D01*
X117767142Y-78954285D01*
X117224285Y-78411428D02*
X117024285Y-79011428D01*
X116824285Y-78411428D01*
X124052000Y-79800571D02*
X124052000Y-80086285D01*
X124223428Y-79743428D02*
X123623428Y-79943428D01*
X124223428Y-80143428D01*
X124223428Y-80686285D02*
X123937714Y-80486285D01*
X124223428Y-80343428D02*
X123623428Y-80343428D01*
X123623428Y-80572000D01*
X123652000Y-80629142D01*
X123680571Y-80657714D01*
X123737714Y-80686285D01*
X123823428Y-80686285D01*
X123880571Y-80657714D01*
X123909142Y-80629142D01*
X123937714Y-80572000D01*
X123937714Y-80343428D01*
X123909142Y-80943428D02*
X123909142Y-81143428D01*
X124223428Y-81229142D02*
X124223428Y-80943428D01*
X123623428Y-80943428D01*
X123623428Y-81229142D01*
X123909142Y-81686285D02*
X123909142Y-81486285D01*
X124223428Y-81486285D02*
X123623428Y-81486285D01*
X123623428Y-81772000D01*
X110850285Y-78411428D02*
X110650285Y-79011428D01*
X110450285Y-78411428D01*
X110250285Y-79011428D02*
X110250285Y-78611428D01*
X110250285Y-78411428D02*
X110278857Y-78440000D01*
X110250285Y-78468571D01*
X110221714Y-78440000D01*
X110250285Y-78411428D01*
X110250285Y-78468571D01*
X109964571Y-78611428D02*
X109964571Y-79011428D01*
X109964571Y-78668571D02*
X109936000Y-78640000D01*
X109878857Y-78611428D01*
X109793142Y-78611428D01*
X109736000Y-78640000D01*
X109707428Y-78697142D01*
X109707428Y-79011428D01*
X110950285Y-81967428D02*
X110750285Y-82567428D01*
X110550285Y-81967428D01*
X110093142Y-82538857D02*
X110150285Y-82567428D01*
X110264571Y-82567428D01*
X110321714Y-82538857D01*
X110350285Y-82510285D01*
X110378857Y-82453142D01*
X110378857Y-82281714D01*
X110350285Y-82224571D01*
X110321714Y-82196000D01*
X110264571Y-82167428D01*
X110150285Y-82167428D01*
X110093142Y-82196000D01*
X109578857Y-82538857D02*
X109636000Y-82567428D01*
X109750285Y-82567428D01*
X109807428Y-82538857D01*
X109836000Y-82510285D01*
X109864571Y-82453142D01*
X109864571Y-82281714D01*
X109836000Y-82224571D01*
X109807428Y-82196000D01*
X109750285Y-82167428D01*
X109636000Y-82167428D01*
X109578857Y-82196000D01*
X118002000Y-86377428D02*
X118202000Y-86091714D01*
X118344857Y-86377428D02*
X118344857Y-85777428D01*
X118116285Y-85777428D01*
X118059142Y-85806000D01*
X118030571Y-85834571D01*
X118002000Y-85891714D01*
X118002000Y-85977428D01*
X118030571Y-86034571D01*
X118059142Y-86063142D01*
X118116285Y-86091714D01*
X118344857Y-86091714D01*
X117487714Y-86377428D02*
X117487714Y-86063142D01*
X117516285Y-86006000D01*
X117573428Y-85977428D01*
X117687714Y-85977428D01*
X117744857Y-86006000D01*
X117487714Y-86348857D02*
X117544857Y-86377428D01*
X117687714Y-86377428D01*
X117744857Y-86348857D01*
X117773428Y-86291714D01*
X117773428Y-86234571D01*
X117744857Y-86177428D01*
X117687714Y-86148857D01*
X117544857Y-86148857D01*
X117487714Y-86120285D01*
X117259142Y-85977428D02*
X117144857Y-86377428D01*
X117030571Y-86091714D01*
X116916285Y-86377428D01*
X116802000Y-85977428D01*
X116096857Y-85777428D02*
X116096857Y-86263142D01*
X116068285Y-86320285D01*
X116039714Y-86348857D01*
X115982571Y-86377428D01*
X115868285Y-86377428D01*
X115811142Y-86348857D01*
X115782571Y-86320285D01*
X115754000Y-86263142D01*
X115754000Y-85777428D01*
X115154000Y-86377428D02*
X115496857Y-86377428D01*
X115325428Y-86377428D02*
X115325428Y-85777428D01*
X115382571Y-85863142D01*
X115439714Y-85920285D01*
X115496857Y-85948857D01*
X114896857Y-86148857D02*
X114439714Y-86148857D01*
X114068285Y-86377428D02*
X114125428Y-86348857D01*
X114154000Y-86320285D01*
X114182571Y-86263142D01*
X114182571Y-86091714D01*
X114154000Y-86034571D01*
X114125428Y-86006000D01*
X114068285Y-85977428D01*
X113982571Y-85977428D01*
X113925428Y-86006000D01*
X113896857Y-86034571D01*
X113868285Y-86091714D01*
X113868285Y-86263142D01*
X113896857Y-86320285D01*
X113925428Y-86348857D01*
X113982571Y-86377428D01*
X114068285Y-86377428D01*
X113354000Y-85977428D02*
X113354000Y-86377428D01*
X113611142Y-85977428D02*
X113611142Y-86291714D01*
X113582571Y-86348857D01*
X113525428Y-86377428D01*
X113439714Y-86377428D01*
X113382571Y-86348857D01*
X113354000Y-86320285D01*
X113154000Y-85977428D02*
X112925428Y-85977428D01*
X113068285Y-85777428D02*
X113068285Y-86291714D01*
X113039714Y-86348857D01*
X112982571Y-86377428D01*
X112925428Y-86377428D01*
X112220285Y-85777428D02*
X112020285Y-86377428D01*
X111820285Y-85777428D01*
X111363142Y-86348857D02*
X111420285Y-86377428D01*
X111534571Y-86377428D01*
X111591714Y-86348857D01*
X111620285Y-86320285D01*
X111648857Y-86263142D01*
X111648857Y-86091714D01*
X111620285Y-86034571D01*
X111591714Y-86006000D01*
X111534571Y-85977428D01*
X111420285Y-85977428D01*
X111363142Y-86006000D01*
X110848857Y-86348857D02*
X110906000Y-86377428D01*
X111020285Y-86377428D01*
X111077428Y-86348857D01*
X111106000Y-86320285D01*
X111134571Y-86263142D01*
X111134571Y-86091714D01*
X111106000Y-86034571D01*
X111077428Y-86006000D01*
X111020285Y-85977428D01*
X110906000Y-85977428D01*
X110848857Y-86006000D01*
D11*
X86360000Y-62484000D02*
X86360000Y-117484000D01*
X141360000Y-117484000D02*
X86360000Y-117484000D01*
X141360000Y-62484000D02*
X141360000Y-117484000D01*
X86360000Y-62484000D02*
X141360000Y-62484000D01*
D12*
X92540000Y-89859000D02*
X97880000Y-89859000D01*
X92540000Y-86417000D02*
X97880000Y-86417000D01*
X92540000Y-89859000D02*
X92540000Y-89193000D01*
X92540000Y-87083000D02*
X92540000Y-86417000D01*
X97880000Y-89859000D02*
X97880000Y-89193000D01*
X97880000Y-87083000D02*
X97880000Y-86417000D01*
X93982000Y-96068000D02*
X93982000Y-95138000D01*
X93982000Y-92908000D02*
X93982000Y-93838000D01*
X93982000Y-92908000D02*
X97142000Y-92908000D01*
X93982000Y-96068000D02*
X95442000Y-96068000D01*
X98520000Y-99798000D02*
X98520000Y-99468000D01*
X98520000Y-99468000D02*
X91980000Y-99468000D01*
X91980000Y-99468000D02*
X91980000Y-99798000D01*
X98520000Y-101878000D02*
X98520000Y-102208000D01*
X98520000Y-102208000D02*
X91980000Y-102208000D01*
X91980000Y-102208000D02*
X91980000Y-101878000D01*
X101604000Y-110734000D02*
G75*
G03X101604000Y-110734000I-6100000J0D01*
G01*
X129092000Y-84014000D02*
X127762000Y-84014000D01*
X129092000Y-85344000D02*
X129092000Y-84014000D01*
X129092000Y-86614000D02*
X126432000Y-86614000D01*
X126432000Y-86614000D02*
X126432000Y-89214000D01*
X129092000Y-86614000D02*
X129092000Y-89214000D01*
X129092000Y-89214000D02*
X126432000Y-89214000D01*
X115510000Y-85404000D02*
X115510000Y-82744000D01*
X120650000Y-85404000D02*
X115510000Y-85404000D01*
X120650000Y-82744000D02*
X115510000Y-82744000D01*
X120650000Y-85404000D02*
X120650000Y-82744000D01*
X121920000Y-85404000D02*
X123250000Y-85404000D01*
X123250000Y-85404000D02*
X123250000Y-84074000D01*
X106366000Y-82744000D02*
X106366000Y-84074000D01*
X107696000Y-82744000D02*
X106366000Y-82744000D01*
X108966000Y-82744000D02*
X108966000Y-85404000D01*
X108966000Y-85404000D02*
X114106000Y-85404000D01*
X108966000Y-82744000D02*
X114106000Y-82744000D01*
X114106000Y-82744000D02*
X114106000Y-85404000D01*
X114106000Y-79188000D02*
X114106000Y-81848000D01*
X108966000Y-79188000D02*
X114106000Y-79188000D01*
X108966000Y-81848000D02*
X114106000Y-81848000D01*
X108966000Y-79188000D02*
X108966000Y-81848000D01*
X107696000Y-79188000D02*
X106366000Y-79188000D01*
X106366000Y-79188000D02*
X106366000Y-80518000D01*
X123250000Y-81848000D02*
X123250000Y-80518000D01*
X121920000Y-81848000D02*
X123250000Y-81848000D01*
X120650000Y-81848000D02*
X120650000Y-79188000D01*
X120650000Y-79188000D02*
X115510000Y-79188000D01*
X120650000Y-81848000D02*
X115510000Y-81848000D01*
X115510000Y-81848000D02*
X115510000Y-79188000D01*
X118424000Y-86554000D02*
X118424000Y-89214000D01*
X113284000Y-86554000D02*
X118424000Y-86554000D01*
X113284000Y-89214000D02*
X118424000Y-89214000D01*
X113284000Y-86554000D02*
X113284000Y-89214000D01*
X112014000Y-86554000D02*
X110684000Y-86554000D01*
X110684000Y-86554000D02*
X110684000Y-87884000D01*
X138116000Y-116900000D02*
X139446000Y-116900000D01*
X138116000Y-115570000D02*
X138116000Y-116900000D01*
X138116000Y-114300000D02*
X140776000Y-114300000D01*
X140776000Y-114300000D02*
X140776000Y-106620000D01*
X138116000Y-114300000D02*
X138116000Y-106620000D01*
X138116000Y-106620000D02*
X140776000Y-106620000D01*
X123892000Y-113090000D02*
X123892000Y-110430000D01*
X131572000Y-113090000D02*
X123892000Y-113090000D01*
X131572000Y-110430000D02*
X123892000Y-110430000D01*
X131572000Y-113090000D02*
X131572000Y-110430000D01*
X132842000Y-113090000D02*
X134172000Y-113090000D01*
X134172000Y-113090000D02*
X134172000Y-111760000D01*
X140776000Y-103438000D02*
X138116000Y-103438000D01*
X140776000Y-93218000D02*
X140776000Y-103438000D01*
X138116000Y-93218000D02*
X138116000Y-103438000D01*
X140776000Y-93218000D02*
X138116000Y-93218000D01*
X140776000Y-91948000D02*
X140776000Y-90618000D01*
X140776000Y-90618000D02*
X139446000Y-90618000D01*
D13*
X135534400Y-91184400D02*
X135534400Y-90525600D01*
X135534400Y-90525600D02*
X134721600Y-90525600D01*
X135534400Y-93370400D02*
X135534400Y-92711600D01*
X134721600Y-93370400D02*
X135534400Y-93370400D01*
X134721600Y-97368400D02*
X135534400Y-97368400D01*
X135534400Y-97368400D02*
X135534400Y-96709600D01*
X135534400Y-94523600D02*
X134721600Y-94523600D01*
X135534400Y-95182400D02*
X135534400Y-94523600D01*
X135618400Y-99124400D02*
X135618400Y-98465600D01*
X135618400Y-98465600D02*
X134805600Y-98465600D01*
X135618400Y-101310400D02*
X135618400Y-100651600D01*
X134805600Y-101310400D02*
X135618400Y-101310400D01*
X134891600Y-105308400D02*
X135704400Y-105308400D01*
X135704400Y-105308400D02*
X135704400Y-104649600D01*
X135704400Y-102463600D02*
X134891600Y-102463600D01*
X135704400Y-103122400D02*
X135704400Y-102463600D01*
D12*
X129440000Y-91726000D02*
X129770000Y-91726000D01*
X129440000Y-98266000D02*
X129440000Y-91726000D01*
X129770000Y-98266000D02*
X129440000Y-98266000D01*
X132180000Y-91726000D02*
X131850000Y-91726000D01*
X132180000Y-98266000D02*
X132180000Y-91726000D01*
X131850000Y-98266000D02*
X132180000Y-98266000D01*
X128878000Y-108172000D02*
X128548000Y-108172000D01*
X128878000Y-101632000D02*
X128878000Y-108172000D01*
X128548000Y-101632000D02*
X128878000Y-101632000D01*
X126138000Y-108172000D02*
X126468000Y-108172000D01*
X126138000Y-101632000D02*
X126138000Y-108172000D01*
X126468000Y-101632000D02*
X126138000Y-101632000D01*
X126468000Y-91726000D02*
X126138000Y-91726000D01*
X126138000Y-91726000D02*
X126138000Y-98266000D01*
X126138000Y-98266000D02*
X126468000Y-98266000D01*
X128548000Y-91726000D02*
X128878000Y-91726000D01*
X128878000Y-91726000D02*
X128878000Y-98266000D01*
X128878000Y-98266000D02*
X128548000Y-98266000D01*
X129440000Y-101632000D02*
X129770000Y-101632000D01*
X129440000Y-108172000D02*
X129440000Y-101632000D01*
X129770000Y-108172000D02*
X129440000Y-108172000D01*
X132180000Y-101632000D02*
X131850000Y-101632000D01*
X132180000Y-108172000D02*
X132180000Y-101632000D01*
X131850000Y-108172000D02*
X132180000Y-108172000D01*
D14*
X95357665Y-88594143D02*
X95405284Y-88641762D01*
X95548141Y-88689381D01*
X95643379Y-88689381D01*
X95786237Y-88641762D01*
X95881475Y-88546524D01*
X95929094Y-88451286D01*
X95976713Y-88260810D01*
X95976713Y-88117953D01*
X95929094Y-87927477D01*
X95881475Y-87832239D01*
X95786237Y-87737001D01*
X95643379Y-87689381D01*
X95548141Y-87689381D01*
X95405284Y-87737001D01*
X95357665Y-87784620D01*
X94786237Y-88117953D02*
X94881475Y-88070334D01*
X94929094Y-88022715D01*
X94976713Y-87927477D01*
X94976713Y-87879858D01*
X94929094Y-87784620D01*
X94881475Y-87737001D01*
X94786237Y-87689381D01*
X94595760Y-87689381D01*
X94500522Y-87737001D01*
X94452903Y-87784620D01*
X94405284Y-87879858D01*
X94405284Y-87927477D01*
X94452903Y-88022715D01*
X94500522Y-88070334D01*
X94595760Y-88117953D01*
X94786237Y-88117953D01*
X94881475Y-88165572D01*
X94929094Y-88213191D01*
X94976713Y-88308429D01*
X94976713Y-88498905D01*
X94929094Y-88594143D01*
X94881475Y-88641762D01*
X94786237Y-88689381D01*
X94595760Y-88689381D01*
X94500522Y-88641762D01*
X94452903Y-88594143D01*
X94405284Y-88498905D01*
X94405284Y-88308429D01*
X94452903Y-88213191D01*
X94500522Y-88165572D01*
X94595760Y-88117953D01*
X99313904Y-94194380D02*
X99313904Y-95003904D01*
X99266285Y-95099142D01*
X99218666Y-95146761D01*
X99123428Y-95194380D01*
X98932952Y-95194380D01*
X98837714Y-95146761D01*
X98790095Y-95099142D01*
X98742476Y-95003904D01*
X98742476Y-94194380D01*
X97837714Y-94527714D02*
X97837714Y-95194380D01*
X98075809Y-94146761D02*
X98313904Y-94861047D01*
X97694857Y-94861047D01*
X95892857Y-101290380D02*
X96226190Y-100814190D01*
X96464285Y-101290380D02*
X96464285Y-100290380D01*
X96083333Y-100290380D01*
X95988095Y-100338000D01*
X95940476Y-100385619D01*
X95892857Y-100480857D01*
X95892857Y-100623714D01*
X95940476Y-100718952D01*
X95988095Y-100766571D01*
X96083333Y-100814190D01*
X96464285Y-100814190D01*
X94940476Y-101290380D02*
X95511904Y-101290380D01*
X95226190Y-101290380D02*
X95226190Y-100290380D01*
X95321428Y-100433238D01*
X95416666Y-100528476D01*
X95511904Y-100576095D01*
X93988095Y-101290380D02*
X94559523Y-101290380D01*
X94273809Y-101290380D02*
X94273809Y-100290380D01*
X94369047Y-100433238D01*
X94464285Y-100528476D01*
X94559523Y-100576095D01*
X91368571Y-109863047D02*
X91416190Y-110005904D01*
X91463809Y-110053523D01*
X91559047Y-110101142D01*
X91701904Y-110101142D01*
X91797142Y-110053523D01*
X91844761Y-110005904D01*
X91892380Y-109910666D01*
X91892380Y-109529714D01*
X90892380Y-109529714D01*
X90892380Y-109863047D01*
X90940000Y-109958285D01*
X90987619Y-110005904D01*
X91082857Y-110053523D01*
X91178095Y-110053523D01*
X91273333Y-110005904D01*
X91320952Y-109958285D01*
X91368571Y-109863047D01*
X91368571Y-109529714D01*
X90892380Y-110434476D02*
X90892380Y-111101142D01*
X91892380Y-110434476D01*
X91892380Y-111101142D01*
X91892380Y-112005904D02*
X91892380Y-111434476D01*
X91892380Y-111720190D02*
X90892380Y-111720190D01*
X91035238Y-111624952D01*
X91130476Y-111529714D01*
X91178095Y-111434476D01*
X93035428Y-106543047D02*
X93035428Y-107304952D01*
X93416380Y-106924000D02*
X92654476Y-106924000D01*
X128595333Y-82466380D02*
X128595333Y-83180666D01*
X128642952Y-83323523D01*
X128738190Y-83418761D01*
X128881047Y-83466380D01*
X128976285Y-83466380D01*
X128119142Y-83466380D02*
X128119142Y-82466380D01*
X127738190Y-82466380D01*
X127642952Y-82514000D01*
X127595333Y-82561619D01*
X127547714Y-82656857D01*
X127547714Y-82799714D01*
X127595333Y-82894952D01*
X127642952Y-82942571D01*
X127738190Y-82990190D01*
X128119142Y-82990190D01*
X126642952Y-82466380D02*
X127119142Y-82466380D01*
X127166761Y-82942571D01*
X127119142Y-82894952D01*
X127023904Y-82847333D01*
X126785809Y-82847333D01*
X126690571Y-82894952D01*
X126642952Y-82942571D01*
X126595333Y-83037809D01*
X126595333Y-83275904D01*
X126642952Y-83371142D01*
X126690571Y-83418761D01*
X126785809Y-83466380D01*
X127023904Y-83466380D01*
X127119142Y-83418761D01*
X127166761Y-83371142D01*
X114514380Y-83740666D02*
X115228666Y-83740666D01*
X115371523Y-83693047D01*
X115466761Y-83597809D01*
X115514380Y-83454952D01*
X115514380Y-83359714D01*
X114514380Y-84121619D02*
X114514380Y-84740666D01*
X114895333Y-84407333D01*
X114895333Y-84550190D01*
X114942952Y-84645428D01*
X114990571Y-84693047D01*
X115085809Y-84740666D01*
X115323904Y-84740666D01*
X115419142Y-84693047D01*
X115466761Y-84645428D01*
X115514380Y-84550190D01*
X115514380Y-84264476D01*
X115466761Y-84169238D01*
X115419142Y-84121619D01*
X104818380Y-83740666D02*
X105532666Y-83740666D01*
X105675523Y-83693047D01*
X105770761Y-83597809D01*
X105818380Y-83454952D01*
X105818380Y-83359714D01*
X104818380Y-84645428D02*
X104818380Y-84454952D01*
X104866000Y-84359714D01*
X104913619Y-84312095D01*
X105056476Y-84216857D01*
X105246952Y-84169238D01*
X105627904Y-84169238D01*
X105723142Y-84216857D01*
X105770761Y-84264476D01*
X105818380Y-84359714D01*
X105818380Y-84550190D01*
X105770761Y-84645428D01*
X105723142Y-84693047D01*
X105627904Y-84740666D01*
X105389809Y-84740666D01*
X105294571Y-84693047D01*
X105246952Y-84645428D01*
X105199333Y-84550190D01*
X105199333Y-84359714D01*
X105246952Y-84264476D01*
X105294571Y-84216857D01*
X105389809Y-84169238D01*
X104818380Y-80184666D02*
X105532666Y-80184666D01*
X105675523Y-80137047D01*
X105770761Y-80041809D01*
X105818380Y-79898952D01*
X105818380Y-79803714D01*
X104818380Y-80565619D02*
X104818380Y-81232285D01*
X105818380Y-80803714D01*
X114514380Y-80184666D02*
X115228666Y-80184666D01*
X115371523Y-80137047D01*
X115466761Y-80041809D01*
X115514380Y-79898952D01*
X115514380Y-79803714D01*
X115514380Y-80708476D02*
X115514380Y-80898952D01*
X115466761Y-80994190D01*
X115419142Y-81041809D01*
X115276285Y-81137047D01*
X115085809Y-81184666D01*
X114704857Y-81184666D01*
X114609619Y-81137047D01*
X114562000Y-81089428D01*
X114514380Y-80994190D01*
X114514380Y-80803714D01*
X114562000Y-80708476D01*
X114609619Y-80660857D01*
X114704857Y-80613238D01*
X114942952Y-80613238D01*
X115038190Y-80660857D01*
X115085809Y-80708476D01*
X115133428Y-80803714D01*
X115133428Y-80994190D01*
X115085809Y-81089428D01*
X115038190Y-81137047D01*
X114942952Y-81184666D01*
X109136380Y-87050666D02*
X109850666Y-87050666D01*
X109993523Y-87003047D01*
X110088761Y-86907809D01*
X110136380Y-86764952D01*
X110136380Y-86669714D01*
X110136380Y-87526857D02*
X109136380Y-87526857D01*
X109136380Y-87907809D01*
X109184000Y-88003047D01*
X109231619Y-88050666D01*
X109326857Y-88098285D01*
X109469714Y-88098285D01*
X109564952Y-88050666D01*
X109612571Y-88003047D01*
X109660190Y-87907809D01*
X109660190Y-87526857D01*
X110136380Y-89050666D02*
X110136380Y-88479238D01*
X110136380Y-88764952D02*
X109136380Y-88764952D01*
X109279238Y-88669714D01*
X109374476Y-88574476D01*
X109422095Y-88479238D01*
X139779333Y-105116380D02*
X139779333Y-105830666D01*
X139826952Y-105973523D01*
X139922190Y-106068761D01*
X140065047Y-106116380D01*
X140160285Y-106116380D01*
X139160285Y-105544952D02*
X139255523Y-105497333D01*
X139303142Y-105449714D01*
X139350761Y-105354476D01*
X139350761Y-105306857D01*
X139303142Y-105211619D01*
X139255523Y-105164000D01*
X139160285Y-105116380D01*
X138969809Y-105116380D01*
X138874571Y-105164000D01*
X138826952Y-105211619D01*
X138779333Y-105306857D01*
X138779333Y-105354476D01*
X138826952Y-105449714D01*
X138874571Y-105497333D01*
X138969809Y-105544952D01*
X139160285Y-105544952D01*
X139255523Y-105592571D01*
X139303142Y-105640190D01*
X139350761Y-105735428D01*
X139350761Y-105925904D01*
X139303142Y-106021142D01*
X139255523Y-106068761D01*
X139160285Y-106116380D01*
X138969809Y-106116380D01*
X138874571Y-106068761D01*
X138826952Y-106021142D01*
X138779333Y-105925904D01*
X138779333Y-105735428D01*
X138826952Y-105640190D01*
X138874571Y-105592571D01*
X138969809Y-105544952D01*
X134624380Y-111426666D02*
X135338666Y-111426666D01*
X135481523Y-111379047D01*
X135576761Y-111283809D01*
X135624380Y-111140952D01*
X135624380Y-111045714D01*
X134957714Y-112331428D02*
X135624380Y-112331428D01*
X134576761Y-112093333D02*
X135291047Y-111855238D01*
X135291047Y-112474285D01*
X139779333Y-89368380D02*
X139779333Y-90082666D01*
X139826952Y-90225523D01*
X139922190Y-90320761D01*
X140065047Y-90368380D01*
X140160285Y-90368380D01*
X138826952Y-89368380D02*
X139303142Y-89368380D01*
X139350761Y-89844571D01*
X139303142Y-89796952D01*
X139207904Y-89749333D01*
X138969809Y-89749333D01*
X138874571Y-89796952D01*
X138826952Y-89844571D01*
X138779333Y-89939809D01*
X138779333Y-90177904D01*
X138826952Y-90273142D01*
X138874571Y-90320761D01*
X138969809Y-90368380D01*
X139207904Y-90368380D01*
X139303142Y-90320761D01*
X139350761Y-90273142D01*
D15*
X136836263Y-90347780D02*
X136798153Y-90271560D01*
X136721933Y-90195340D01*
X136607604Y-90081011D01*
X136569494Y-90004791D01*
X136569494Y-89928571D01*
X136760043Y-89966681D02*
X136721933Y-89890462D01*
X136645714Y-89814242D01*
X136493274Y-89776132D01*
X136226505Y-89776132D01*
X136074066Y-89814242D01*
X135997846Y-89890462D01*
X135959736Y-89966681D01*
X135959736Y-90119121D01*
X135997846Y-90195340D01*
X136074066Y-90271560D01*
X136226505Y-90309670D01*
X136493274Y-90309670D01*
X136645714Y-90271560D01*
X136721933Y-90195340D01*
X136760043Y-90119121D01*
X136760043Y-89966681D01*
X136760043Y-91071867D02*
X136760043Y-90614549D01*
X136760043Y-90843208D02*
X135959736Y-90843208D01*
X136074066Y-90766988D01*
X136150285Y-90690769D01*
X136188395Y-90614549D01*
X132542219Y-90531333D02*
X132542219Y-90364666D01*
X132877942Y-90364666D02*
X132237017Y-90364666D01*
X132237017Y-90602761D01*
X132877942Y-90793238D02*
X132237017Y-90793238D01*
X132237017Y-90912285D01*
X132267537Y-90983714D01*
X132328577Y-91031333D01*
X132389618Y-91055142D01*
X132511699Y-91078952D01*
X132603260Y-91078952D01*
X132725341Y-91055142D01*
X132786381Y-91031333D01*
X132847422Y-90983714D01*
X132877942Y-90912285D01*
X132877942Y-90793238D01*
X132877942Y-91293238D02*
X132237017Y-91293238D01*
X132877942Y-91578952D01*
X132237017Y-91578952D01*
X132237017Y-91769428D02*
X132237017Y-92078952D01*
X132481179Y-91912285D01*
X132481179Y-91983714D01*
X132511699Y-92031333D01*
X132542219Y-92055142D01*
X132603260Y-92078952D01*
X132755861Y-92078952D01*
X132816901Y-92055142D01*
X132847422Y-92031333D01*
X132877942Y-91983714D01*
X132877942Y-91840857D01*
X132847422Y-91793238D01*
X132816901Y-91769428D01*
X132237017Y-92245619D02*
X132237017Y-92555142D01*
X132481179Y-92388476D01*
X132481179Y-92459904D01*
X132511699Y-92507523D01*
X132542219Y-92531333D01*
X132603260Y-92555142D01*
X132755861Y-92555142D01*
X132816901Y-92531333D01*
X132847422Y-92507523D01*
X132877942Y-92459904D01*
X132877942Y-92317047D01*
X132847422Y-92269428D01*
X132816901Y-92245619D01*
X132237017Y-92721809D02*
X132237017Y-93055142D01*
X132877942Y-92840857D01*
X132877942Y-93245619D02*
X132237017Y-93245619D01*
X132877942Y-93531333D01*
X132237017Y-93531333D01*
X136836263Y-94157780D02*
X136798153Y-94081560D01*
X136721933Y-94005340D01*
X136607604Y-93891011D01*
X136569494Y-93814791D01*
X136569494Y-93738571D01*
X136760043Y-93776681D02*
X136721933Y-93700462D01*
X136645714Y-93624242D01*
X136493274Y-93586132D01*
X136226505Y-93586132D01*
X136074066Y-93624242D01*
X135997846Y-93700462D01*
X135959736Y-93776681D01*
X135959736Y-93929121D01*
X135997846Y-94005340D01*
X136074066Y-94081560D01*
X136226505Y-94119670D01*
X136493274Y-94119670D01*
X136645714Y-94081560D01*
X136721933Y-94005340D01*
X136760043Y-93929121D01*
X136760043Y-93776681D01*
X136035956Y-94424549D02*
X135997846Y-94462659D01*
X135959736Y-94538878D01*
X135959736Y-94729428D01*
X135997846Y-94805647D01*
X136035956Y-94843757D01*
X136112176Y-94881867D01*
X136188395Y-94881867D01*
X136302725Y-94843757D01*
X136760043Y-94386439D01*
X136760043Y-94881867D01*
X132552285Y-94595333D02*
X132552285Y-94428666D01*
X132814190Y-94428666D02*
X132314190Y-94428666D01*
X132314190Y-94666761D01*
X132814190Y-94857238D02*
X132314190Y-94857238D01*
X132314190Y-94976285D01*
X132338000Y-95047714D01*
X132385619Y-95095333D01*
X132433238Y-95119142D01*
X132528476Y-95142952D01*
X132599904Y-95142952D01*
X132695142Y-95119142D01*
X132742761Y-95095333D01*
X132790380Y-95047714D01*
X132814190Y-94976285D01*
X132814190Y-94857238D01*
X132814190Y-95357238D02*
X132314190Y-95357238D01*
X132814190Y-95642952D01*
X132314190Y-95642952D01*
X132314190Y-95833428D02*
X132314190Y-96142952D01*
X132504666Y-95976285D01*
X132504666Y-96047714D01*
X132528476Y-96095333D01*
X132552285Y-96119142D01*
X132599904Y-96142952D01*
X132718952Y-96142952D01*
X132766571Y-96119142D01*
X132790380Y-96095333D01*
X132814190Y-96047714D01*
X132814190Y-95904857D01*
X132790380Y-95857238D01*
X132766571Y-95833428D01*
X132314190Y-96309619D02*
X132314190Y-96619142D01*
X132504666Y-96452476D01*
X132504666Y-96523904D01*
X132528476Y-96571523D01*
X132552285Y-96595333D01*
X132599904Y-96619142D01*
X132718952Y-96619142D01*
X132766571Y-96595333D01*
X132790380Y-96571523D01*
X132814190Y-96523904D01*
X132814190Y-96381047D01*
X132790380Y-96333428D01*
X132766571Y-96309619D01*
X132314190Y-96785809D02*
X132314190Y-97119142D01*
X132814190Y-96904857D01*
X132814190Y-97309619D02*
X132314190Y-97309619D01*
X132814190Y-97595333D01*
X132314190Y-97595333D01*
X136836263Y-98221780D02*
X136798153Y-98145560D01*
X136721933Y-98069340D01*
X136607604Y-97955011D01*
X136569494Y-97878791D01*
X136569494Y-97802571D01*
X136760043Y-97840681D02*
X136721933Y-97764462D01*
X136645714Y-97688242D01*
X136493274Y-97650132D01*
X136226505Y-97650132D01*
X136074066Y-97688242D01*
X135997846Y-97764462D01*
X135959736Y-97840681D01*
X135959736Y-97993121D01*
X135997846Y-98069340D01*
X136074066Y-98145560D01*
X136226505Y-98183670D01*
X136493274Y-98183670D01*
X136645714Y-98145560D01*
X136721933Y-98069340D01*
X136760043Y-97993121D01*
X136760043Y-97840681D01*
X135959736Y-98450439D02*
X135959736Y-98945867D01*
X136264615Y-98679098D01*
X136264615Y-98793428D01*
X136302725Y-98869647D01*
X136340835Y-98907757D01*
X136417054Y-98945867D01*
X136607604Y-98945867D01*
X136683823Y-98907757D01*
X136721933Y-98869647D01*
X136760043Y-98793428D01*
X136760043Y-98564769D01*
X136721933Y-98488549D01*
X136683823Y-98450439D01*
X132552285Y-98405333D02*
X132552285Y-98238666D01*
X132814190Y-98238666D02*
X132314190Y-98238666D01*
X132314190Y-98476761D01*
X132814190Y-98667238D02*
X132314190Y-98667238D01*
X132314190Y-98786285D01*
X132338000Y-98857714D01*
X132385619Y-98905333D01*
X132433238Y-98929142D01*
X132528476Y-98952952D01*
X132599904Y-98952952D01*
X132695142Y-98929142D01*
X132742761Y-98905333D01*
X132790380Y-98857714D01*
X132814190Y-98786285D01*
X132814190Y-98667238D01*
X132814190Y-99167238D02*
X132314190Y-99167238D01*
X132814190Y-99452952D01*
X132314190Y-99452952D01*
X132314190Y-99643428D02*
X132314190Y-99952952D01*
X132504666Y-99786285D01*
X132504666Y-99857714D01*
X132528476Y-99905333D01*
X132552285Y-99929142D01*
X132599904Y-99952952D01*
X132718952Y-99952952D01*
X132766571Y-99929142D01*
X132790380Y-99905333D01*
X132814190Y-99857714D01*
X132814190Y-99714857D01*
X132790380Y-99667238D01*
X132766571Y-99643428D01*
X132314190Y-100119619D02*
X132314190Y-100429142D01*
X132504666Y-100262476D01*
X132504666Y-100333904D01*
X132528476Y-100381523D01*
X132552285Y-100405333D01*
X132599904Y-100429142D01*
X132718952Y-100429142D01*
X132766571Y-100405333D01*
X132790380Y-100381523D01*
X132814190Y-100333904D01*
X132814190Y-100191047D01*
X132790380Y-100143428D01*
X132766571Y-100119619D01*
X132314190Y-100595809D02*
X132314190Y-100929142D01*
X132814190Y-100714857D01*
X132814190Y-101119619D02*
X132314190Y-101119619D01*
X132814190Y-101405333D01*
X132314190Y-101405333D01*
X137090263Y-102285780D02*
X137052153Y-102209560D01*
X136975933Y-102133340D01*
X136861604Y-102019011D01*
X136823494Y-101942791D01*
X136823494Y-101866571D01*
X137014043Y-101904681D02*
X136975933Y-101828462D01*
X136899714Y-101752242D01*
X136747274Y-101714132D01*
X136480505Y-101714132D01*
X136328066Y-101752242D01*
X136251846Y-101828462D01*
X136213736Y-101904681D01*
X136213736Y-102057121D01*
X136251846Y-102133340D01*
X136328066Y-102209560D01*
X136480505Y-102247670D01*
X136747274Y-102247670D01*
X136899714Y-102209560D01*
X136975933Y-102133340D01*
X137014043Y-102057121D01*
X137014043Y-101904681D01*
X136480505Y-102933647D02*
X137014043Y-102933647D01*
X136175626Y-102743098D02*
X136747274Y-102552549D01*
X136747274Y-103047977D01*
X132552285Y-102469333D02*
X132552285Y-102302666D01*
X132814190Y-102302666D02*
X132314190Y-102302666D01*
X132314190Y-102540761D01*
X132814190Y-102731238D02*
X132314190Y-102731238D01*
X132314190Y-102850285D01*
X132338000Y-102921714D01*
X132385619Y-102969333D01*
X132433238Y-102993142D01*
X132528476Y-103016952D01*
X132599904Y-103016952D01*
X132695142Y-102993142D01*
X132742761Y-102969333D01*
X132790380Y-102921714D01*
X132814190Y-102850285D01*
X132814190Y-102731238D01*
X132814190Y-103231238D02*
X132314190Y-103231238D01*
X132814190Y-103516952D01*
X132314190Y-103516952D01*
X132314190Y-103707428D02*
X132314190Y-104016952D01*
X132504666Y-103850285D01*
X132504666Y-103921714D01*
X132528476Y-103969333D01*
X132552285Y-103993142D01*
X132599904Y-104016952D01*
X132718952Y-104016952D01*
X132766571Y-103993142D01*
X132790380Y-103969333D01*
X132814190Y-103921714D01*
X132814190Y-103778857D01*
X132790380Y-103731238D01*
X132766571Y-103707428D01*
X132314190Y-104183619D02*
X132314190Y-104493142D01*
X132504666Y-104326476D01*
X132504666Y-104397904D01*
X132528476Y-104445523D01*
X132552285Y-104469333D01*
X132599904Y-104493142D01*
X132718952Y-104493142D01*
X132766571Y-104469333D01*
X132790380Y-104445523D01*
X132814190Y-104397904D01*
X132814190Y-104255047D01*
X132790380Y-104207428D01*
X132766571Y-104183619D01*
X132314190Y-104659809D02*
X132314190Y-104993142D01*
X132814190Y-104778857D01*
X132814190Y-105183619D02*
X132314190Y-105183619D01*
X132814190Y-105469333D01*
X132314190Y-105469333D01*
D14*
X131262380Y-94829333D02*
X130786190Y-94496000D01*
X131262380Y-94257904D02*
X130262380Y-94257904D01*
X130262380Y-94638857D01*
X130310000Y-94734095D01*
X130357619Y-94781714D01*
X130452857Y-94829333D01*
X130595714Y-94829333D01*
X130690952Y-94781714D01*
X130738571Y-94734095D01*
X130786190Y-94638857D01*
X130786190Y-94257904D01*
X130262380Y-95162666D02*
X130262380Y-95781714D01*
X130643333Y-95448380D01*
X130643333Y-95591238D01*
X130690952Y-95686476D01*
X130738571Y-95734095D01*
X130833809Y-95781714D01*
X131071904Y-95781714D01*
X131167142Y-95734095D01*
X131214761Y-95686476D01*
X131262380Y-95591238D01*
X131262380Y-95305523D01*
X131214761Y-95210285D01*
X131167142Y-95162666D01*
X127960380Y-104735333D02*
X127484190Y-104402000D01*
X127960380Y-104163904D02*
X126960380Y-104163904D01*
X126960380Y-104544857D01*
X127008000Y-104640095D01*
X127055619Y-104687714D01*
X127150857Y-104735333D01*
X127293714Y-104735333D01*
X127388952Y-104687714D01*
X127436571Y-104640095D01*
X127484190Y-104544857D01*
X127484190Y-104163904D01*
X126960380Y-105592476D02*
X126960380Y-105402000D01*
X127008000Y-105306761D01*
X127055619Y-105259142D01*
X127198476Y-105163904D01*
X127388952Y-105116285D01*
X127769904Y-105116285D01*
X127865142Y-105163904D01*
X127912761Y-105211523D01*
X127960380Y-105306761D01*
X127960380Y-105497238D01*
X127912761Y-105592476D01*
X127865142Y-105640095D01*
X127769904Y-105687714D01*
X127531809Y-105687714D01*
X127436571Y-105640095D01*
X127388952Y-105592476D01*
X127341333Y-105497238D01*
X127341333Y-105306761D01*
X127388952Y-105211523D01*
X127436571Y-105163904D01*
X127531809Y-105116285D01*
X127960380Y-94829333D02*
X127484190Y-94496000D01*
X127960380Y-94257904D02*
X126960380Y-94257904D01*
X126960380Y-94638857D01*
X127008000Y-94734095D01*
X127055619Y-94781714D01*
X127150857Y-94829333D01*
X127293714Y-94829333D01*
X127388952Y-94781714D01*
X127436571Y-94734095D01*
X127484190Y-94638857D01*
X127484190Y-94257904D01*
X127293714Y-95686476D02*
X127960380Y-95686476D01*
X126912761Y-95448380D02*
X127627047Y-95210285D01*
X127627047Y-95829333D01*
X131262380Y-104735333D02*
X130786190Y-104402000D01*
X131262380Y-104163904D02*
X130262380Y-104163904D01*
X130262380Y-104544857D01*
X130310000Y-104640095D01*
X130357619Y-104687714D01*
X130452857Y-104735333D01*
X130595714Y-104735333D01*
X130690952Y-104687714D01*
X130738571Y-104640095D01*
X130786190Y-104544857D01*
X130786190Y-104163904D01*
X130262380Y-105640095D02*
X130262380Y-105163904D01*
X130738571Y-105116285D01*
X130690952Y-105163904D01*
X130643333Y-105259142D01*
X130643333Y-105497238D01*
X130690952Y-105592476D01*
X130738571Y-105640095D01*
X130833809Y-105687714D01*
X131071904Y-105687714D01*
X131167142Y-105640095D01*
X131214761Y-105592476D01*
X131262380Y-105497238D01*
X131262380Y-105259142D01*
X131214761Y-105163904D01*
X131167142Y-105116285D01*
M02*
